<svg preserveAspectRatio="none" xmlns="http://www.w3.org/2000/svg" width="2100" height="138" fill="none" viewBox="0 0 2100 138">
  <path fill="#1A171B" fill-rule="evenodd" d="M-355.252 112.438l92.018-16.92c92.019-16.921 276.055-50.763 460.092-67.683 184.036-16.921 368.073-16.921 552.109-4.23 184.037 12.69 368.073 38.071 552.113 54.992 184.03 16.92 368.07 25.381 552.11 21.15 184.03-4.23 368.07-21.15 460.09-29.61l92.02-8.46v76.143H-355.252v-25.382z" clip-rule="evenodd" opacity=".5"/>
  <path fill="#1A171B" fill-rule="evenodd" d="M-63.986 87.967L18.713 72.76C101.412 57.553 266.81 27.14 432.208 11.932 597.606-3.276 763.005-3.276 928.403 8.13 1093.8 19.535 1259.2 42.346 1424.6 57.553c165.4 15.207 330.79 22.81 496.19 19.009 165.4-3.802 330.8-19.01 413.5-26.613l82.7-7.603v68.432H-63.987v-22.81z" clip-rule="evenodd" opacity=".5"/>
  <path fill="#1A171B" fill-rule="evenodd" d="M-76.73 116.301l72.413-13.316c72.413-13.316 217.24-39.947 362.067-53.263 144.827-13.316 289.654-13.316 434.481-3.33C937.058 56.38 1081.89 76.354 1226.71 89.67c144.83 13.316 289.66 19.974 434.48 16.645 144.83-3.329 289.66-16.645 362.07-23.303l72.41-6.658v59.921H-76.73v-19.973z" clip-rule="evenodd"/>
</svg>
