<svg width="306" height="73" viewBox="0 0 306 73" fill="none" xmlns="http://www.w3.org/2000/svg">
<path d="M71.1023 52.0648C72.4215 52.8602 72.8542 54.5812 71.9667 55.8403C69.2072 59.7552 65.746 63.1359 61.7508 65.8066C56.9813 68.9949 51.5678 71.0931 45.8954 71.952C40.223 72.8109 34.431 72.4093 28.9314 70.7759C23.4318 69.1424 18.3596 66.3172 14.0757 62.5012C9.79179 58.6852 6.40133 53.9722 4.14547 48.6972C1.8896 43.4223 0.823755 37.7151 1.02373 31.9815C1.2237 26.2479 2.68459 20.6289 5.30248 15.5239C7.49536 11.2477 10.4549 7.42031 14.0261 4.2283C15.1746 3.20171 16.934 3.43337 17.876 4.65224L18.7519 5.78564C19.6939 7.00451 19.4599 8.74771 18.3276 9.79213C15.5631 12.3419 13.2637 15.3637 11.5409 18.7231C9.39307 22.9115 8.19447 27.5217 8.0304 32.2259C7.86633 36.9301 8.74082 41.6126 10.5917 45.9405C12.4425 50.2683 15.2242 54.1352 18.739 57.2661C22.2538 60.397 26.4153 62.7149 30.9275 64.0551C35.4397 65.3953 40.1918 65.7247 44.8458 65.0201C49.4998 64.3154 53.9413 62.5939 57.8545 59.978C60.9932 57.8799 63.7301 55.2478 65.9446 52.2081C66.8517 50.963 68.5563 50.5298 69.8755 51.3252L71.1023 52.0648Z" fill="#001C4C"/>
<path d="M52.346 17.4196C54.4315 17.9784 56.0605 19.6074 56.6193 21.6929L60.4681 36.057C61.027 38.1425 60.4307 40.3678 58.904 41.8945L48.3888 52.4097C46.8621 53.9364 44.6368 54.5327 42.5513 53.9739L28.1872 50.125C26.1017 49.5662 24.4727 47.9372 23.9139 45.8517L20.0651 31.4876C19.5063 29.4021 20.1025 27.1769 21.6292 25.6502L32.1444 15.1349C33.6712 13.6082 35.8964 13.012 37.9819 13.5708L52.346 17.4196Z" fill="white"/>
<path d="M64.18 5.58564C66.2655 6.14445 67.8945 7.77343 68.4533 9.85894L72.3021 24.223C72.8609 26.3086 72.2647 28.5338 70.738 30.0605L60.2227 40.5757C58.696 42.1024 56.4708 42.6987 54.3853 42.1399L40.0212 38.291C37.9357 37.7322 36.3067 36.1032 35.7479 34.0177L31.8991 19.6536C31.3402 17.5681 31.9365 15.3429 33.4632 13.8162L43.9784 3.30093C45.5051 1.77423 47.7304 1.17798 49.8159 1.73679L64.18 5.58564Z" fill="#7BC3E2" fill-opacity="0.69"/>
<path d="M89.32 30.064C89.824 30.064 90.238 30.016 90.562 29.92C90.898 29.812 91.138 29.71 91.282 29.614V27.004L89.05 27.238C88.426 27.298 87.964 27.442 87.664 27.67C87.364 27.886 87.214 28.21 87.214 28.642C87.214 29.098 87.388 29.452 87.736 29.704C88.084 29.944 88.612 30.064 89.32 30.064ZM89.302 22.45C90.346 22.45 91.174 22.684 91.786 23.152C92.398 23.62 92.704 24.358 92.704 25.366V29.632C92.704 29.896 92.65 30.1 92.542 30.244C92.446 30.376 92.296 30.502 92.092 30.622C91.804 30.79 91.42 30.934 90.94 31.054C90.472 31.186 89.932 31.252 89.32 31.252C88.192 31.252 87.316 31.03 86.692 30.586C86.08 30.142 85.774 29.5 85.774 28.66C85.774 27.868 86.032 27.274 86.548 26.878C87.064 26.47 87.79 26.218 88.726 26.122L91.282 25.87V25.366C91.282 24.766 91.102 24.328 90.742 24.052C90.382 23.776 89.896 23.638 89.284 23.638C88.78 23.638 88.306 23.71 87.862 23.854C87.418 23.998 87.022 24.16 86.674 24.34C86.578 24.256 86.488 24.16 86.404 24.052C86.332 23.944 86.296 23.824 86.296 23.692C86.296 23.524 86.338 23.386 86.422 23.278C86.506 23.17 86.638 23.068 86.818 22.972C87.142 22.804 87.514 22.678 87.934 22.594C88.354 22.498 88.81 22.45 89.302 22.45ZM102.1 28.786C102.1 29.554 101.818 30.154 101.254 30.586C100.69 31.018 99.8744 31.234 98.8064 31.234C98.3504 31.234 97.9304 31.192 97.5464 31.108C97.1624 31.036 96.8324 30.94 96.5564 30.82C96.2924 30.688 96.0824 30.544 95.9264 30.388C95.7824 30.22 95.7104 30.052 95.7104 29.884C95.7104 29.74 95.7464 29.602 95.8184 29.47C95.9024 29.338 96.0224 29.224 96.1784 29.128C96.5024 29.368 96.8804 29.584 97.3124 29.776C97.7444 29.956 98.2364 30.046 98.7884 30.046C100.036 30.046 100.66 29.626 100.66 28.786C100.66 28.102 100.246 27.658 99.4184 27.454L97.9244 27.058C97.1924 26.866 96.6584 26.59 96.3224 26.23C95.9864 25.858 95.8184 25.384 95.8184 24.808C95.8184 24.496 95.8784 24.196 95.9984 23.908C96.1304 23.62 96.3284 23.368 96.5924 23.152C96.8564 22.936 97.1804 22.768 97.5644 22.648C97.9604 22.516 98.4224 22.45 98.9504 22.45C99.7904 22.45 100.468 22.576 100.984 22.828C101.5 23.068 101.758 23.35 101.758 23.674C101.758 23.83 101.716 23.968 101.632 24.088C101.56 24.208 101.458 24.298 101.326 24.358C101.11 24.214 100.804 24.058 100.408 23.89C100.012 23.722 99.5444 23.638 99.0044 23.638C98.4644 23.638 98.0324 23.74 97.7084 23.944C97.3964 24.148 97.2404 24.436 97.2404 24.808C97.2404 25.084 97.3304 25.318 97.5104 25.51C97.6904 25.702 97.9904 25.846 98.4104 25.942L99.6524 26.248C100.468 26.452 101.08 26.758 101.488 27.166C101.896 27.562 102.1 28.102 102.1 28.786ZM111.051 28.786C111.051 29.554 110.769 30.154 110.205 30.586C109.641 31.018 108.825 31.234 107.757 31.234C107.301 31.234 106.881 31.192 106.497 31.108C106.113 31.036 105.783 30.94 105.507 30.82C105.243 30.688 105.033 30.544 104.877 30.388C104.733 30.22 104.661 30.052 104.661 29.884C104.661 29.74 104.697 29.602 104.769 29.47C104.853 29.338 104.973 29.224 105.129 29.128C105.453 29.368 105.831 29.584 106.263 29.776C106.695 29.956 107.187 30.046 107.739 30.046C108.987 30.046 109.611 29.626 109.611 28.786C109.611 28.102 109.197 27.658 108.369 27.454L106.875 27.058C106.143 26.866 105.609 26.59 105.273 26.23C104.937 25.858 104.769 25.384 104.769 24.808C104.769 24.496 104.829 24.196 104.949 23.908C105.081 23.62 105.279 23.368 105.543 23.152C105.807 22.936 106.131 22.768 106.515 22.648C106.911 22.516 107.373 22.45 107.901 22.45C108.741 22.45 109.419 22.576 109.935 22.828C110.451 23.068 110.709 23.35 110.709 23.674C110.709 23.83 110.667 23.968 110.583 24.088C110.511 24.208 110.409 24.298 110.277 24.358C110.061 24.214 109.755 24.058 109.359 23.89C108.963 23.722 108.495 23.638 107.955 23.638C107.415 23.638 106.983 23.74 106.659 23.944C106.347 24.148 106.191 24.436 106.191 24.808C106.191 25.084 106.281 25.318 106.461 25.51C106.641 25.702 106.941 25.846 107.361 25.942L108.603 26.248C109.419 26.452 110.031 26.758 110.439 27.166C110.847 27.562 111.051 28.102 111.051 28.786ZM115.248 27.688C115.572 29.26 116.604 30.046 118.344 30.046C118.848 30.046 119.304 29.962 119.712 29.794C120.12 29.626 120.444 29.446 120.684 29.254C120.972 29.422 121.116 29.65 121.116 29.938C121.116 30.106 121.038 30.268 120.882 30.424C120.738 30.58 120.534 30.718 120.27 30.838C120.018 30.958 119.718 31.054 119.37 31.126C119.034 31.198 118.668 31.234 118.272 31.234C116.88 31.234 115.776 30.856 114.96 30.1C114.156 29.344 113.754 28.24 113.754 26.788C113.754 26.104 113.85 25.498 114.042 24.97C114.246 24.43 114.522 23.974 114.87 23.602C115.23 23.23 115.656 22.948 116.148 22.756C116.64 22.552 117.174 22.45 117.75 22.45C118.29 22.45 118.788 22.54 119.244 22.72C119.7 22.9 120.09 23.158 120.414 23.494C120.75 23.818 121.008 24.208 121.188 24.664C121.38 25.108 121.476 25.6 121.476 26.14C121.476 26.404 121.416 26.596 121.296 26.716C121.176 26.824 121.008 26.89 120.792 26.914L115.248 27.688ZM117.732 23.62C117 23.62 116.394 23.878 115.914 24.394C115.434 24.898 115.182 25.624 115.158 26.572L120.108 25.888C120.048 25.228 119.814 24.688 119.406 24.268C119.01 23.836 118.452 23.62 117.732 23.62ZM127.3 31.234C126.46 31.234 125.776 31.048 125.248 30.676C124.732 30.304 124.474 29.686 124.474 28.822V20.272C124.534 20.248 124.624 20.224 124.744 20.2C124.876 20.164 125.014 20.146 125.158 20.146C125.662 20.146 125.914 20.362 125.914 20.794V22.864H128.866C128.902 22.924 128.938 23.008 128.974 23.116C129.01 23.212 129.028 23.32 129.028 23.44C129.028 23.848 128.848 24.052 128.488 24.052H125.914V28.732C125.914 29.212 126.046 29.554 126.31 29.758C126.586 29.95 126.97 30.046 127.462 30.046C127.666 30.046 127.894 30.01 128.146 29.938C128.398 29.866 128.608 29.782 128.776 29.686C128.848 29.758 128.914 29.848 128.974 29.956C129.034 30.064 129.064 30.19 129.064 30.334C129.064 30.598 128.908 30.814 128.596 30.982C128.284 31.15 127.852 31.234 127.3 31.234ZM139.527 30.064C140.031 30.064 140.445 30.016 140.769 29.92C141.105 29.812 141.345 29.71 141.489 29.614V27.004L139.257 27.238C138.633 27.298 138.171 27.442 137.871 27.67C137.571 27.886 137.421 28.21 137.421 28.642C137.421 29.098 137.595 29.452 137.943 29.704C138.291 29.944 138.819 30.064 139.527 30.064ZM139.509 22.45C140.553 22.45 141.381 22.684 141.993 23.152C142.605 23.62 142.911 24.358 142.911 25.366V29.632C142.911 29.896 142.857 30.1 142.749 30.244C142.653 30.376 142.503 30.502 142.299 30.622C142.011 30.79 141.627 30.934 141.147 31.054C140.679 31.186 140.139 31.252 139.527 31.252C138.399 31.252 137.523 31.03 136.899 30.586C136.287 30.142 135.981 29.5 135.981 28.66C135.981 27.868 136.239 27.274 136.755 26.878C137.271 26.47 137.997 26.218 138.933 26.122L141.489 25.87V25.366C141.489 24.766 141.309 24.328 140.949 24.052C140.589 23.776 140.103 23.638 139.491 23.638C138.987 23.638 138.513 23.71 138.069 23.854C137.625 23.998 137.229 24.16 136.881 24.34C136.785 24.256 136.695 24.16 136.611 24.052C136.539 23.944 136.503 23.824 136.503 23.692C136.503 23.524 136.545 23.386 136.629 23.278C136.713 23.17 136.845 23.068 137.025 22.972C137.349 22.804 137.721 22.678 138.141 22.594C138.561 22.498 139.017 22.45 139.509 22.45ZM153.549 29.632C153.549 29.872 153.495 30.058 153.387 30.19C153.291 30.322 153.135 30.454 152.919 30.586C152.679 30.742 152.337 30.886 151.893 31.018C151.449 31.162 150.939 31.234 150.363 31.234C149.715 31.234 149.121 31.15 148.581 30.982C148.041 30.814 147.573 30.556 147.177 30.208C146.793 29.848 146.493 29.398 146.277 28.858C146.073 28.306 145.971 27.646 145.971 26.878C145.971 26.098 146.079 25.432 146.295 24.88C146.511 24.316 146.799 23.854 147.159 23.494C147.531 23.134 147.963 22.87 148.455 22.702C148.959 22.534 149.493 22.45 150.057 22.45C150.441 22.45 150.813 22.498 151.173 22.594C151.533 22.69 151.845 22.81 152.109 22.954V19.336C152.169 19.312 152.259 19.288 152.379 19.264C152.511 19.228 152.643 19.21 152.775 19.21C153.291 19.21 153.549 19.426 153.549 19.858V29.632ZM152.109 24.25C151.869 24.082 151.593 23.938 151.281 23.818C150.969 23.698 150.609 23.638 150.201 23.638C149.829 23.638 149.475 23.698 149.139 23.818C148.815 23.926 148.527 24.112 148.275 24.376C148.023 24.628 147.819 24.964 147.663 25.384C147.519 25.804 147.447 26.314 147.447 26.914C147.447 28.018 147.711 28.816 148.239 29.308C148.767 29.8 149.469 30.046 150.345 30.046C150.765 30.046 151.107 30.004 151.371 29.92C151.647 29.824 151.893 29.71 152.109 29.578V24.25ZM167.731 25.348C167.731 24.76 167.563 24.328 167.227 24.052C166.891 23.776 166.441 23.638 165.877 23.638C165.097 23.638 164.401 23.914 163.789 24.466C163.861 24.706 163.897 24.964 163.897 25.24V30.964C163.837 30.988 163.741 31.012 163.609 31.036C163.489 31.072 163.363 31.09 163.231 31.09C162.715 31.09 162.457 30.874 162.457 30.442V25.348C162.457 24.76 162.289 24.328 161.953 24.052C161.617 23.776 161.161 23.638 160.585 23.638C160.201 23.638 159.835 23.698 159.487 23.818C159.151 23.938 158.863 24.076 158.623 24.232V30.964C158.563 30.988 158.473 31.012 158.353 31.036C158.233 31.072 158.101 31.09 157.957 31.09C157.441 31.09 157.183 30.874 157.183 30.442V24.304C157.183 24.064 157.231 23.866 157.327 23.71C157.435 23.542 157.615 23.374 157.867 23.206C158.191 23.002 158.599 22.828 159.091 22.684C159.595 22.528 160.099 22.45 160.603 22.45C161.191 22.45 161.713 22.54 162.169 22.72C162.625 22.888 162.973 23.122 163.213 23.422C163.525 23.146 163.915 22.918 164.383 22.738C164.851 22.546 165.385 22.45 165.985 22.45C166.957 22.45 167.731 22.684 168.307 23.152C168.883 23.608 169.171 24.316 169.171 25.276V30.964C169.111 30.988 169.015 31.012 168.883 31.036C168.763 31.072 168.637 31.09 168.505 31.09C167.989 31.09 167.731 30.874 167.731 30.442V25.348ZM174.308 30.964C174.248 30.988 174.158 31.012 174.038 31.036C173.918 31.072 173.786 31.09 173.642 31.09C173.126 31.09 172.868 30.874 172.868 30.442V22.72C172.928 22.696 173.018 22.672 173.138 22.648C173.27 22.612 173.408 22.594 173.552 22.594C174.056 22.594 174.308 22.816 174.308 23.26V30.964ZM172.652 20.056C172.652 19.804 172.736 19.594 172.904 19.426C173.084 19.246 173.312 19.156 173.588 19.156C173.864 19.156 174.086 19.246 174.254 19.426C174.422 19.594 174.506 19.804 174.506 20.056C174.506 20.308 174.422 20.524 174.254 20.704C174.086 20.872 173.864 20.956 173.588 20.956C173.312 20.956 173.084 20.872 172.904 20.704C172.736 20.524 172.652 20.308 172.652 20.056ZM183.78 25.582C183.78 24.91 183.588 24.418 183.204 24.106C182.832 23.794 182.328 23.638 181.692 23.638C181.212 23.638 180.786 23.698 180.414 23.818C180.042 23.938 179.724 24.076 179.46 24.232V30.964C179.4 30.988 179.31 31.012 179.19 31.036C179.07 31.072 178.938 31.09 178.794 31.09C178.278 31.09 178.02 30.874 178.02 30.442V24.304C178.02 24.052 178.068 23.848 178.164 23.692C178.272 23.524 178.452 23.362 178.704 23.206C179.016 23.014 179.43 22.84 179.946 22.684C180.462 22.528 181.044 22.45 181.692 22.45C182.784 22.45 183.642 22.696 184.266 23.188C184.902 23.68 185.22 24.454 185.22 25.51V30.964C185.16 30.988 185.064 31.012 184.932 31.036C184.812 31.072 184.686 31.09 184.554 31.09C184.038 31.09 183.78 30.874 183.78 30.442V25.582ZM190.346 30.964C190.286 30.988 190.196 31.012 190.076 31.036C189.956 31.072 189.824 31.09 189.68 31.09C189.164 31.09 188.906 30.874 188.906 30.442V22.72C188.966 22.696 189.056 22.672 189.176 22.648C189.308 22.612 189.446 22.594 189.59 22.594C190.094 22.594 190.346 22.816 190.346 23.26V30.964ZM188.69 20.056C188.69 19.804 188.774 19.594 188.942 19.426C189.122 19.246 189.35 19.156 189.626 19.156C189.902 19.156 190.124 19.246 190.292 19.426C190.46 19.594 190.544 19.804 190.544 20.056C190.544 20.308 190.46 20.524 190.292 20.704C190.124 20.872 189.902 20.956 189.626 20.956C189.35 20.956 189.122 20.872 188.942 20.704C188.774 20.524 188.69 20.308 188.69 20.056ZM199.926 28.786C199.926 29.554 199.644 30.154 199.08 30.586C198.516 31.018 197.7 31.234 196.632 31.234C196.176 31.234 195.756 31.192 195.372 31.108C194.988 31.036 194.658 30.94 194.382 30.82C194.118 30.688 193.908 30.544 193.752 30.388C193.608 30.22 193.536 30.052 193.536 29.884C193.536 29.74 193.572 29.602 193.644 29.47C193.728 29.338 193.848 29.224 194.004 29.128C194.328 29.368 194.706 29.584 195.138 29.776C195.57 29.956 196.062 30.046 196.614 30.046C197.862 30.046 198.486 29.626 198.486 28.786C198.486 28.102 198.072 27.658 197.244 27.454L195.75 27.058C195.018 26.866 194.484 26.59 194.148 26.23C193.812 25.858 193.644 25.384 193.644 24.808C193.644 24.496 193.704 24.196 193.824 23.908C193.956 23.62 194.154 23.368 194.418 23.152C194.682 22.936 195.006 22.768 195.39 22.648C195.786 22.516 196.248 22.45 196.776 22.45C197.616 22.45 198.294 22.576 198.81 22.828C199.326 23.068 199.584 23.35 199.584 23.674C199.584 23.83 199.542 23.968 199.458 24.088C199.386 24.208 199.284 24.298 199.152 24.358C198.936 24.214 198.63 24.058 198.234 23.89C197.838 23.722 197.37 23.638 196.83 23.638C196.29 23.638 195.858 23.74 195.534 23.944C195.222 24.148 195.066 24.436 195.066 24.808C195.066 25.084 195.156 25.318 195.336 25.51C195.516 25.702 195.816 25.846 196.236 25.942L197.478 26.248C198.294 26.452 198.906 26.758 199.314 27.166C199.722 27.562 199.926 28.102 199.926 28.786ZM205.853 31.234C205.013 31.234 204.329 31.048 203.801 30.676C203.285 30.304 203.027 29.686 203.027 28.822V20.272C203.087 20.248 203.177 20.224 203.297 20.2C203.429 20.164 203.567 20.146 203.711 20.146C204.215 20.146 204.467 20.362 204.467 20.794V22.864H207.419C207.455 22.924 207.491 23.008 207.527 23.116C207.563 23.212 207.581 23.32 207.581 23.44C207.581 23.848 207.401 24.052 207.041 24.052H204.467V28.732C204.467 29.212 204.599 29.554 204.863 29.758C205.139 29.95 205.523 30.046 206.015 30.046C206.219 30.046 206.447 30.01 206.699 29.938C206.951 29.866 207.161 29.782 207.329 29.686C207.401 29.758 207.467 29.848 207.527 29.956C207.587 30.064 207.617 30.19 207.617 30.334C207.617 30.598 207.461 30.814 207.149 30.982C206.837 31.15 206.405 31.234 205.853 31.234ZM212.046 30.964C211.986 30.988 211.896 31.012 211.776 31.036C211.656 31.072 211.524 31.09 211.38 31.09C210.864 31.09 210.606 30.874 210.606 30.442V24.34C210.606 24.064 210.654 23.848 210.75 23.692C210.858 23.524 211.032 23.362 211.272 23.206C211.584 23.002 212.004 22.828 212.532 22.684C213.072 22.528 213.678 22.45 214.35 22.45C215.31 22.45 215.79 22.69 215.79 23.17C215.79 23.29 215.772 23.404 215.736 23.512C215.7 23.608 215.652 23.692 215.592 23.764C215.472 23.74 215.316 23.716 215.124 23.692C214.932 23.668 214.74 23.656 214.548 23.656C213.996 23.656 213.51 23.716 213.09 23.836C212.67 23.944 212.322 24.076 212.046 24.232V30.964ZM221.261 30.064C221.765 30.064 222.179 30.016 222.503 29.92C222.839 29.812 223.079 29.71 223.223 29.614V27.004L220.991 27.238C220.367 27.298 219.905 27.442 219.605 27.67C219.305 27.886 219.155 28.21 219.155 28.642C219.155 29.098 219.329 29.452 219.677 29.704C220.025 29.944 220.553 30.064 221.261 30.064ZM221.243 22.45C222.287 22.45 223.115 22.684 223.727 23.152C224.339 23.62 224.645 24.358 224.645 25.366V29.632C224.645 29.896 224.591 30.1 224.483 30.244C224.387 30.376 224.237 30.502 224.033 30.622C223.745 30.79 223.361 30.934 222.881 31.054C222.413 31.186 221.873 31.252 221.261 31.252C220.133 31.252 219.257 31.03 218.633 30.586C218.021 30.142 217.715 29.5 217.715 28.66C217.715 27.868 217.973 27.274 218.489 26.878C219.005 26.47 219.731 26.218 220.667 26.122L223.223 25.87V25.366C223.223 24.766 223.043 24.328 222.683 24.052C222.323 23.776 221.837 23.638 221.225 23.638C220.721 23.638 220.247 23.71 219.803 23.854C219.359 23.998 218.963 24.16 218.615 24.34C218.519 24.256 218.429 24.16 218.345 24.052C218.273 23.944 218.237 23.824 218.237 23.692C218.237 23.524 218.279 23.386 218.363 23.278C218.447 23.17 218.579 23.068 218.759 22.972C219.083 22.804 219.455 22.678 219.875 22.594C220.295 22.498 220.751 22.45 221.243 22.45ZM231.018 31.234C230.178 31.234 229.494 31.048 228.966 30.676C228.45 30.304 228.192 29.686 228.192 28.822V20.272C228.252 20.248 228.342 20.224 228.462 20.2C228.594 20.164 228.732 20.146 228.876 20.146C229.38 20.146 229.632 20.362 229.632 20.794V22.864H232.584C232.62 22.924 232.656 23.008 232.692 23.116C232.728 23.212 232.746 23.32 232.746 23.44C232.746 23.848 232.566 24.052 232.206 24.052H229.632V28.732C229.632 29.212 229.764 29.554 230.028 29.758C230.304 29.95 230.688 30.046 231.18 30.046C231.384 30.046 231.612 30.01 231.864 29.938C232.116 29.866 232.326 29.782 232.494 29.686C232.566 29.758 232.632 29.848 232.692 29.956C232.752 30.064 232.782 30.19 232.782 30.334C232.782 30.598 232.626 30.814 232.314 30.982C232.002 31.15 231.57 31.234 231.018 31.234ZM237.301 30.964C237.241 30.988 237.151 31.012 237.031 31.036C236.911 31.072 236.779 31.09 236.635 31.09C236.119 31.09 235.861 30.874 235.861 30.442V22.72C235.921 22.696 236.011 22.672 236.131 22.648C236.263 22.612 236.401 22.594 236.545 22.594C237.049 22.594 237.301 22.816 237.301 23.26V30.964ZM235.645 20.056C235.645 19.804 235.729 19.594 235.897 19.426C236.077 19.246 236.305 19.156 236.581 19.156C236.857 19.156 237.079 19.246 237.247 19.426C237.415 19.594 237.499 19.804 237.499 20.056C237.499 20.308 237.415 20.524 237.247 20.704C237.079 20.872 236.857 20.956 236.581 20.956C236.305 20.956 236.077 20.872 235.897 20.704C235.729 20.524 235.645 20.308 235.645 20.056ZM248.735 26.842C248.735 27.514 248.639 28.12 248.447 28.66C248.255 29.2 247.979 29.662 247.619 30.046C247.271 30.43 246.845 30.724 246.341 30.928C245.837 31.132 245.273 31.234 244.649 31.234C244.025 31.234 243.461 31.132 242.957 30.928C242.453 30.724 242.021 30.43 241.661 30.046C241.301 29.662 241.025 29.2 240.833 28.66C240.641 28.12 240.545 27.514 240.545 26.842C240.545 26.17 240.641 25.564 240.833 25.024C241.037 24.484 241.319 24.022 241.679 23.638C242.039 23.254 242.471 22.96 242.975 22.756C243.479 22.552 244.037 22.45 244.649 22.45C245.261 22.45 245.819 22.552 246.323 22.756C246.827 22.96 247.253 23.254 247.601 23.638C247.961 24.022 248.237 24.484 248.429 25.024C248.633 25.564 248.735 26.17 248.735 26.842ZM244.649 23.638C243.833 23.638 243.191 23.92 242.723 24.484C242.255 25.048 242.021 25.834 242.021 26.842C242.021 27.862 242.249 28.654 242.705 29.218C243.173 29.77 243.821 30.046 244.649 30.046C245.477 30.046 246.119 29.764 246.575 29.2C247.031 28.636 247.259 27.85 247.259 26.842C247.259 25.834 247.025 25.048 246.557 24.484C246.101 23.92 245.465 23.638 244.649 23.638ZM257.622 25.582C257.622 24.91 257.43 24.418 257.046 24.106C256.674 23.794 256.17 23.638 255.534 23.638C255.054 23.638 254.628 23.698 254.256 23.818C253.884 23.938 253.566 24.076 253.302 24.232V30.964C253.242 30.988 253.152 31.012 253.032 31.036C252.912 31.072 252.78 31.09 252.636 31.09C252.12 31.09 251.862 30.874 251.862 30.442V24.304C251.862 24.052 251.91 23.848 252.006 23.692C252.114 23.524 252.294 23.362 252.546 23.206C252.858 23.014 253.272 22.84 253.788 22.684C254.304 22.528 254.886 22.45 255.534 22.45C256.626 22.45 257.484 22.696 258.108 23.188C258.744 23.68 259.062 24.454 259.062 25.51V30.964C259.002 30.988 258.906 31.012 258.774 31.036C258.654 31.072 258.528 31.09 258.396 31.09C257.88 31.09 257.622 30.874 257.622 30.442V25.582ZM273.03 28.786C273.03 29.554 272.748 30.154 272.184 30.586C271.62 31.018 270.804 31.234 269.736 31.234C269.28 31.234 268.86 31.192 268.476 31.108C268.092 31.036 267.762 30.94 267.486 30.82C267.222 30.688 267.012 30.544 266.856 30.388C266.712 30.22 266.64 30.052 266.64 29.884C266.64 29.74 266.676 29.602 266.748 29.47C266.832 29.338 266.952 29.224 267.108 29.128C267.432 29.368 267.81 29.584 268.242 29.776C268.674 29.956 269.166 30.046 269.718 30.046C270.966 30.046 271.59 29.626 271.59 28.786C271.59 28.102 271.176 27.658 270.348 27.454L268.854 27.058C268.122 26.866 267.588 26.59 267.252 26.23C266.916 25.858 266.748 25.384 266.748 24.808C266.748 24.496 266.808 24.196 266.928 23.908C267.06 23.62 267.258 23.368 267.522 23.152C267.786 22.936 268.11 22.768 268.494 22.648C268.89 22.516 269.352 22.45 269.88 22.45C270.72 22.45 271.398 22.576 271.914 22.828C272.43 23.068 272.688 23.35 272.688 23.674C272.688 23.83 272.646 23.968 272.562 24.088C272.49 24.208 272.388 24.298 272.256 24.358C272.04 24.214 271.734 24.058 271.338 23.89C270.942 23.722 270.474 23.638 269.934 23.638C269.394 23.638 268.962 23.74 268.638 23.944C268.326 24.148 268.17 24.436 268.17 24.808C268.17 25.084 268.26 25.318 268.44 25.51C268.62 25.702 268.92 25.846 269.34 25.942L270.582 26.248C271.398 26.452 272.01 26.758 272.418 27.166C272.826 27.562 273.03 28.102 273.03 28.786ZM277.589 30.964C277.529 30.988 277.439 31.012 277.319 31.036C277.199 31.072 277.067 31.09 276.923 31.09C276.407 31.09 276.149 30.874 276.149 30.442V19.336C276.209 19.312 276.299 19.288 276.419 19.264C276.551 19.228 276.689 19.21 276.833 19.21C277.337 19.21 277.589 19.426 277.589 19.858V23.098C277.877 22.93 278.213 22.78 278.597 22.648C278.993 22.516 279.437 22.45 279.929 22.45C280.433 22.45 280.889 22.516 281.297 22.648C281.717 22.78 282.077 22.984 282.377 23.26C282.677 23.524 282.911 23.866 283.079 24.286C283.247 24.694 283.331 25.174 283.331 25.726V30.964C283.271 30.988 283.175 31.012 283.043 31.036C282.923 31.072 282.797 31.09 282.665 31.09C282.149 31.09 281.891 30.874 281.891 30.442V25.762C281.891 25.042 281.693 24.508 281.297 24.16C280.901 23.812 280.379 23.638 279.731 23.638C279.311 23.638 278.915 23.716 278.543 23.872C278.183 24.016 277.865 24.196 277.589 24.412V30.964ZM287.953 27.688C288.277 29.26 289.309 30.046 291.049 30.046C291.553 30.046 292.009 29.962 292.417 29.794C292.825 29.626 293.149 29.446 293.389 29.254C293.677 29.422 293.821 29.65 293.821 29.938C293.821 30.106 293.743 30.268 293.587 30.424C293.443 30.58 293.239 30.718 292.975 30.838C292.723 30.958 292.423 31.054 292.075 31.126C291.739 31.198 291.373 31.234 290.977 31.234C289.585 31.234 288.481 30.856 287.665 30.1C286.861 29.344 286.459 28.24 286.459 26.788C286.459 26.104 286.555 25.498 286.747 24.97C286.951 24.43 287.227 23.974 287.575 23.602C287.935 23.23 288.361 22.948 288.853 22.756C289.345 22.552 289.879 22.45 290.455 22.45C290.995 22.45 291.493 22.54 291.949 22.72C292.405 22.9 292.795 23.158 293.119 23.494C293.455 23.818 293.713 24.208 293.893 24.664C294.085 25.108 294.181 25.6 294.181 26.14C294.181 26.404 294.121 26.596 294.001 26.716C293.881 26.824 293.713 26.89 293.497 26.914L287.953 27.688ZM290.437 23.62C289.705 23.62 289.099 23.878 288.619 24.394C288.139 24.898 287.887 25.624 287.863 26.572L292.813 25.888C292.753 25.228 292.519 24.688 292.111 24.268C291.715 23.836 291.157 23.62 290.437 23.62ZM298.745 30.964C298.685 30.988 298.595 31.012 298.475 31.036C298.355 31.072 298.223 31.09 298.079 31.09C297.563 31.09 297.305 30.874 297.305 30.442V19.336C297.365 19.312 297.455 19.288 297.575 19.264C297.707 19.228 297.839 19.21 297.971 19.21C298.487 19.21 298.745 19.426 298.745 19.858V30.964ZM304.127 30.964C304.067 30.988 303.977 31.012 303.857 31.036C303.737 31.072 303.605 31.09 303.461 31.09C302.945 31.09 302.687 30.874 302.687 30.442V19.336C302.747 19.312 302.837 19.288 302.957 19.264C303.089 19.228 303.221 19.21 303.353 19.21C303.869 19.21 304.127 19.426 304.127 19.858V30.964Z" fill="#001C4C"/>
<path d="M92.5 55.12C92.2467 55.28 91.9333 55.4133 91.56 55.52C91.2 55.6267 90.7667 55.68 90.26 55.68C89.6733 55.68 89.1133 55.6 88.58 55.44C88.06 55.2667 87.6 55 87.2 54.64C86.8 54.2667 86.48 53.7867 86.24 53.2C86.0133 52.6133 85.9 51.8933 85.9 51.04C85.9 50.2667 86.0133 49.5933 86.24 49.02C86.48 48.4333 86.8067 47.9467 87.22 47.56C87.6467 47.16 88.1467 46.86 88.72 46.66C89.3067 46.46 89.9533 46.36 90.66 46.36C91.3133 46.36 91.9133 46.4467 92.46 46.62C93.02 46.78 93.4733 46.9733 93.82 47.2C94.0467 47.3467 94.22 47.5133 94.34 47.7C94.4733 47.8867 94.54 48.1133 94.54 48.38V56.26C94.54 56.9267 94.42 57.5 94.18 57.98C93.9533 58.46 93.6333 58.8467 93.22 59.14C92.82 59.4467 92.34 59.6667 91.78 59.8C91.22 59.9467 90.62 60.02 89.98 60.02C89.3 60.02 88.7133 59.9533 88.22 59.82C87.7267 59.6867 87.3667 59.5533 87.14 59.42C86.7267 59.1667 86.52 58.8333 86.52 58.42C86.52 58.1933 86.5667 58 86.66 57.84C86.7533 57.6933 86.8733 57.5733 87.02 57.48C87.3267 57.6933 87.7333 57.8867 88.24 58.06C88.7467 58.2333 89.2867 58.32 89.86 58.32C90.7 58.32 91.3467 58.1467 91.8 57.8C92.2667 57.4667 92.5 56.92 92.5 56.16V55.12ZM90.56 54.04C91.0133 54.04 91.3933 53.9733 91.7 53.84C92.0067 53.7067 92.2667 53.5467 92.48 53.36V48.52C92.28 48.4 92.0333 48.2933 91.74 48.2C91.4467 48.0933 91.1 48.04 90.7 48.04C89.8867 48.04 89.2333 48.2867 88.74 48.78C88.2467 49.2733 88 50.02 88 51.02C88 51.5667 88.0667 52.0333 88.2 52.42C88.3333 52.8067 88.5133 53.12 88.74 53.36C88.9667 53.6 89.2333 53.7733 89.54 53.88C89.86 53.9867 90.2 54.04 90.56 54.04ZM99.8984 52.38C100.085 53.14 100.445 53.7067 100.978 54.08C101.525 54.44 102.218 54.62 103.058 54.62C103.618 54.62 104.132 54.5333 104.598 54.36C105.065 54.1867 105.438 54 105.718 53.8C106.092 54.0133 106.278 54.3133 106.278 54.7C106.278 54.9267 106.192 55.14 106.018 55.34C105.845 55.5267 105.605 55.6933 105.298 55.84C105.005 55.9733 104.652 56.08 104.238 56.16C103.838 56.24 103.405 56.28 102.938 56.28C102.165 56.28 101.458 56.1733 100.818 55.96C100.192 55.7467 99.6518 55.4267 99.1984 55C98.7451 54.5733 98.3918 54.0467 98.1384 53.42C97.8984 52.7933 97.7784 52.0667 97.7784 51.24C97.7784 50.44 97.8984 49.74 98.1384 49.14C98.3784 48.5267 98.7051 48.02 99.1184 47.62C99.5318 47.2067 100.018 46.8933 100.578 46.68C101.138 46.4667 101.738 46.36 102.378 46.36C103.018 46.36 103.598 46.4667 104.118 46.68C104.652 46.88 105.105 47.1667 105.478 47.54C105.865 47.9 106.158 48.3333 106.358 48.84C106.572 49.3467 106.678 49.9 106.678 50.5C106.678 50.8333 106.598 51.08 106.438 51.24C106.278 51.3867 106.045 51.4867 105.738 51.54L99.8984 52.38ZM102.378 47.98C101.645 47.98 101.032 48.2267 100.538 48.72C100.058 49.2133 99.8051 49.92 99.7784 50.84L104.698 50.14C104.645 49.54 104.425 49.0333 104.038 48.62C103.652 48.1933 103.098 47.98 102.378 47.98ZM116.145 49.94C116.145 49.2867 115.959 48.8067 115.585 48.5C115.225 48.1933 114.732 48.04 114.105 48.04C113.639 48.04 113.219 48.1 112.845 48.22C112.485 48.34 112.172 48.4733 111.905 48.62V55.96C111.812 56 111.679 56.0333 111.505 56.06C111.345 56.1 111.165 56.12 110.965 56.12C110.579 56.12 110.292 56.0467 110.105 55.9C109.919 55.7533 109.825 55.5067 109.825 55.16V48.56C109.825 48.2533 109.885 48.0067 110.005 47.82C110.125 47.6333 110.325 47.4467 110.605 47.26C110.979 47.0333 111.465 46.8267 112.065 46.64C112.665 46.4533 113.345 46.36 114.105 46.36C115.399 46.36 116.412 46.6533 117.145 47.24C117.879 47.8133 118.245 48.6867 118.245 49.86V55.96C118.152 56 118.019 56.0333 117.845 56.06C117.672 56.1 117.485 56.12 117.285 56.12C116.899 56.12 116.612 56.0467 116.425 55.9C116.239 55.7533 116.145 55.5067 116.145 55.16V49.94ZM123.617 52.38C123.804 53.14 124.164 53.7067 124.697 54.08C125.244 54.44 125.937 54.62 126.777 54.62C127.337 54.62 127.851 54.5333 128.317 54.36C128.784 54.1867 129.157 54 129.437 53.8C129.811 54.0133 129.997 54.3133 129.997 54.7C129.997 54.9267 129.911 55.14 129.737 55.34C129.564 55.5267 129.324 55.6933 129.017 55.84C128.724 55.9733 128.371 56.08 127.957 56.16C127.557 56.24 127.124 56.28 126.657 56.28C125.884 56.28 125.177 56.1733 124.537 55.96C123.911 55.7467 123.371 55.4267 122.917 55C122.464 54.5733 122.111 54.0467 121.857 53.42C121.617 52.7933 121.497 52.0667 121.497 51.24C121.497 50.44 121.617 49.74 121.857 49.14C122.097 48.5267 122.424 48.02 122.837 47.62C123.251 47.2067 123.737 46.8933 124.297 46.68C124.857 46.4667 125.457 46.36 126.097 46.36C126.737 46.36 127.317 46.4667 127.837 46.68C128.371 46.88 128.824 47.1667 129.197 47.54C129.584 47.9 129.877 48.3333 130.077 48.84C130.291 49.3467 130.397 49.9 130.397 50.5C130.397 50.8333 130.317 51.08 130.157 51.24C129.997 51.3867 129.764 51.4867 129.457 51.54L123.617 52.38ZM126.097 47.98C125.364 47.98 124.751 48.2267 124.257 48.72C123.777 49.2133 123.524 49.92 123.497 50.84L128.417 50.14C128.364 49.54 128.144 49.0333 127.757 48.62C127.371 48.1933 126.817 47.98 126.097 47.98ZM135.624 55.96C135.531 56 135.397 56.0333 135.224 56.06C135.064 56.1 134.884 56.12 134.684 56.12C134.297 56.12 134.011 56.0467 133.824 55.9C133.637 55.7533 133.544 55.5067 133.544 55.16V48.6C133.544 48.2667 133.611 48 133.744 47.8C133.877 47.5867 134.091 47.3867 134.384 47.2C134.771 46.96 135.264 46.76 135.864 46.6C136.464 46.44 137.124 46.36 137.844 46.36C139.017 46.36 139.604 46.6933 139.604 47.36C139.604 47.52 139.577 47.6733 139.524 47.82C139.471 47.9533 139.411 48.0733 139.344 48.18C139.211 48.1533 139.044 48.1267 138.844 48.1C138.644 48.0733 138.431 48.06 138.204 48.06C137.671 48.06 137.184 48.12 136.744 48.24C136.304 48.3467 135.931 48.4867 135.624 48.66V55.96ZM145.701 54.66C146.167 54.66 146.574 54.6133 146.921 54.52C147.267 54.4267 147.514 54.3267 147.661 54.22V51.68L145.481 51.9C144.867 51.9667 144.407 52.1067 144.101 52.32C143.794 52.52 143.641 52.8333 143.641 53.26C143.641 53.7 143.807 54.0467 144.141 54.3C144.474 54.54 144.994 54.66 145.701 54.66ZM145.661 46.36C146.901 46.36 147.887 46.6333 148.621 47.18C149.354 47.7133 149.721 48.56 149.721 49.72V54.38C149.721 54.6867 149.647 54.9267 149.501 55.1C149.367 55.26 149.181 55.4133 148.941 55.56C148.594 55.76 148.147 55.9333 147.601 56.08C147.054 56.2267 146.421 56.3 145.701 56.3C144.407 56.3 143.394 56.0467 142.661 55.54C141.941 55.0333 141.581 54.2867 141.581 53.3C141.581 52.42 141.861 51.7467 142.421 51.28C142.994 50.8133 143.814 50.5267 144.881 50.42L147.661 50.14V49.7C147.661 49.1133 147.467 48.6867 147.081 48.42C146.707 48.1533 146.181 48.02 145.501 48.02C144.967 48.02 144.454 48.0933 143.961 48.24C143.467 48.3867 143.027 48.5533 142.641 48.74C142.507 48.6333 142.394 48.5067 142.301 48.36C142.207 48.2 142.161 48.0267 142.161 47.84C142.161 47.6133 142.214 47.4267 142.321 47.28C142.441 47.1333 142.621 47.0067 142.861 46.9C143.234 46.7133 143.661 46.58 144.141 46.5C144.621 46.4067 145.127 46.36 145.661 46.36ZM155.496 53.26C155.496 53.74 155.636 54.08 155.916 54.28C156.196 54.48 156.589 54.58 157.096 54.58C157.322 54.58 157.562 54.5467 157.816 54.48C158.069 54.4133 158.289 54.3333 158.476 54.24C158.569 54.3467 158.649 54.4667 158.716 54.6C158.796 54.7333 158.836 54.8933 158.836 55.08C158.836 55.4267 158.656 55.7133 158.296 55.94C157.949 56.1667 157.416 56.28 156.696 56.28C155.696 56.28 154.896 56.06 154.296 55.62C153.709 55.1667 153.416 54.4267 153.416 53.4V44.06C153.509 44.0333 153.642 44 153.816 43.96C153.989 43.92 154.176 43.9 154.376 43.9C154.762 43.9 155.042 43.9733 155.216 44.12C155.402 44.2667 155.496 44.5133 155.496 44.86V46.84H158.596C158.649 46.92 158.696 47.0333 158.736 47.18C158.789 47.3267 158.816 47.48 158.816 47.64C158.816 48.2133 158.569 48.5 158.076 48.5H155.496V53.26ZM170.719 51.32C170.719 52.08 170.606 52.7667 170.379 53.38C170.153 53.9933 169.833 54.5133 169.419 54.94C169.019 55.3667 168.526 55.7 167.939 55.94C167.353 56.1667 166.699 56.28 165.979 56.28C165.259 56.28 164.606 56.1667 164.019 55.94C163.433 55.7 162.933 55.3667 162.519 54.94C162.119 54.5133 161.806 53.9933 161.579 53.38C161.353 52.7667 161.239 52.08 161.239 51.32C161.239 50.56 161.353 49.8733 161.579 49.26C161.806 48.6467 162.126 48.1267 162.539 47.7C162.953 47.2733 163.453 46.9467 164.039 46.72C164.626 46.48 165.273 46.36 165.979 46.36C166.686 46.36 167.333 46.48 167.919 46.72C168.506 46.9467 169.006 47.28 169.419 47.72C169.833 48.1467 170.153 48.6667 170.379 49.28C170.606 49.88 170.719 50.56 170.719 51.32ZM165.979 48.04C165.179 48.04 164.546 48.3267 164.079 48.9C163.613 49.4733 163.379 50.28 163.379 51.32C163.379 52.36 163.606 53.1667 164.059 53.74C164.513 54.3 165.153 54.58 165.979 54.58C166.806 54.58 167.446 54.3 167.899 53.74C168.353 53.1667 168.579 52.36 168.579 51.32C168.579 50.2933 168.346 49.4933 167.879 48.92C167.426 48.3333 166.793 48.04 165.979 48.04ZM176.05 55.96C175.957 56 175.823 56.0333 175.65 56.06C175.49 56.1 175.31 56.12 175.11 56.12C174.723 56.12 174.437 56.0467 174.25 55.9C174.063 55.7533 173.97 55.5067 173.97 55.16V48.6C173.97 48.2667 174.037 48 174.17 47.8C174.303 47.5867 174.517 47.3867 174.81 47.2C175.197 46.96 175.69 46.76 176.29 46.6C176.89 46.44 177.55 46.36 178.27 46.36C179.443 46.36 180.03 46.6933 180.03 47.36C180.03 47.52 180.003 47.6733 179.95 47.82C179.897 47.9533 179.837 48.0733 179.77 48.18C179.637 48.1533 179.47 48.1267 179.27 48.1C179.07 48.0733 178.857 48.06 178.63 48.06C178.097 48.06 177.61 48.12 177.17 48.24C176.73 48.3467 176.357 48.4867 176.05 48.66V55.96Z" fill="black"/>
</svg>
