<svg preserveAspectRatio="none" xmlns="http://www.w3.org/2000/svg" width="2100" height="556" fill="none" viewBox="0 0 2100 556">
  <path fill="url(#paint0_linear)" fill-rule="evenodd" d="M2571-359H-419v782h114.014v19.836l92.018 16.921c92.018 16.92 276.055 50.762 460.091 67.683 184.037 16.92 368.074 16.92 552.11 4.23 110.422-7.615 220.847-19.798 331.267-31.98 73.61-8.122 147.23-16.244 220.84-23.013 184.04-16.92 368.08-25.381 552.11-21.151 184.04 4.231 368.08 21.151 460.09 29.612l92.02 8.46V423H2571v-782z" clip-rule="evenodd" opacity=".25"/>
  <path fill="url(#paint1_linear)" fill-rule="evenodd" d="M2571-359H-116.187v808H-13.72v18.307l82.699 15.207c82.699 15.207 248.097 45.621 413.495 60.829 165.399 15.207 330.797 15.207 496.195 3.801 99.241-6.843 198.481-17.792 297.721-28.741 66.15-7.3 132.31-14.599 198.47-20.682 165.4-15.207 330.8-22.81 496.2-19.009 165.39 3.802 330.79 19.009 413.49 26.612v.001l82.7 7.603V449H2571v-808z" clip-rule="evenodd" opacity=".25"/>
  <path fill="url(#paint2_linear)" fill-rule="evenodd" d="M2120 0H0v419h-.465v19.974l70.667 13.315c70.667 13.316 212 39.948 353.333 53.263 141.334 13.316 282.667 13.316 424 3.329 84.8-5.992 169.605-15.579 254.395-25.166 56.54-6.392 113.07-12.784 169.61-18.11 141.33-13.316 282.66-19.974 424-16.645 141.33 3.329 282.66 16.645 353.33 23.303l70.67 6.658V423h.46V0z" clip-rule="evenodd"/>
  <defs>
    <linearGradient id="paint0_linear" x1="2571" x2="-419" y1="540.716" y2="540.716" gradientUnits="userSpaceOnUse">
      <stop stop-color="#E2007A"/>
      <stop offset="1" stop-color="#009EE0"/>
    </linearGradient>
    <linearGradient id="paint1_linear" x1="2571" x2="-116.187" y1="555.274" y2="555.274" gradientUnits="userSpaceOnUse">
      <stop stop-color="#E2007A"/>
      <stop offset="1" stop-color="#009EE0"/>
    </linearGradient>
    <linearGradient id="paint2_linear" x1="2120" x2="-.465" y1="516" y2="516" gradientUnits="userSpaceOnUse">
      <stop stop-color="#E2007A"/>
      <stop offset="1" stop-color="#009EE0"/>
    </linearGradient>
  </defs>
</svg>
