<svg width="184" height="212" viewBox="0 0 184 212" fill="none" xmlns="http://www.w3.org/2000/svg">
<circle cx="68.2498" cy="142.25" r="10.25" stroke="#ffffff" stroke-width="10"/>
<path d="M10.5 52L68.3394 85.3965L68.3394 132" stroke="#ffffff" stroke-width="12"/>
<circle cx="116.25" cy="70.25" r="10.25" transform="rotate(-180 116.25 70.25)" stroke="#ffffff" stroke-width="10"/>
<path d="M174 160.5L116.16 127.104L116.16 80.5" stroke="#ffffff" stroke-width="12"/>
<path fill-rule="evenodd" clip-rule="evenodd" d="M91.7987 13.8564L74.849 23.6423L51.8993 36.8923L28.9497 50.1423L12 59.9282V79.5V106V132.5V152.072L28.9497 161.858L51.8993 175.108L74.849 188.358L91.7987 198.144L108.748 188.358L131.698 175.108L171.597 152.072V106V79.5V59.9282L131.698 36.8923L91.7987 13.8564ZM183.597 53L91.7987 0L68.849 13.25L45.8993 26.5L22.9497 39.75L0 53V79.5V106V132.5V159L22.9497 172.25L45.8993 185.5L68.849 198.75L91.7987 212L114.748 198.75L137.698 185.5L183.597 159V106V79.5V53Z" fill="#001C4C"/>
</svg>
