<svg width="306" height="72" viewBox="0 0 306 72" fill="none" xmlns="http://www.w3.org/2000/svg">
<circle cx="23.1792" cy="48.3116" r="3.48113" stroke="white" stroke-width="3.39623"/>
<path d="M3.56641 17.6606L23.21 29.0028L23.21 44.8305" stroke="white" stroke-width="4.07547"/>
<circle cx="39.4814" cy="23.8588" r="3.48113" transform="rotate(-180 39.4814 23.8588)" stroke="white" stroke-width="3.39623"/>
<path d="M59.0947 54.5098L39.4512 43.1676L39.4512 27.34" stroke="white" stroke-width="4.07547"/>
<path d="M24.4016 6.26473L31.1769 2.35297L45.7465 10.7647L60.3161 19.1765V27V36V52.8235L45.7465 61.2353L37.9523 65.7353L31.1769 69.647L24.4016 65.7353L16.6073 61.2353L8.8131 56.7353L2.03774 52.8235V45V36V27V19.1765L8.8131 15.2647L16.6073 10.7647L24.4016 6.26473Z" stroke="#001C4C" stroke-width="4.07547"/>
<path d="M88.704 28.084H83.88C83.796 28.324 83.706 28.588 83.61 28.876C83.514 29.152 83.418 29.428 83.322 29.704C83.238 29.968 83.154 30.22 83.07 30.46C82.986 30.688 82.92 30.88 82.872 31.036C82.704 31.108 82.506 31.144 82.278 31.144C82.086 31.144 81.912 31.096 81.756 31C81.612 30.892 81.54 30.724 81.54 30.496C81.54 30.388 81.558 30.28 81.594 30.172C81.63 30.052 81.672 29.926 81.72 29.794C81.9 29.29 82.128 28.642 82.404 27.85C82.692 27.058 82.998 26.218 83.322 25.33C83.658 24.43 83.994 23.53 84.33 22.63C84.678 21.718 84.996 20.902 85.284 20.182C85.38 20.134 85.524 20.086 85.716 20.038C85.908 19.99 86.106 19.966 86.31 19.966C86.55 19.966 86.778 20.002 86.994 20.074C87.222 20.146 87.366 20.266 87.426 20.434C87.714 21.13 88.02 21.928 88.344 22.828C88.68 23.716 89.016 24.628 89.352 25.564C89.688 26.5 90.006 27.424 90.306 28.336C90.618 29.236 90.894 30.052 91.134 30.784C91.038 30.892 90.924 30.976 90.792 31.036C90.66 31.108 90.51 31.144 90.342 31.144C90.114 31.144 89.94 31.096 89.82 31C89.7 30.892 89.598 30.718 89.514 30.478L88.704 28.084ZM86.292 21.19C86.16 21.55 86.01 21.964 85.842 22.432C85.674 22.888 85.5 23.368 85.32 23.872C85.14 24.376 84.96 24.886 84.78 25.402C84.6 25.918 84.432 26.41 84.276 26.878H88.326C88.146 26.338 87.96 25.798 87.768 25.258C87.576 24.706 87.39 24.178 87.21 23.674C87.042 23.17 86.88 22.708 86.724 22.288C86.58 21.856 86.46 21.49 86.364 21.19H86.292ZM99.8582 28.786C99.8582 29.554 99.5762 30.154 99.0122 30.586C98.4482 31.018 97.6322 31.234 96.5642 31.234C96.1082 31.234 95.6882 31.192 95.3042 31.108C94.9202 31.036 94.5902 30.94 94.3142 30.82C94.0502 30.688 93.8402 30.544 93.6842 30.388C93.5402 30.22 93.4682 30.052 93.4682 29.884C93.4682 29.74 93.5042 29.602 93.5762 29.47C93.6602 29.338 93.7802 29.224 93.9362 29.128C94.2602 29.368 94.6382 29.584 95.0702 29.776C95.5022 29.956 95.9942 30.046 96.5462 30.046C97.7942 30.046 98.4182 29.626 98.4182 28.786C98.4182 28.102 98.0042 27.658 97.1762 27.454L95.6822 27.058C94.9502 26.866 94.4162 26.59 94.0802 26.23C93.7442 25.858 93.5762 25.384 93.5762 24.808C93.5762 24.496 93.6362 24.196 93.7562 23.908C93.8882 23.62 94.0862 23.368 94.3502 23.152C94.6142 22.936 94.9382 22.768 95.3222 22.648C95.7182 22.516 96.1802 22.45 96.7082 22.45C97.5482 22.45 98.2262 22.576 98.7422 22.828C99.2582 23.068 99.5162 23.35 99.5162 23.674C99.5162 23.83 99.4742 23.968 99.3902 24.088C99.3182 24.208 99.2162 24.298 99.0842 24.358C98.8682 24.214 98.5622 24.058 98.1662 23.89C97.7702 23.722 97.3022 23.638 96.7622 23.638C96.2222 23.638 95.7902 23.74 95.4662 23.944C95.1542 24.148 94.9982 24.436 94.9982 24.808C94.9982 25.084 95.0882 25.318 95.2682 25.51C95.4482 25.702 95.7482 25.846 96.1682 25.942L97.4102 26.248C98.2262 26.452 98.8382 26.758 99.2462 27.166C99.6542 27.562 99.8582 28.102 99.8582 28.786ZM108.809 28.786C108.809 29.554 108.527 30.154 107.963 30.586C107.399 31.018 106.583 31.234 105.515 31.234C105.059 31.234 104.639 31.192 104.255 31.108C103.871 31.036 103.541 30.94 103.265 30.82C103.001 30.688 102.791 30.544 102.635 30.388C102.491 30.22 102.419 30.052 102.419 29.884C102.419 29.74 102.455 29.602 102.527 29.47C102.611 29.338 102.731 29.224 102.887 29.128C103.211 29.368 103.589 29.584 104.021 29.776C104.453 29.956 104.945 30.046 105.497 30.046C106.745 30.046 107.369 29.626 107.369 28.786C107.369 28.102 106.955 27.658 106.127 27.454L104.633 27.058C103.901 26.866 103.367 26.59 103.031 26.23C102.695 25.858 102.527 25.384 102.527 24.808C102.527 24.496 102.587 24.196 102.707 23.908C102.839 23.62 103.037 23.368 103.301 23.152C103.565 22.936 103.889 22.768 104.273 22.648C104.669 22.516 105.131 22.45 105.659 22.45C106.499 22.45 107.177 22.576 107.693 22.828C108.209 23.068 108.467 23.35 108.467 23.674C108.467 23.83 108.425 23.968 108.341 24.088C108.269 24.208 108.167 24.298 108.035 24.358C107.819 24.214 107.513 24.058 107.117 23.89C106.721 23.722 106.253 23.638 105.713 23.638C105.173 23.638 104.741 23.74 104.417 23.944C104.105 24.148 103.949 24.436 103.949 24.808C103.949 25.084 104.039 25.318 104.219 25.51C104.399 25.702 104.699 25.846 105.119 25.942L106.361 26.248C107.177 26.452 107.789 26.758 108.197 27.166C108.605 27.562 108.809 28.102 108.809 28.786ZM113.006 27.688C113.33 29.26 114.362 30.046 116.102 30.046C116.606 30.046 117.062 29.962 117.47 29.794C117.878 29.626 118.202 29.446 118.442 29.254C118.73 29.422 118.874 29.65 118.874 29.938C118.874 30.106 118.796 30.268 118.64 30.424C118.496 30.58 118.292 30.718 118.028 30.838C117.776 30.958 117.476 31.054 117.128 31.126C116.792 31.198 116.426 31.234 116.03 31.234C114.638 31.234 113.534 30.856 112.718 30.1C111.914 29.344 111.512 28.24 111.512 26.788C111.512 26.104 111.608 25.498 111.8 24.97C112.004 24.43 112.28 23.974 112.628 23.602C112.988 23.23 113.414 22.948 113.906 22.756C114.398 22.552 114.932 22.45 115.508 22.45C116.048 22.45 116.546 22.54 117.002 22.72C117.458 22.9 117.848 23.158 118.172 23.494C118.508 23.818 118.766 24.208 118.946 24.664C119.138 25.108 119.234 25.6 119.234 26.14C119.234 26.404 119.174 26.596 119.054 26.716C118.934 26.824 118.766 26.89 118.55 26.914L113.006 27.688ZM115.49 23.62C114.758 23.62 114.152 23.878 113.672 24.394C113.192 24.898 112.94 25.624 112.916 26.572L117.866 25.888C117.806 25.228 117.572 24.688 117.164 24.268C116.768 23.836 116.21 23.62 115.49 23.62ZM125.058 31.234C124.218 31.234 123.534 31.048 123.006 30.676C122.49 30.304 122.232 29.686 122.232 28.822V20.272C122.292 20.248 122.382 20.224 122.502 20.2C122.634 20.164 122.772 20.146 122.916 20.146C123.42 20.146 123.672 20.362 123.672 20.794V22.864H126.624C126.66 22.924 126.696 23.008 126.732 23.116C126.768 23.212 126.786 23.32 126.786 23.44C126.786 23.848 126.606 24.052 126.246 24.052H123.672V28.732C123.672 29.212 123.804 29.554 124.068 29.758C124.344 29.95 124.728 30.046 125.22 30.046C125.424 30.046 125.652 30.01 125.904 29.938C126.156 29.866 126.366 29.782 126.534 29.686C126.606 29.758 126.672 29.848 126.732 29.956C126.792 30.064 126.822 30.19 126.822 30.334C126.822 30.598 126.666 30.814 126.354 30.982C126.042 31.15 125.61 31.234 125.058 31.234ZM140.668 28.084H135.844C135.76 28.324 135.67 28.588 135.574 28.876C135.478 29.152 135.382 29.428 135.286 29.704C135.202 29.968 135.118 30.22 135.034 30.46C134.95 30.688 134.884 30.88 134.836 31.036C134.668 31.108 134.47 31.144 134.242 31.144C134.05 31.144 133.876 31.096 133.72 31C133.576 30.892 133.504 30.724 133.504 30.496C133.504 30.388 133.522 30.28 133.558 30.172C133.594 30.052 133.636 29.926 133.684 29.794C133.864 29.29 134.092 28.642 134.368 27.85C134.656 27.058 134.962 26.218 135.286 25.33C135.622 24.43 135.958 23.53 136.294 22.63C136.642 21.718 136.96 20.902 137.248 20.182C137.344 20.134 137.488 20.086 137.68 20.038C137.872 19.99 138.07 19.966 138.274 19.966C138.514 19.966 138.742 20.002 138.958 20.074C139.186 20.146 139.33 20.266 139.39 20.434C139.678 21.13 139.984 21.928 140.308 22.828C140.644 23.716 140.98 24.628 141.316 25.564C141.652 26.5 141.97 27.424 142.27 28.336C142.582 29.236 142.858 30.052 143.098 30.784C143.002 30.892 142.888 30.976 142.756 31.036C142.624 31.108 142.474 31.144 142.306 31.144C142.078 31.144 141.904 31.096 141.784 31C141.664 30.892 141.562 30.718 141.478 30.478L140.668 28.084ZM138.256 21.19C138.124 21.55 137.974 21.964 137.806 22.432C137.638 22.888 137.464 23.368 137.284 23.872C137.104 24.376 136.924 24.886 136.744 25.402C136.564 25.918 136.396 26.41 136.24 26.878H140.29C140.11 26.338 139.924 25.798 139.732 25.258C139.54 24.706 139.354 24.178 139.174 23.674C139.006 23.17 138.844 22.708 138.688 22.288C138.544 21.856 138.424 21.49 138.328 21.19H138.256ZM153.012 29.632C153.012 29.872 152.958 30.058 152.85 30.19C152.754 30.322 152.598 30.454 152.382 30.586C152.142 30.742 151.8 30.886 151.356 31.018C150.912 31.162 150.402 31.234 149.826 31.234C149.178 31.234 148.584 31.15 148.044 30.982C147.504 30.814 147.036 30.556 146.64 30.208C146.256 29.848 145.956 29.398 145.74 28.858C145.536 28.306 145.434 27.646 145.434 26.878C145.434 26.098 145.542 25.432 145.758 24.88C145.974 24.316 146.262 23.854 146.622 23.494C146.994 23.134 147.426 22.87 147.918 22.702C148.422 22.534 148.956 22.45 149.52 22.45C149.904 22.45 150.276 22.498 150.636 22.594C150.996 22.69 151.308 22.81 151.572 22.954V19.336C151.632 19.312 151.722 19.288 151.842 19.264C151.974 19.228 152.106 19.21 152.238 19.21C152.754 19.21 153.012 19.426 153.012 19.858V29.632ZM151.572 24.25C151.332 24.082 151.056 23.938 150.744 23.818C150.432 23.698 150.072 23.638 149.664 23.638C149.292 23.638 148.938 23.698 148.602 23.818C148.278 23.926 147.99 24.112 147.738 24.376C147.486 24.628 147.282 24.964 147.126 25.384C146.982 25.804 146.91 26.314 146.91 26.914C146.91 28.018 147.174 28.816 147.702 29.308C148.23 29.8 148.932 30.046 149.808 30.046C150.228 30.046 150.57 30.004 150.834 29.92C151.11 29.824 151.356 29.71 151.572 29.578V24.25ZM167.194 25.348C167.194 24.76 167.026 24.328 166.69 24.052C166.354 23.776 165.904 23.638 165.34 23.638C164.56 23.638 163.864 23.914 163.252 24.466C163.324 24.706 163.36 24.964 163.36 25.24V30.964C163.3 30.988 163.204 31.012 163.072 31.036C162.952 31.072 162.826 31.09 162.694 31.09C162.178 31.09 161.92 30.874 161.92 30.442V25.348C161.92 24.76 161.752 24.328 161.416 24.052C161.08 23.776 160.624 23.638 160.048 23.638C159.664 23.638 159.298 23.698 158.95 23.818C158.614 23.938 158.326 24.076 158.086 24.232V30.964C158.026 30.988 157.936 31.012 157.816 31.036C157.696 31.072 157.564 31.09 157.42 31.09C156.904 31.09 156.646 30.874 156.646 30.442V24.304C156.646 24.064 156.694 23.866 156.79 23.71C156.898 23.542 157.078 23.374 157.33 23.206C157.654 23.002 158.062 22.828 158.554 22.684C159.058 22.528 159.562 22.45 160.066 22.45C160.654 22.45 161.176 22.54 161.632 22.72C162.088 22.888 162.436 23.122 162.676 23.422C162.988 23.146 163.378 22.918 163.846 22.738C164.314 22.546 164.848 22.45 165.448 22.45C166.42 22.45 167.194 22.684 167.77 23.152C168.346 23.608 168.634 24.316 168.634 25.276V30.964C168.574 30.988 168.478 31.012 168.346 31.036C168.226 31.072 168.1 31.09 167.968 31.09C167.452 31.09 167.194 30.874 167.194 30.442V25.348ZM173.771 30.964C173.711 30.988 173.621 31.012 173.501 31.036C173.381 31.072 173.249 31.09 173.105 31.09C172.589 31.09 172.331 30.874 172.331 30.442V22.72C172.391 22.696 172.481 22.672 172.601 22.648C172.733 22.612 172.871 22.594 173.015 22.594C173.519 22.594 173.771 22.816 173.771 23.26V30.964ZM172.115 20.056C172.115 19.804 172.199 19.594 172.367 19.426C172.547 19.246 172.775 19.156 173.051 19.156C173.327 19.156 173.549 19.246 173.717 19.426C173.885 19.594 173.969 19.804 173.969 20.056C173.969 20.308 173.885 20.524 173.717 20.704C173.549 20.872 173.327 20.956 173.051 20.956C172.775 20.956 172.547 20.872 172.367 20.704C172.199 20.524 172.115 20.308 172.115 20.056ZM183.243 25.582C183.243 24.91 183.051 24.418 182.667 24.106C182.295 23.794 181.791 23.638 181.155 23.638C180.675 23.638 180.249 23.698 179.877 23.818C179.505 23.938 179.187 24.076 178.923 24.232V30.964C178.863 30.988 178.773 31.012 178.653 31.036C178.533 31.072 178.401 31.09 178.257 31.09C177.741 31.09 177.483 30.874 177.483 30.442V24.304C177.483 24.052 177.531 23.848 177.627 23.692C177.735 23.524 177.915 23.362 178.167 23.206C178.479 23.014 178.893 22.84 179.409 22.684C179.925 22.528 180.507 22.45 181.155 22.45C182.247 22.45 183.105 22.696 183.729 23.188C184.365 23.68 184.683 24.454 184.683 25.51V30.964C184.623 30.988 184.527 31.012 184.395 31.036C184.275 31.072 184.149 31.09 184.017 31.09C183.501 31.09 183.243 30.874 183.243 30.442V25.582ZM189.809 30.964C189.749 30.988 189.659 31.012 189.539 31.036C189.419 31.072 189.287 31.09 189.143 31.09C188.627 31.09 188.369 30.874 188.369 30.442V22.72C188.429 22.696 188.519 22.672 188.639 22.648C188.771 22.612 188.909 22.594 189.053 22.594C189.557 22.594 189.809 22.816 189.809 23.26V30.964ZM188.153 20.056C188.153 19.804 188.237 19.594 188.405 19.426C188.585 19.246 188.813 19.156 189.089 19.156C189.365 19.156 189.587 19.246 189.755 19.426C189.923 19.594 190.007 19.804 190.007 20.056C190.007 20.308 189.923 20.524 189.755 20.704C189.587 20.872 189.365 20.956 189.089 20.956C188.813 20.956 188.585 20.872 188.405 20.704C188.237 20.524 188.153 20.308 188.153 20.056ZM199.389 28.786C199.389 29.554 199.107 30.154 198.543 30.586C197.979 31.018 197.163 31.234 196.095 31.234C195.639 31.234 195.219 31.192 194.835 31.108C194.451 31.036 194.121 30.94 193.845 30.82C193.581 30.688 193.371 30.544 193.215 30.388C193.071 30.22 192.999 30.052 192.999 29.884C192.999 29.74 193.035 29.602 193.107 29.47C193.191 29.338 193.311 29.224 193.467 29.128C193.791 29.368 194.169 29.584 194.601 29.776C195.033 29.956 195.525 30.046 196.077 30.046C197.325 30.046 197.949 29.626 197.949 28.786C197.949 28.102 197.535 27.658 196.707 27.454L195.213 27.058C194.481 26.866 193.947 26.59 193.611 26.23C193.275 25.858 193.107 25.384 193.107 24.808C193.107 24.496 193.167 24.196 193.287 23.908C193.419 23.62 193.617 23.368 193.881 23.152C194.145 22.936 194.469 22.768 194.853 22.648C195.249 22.516 195.711 22.45 196.239 22.45C197.079 22.45 197.757 22.576 198.273 22.828C198.789 23.068 199.047 23.35 199.047 23.674C199.047 23.83 199.005 23.968 198.921 24.088C198.849 24.208 198.747 24.298 198.615 24.358C198.399 24.214 198.093 24.058 197.697 23.89C197.301 23.722 196.833 23.638 196.293 23.638C195.753 23.638 195.321 23.74 194.997 23.944C194.685 24.148 194.529 24.436 194.529 24.808C194.529 25.084 194.619 25.318 194.799 25.51C194.979 25.702 195.279 25.846 195.699 25.942L196.941 26.248C197.757 26.452 198.369 26.758 198.777 27.166C199.185 27.562 199.389 28.102 199.389 28.786ZM205.316 31.234C204.476 31.234 203.792 31.048 203.264 30.676C202.748 30.304 202.49 29.686 202.49 28.822V20.272C202.55 20.248 202.64 20.224 202.76 20.2C202.892 20.164 203.03 20.146 203.174 20.146C203.678 20.146 203.93 20.362 203.93 20.794V22.864H206.882C206.918 22.924 206.954 23.008 206.99 23.116C207.026 23.212 207.044 23.32 207.044 23.44C207.044 23.848 206.864 24.052 206.504 24.052H203.93V28.732C203.93 29.212 204.062 29.554 204.326 29.758C204.602 29.95 204.986 30.046 205.478 30.046C205.682 30.046 205.91 30.01 206.162 29.938C206.414 29.866 206.624 29.782 206.792 29.686C206.864 29.758 206.93 29.848 206.99 29.956C207.05 30.064 207.08 30.19 207.08 30.334C207.08 30.598 206.924 30.814 206.612 30.982C206.3 31.15 205.868 31.234 205.316 31.234ZM211.509 30.964C211.449 30.988 211.359 31.012 211.239 31.036C211.119 31.072 210.987 31.09 210.843 31.09C210.327 31.09 210.069 30.874 210.069 30.442V24.34C210.069 24.064 210.117 23.848 210.213 23.692C210.321 23.524 210.495 23.362 210.735 23.206C211.047 23.002 211.467 22.828 211.995 22.684C212.535 22.528 213.141 22.45 213.813 22.45C214.773 22.45 215.253 22.69 215.253 23.17C215.253 23.29 215.235 23.404 215.199 23.512C215.163 23.608 215.115 23.692 215.055 23.764C214.935 23.74 214.779 23.716 214.587 23.692C214.395 23.668 214.203 23.656 214.011 23.656C213.459 23.656 212.973 23.716 212.553 23.836C212.133 23.944 211.785 24.076 211.509 24.232V30.964ZM220.724 30.064C221.228 30.064 221.642 30.016 221.966 29.92C222.302 29.812 222.542 29.71 222.686 29.614V27.004L220.454 27.238C219.83 27.298 219.368 27.442 219.068 27.67C218.768 27.886 218.618 28.21 218.618 28.642C218.618 29.098 218.792 29.452 219.14 29.704C219.488 29.944 220.016 30.064 220.724 30.064ZM220.706 22.45C221.75 22.45 222.578 22.684 223.19 23.152C223.802 23.62 224.108 24.358 224.108 25.366V29.632C224.108 29.896 224.054 30.1 223.946 30.244C223.85 30.376 223.7 30.502 223.496 30.622C223.208 30.79 222.824 30.934 222.344 31.054C221.876 31.186 221.336 31.252 220.724 31.252C219.596 31.252 218.72 31.03 218.096 30.586C217.484 30.142 217.178 29.5 217.178 28.66C217.178 27.868 217.436 27.274 217.952 26.878C218.468 26.47 219.194 26.218 220.13 26.122L222.686 25.87V25.366C222.686 24.766 222.506 24.328 222.146 24.052C221.786 23.776 221.3 23.638 220.688 23.638C220.184 23.638 219.71 23.71 219.266 23.854C218.822 23.998 218.426 24.16 218.078 24.34C217.982 24.256 217.892 24.16 217.808 24.052C217.736 23.944 217.7 23.824 217.7 23.692C217.7 23.524 217.742 23.386 217.826 23.278C217.91 23.17 218.042 23.068 218.222 22.972C218.546 22.804 218.918 22.678 219.338 22.594C219.758 22.498 220.214 22.45 220.706 22.45ZM230.481 31.234C229.641 31.234 228.957 31.048 228.429 30.676C227.913 30.304 227.655 29.686 227.655 28.822V20.272C227.715 20.248 227.805 20.224 227.925 20.2C228.057 20.164 228.195 20.146 228.339 20.146C228.843 20.146 229.095 20.362 229.095 20.794V22.864H232.047C232.083 22.924 232.119 23.008 232.155 23.116C232.191 23.212 232.209 23.32 232.209 23.44C232.209 23.848 232.029 24.052 231.669 24.052H229.095V28.732C229.095 29.212 229.227 29.554 229.491 29.758C229.767 29.95 230.151 30.046 230.643 30.046C230.847 30.046 231.075 30.01 231.327 29.938C231.579 29.866 231.789 29.782 231.957 29.686C232.029 29.758 232.095 29.848 232.155 29.956C232.215 30.064 232.245 30.19 232.245 30.334C232.245 30.598 232.089 30.814 231.777 30.982C231.465 31.15 231.033 31.234 230.481 31.234ZM236.764 30.964C236.704 30.988 236.614 31.012 236.494 31.036C236.374 31.072 236.242 31.09 236.098 31.09C235.582 31.09 235.324 30.874 235.324 30.442V22.72C235.384 22.696 235.474 22.672 235.594 22.648C235.726 22.612 235.864 22.594 236.008 22.594C236.512 22.594 236.764 22.816 236.764 23.26V30.964ZM235.108 20.056C235.108 19.804 235.192 19.594 235.36 19.426C235.54 19.246 235.768 19.156 236.044 19.156C236.32 19.156 236.542 19.246 236.71 19.426C236.878 19.594 236.962 19.804 236.962 20.056C236.962 20.308 236.878 20.524 236.71 20.704C236.542 20.872 236.32 20.956 236.044 20.956C235.768 20.956 235.54 20.872 235.36 20.704C235.192 20.524 235.108 20.308 235.108 20.056ZM248.198 26.842C248.198 27.514 248.102 28.12 247.91 28.66C247.718 29.2 247.442 29.662 247.082 30.046C246.734 30.43 246.308 30.724 245.804 30.928C245.3 31.132 244.736 31.234 244.112 31.234C243.488 31.234 242.924 31.132 242.42 30.928C241.916 30.724 241.484 30.43 241.124 30.046C240.764 29.662 240.488 29.2 240.296 28.66C240.104 28.12 240.008 27.514 240.008 26.842C240.008 26.17 240.104 25.564 240.296 25.024C240.5 24.484 240.782 24.022 241.142 23.638C241.502 23.254 241.934 22.96 242.438 22.756C242.942 22.552 243.5 22.45 244.112 22.45C244.724 22.45 245.282 22.552 245.786 22.756C246.29 22.96 246.716 23.254 247.064 23.638C247.424 24.022 247.7 24.484 247.892 25.024C248.096 25.564 248.198 26.17 248.198 26.842ZM244.112 23.638C243.296 23.638 242.654 23.92 242.186 24.484C241.718 25.048 241.484 25.834 241.484 26.842C241.484 27.862 241.712 28.654 242.168 29.218C242.636 29.77 243.284 30.046 244.112 30.046C244.94 30.046 245.582 29.764 246.038 29.2C246.494 28.636 246.722 27.85 246.722 26.842C246.722 25.834 246.488 25.048 246.02 24.484C245.564 23.92 244.928 23.638 244.112 23.638ZM257.085 25.582C257.085 24.91 256.893 24.418 256.509 24.106C256.137 23.794 255.633 23.638 254.997 23.638C254.517 23.638 254.091 23.698 253.719 23.818C253.347 23.938 253.029 24.076 252.765 24.232V30.964C252.705 30.988 252.615 31.012 252.495 31.036C252.375 31.072 252.243 31.09 252.099 31.09C251.583 31.09 251.325 30.874 251.325 30.442V24.304C251.325 24.052 251.373 23.848 251.469 23.692C251.577 23.524 251.757 23.362 252.009 23.206C252.321 23.014 252.735 22.84 253.251 22.684C253.767 22.528 254.349 22.45 254.997 22.45C256.089 22.45 256.947 22.696 257.571 23.188C258.207 23.68 258.525 24.454 258.525 25.51V30.964C258.465 30.988 258.369 31.012 258.237 31.036C258.117 31.072 257.991 31.09 257.859 31.09C257.343 31.09 257.085 30.874 257.085 30.442V25.582ZM269.901 30.01C270.705 30.01 271.311 29.83 271.719 29.47C272.139 29.098 272.349 28.624 272.349 28.048C272.349 27.544 272.187 27.136 271.863 26.824C271.551 26.512 271.053 26.254 270.369 26.05L268.803 25.582C268.035 25.354 267.429 25.018 266.985 24.574C266.553 24.13 266.337 23.53 266.337 22.774C266.337 22.318 266.421 21.91 266.589 21.55C266.769 21.178 267.021 20.866 267.345 20.614C267.669 20.362 268.053 20.17 268.497 20.038C268.953 19.894 269.463 19.822 270.027 19.822C270.507 19.822 270.951 19.864 271.359 19.948C271.779 20.02 272.139 20.128 272.439 20.272C272.751 20.404 272.991 20.554 273.159 20.722C273.327 20.89 273.411 21.064 273.411 21.244C273.411 21.412 273.369 21.556 273.285 21.676C273.201 21.796 273.093 21.892 272.961 21.964C272.649 21.724 272.241 21.514 271.737 21.334C271.245 21.154 270.693 21.064 270.081 21.064C269.373 21.064 268.815 21.214 268.407 21.514C268.011 21.814 267.813 22.234 267.813 22.774C267.813 23.194 267.957 23.536 268.245 23.8C268.533 24.064 269.013 24.292 269.685 24.484L270.783 24.808C271.731 25.084 272.475 25.474 273.015 25.978C273.567 26.47 273.843 27.16 273.843 28.048C273.843 28.996 273.501 29.764 272.817 30.352C272.133 30.94 271.161 31.234 269.901 31.234C269.349 31.234 268.845 31.186 268.389 31.09C267.945 30.994 267.561 30.868 267.237 30.712C266.925 30.556 266.679 30.388 266.499 30.208C266.331 30.016 266.247 29.83 266.247 29.65C266.247 29.446 266.307 29.278 266.427 29.146C266.559 29.002 266.709 28.9 266.877 28.84C267.009 28.972 267.171 29.11 267.363 29.254C267.555 29.386 267.777 29.512 268.029 29.632C268.281 29.74 268.563 29.83 268.875 29.902C269.187 29.974 269.529 30.01 269.901 30.01ZM278.423 30.964C278.363 30.988 278.273 31.012 278.153 31.036C278.033 31.072 277.901 31.09 277.757 31.09C277.241 31.09 276.983 30.874 276.983 30.442V19.336C277.043 19.312 277.133 19.288 277.253 19.264C277.385 19.228 277.523 19.21 277.667 19.21C278.171 19.21 278.423 19.426 278.423 19.858V23.098C278.711 22.93 279.047 22.78 279.431 22.648C279.827 22.516 280.271 22.45 280.763 22.45C281.267 22.45 281.723 22.516 282.131 22.648C282.551 22.78 282.911 22.984 283.211 23.26C283.511 23.524 283.745 23.866 283.913 24.286C284.081 24.694 284.165 25.174 284.165 25.726V30.964C284.105 30.988 284.009 31.012 283.877 31.036C283.757 31.072 283.631 31.09 283.499 31.09C282.983 31.09 282.725 30.874 282.725 30.442V25.762C282.725 25.042 282.527 24.508 282.131 24.16C281.735 23.812 281.213 23.638 280.565 23.638C280.145 23.638 279.749 23.716 279.377 23.872C279.017 24.016 278.699 24.196 278.423 24.412V30.964ZM288.787 27.688C289.111 29.26 290.143 30.046 291.883 30.046C292.387 30.046 292.843 29.962 293.251 29.794C293.659 29.626 293.983 29.446 294.223 29.254C294.511 29.422 294.655 29.65 294.655 29.938C294.655 30.106 294.577 30.268 294.421 30.424C294.277 30.58 294.073 30.718 293.809 30.838C293.557 30.958 293.257 31.054 292.909 31.126C292.573 31.198 292.207 31.234 291.811 31.234C290.419 31.234 289.315 30.856 288.499 30.1C287.695 29.344 287.293 28.24 287.293 26.788C287.293 26.104 287.389 25.498 287.581 24.97C287.785 24.43 288.061 23.974 288.409 23.602C288.769 23.23 289.195 22.948 289.687 22.756C290.179 22.552 290.713 22.45 291.289 22.45C291.829 22.45 292.327 22.54 292.783 22.72C293.239 22.9 293.629 23.158 293.953 23.494C294.289 23.818 294.547 24.208 294.727 24.664C294.919 25.108 295.015 25.6 295.015 26.14C295.015 26.404 294.955 26.596 294.835 26.716C294.715 26.824 294.547 26.89 294.331 26.914L288.787 27.688ZM291.271 23.62C290.539 23.62 289.933 23.878 289.453 24.394C288.973 24.898 288.721 25.624 288.697 26.572L293.647 25.888C293.587 25.228 293.353 24.688 292.945 24.268C292.549 23.836 291.991 23.62 291.271 23.62ZM299.579 30.964C299.519 30.988 299.429 31.012 299.309 31.036C299.189 31.072 299.057 31.09 298.913 31.09C298.397 31.09 298.139 30.874 298.139 30.442V19.336C298.199 19.312 298.289 19.288 298.409 19.264C298.541 19.228 298.673 19.21 298.805 19.21C299.321 19.21 299.579 19.426 299.579 19.858V30.964ZM304.961 30.964C304.901 30.988 304.811 31.012 304.691 31.036C304.571 31.072 304.439 31.09 304.295 31.09C303.779 31.09 303.521 30.874 303.521 30.442V19.336C303.581 19.312 303.671 19.288 303.791 19.264C303.923 19.228 304.055 19.21 304.187 19.21C304.703 19.21 304.961 19.426 304.961 19.858V30.964Z" fill="#001C4C"/>
<path d="M92.64 54.46C92.64 54.74 92.5667 54.9733 92.42 55.16C92.2867 55.3333 92.0733 55.4933 91.78 55.64C91.4333 55.8267 90.9533 55.98 90.34 56.1C89.7267 56.22 89.1 56.28 88.46 56.28C87.5133 56.28 86.64 56.16 85.84 55.92C85.0533 55.6667 84.3733 55.28 83.8 54.76C83.2267 54.24 82.78 53.58 82.46 52.78C82.14 51.98 81.98 51.0333 81.98 49.94C81.98 48.8733 82.1467 47.94 82.48 47.14C82.8133 46.34 83.26 45.68 83.82 45.16C84.3933 44.6267 85.06 44.2267 85.82 43.96C86.5933 43.6933 87.4133 43.56 88.28 43.56C88.8533 43.56 89.38 43.6133 89.86 43.72C90.34 43.8133 90.7533 43.94 91.1 44.1C91.4467 44.26 91.7133 44.4467 91.9 44.66C92.0867 44.86 92.18 45.0733 92.18 45.3C92.18 45.5267 92.12 45.7267 92 45.9C91.88 46.06 91.7333 46.1867 91.56 46.28C91.2 46.0533 90.7733 45.84 90.28 45.64C89.7867 45.44 89.1667 45.34 88.42 45.34C87.82 45.34 87.26 45.44 86.74 45.64C86.22 45.84 85.7667 46.1333 85.38 46.52C85.0067 46.9067 84.7133 47.3867 84.5 47.96C84.2867 48.5333 84.18 49.1933 84.18 49.94C84.18 50.7267 84.2867 51.4133 84.5 52C84.7267 52.5733 85.0267 53.0467 85.4 53.42C85.7867 53.7933 86.24 54.0733 86.76 54.26C87.2933 54.4333 87.8667 54.52 88.48 54.52C88.9067 54.52 89.3067 54.4867 89.68 54.42C90.0533 54.34 90.34 54.2467 90.54 54.14V50.94H87.78C87.7133 50.86 87.6533 50.7467 87.6 50.6C87.56 50.44 87.54 50.28 87.54 50.12C87.54 49.8133 87.6067 49.5867 87.74 49.44C87.8867 49.2933 88.08 49.22 88.32 49.22H91.68C91.96 49.22 92.1867 49.3067 92.36 49.48C92.5467 49.64 92.64 49.8733 92.64 50.18V54.46ZM97.7297 56.02C97.383 56.02 97.103 55.9133 96.8897 55.7C96.6764 55.4867 96.5697 55.2067 96.5697 54.86V45C96.5697 44.6533 96.6764 44.38 96.8897 44.18C97.103 43.9667 97.383 43.86 97.7297 43.86H104.35C104.416 43.94 104.47 44.0533 104.51 44.2C104.563 44.3467 104.59 44.5067 104.59 44.68C104.59 44.9733 104.516 45.2 104.37 45.36C104.236 45.52 104.05 45.6 103.81 45.6H98.6897V48.92H103.75C103.816 49 103.87 49.1133 103.91 49.26C103.963 49.4067 103.99 49.5667 103.99 49.74C103.99 50.0467 103.916 50.2733 103.77 50.42C103.636 50.5667 103.45 50.64 103.21 50.64H98.6897V54.28H104.45C104.503 54.36 104.556 54.4733 104.61 54.62C104.663 54.7667 104.69 54.9267 104.69 55.1C104.69 55.4067 104.616 55.64 104.47 55.8C104.336 55.9467 104.15 56.02 103.91 56.02H97.7297ZM118.312 55.72C118.166 55.84 117.979 55.94 117.752 56.02C117.526 56.1 117.259 56.14 116.952 56.14C116.579 56.14 116.252 56.0733 115.972 55.94C115.706 55.7933 115.459 55.5267 115.232 55.14L111.932 49.4C111.786 49.1467 111.632 48.88 111.472 48.6C111.326 48.32 111.179 48.04 111.032 47.76C110.899 47.48 110.766 47.2133 110.632 46.96C110.512 46.6933 110.406 46.46 110.312 46.26L110.212 46.28C110.279 46.9733 110.326 47.72 110.352 48.52C110.379 49.3067 110.392 50.0533 110.392 50.76V55.98C110.299 56.0067 110.159 56.0333 109.972 56.06C109.799 56.1 109.619 56.12 109.432 56.12C109.032 56.12 108.739 56.0467 108.552 55.9C108.379 55.7533 108.292 55.5067 108.292 55.16V44.2C108.426 44.0533 108.612 43.94 108.852 43.86C109.106 43.7667 109.372 43.72 109.652 43.72C110.026 43.72 110.352 43.7867 110.632 43.92C110.912 44.0533 111.166 44.3133 111.392 44.7L114.712 50.46C114.859 50.7133 115.006 50.98 115.152 51.26C115.299 51.54 115.439 51.82 115.572 52.1C115.719 52.38 115.852 52.6533 115.972 52.92C116.106 53.1733 116.219 53.4 116.312 53.6L116.392 53.58C116.286 52.5667 116.226 51.5667 116.212 50.58C116.199 49.58 116.192 48.6067 116.192 47.66V43.86C116.299 43.8333 116.439 43.8067 116.612 43.78C116.786 43.74 116.972 43.72 117.172 43.72C117.572 43.72 117.859 43.7933 118.032 43.94C118.219 44.0867 118.312 44.3333 118.312 44.68V55.72ZM123.753 56.02C123.406 56.02 123.126 55.9133 122.913 55.7C122.7 55.4867 122.593 55.2067 122.593 54.86V45C122.593 44.6533 122.7 44.38 122.913 44.18C123.126 43.9667 123.406 43.86 123.753 43.86H130.373C130.44 43.94 130.493 44.0533 130.533 44.2C130.586 44.3467 130.613 44.5067 130.613 44.68C130.613 44.9733 130.54 45.2 130.393 45.36C130.26 45.52 130.073 45.6 129.833 45.6H124.713V48.92H129.773C129.84 49 129.893 49.1133 129.933 49.26C129.986 49.4067 130.013 49.5667 130.013 49.74C130.013 50.0467 129.94 50.2733 129.793 50.42C129.66 50.5667 129.473 50.64 129.233 50.64H124.713V54.28H130.473C130.526 54.36 130.58 54.4733 130.633 54.62C130.686 54.7667 130.713 54.9267 130.713 55.1C130.713 55.4067 130.64 55.64 130.493 55.8C130.36 55.9467 130.173 56.02 129.933 56.02H123.753ZM136.476 55.96C136.369 56 136.229 56.0333 136.056 56.06C135.882 56.1 135.689 56.12 135.476 56.12C135.062 56.12 134.762 56.0467 134.576 55.9C134.402 55.74 134.316 55.48 134.316 55.12V44.8C134.316 44.5733 134.376 44.4 134.496 44.28C134.629 44.1467 134.809 44.0467 135.036 43.98C135.449 43.8333 135.942 43.7333 136.516 43.68C137.089 43.6267 137.662 43.6 138.236 43.6C139.969 43.6 141.256 43.9533 142.096 44.66C142.949 45.3533 143.376 46.3333 143.376 47.6C143.376 48.48 143.142 49.2333 142.676 49.86C142.222 50.4733 141.569 50.9333 140.716 51.24C141.036 51.64 141.349 52.04 141.656 52.44C141.962 52.8267 142.249 53.2 142.516 53.56C142.796 53.9067 143.042 54.2267 143.256 54.52C143.482 54.8 143.662 55.0333 143.796 55.22C143.729 55.5267 143.582 55.76 143.356 55.92C143.129 56.08 142.882 56.16 142.616 56.16C142.296 56.16 142.042 56.0867 141.856 55.94C141.669 55.78 141.482 55.5667 141.296 55.3L138.716 51.58H136.476V55.96ZM138.396 49.86C139.262 49.86 139.949 49.6733 140.456 49.3C140.962 48.9267 141.216 48.36 141.216 47.6C141.216 46.8533 140.956 46.2933 140.436 45.92C139.929 45.5467 139.176 45.36 138.176 45.36C137.869 45.36 137.562 45.3733 137.256 45.4C136.962 45.4267 136.696 45.46 136.456 45.5V49.86H138.396ZM154.127 52.96H149.247L148.267 56.02C148.147 56.0733 148.02 56.1133 147.887 56.14C147.754 56.1667 147.594 56.18 147.407 56.18C147.074 56.18 146.8 56.1067 146.587 55.96C146.374 55.8133 146.267 55.5933 146.267 55.3C146.267 55.1533 146.287 55.0133 146.327 54.88C146.367 54.7333 146.42 54.5733 146.487 54.4C146.66 53.84 146.9 53.12 147.207 52.24C147.527 51.3467 147.86 50.4067 148.207 49.42C148.567 48.4333 148.927 47.4667 149.287 46.52C149.647 45.56 149.96 44.74 150.227 44.06C150.36 43.98 150.567 43.9067 150.847 43.84C151.127 43.76 151.414 43.72 151.707 43.72C152.094 43.72 152.44 43.7733 152.747 43.88C153.054 43.9867 153.26 44.1733 153.367 44.44C153.66 45.2 153.98 46.0667 154.327 47.04C154.674 48 155.02 48.9933 155.367 50.02C155.714 51.0467 156.047 52.0533 156.367 53.04C156.687 54.0267 156.974 54.92 157.227 55.72C157.107 55.8533 156.947 55.96 156.747 56.04C156.56 56.1333 156.334 56.18 156.067 56.18C155.707 56.18 155.447 56.1133 155.287 55.98C155.127 55.8333 154.994 55.5933 154.887 55.26L154.127 52.96ZM151.687 45.58C151.554 45.94 151.407 46.3467 151.247 46.8C151.087 47.2533 150.92 47.7333 150.747 48.24C150.574 48.7333 150.4 49.24 150.227 49.76C150.054 50.2667 149.887 50.76 149.727 51.24H153.667C153.494 50.7067 153.314 50.1733 153.127 49.64C152.954 49.0933 152.78 48.5733 152.607 48.08C152.447 47.5867 152.294 47.1267 152.147 46.7C152 46.26 151.88 45.8867 151.787 45.58H151.687ZM164.258 45.62V55.96C164.165 56 164.025 56.0333 163.838 56.06C163.665 56.1 163.478 56.12 163.278 56.12C162.865 56.12 162.572 56.0467 162.398 55.9C162.225 55.74 162.138 55.48 162.138 55.12V45.62H158.598C158.532 45.5267 158.472 45.4067 158.418 45.26C158.378 45.1133 158.358 44.9467 158.358 44.76C158.358 44.4667 158.425 44.2467 158.558 44.1C158.705 43.94 158.898 43.86 159.138 43.86H167.838C167.892 43.94 167.938 44.0533 167.978 44.2C168.032 44.3467 168.058 44.5067 168.058 44.68C168.058 45.3067 167.798 45.62 167.278 45.62H164.258ZM181.876 49.92C181.876 50.96 181.722 51.88 181.416 52.68C181.122 53.4667 180.709 54.1267 180.176 54.66C179.642 55.1933 179.016 55.6 178.296 55.88C177.576 56.1467 176.789 56.28 175.936 56.28C175.082 56.28 174.289 56.1467 173.556 55.88C172.836 55.6 172.209 55.1933 171.676 54.66C171.156 54.1267 170.742 53.4667 170.436 52.68C170.142 51.88 169.996 50.96 169.996 49.92C169.996 48.88 170.149 47.9667 170.456 47.18C170.762 46.3933 171.182 45.7333 171.716 45.2C172.249 44.6533 172.876 44.2467 173.596 43.98C174.329 43.7 175.109 43.56 175.936 43.56C176.776 43.56 177.556 43.7 178.276 43.98C178.996 44.2467 179.622 44.6533 180.156 45.2C180.689 45.7333 181.109 46.3933 181.416 47.18C181.722 47.9667 181.876 48.88 181.876 49.92ZM179.696 49.92C179.696 48.4267 179.356 47.2933 178.676 46.52C177.996 45.7333 177.082 45.34 175.936 45.34C174.816 45.34 173.909 45.7333 173.216 46.52C172.536 47.3067 172.196 48.44 172.196 49.92C172.196 51.4133 172.536 52.5533 173.216 53.34C173.896 54.1267 174.802 54.52 175.936 54.52C177.082 54.52 177.996 54.1267 178.676 53.34C179.356 52.5533 179.696 51.4133 179.696 49.92ZM187.683 55.96C187.576 56 187.436 56.0333 187.263 56.06C187.089 56.1 186.896 56.12 186.683 56.12C186.269 56.12 185.969 56.0467 185.783 55.9C185.609 55.74 185.523 55.48 185.523 55.12V44.8C185.523 44.5733 185.583 44.4 185.703 44.28C185.836 44.1467 186.016 44.0467 186.243 43.98C186.656 43.8333 187.149 43.7333 187.723 43.68C188.296 43.6267 188.869 43.6 189.443 43.6C191.176 43.6 192.463 43.9533 193.303 44.66C194.156 45.3533 194.583 46.3333 194.583 47.6C194.583 48.48 194.349 49.2333 193.883 49.86C193.429 50.4733 192.776 50.9333 191.923 51.24C192.243 51.64 192.556 52.04 192.863 52.44C193.169 52.8267 193.456 53.2 193.723 53.56C194.003 53.9067 194.249 54.2267 194.463 54.52C194.689 54.8 194.869 55.0333 195.003 55.22C194.936 55.5267 194.789 55.76 194.563 55.92C194.336 56.08 194.089 56.16 193.823 56.16C193.503 56.16 193.249 56.0867 193.063 55.94C192.876 55.78 192.689 55.5667 192.503 55.3L189.923 51.58H187.683V55.96ZM189.603 49.86C190.469 49.86 191.156 49.6733 191.663 49.3C192.169 48.9267 192.423 48.36 192.423 47.6C192.423 46.8533 192.163 46.2933 191.643 45.92C191.136 45.5467 190.383 45.36 189.383 45.36C189.076 45.36 188.769 45.3733 188.463 45.4C188.169 45.4267 187.903 45.46 187.663 45.5V49.86H189.603Z" fill="white"/>
</svg>
