<?xml version="1.0" encoding="UTF-8" standalone="no"?>
<!DOCTYPE svg PUBLIC "-//W3C//DTD SVG 1.1//EN" "http://www.w3.org/Graphics/SVG/1.1/DTD/svg11.dtd">
<svg width="100%" height="100%" viewBox="0 0 200 200" version="1.1" xmlns="http://www.w3.org/2000/svg" xmlns:xlink="http://www.w3.org/1999/xlink" xml:space="preserve" xmlns:serif="http://www.serif.com/" style="fill-rule:evenodd;clip-rule:evenodd;stroke-linejoin:round;stroke-miterlimit:2;">
    <g transform="matrix(2.77166,0,0,2.79705,0.917326,-28.4057)">
        <path d="M70.102,61.026C71.422,61.821 71.854,63.542 70.967,64.801C63.658,75.165 51.739,81.343 39.057,81.343C17.636,81.343 0.009,63.716 0.009,42.295C0.009,31.189 4.748,20.593 13.027,13.189C14.175,12.163 15.934,12.394 16.876,13.613L17.752,14.747C18.694,15.965 18.46,17.709 17.328,18.753C10.756,24.816 7.013,33.361 7.013,42.303C7.013,56.443 16.373,68.989 29.928,73.016C42.9,76.869 56.977,72.106 64.945,61.169C65.852,59.924 67.556,59.491 68.875,60.286L70.102,61.026Z" style="fill:rgb(0,28,76);fill-rule:nonzero;"/>
    </g>
    <g transform="matrix(2.77166,0,0,2.79705,0.917326,-28.4057)">
        <path d="M51.346,26.38C53.429,26.938 55.061,28.571 55.619,30.654L59.469,45.018C60.027,47.101 59.429,49.33 57.904,50.855L47.389,61.371C45.864,62.896 43.634,63.493 41.551,62.935L27.187,59.085C25.104,58.527 23.472,56.895 22.914,54.813L19.065,40.449C18.507,38.366 19.104,36.136 20.629,34.611L31.144,24.096C32.669,22.571 34.899,21.974 36.982,22.532L51.346,26.381L51.346,26.38Z" style="fill:rgb(0,156,223);fill-rule:nonzero;"/>
    </g>
    <g transform="matrix(2.77166,0,0,2.79705,0.917326,-28.4057)">
        <path d="M63.18,14.547C65.263,15.105 66.895,16.737 67.453,18.82L71.303,33.184C71.861,35.267 71.263,37.496 69.738,39.021L59.223,49.537C57.698,51.062 55.468,51.659 53.385,51.101L39.021,47.252C36.938,46.694 35.306,45.062 34.748,42.979L30.899,28.615C30.341,26.532 30.938,24.302 32.463,22.777L42.978,12.262C44.503,10.737 46.733,10.14 48.816,10.698L63.18,14.547Z" style="fill:rgb(123,195,226);fill-opacity:0.69;fill-rule:nonzero;"/>
    </g>
</svg>
