<?xml version="1.0" encoding="UTF-8" standalone="no"?>
<!DOCTYPE svg PUBLIC "-//W3C//DTD SVG 1.1//EN" "http://www.w3.org/Graphics/SVG/1.1/DTD/svg11.dtd">
<svg width="100%" height="100%" viewBox="0 0 356 73" version="1.1" xmlns="http://www.w3.org/2000/svg" xmlns:xlink="http://www.w3.org/1999/xlink" xml:space="preserve" xmlns:serif="http://www.serif.com/" style="fill-rule:evenodd;clip-rule:evenodd;stroke-linejoin:round;stroke-miterlimit:2;">
    <g transform="matrix(1.69144,0,0,1,-61.1297,-3.9533)">
        <path d="M90.893,58.215L90.893,51.715L92.111,51.715L92.111,58.375C92.111,58.655 92.075,58.882 92.004,59.055C91.933,59.229 91.819,59.395 91.661,59.555C91.488,59.742 91.248,59.919 90.94,60.085C90.633,60.252 90.278,60.335 89.876,60.335C89.277,60.335 88.755,60.162 88.309,59.815C87.864,59.469 87.517,58.932 87.269,58.205C87.02,57.479 86.896,56.549 86.896,55.415C86.896,54.255 87.019,53.309 87.263,52.575C87.507,51.842 87.842,51.299 88.268,50.945C88.694,50.592 89.159,50.415 89.663,50.415C89.963,50.415 90.243,50.482 90.503,50.615C90.763,50.749 90.968,50.915 91.118,51.115L91.118,52.915C90.976,52.689 90.794,52.492 90.574,52.325C90.353,52.159 90.097,52.075 89.805,52.075C89.498,52.075 89.216,52.185 88.96,52.405C88.703,52.625 88.5,52.982 88.351,53.475C88.201,53.969 88.126,54.622 88.126,55.435C88.126,56.555 88.284,57.375 88.599,57.895C88.914,58.415 89.336,58.675 89.864,58.675C90.109,58.675 90.312,58.629 90.473,58.535C90.635,58.442 90.775,58.335 90.893,58.215ZM92.111,52.175L90.893,52.175L90.893,47.075C90.948,47.049 91.027,47.015 91.129,46.975C91.232,46.935 91.338,46.915 91.449,46.915C91.677,46.915 91.845,46.985 91.951,47.125C92.058,47.265 92.111,47.509 92.111,47.855L92.111,52.175Z" style="fill:white;fill-rule:nonzero;"/>
    </g>
    <g transform="matrix(1.69144,0,0,1,-61.1297,-3.9533)">
        <path d="M94.807,56.515L94.748,55.015L98.106,54.215C98.082,53.589 97.952,53.065 97.716,52.645C97.479,52.225 97.144,52.015 96.71,52.015C96.269,52.015 95.902,52.282 95.611,52.815C95.319,53.349 95.169,54.109 95.161,55.095L95.185,55.855C95.248,56.802 95.449,57.512 95.788,57.985C96.127,58.459 96.573,58.695 97.124,58.695C97.455,58.695 97.759,58.609 98.035,58.435C98.311,58.262 98.531,58.075 98.697,57.875C98.792,57.969 98.868,58.095 98.928,58.255C98.987,58.415 99.016,58.589 99.016,58.775C99.016,59.069 98.929,59.335 98.756,59.575C98.583,59.815 98.348,60.002 98.053,60.135C97.757,60.269 97.424,60.335 97.053,60.335C96.446,60.335 95.914,60.145 95.457,59.765C95,59.385 94.645,58.819 94.393,58.065C94.141,57.312 94.015,56.389 94.015,55.295C94.015,54.509 94.083,53.812 94.221,53.205C94.359,52.599 94.551,52.089 94.795,51.675C95.039,51.262 95.327,50.949 95.658,50.735C95.989,50.522 96.344,50.415 96.722,50.415C97.219,50.415 97.658,50.592 98.041,50.945C98.423,51.299 98.721,51.789 98.933,52.415C99.146,53.042 99.253,53.755 99.253,54.555C99.253,54.889 99.205,55.132 99.111,55.285C99.016,55.439 98.882,55.535 98.709,55.575L94.807,56.515Z" style="fill:white;fill-rule:nonzero;"/>
    </g>
    <g transform="matrix(1.69144,0,0,1,-61.1297,-3.9533)">
        <path d="M105.224,57.475C105.224,58.369 105.029,59.069 104.639,59.575C104.248,60.082 103.683,60.335 102.942,60.335C102.327,60.335 101.822,60.175 101.428,59.855C101.034,59.535 100.837,59.149 100.837,58.695C100.837,58.495 100.867,58.312 100.926,58.145C100.985,57.979 101.066,57.842 101.168,57.735C101.389,57.975 101.643,58.195 101.931,58.395C102.219,58.595 102.544,58.695 102.906,58.695C103.647,58.695 104.018,58.295 104.018,57.495C104.018,57.149 103.955,56.872 103.829,56.665C103.703,56.459 103.513,56.302 103.261,56.195L102.433,55.835C101.905,55.635 101.515,55.315 101.263,54.875C101.011,54.435 100.884,53.869 100.884,53.175C100.884,52.402 101.072,51.749 101.446,51.215C101.821,50.682 102.366,50.415 103.084,50.415C103.454,50.415 103.783,50.479 104.071,50.605C104.359,50.732 104.583,50.909 104.745,51.135C104.907,51.362 104.987,51.615 104.987,51.895C104.987,52.095 104.96,52.275 104.905,52.435C104.849,52.595 104.779,52.715 104.692,52.795C104.597,52.702 104.471,52.595 104.313,52.475C104.156,52.355 103.976,52.255 103.775,52.175C103.574,52.095 103.368,52.055 103.155,52.055C102.824,52.055 102.561,52.152 102.368,52.345C102.175,52.539 102.079,52.815 102.079,53.175C102.079,53.429 102.134,53.652 102.244,53.845C102.355,54.039 102.54,54.182 102.8,54.275L103.498,54.575C104.089,54.802 104.524,55.152 104.804,55.625C105.084,56.099 105.224,56.715 105.224,57.475Z" style="fill:white;fill-rule:nonzero;"/>
    </g>
    <g transform="matrix(1.69144,0,0,1,-61.1297,-3.9533)">
        <path d="M106.998,47.835C106.998,47.489 107.069,47.202 107.21,46.975C107.352,46.749 107.526,46.635 107.731,46.635C107.951,46.635 108.129,46.749 108.263,46.975C108.397,47.202 108.464,47.489 108.464,47.835C108.464,48.169 108.397,48.452 108.263,48.685C108.129,48.919 107.951,49.035 107.731,49.035C107.526,49.035 107.352,48.919 107.21,48.685C107.069,48.452 106.998,48.169 106.998,47.835ZM107.128,54.775L108.346,54.775L108.346,60.015C108.29,60.042 108.213,60.075 108.115,60.115C108.016,60.155 107.908,60.175 107.79,60.175C107.569,60.175 107.404,60.102 107.293,59.955C107.183,59.809 107.128,59.569 107.128,59.235L107.128,54.775ZM108.346,55.795L107.128,55.795L107.128,50.755C107.183,50.729 107.262,50.699 107.364,50.665C107.467,50.632 107.577,50.615 107.695,50.615C107.916,50.615 108.079,50.685 108.186,50.825C108.292,50.965 108.346,51.209 108.346,51.555L108.346,55.795Z" style="fill:white;fill-rule:nonzero;"/>
    </g>
    <g transform="matrix(1.69144,0,0,1,-61.1297,-3.9533)">
        <path d="M112.874,59.735C112.409,59.735 111.981,59.585 111.591,59.285C111.201,58.985 110.888,58.492 110.651,57.805C110.415,57.119 110.297,56.215 110.297,55.095C110.297,54.069 110.415,53.209 110.651,52.515C110.888,51.822 111.217,51.299 111.639,50.945C112.06,50.592 112.547,50.415 113.099,50.415C113.485,50.415 113.84,50.499 114.163,50.665C114.486,50.832 114.75,51.029 114.955,51.255C115.081,51.402 115.184,51.569 115.263,51.755C115.342,51.942 115.381,52.169 115.381,52.435L115.381,58.635L114.187,58.635L114.187,52.555C114.068,52.435 113.923,52.325 113.749,52.225C113.576,52.125 113.367,52.075 113.123,52.075C112.642,52.075 112.253,52.325 111.958,52.825C111.662,53.325 111.514,54.075 111.514,55.075C111.514,56.195 111.66,56.982 111.952,57.435C112.244,57.889 112.606,58.115 113.04,58.115C113.363,58.115 113.623,58.022 113.82,57.835C114.017,57.649 114.179,57.449 114.305,57.235L114.364,58.955C114.23,59.155 114.037,59.335 113.785,59.495C113.532,59.655 113.229,59.735 112.874,59.735ZM114.199,60.215L114.199,58.195L115.381,58.195L115.381,60.315C115.381,61.209 115.263,61.932 115.026,62.485C114.79,63.039 114.469,63.442 114.063,63.695C113.657,63.949 113.201,64.075 112.697,64.075C112.295,64.075 111.948,64.005 111.656,63.865C111.365,63.725 111.156,63.595 111.03,63.475C110.777,63.222 110.651,62.895 110.651,62.495C110.651,62.269 110.681,62.079 110.74,61.925C110.799,61.772 110.868,61.655 110.947,61.575C111.128,61.789 111.369,61.979 111.668,62.145C111.968,62.312 112.287,62.395 112.626,62.395C113.13,62.395 113.519,62.222 113.791,61.875C114.063,61.529 114.199,60.975 114.199,60.215Z" style="fill:white;fill-rule:nonzero;"/>
    </g>
    <g transform="matrix(1.69144,0,0,1,-61.1297,-3.9533)">
        <path d="M122.499,53.915L122.499,55.895L121.281,55.895L121.281,53.995C121.281,53.329 121.171,52.842 120.95,52.535C120.729,52.229 120.434,52.075 120.063,52.075C119.787,52.075 119.539,52.135 119.318,52.255C119.098,52.375 118.909,52.509 118.751,52.655L118.751,55.895L117.533,55.895L117.533,52.615C117.533,52.309 117.57,52.059 117.645,51.865C117.72,51.672 117.84,51.489 118.006,51.315C118.227,51.089 118.514,50.882 118.869,50.695C119.224,50.509 119.622,50.415 120.063,50.415C120.828,50.415 121.425,50.705 121.855,51.285C122.284,51.865 122.499,52.742 122.499,53.915ZM117.533,54.855L118.751,54.855L118.751,60.015C118.696,60.042 118.619,60.075 118.52,60.115C118.422,60.155 118.313,60.175 118.195,60.175C117.974,60.175 117.809,60.102 117.699,59.955C117.588,59.809 117.533,59.569 117.533,59.235L117.533,54.855ZM121.281,54.855L122.499,54.855L122.499,60.015C122.444,60.042 122.365,60.075 122.263,60.115C122.16,60.155 122.054,60.175 121.943,60.175C121.715,60.175 121.547,60.102 121.441,59.955C121.334,59.809 121.281,59.569 121.281,59.235L121.281,54.855Z" style="fill:white;fill-rule:nonzero;"/>
    </g>
    <g transform="matrix(1.69144,0,0,1,-61.1297,-3.9533)">
        <path d="M125.171,56.515L125.112,55.015L128.47,54.215C128.447,53.589 128.317,53.065 128.08,52.645C127.844,52.225 127.509,52.015 127.075,52.015C126.634,52.015 126.267,52.282 125.975,52.815C125.684,53.349 125.534,54.109 125.526,55.095L125.55,55.855C125.613,56.802 125.814,57.512 126.153,57.985C126.492,58.459 126.937,58.695 127.489,58.695C127.82,58.695 128.124,58.609 128.399,58.435C128.675,58.262 128.896,58.075 129.062,57.875C129.156,57.969 129.233,58.095 129.292,58.255C129.351,58.415 129.381,58.589 129.381,58.775C129.381,59.069 129.294,59.335 129.121,59.575C128.947,59.815 128.713,60.002 128.417,60.135C128.122,60.269 127.789,60.335 127.418,60.335C126.811,60.335 126.279,60.145 125.822,59.765C125.365,59.385 125.01,58.819 124.758,58.065C124.505,57.312 124.379,56.389 124.379,55.295C124.379,54.509 124.448,53.812 124.586,53.205C124.724,52.599 124.915,52.089 125.16,51.675C125.404,51.262 125.692,50.949 126.023,50.735C126.354,50.522 126.709,50.415 127.087,50.415C127.584,50.415 128.023,50.592 128.405,50.945C128.788,51.299 129.085,51.789 129.298,52.415C129.511,53.042 129.617,53.755 129.617,54.555C129.617,54.889 129.57,55.132 129.475,55.285C129.381,55.439 129.247,55.535 129.073,55.575L125.171,56.515Z" style="fill:white;fill-rule:nonzero;"/>
    </g>
    <g transform="matrix(1.69144,0,0,1,-61.1297,-3.9533)">
        <path d="M132.644,52.695L132.644,55.635L131.426,55.635L131.426,52.655C131.426,52.335 131.468,52.072 131.551,51.865C131.633,51.659 131.758,51.462 131.923,51.275C132.144,51.035 132.434,50.835 132.792,50.675C133.151,50.515 133.543,50.435 133.969,50.435C134.655,50.435 134.997,50.762 134.997,51.415C134.997,51.575 134.984,51.722 134.956,51.855C134.928,51.989 134.895,52.109 134.856,52.215C134.777,52.189 134.676,52.162 134.554,52.135C134.432,52.109 134.308,52.095 134.182,52.095C133.858,52.095 133.565,52.152 133.301,52.265C133.037,52.379 132.818,52.522 132.644,52.695ZM131.426,54.775L132.644,54.955L132.644,60.015C132.589,60.042 132.512,60.075 132.414,60.115C132.315,60.155 132.207,60.175 132.089,60.175C131.868,60.175 131.702,60.102 131.592,59.955C131.482,59.809 131.426,59.569 131.426,59.235L131.426,54.775Z" style="fill:white;fill-rule:nonzero;"/>
    </g>
    <path d="M71.102,52.065C72.422,52.86 72.854,54.581 71.967,55.84C69.207,59.755 65.746,63.136 61.751,65.807C56.981,68.995 51.568,71.093 45.895,71.952C40.223,72.811 34.431,72.409 28.931,70.776C23.432,69.142 18.36,66.317 14.076,62.501C9.792,58.685 6.401,53.972 4.145,48.697C1.89,43.422 0.824,37.715 1.024,31.982C1.224,26.248 2.685,20.629 5.302,15.524C7.495,11.248 10.455,7.42 14.026,4.228C15.175,3.202 16.934,3.433 17.876,4.652L18.752,5.786C19.694,7.005 19.46,8.748 18.328,9.792C15.563,12.342 13.264,15.364 11.541,18.723C9.393,22.912 8.194,27.522 8.03,32.226C7.866,36.93 8.741,41.613 10.592,45.941C12.443,50.268 15.224,54.135 18.739,57.266C22.254,60.397 26.415,62.715 30.927,64.055C35.44,65.395 40.192,65.725 44.846,65.02C49.5,64.315 53.941,62.594 57.855,59.978C60.993,57.88 63.73,55.248 65.945,52.208C66.852,50.963 68.556,50.53 69.876,51.325L71.102,52.065Z" style="fill:rgb(0,28,76);fill-rule:nonzero;"/>
    <path d="M52.346,17.42C54.432,17.978 56.061,19.607 56.619,21.693L60.468,36.057C61.027,38.143 60.431,40.368 58.904,41.895L48.389,52.41C46.862,53.936 44.637,54.533 42.551,53.974L28.187,50.125C26.102,49.566 24.473,47.937 23.914,45.852L20.065,31.488C19.506,29.402 20.103,27.177 21.629,25.65L32.144,15.135C33.671,13.608 35.896,13.012 37.982,13.571L52.346,17.42Z" style="fill:white;fill-rule:nonzero;"/>
    <path d="M64.18,5.586C66.266,6.144 67.894,7.773 68.453,9.859L72.302,24.223C72.861,26.309 72.265,28.534 70.738,30.061L60.223,40.576C58.696,42.102 56.471,42.699 54.385,42.14L40.021,38.291C37.936,37.732 36.307,36.103 35.748,34.018L31.899,19.654C31.34,17.568 31.936,15.343 33.463,13.816L43.978,3.301C45.505,1.774 47.73,1.178 49.816,1.737L64.18,5.586Z" style="fill:rgb(123,195,226);fill-opacity:0.69;fill-rule:nonzero;"/>
    <path d="M89.32,30.064C89.824,30.064 90.238,30.016 90.562,29.92C90.898,29.812 91.138,29.71 91.282,29.614L91.282,27.004L89.05,27.238C88.426,27.298 87.964,27.442 87.664,27.67C87.364,27.886 87.214,28.21 87.214,28.642C87.214,29.098 87.388,29.452 87.736,29.704C88.084,29.944 88.612,30.064 89.32,30.064ZM89.302,22.45C90.346,22.45 91.174,22.684 91.786,23.152C92.398,23.62 92.704,24.358 92.704,25.366L92.704,29.632C92.704,29.896 92.65,30.1 92.542,30.244C92.446,30.376 92.296,30.502 92.092,30.622C91.804,30.79 91.42,30.934 90.94,31.054C90.472,31.186 89.932,31.252 89.32,31.252C88.192,31.252 87.316,31.03 86.692,30.586C86.08,30.142 85.774,29.5 85.774,28.66C85.774,27.868 86.032,27.274 86.548,26.878C87.064,26.47 87.79,26.218 88.726,26.122L91.282,25.87L91.282,25.366C91.282,24.766 91.102,24.328 90.742,24.052C90.382,23.776 89.896,23.638 89.284,23.638C88.78,23.638 88.306,23.71 87.862,23.854C87.418,23.998 87.022,24.16 86.674,24.34C86.578,24.256 86.488,24.16 86.404,24.052C86.332,23.944 86.296,23.824 86.296,23.692C86.296,23.524 86.338,23.386 86.422,23.278C86.506,23.17 86.638,23.068 86.818,22.972C87.142,22.804 87.514,22.678 87.934,22.594C88.354,22.498 88.81,22.45 89.302,22.45ZM102.1,28.786C102.1,29.554 101.818,30.154 101.254,30.586C100.69,31.018 99.874,31.234 98.806,31.234C98.35,31.234 97.93,31.192 97.546,31.108C97.162,31.036 96.832,30.94 96.556,30.82C96.292,30.688 96.082,30.544 95.926,30.388C95.782,30.22 95.71,30.052 95.71,29.884C95.71,29.74 95.746,29.602 95.818,29.47C95.902,29.338 96.022,29.224 96.178,29.128C96.502,29.368 96.88,29.584 97.312,29.776C97.744,29.956 98.236,30.046 98.788,30.046C100.036,30.046 100.66,29.626 100.66,28.786C100.66,28.102 100.246,27.658 99.418,27.454L97.924,27.058C97.192,26.866 96.658,26.59 96.322,26.23C95.986,25.858 95.818,25.384 95.818,24.808C95.818,24.496 95.878,24.196 95.998,23.908C96.13,23.62 96.328,23.368 96.592,23.152C96.856,22.936 97.18,22.768 97.564,22.648C97.96,22.516 98.422,22.45 98.95,22.45C99.79,22.45 100.468,22.576 100.984,22.828C101.5,23.068 101.758,23.35 101.758,23.674C101.758,23.83 101.716,23.968 101.632,24.088C101.56,24.208 101.458,24.298 101.326,24.358C101.11,24.214 100.804,24.058 100.408,23.89C100.012,23.722 99.544,23.638 99.004,23.638C98.464,23.638 98.032,23.74 97.708,23.944C97.396,24.148 97.24,24.436 97.24,24.808C97.24,25.084 97.33,25.318 97.51,25.51C97.69,25.702 97.99,25.846 98.41,25.942L99.652,26.248C100.468,26.452 101.08,26.758 101.488,27.166C101.896,27.562 102.1,28.102 102.1,28.786ZM111.051,28.786C111.051,29.554 110.769,30.154 110.205,30.586C109.641,31.018 108.825,31.234 107.757,31.234C107.301,31.234 106.881,31.192 106.497,31.108C106.113,31.036 105.783,30.94 105.507,30.82C105.243,30.688 105.033,30.544 104.877,30.388C104.733,30.22 104.661,30.052 104.661,29.884C104.661,29.74 104.697,29.602 104.769,29.47C104.853,29.338 104.973,29.224 105.129,29.128C105.453,29.368 105.831,29.584 106.263,29.776C106.695,29.956 107.187,30.046 107.739,30.046C108.987,30.046 109.611,29.626 109.611,28.786C109.611,28.102 109.197,27.658 108.369,27.454L106.875,27.058C106.143,26.866 105.609,26.59 105.273,26.23C104.937,25.858 104.769,25.384 104.769,24.808C104.769,24.496 104.829,24.196 104.949,23.908C105.081,23.62 105.279,23.368 105.543,23.152C105.807,22.936 106.131,22.768 106.515,22.648C106.911,22.516 107.373,22.45 107.901,22.45C108.741,22.45 109.419,22.576 109.935,22.828C110.451,23.068 110.709,23.35 110.709,23.674C110.709,23.83 110.667,23.968 110.583,24.088C110.511,24.208 110.409,24.298 110.277,24.358C110.061,24.214 109.755,24.058 109.359,23.89C108.963,23.722 108.495,23.638 107.955,23.638C107.415,23.638 106.983,23.74 106.659,23.944C106.347,24.148 106.191,24.436 106.191,24.808C106.191,25.084 106.281,25.318 106.461,25.51C106.641,25.702 106.941,25.846 107.361,25.942L108.603,26.248C109.419,26.452 110.031,26.758 110.439,27.166C110.847,27.562 111.051,28.102 111.051,28.786ZM115.248,27.688C115.572,29.26 116.604,30.046 118.344,30.046C118.848,30.046 119.304,29.962 119.712,29.794C120.12,29.626 120.444,29.446 120.684,29.254C120.972,29.422 121.116,29.65 121.116,29.938C121.116,30.106 121.038,30.268 120.882,30.424C120.738,30.58 120.534,30.718 120.27,30.838C120.018,30.958 119.718,31.054 119.37,31.126C119.034,31.198 118.668,31.234 118.272,31.234C116.88,31.234 115.776,30.856 114.96,30.1C114.156,29.344 113.754,28.24 113.754,26.788C113.754,26.104 113.85,25.498 114.042,24.97C114.246,24.43 114.522,23.974 114.87,23.602C115.23,23.23 115.656,22.948 116.148,22.756C116.64,22.552 117.174,22.45 117.75,22.45C118.29,22.45 118.788,22.54 119.244,22.72C119.7,22.9 120.09,23.158 120.414,23.494C120.75,23.818 121.008,24.208 121.188,24.664C121.38,25.108 121.476,25.6 121.476,26.14C121.476,26.404 121.416,26.596 121.296,26.716C121.176,26.824 121.008,26.89 120.792,26.914L115.248,27.688ZM117.732,23.62C117,23.62 116.394,23.878 115.914,24.394C115.434,24.898 115.182,25.624 115.158,26.572L120.108,25.888C120.048,25.228 119.814,24.688 119.406,24.268C119.01,23.836 118.452,23.62 117.732,23.62ZM127.3,31.234C126.46,31.234 125.776,31.048 125.248,30.676C124.732,30.304 124.474,29.686 124.474,28.822L124.474,20.272C124.534,20.248 124.624,20.224 124.744,20.2C124.876,20.164 125.014,20.146 125.158,20.146C125.662,20.146 125.914,20.362 125.914,20.794L125.914,22.864L128.866,22.864C128.902,22.924 128.938,23.008 128.974,23.116C129.01,23.212 129.028,23.32 129.028,23.44C129.028,23.848 128.848,24.052 128.488,24.052L125.914,24.052L125.914,28.732C125.914,29.212 126.046,29.554 126.31,29.758C126.586,29.95 126.97,30.046 127.462,30.046C127.666,30.046 127.894,30.01 128.146,29.938C128.398,29.866 128.608,29.782 128.776,29.686C128.848,29.758 128.914,29.848 128.974,29.956C129.034,30.064 129.064,30.19 129.064,30.334C129.064,30.598 128.908,30.814 128.596,30.982C128.284,31.15 127.852,31.234 127.3,31.234ZM139.527,30.064C140.031,30.064 140.445,30.016 140.769,29.92C141.105,29.812 141.345,29.71 141.489,29.614L141.489,27.004L139.257,27.238C138.633,27.298 138.171,27.442 137.871,27.67C137.571,27.886 137.421,28.21 137.421,28.642C137.421,29.098 137.595,29.452 137.943,29.704C138.291,29.944 138.819,30.064 139.527,30.064ZM139.509,22.45C140.553,22.45 141.381,22.684 141.993,23.152C142.605,23.62 142.911,24.358 142.911,25.366L142.911,29.632C142.911,29.896 142.857,30.1 142.749,30.244C142.653,30.376 142.503,30.502 142.299,30.622C142.011,30.79 141.627,30.934 141.147,31.054C140.679,31.186 140.139,31.252 139.527,31.252C138.399,31.252 137.523,31.03 136.899,30.586C136.287,30.142 135.981,29.5 135.981,28.66C135.981,27.868 136.239,27.274 136.755,26.878C137.271,26.47 137.997,26.218 138.933,26.122L141.489,25.87L141.489,25.366C141.489,24.766 141.309,24.328 140.949,24.052C140.589,23.776 140.103,23.638 139.491,23.638C138.987,23.638 138.513,23.71 138.069,23.854C137.625,23.998 137.229,24.16 136.881,24.34C136.785,24.256 136.695,24.16 136.611,24.052C136.539,23.944 136.503,23.824 136.503,23.692C136.503,23.524 136.545,23.386 136.629,23.278C136.713,23.17 136.845,23.068 137.025,22.972C137.349,22.804 137.721,22.678 138.141,22.594C138.561,22.498 139.017,22.45 139.509,22.45ZM153.549,29.632C153.549,29.872 153.495,30.058 153.387,30.19C153.291,30.322 153.135,30.454 152.919,30.586C152.679,30.742 152.337,30.886 151.893,31.018C151.449,31.162 150.939,31.234 150.363,31.234C149.715,31.234 149.121,31.15 148.581,30.982C148.041,30.814 147.573,30.556 147.177,30.208C146.793,29.848 146.493,29.398 146.277,28.858C146.073,28.306 145.971,27.646 145.971,26.878C145.971,26.098 146.079,25.432 146.295,24.88C146.511,24.316 146.799,23.854 147.159,23.494C147.531,23.134 147.963,22.87 148.455,22.702C148.959,22.534 149.493,22.45 150.057,22.45C150.441,22.45 150.813,22.498 151.173,22.594C151.533,22.69 151.845,22.81 152.109,22.954L152.109,19.336C152.169,19.312 152.259,19.288 152.379,19.264C152.511,19.228 152.643,19.21 152.775,19.21C153.291,19.21 153.549,19.426 153.549,19.858L153.549,29.632ZM152.109,24.25C151.869,24.082 151.593,23.938 151.281,23.818C150.969,23.698 150.609,23.638 150.201,23.638C149.829,23.638 149.475,23.698 149.139,23.818C148.815,23.926 148.527,24.112 148.275,24.376C148.023,24.628 147.819,24.964 147.663,25.384C147.519,25.804 147.447,26.314 147.447,26.914C147.447,28.018 147.711,28.816 148.239,29.308C148.767,29.8 149.469,30.046 150.345,30.046C150.765,30.046 151.107,30.004 151.371,29.92C151.647,29.824 151.893,29.71 152.109,29.578L152.109,24.25ZM167.731,25.348C167.731,24.76 167.563,24.328 167.227,24.052C166.891,23.776 166.441,23.638 165.877,23.638C165.097,23.638 164.401,23.914 163.789,24.466C163.861,24.706 163.897,24.964 163.897,25.24L163.897,30.964C163.837,30.988 163.741,31.012 163.609,31.036C163.489,31.072 163.363,31.09 163.231,31.09C162.715,31.09 162.457,30.874 162.457,30.442L162.457,25.348C162.457,24.76 162.289,24.328 161.953,24.052C161.617,23.776 161.161,23.638 160.585,23.638C160.201,23.638 159.835,23.698 159.487,23.818C159.151,23.938 158.863,24.076 158.623,24.232L158.623,30.964C158.563,30.988 158.473,31.012 158.353,31.036C158.233,31.072 158.101,31.09 157.957,31.09C157.441,31.09 157.183,30.874 157.183,30.442L157.183,24.304C157.183,24.064 157.231,23.866 157.327,23.71C157.435,23.542 157.615,23.374 157.867,23.206C158.191,23.002 158.599,22.828 159.091,22.684C159.595,22.528 160.099,22.45 160.603,22.45C161.191,22.45 161.713,22.54 162.169,22.72C162.625,22.888 162.973,23.122 163.213,23.422C163.525,23.146 163.915,22.918 164.383,22.738C164.851,22.546 165.385,22.45 165.985,22.45C166.957,22.45 167.731,22.684 168.307,23.152C168.883,23.608 169.171,24.316 169.171,25.276L169.171,30.964C169.111,30.988 169.015,31.012 168.883,31.036C168.763,31.072 168.637,31.09 168.505,31.09C167.989,31.09 167.731,30.874 167.731,30.442L167.731,25.348ZM174.308,30.964C174.248,30.988 174.158,31.012 174.038,31.036C173.918,31.072 173.786,31.09 173.642,31.09C173.126,31.09 172.868,30.874 172.868,30.442L172.868,22.72C172.928,22.696 173.018,22.672 173.138,22.648C173.27,22.612 173.408,22.594 173.552,22.594C174.056,22.594 174.308,22.816 174.308,23.26L174.308,30.964ZM172.652,20.056C172.652,19.804 172.736,19.594 172.904,19.426C173.084,19.246 173.312,19.156 173.588,19.156C173.864,19.156 174.086,19.246 174.254,19.426C174.422,19.594 174.506,19.804 174.506,20.056C174.506,20.308 174.422,20.524 174.254,20.704C174.086,20.872 173.864,20.956 173.588,20.956C173.312,20.956 173.084,20.872 172.904,20.704C172.736,20.524 172.652,20.308 172.652,20.056ZM183.78,25.582C183.78,24.91 183.588,24.418 183.204,24.106C182.832,23.794 182.328,23.638 181.692,23.638C181.212,23.638 180.786,23.698 180.414,23.818C180.042,23.938 179.724,24.076 179.46,24.232L179.46,30.964C179.4,30.988 179.31,31.012 179.19,31.036C179.07,31.072 178.938,31.09 178.794,31.09C178.278,31.09 178.02,30.874 178.02,30.442L178.02,24.304C178.02,24.052 178.068,23.848 178.164,23.692C178.272,23.524 178.452,23.362 178.704,23.206C179.016,23.014 179.43,22.84 179.946,22.684C180.462,22.528 181.044,22.45 181.692,22.45C182.784,22.45 183.642,22.696 184.266,23.188C184.902,23.68 185.22,24.454 185.22,25.51L185.22,30.964C185.16,30.988 185.064,31.012 184.932,31.036C184.812,31.072 184.686,31.09 184.554,31.09C184.038,31.09 183.78,30.874 183.78,30.442L183.78,25.582ZM190.346,30.964C190.286,30.988 190.196,31.012 190.076,31.036C189.956,31.072 189.824,31.09 189.68,31.09C189.164,31.09 188.906,30.874 188.906,30.442L188.906,22.72C188.966,22.696 189.056,22.672 189.176,22.648C189.308,22.612 189.446,22.594 189.59,22.594C190.094,22.594 190.346,22.816 190.346,23.26L190.346,30.964ZM188.69,20.056C188.69,19.804 188.774,19.594 188.942,19.426C189.122,19.246 189.35,19.156 189.626,19.156C189.902,19.156 190.124,19.246 190.292,19.426C190.46,19.594 190.544,19.804 190.544,20.056C190.544,20.308 190.46,20.524 190.292,20.704C190.124,20.872 189.902,20.956 189.626,20.956C189.35,20.956 189.122,20.872 188.942,20.704C188.774,20.524 188.69,20.308 188.69,20.056ZM199.926,28.786C199.926,29.554 199.644,30.154 199.08,30.586C198.516,31.018 197.7,31.234 196.632,31.234C196.176,31.234 195.756,31.192 195.372,31.108C194.988,31.036 194.658,30.94 194.382,30.82C194.118,30.688 193.908,30.544 193.752,30.388C193.608,30.22 193.536,30.052 193.536,29.884C193.536,29.74 193.572,29.602 193.644,29.47C193.728,29.338 193.848,29.224 194.004,29.128C194.328,29.368 194.706,29.584 195.138,29.776C195.57,29.956 196.062,30.046 196.614,30.046C197.862,30.046 198.486,29.626 198.486,28.786C198.486,28.102 198.072,27.658 197.244,27.454L195.75,27.058C195.018,26.866 194.484,26.59 194.148,26.23C193.812,25.858 193.644,25.384 193.644,24.808C193.644,24.496 193.704,24.196 193.824,23.908C193.956,23.62 194.154,23.368 194.418,23.152C194.682,22.936 195.006,22.768 195.39,22.648C195.786,22.516 196.248,22.45 196.776,22.45C197.616,22.45 198.294,22.576 198.81,22.828C199.326,23.068 199.584,23.35 199.584,23.674C199.584,23.83 199.542,23.968 199.458,24.088C199.386,24.208 199.284,24.298 199.152,24.358C198.936,24.214 198.63,24.058 198.234,23.89C197.838,23.722 197.37,23.638 196.83,23.638C196.29,23.638 195.858,23.74 195.534,23.944C195.222,24.148 195.066,24.436 195.066,24.808C195.066,25.084 195.156,25.318 195.336,25.51C195.516,25.702 195.816,25.846 196.236,25.942L197.478,26.248C198.294,26.452 198.906,26.758 199.314,27.166C199.722,27.562 199.926,28.102 199.926,28.786ZM205.853,31.234C205.013,31.234 204.329,31.048 203.801,30.676C203.285,30.304 203.027,29.686 203.027,28.822L203.027,20.272C203.087,20.248 203.177,20.224 203.297,20.2C203.429,20.164 203.567,20.146 203.711,20.146C204.215,20.146 204.467,20.362 204.467,20.794L204.467,22.864L207.419,22.864C207.455,22.924 207.491,23.008 207.527,23.116C207.563,23.212 207.581,23.32 207.581,23.44C207.581,23.848 207.401,24.052 207.041,24.052L204.467,24.052L204.467,28.732C204.467,29.212 204.599,29.554 204.863,29.758C205.139,29.95 205.523,30.046 206.015,30.046C206.219,30.046 206.447,30.01 206.699,29.938C206.951,29.866 207.161,29.782 207.329,29.686C207.401,29.758 207.467,29.848 207.527,29.956C207.587,30.064 207.617,30.19 207.617,30.334C207.617,30.598 207.461,30.814 207.149,30.982C206.837,31.15 206.405,31.234 205.853,31.234ZM212.046,30.964C211.986,30.988 211.896,31.012 211.776,31.036C211.656,31.072 211.524,31.09 211.38,31.09C210.864,31.09 210.606,30.874 210.606,30.442L210.606,24.34C210.606,24.064 210.654,23.848 210.75,23.692C210.858,23.524 211.032,23.362 211.272,23.206C211.584,23.002 212.004,22.828 212.532,22.684C213.072,22.528 213.678,22.45 214.35,22.45C215.31,22.45 215.79,22.69 215.79,23.17C215.79,23.29 215.772,23.404 215.736,23.512C215.7,23.608 215.652,23.692 215.592,23.764C215.472,23.74 215.316,23.716 215.124,23.692C214.932,23.668 214.74,23.656 214.548,23.656C213.996,23.656 213.51,23.716 213.09,23.836C212.67,23.944 212.322,24.076 212.046,24.232L212.046,30.964ZM221.261,30.064C221.765,30.064 222.179,30.016 222.503,29.92C222.839,29.812 223.079,29.71 223.223,29.614L223.223,27.004L220.991,27.238C220.367,27.298 219.905,27.442 219.605,27.67C219.305,27.886 219.155,28.21 219.155,28.642C219.155,29.098 219.329,29.452 219.677,29.704C220.025,29.944 220.553,30.064 221.261,30.064ZM221.243,22.45C222.287,22.45 223.115,22.684 223.727,23.152C224.339,23.62 224.645,24.358 224.645,25.366L224.645,29.632C224.645,29.896 224.591,30.1 224.483,30.244C224.387,30.376 224.237,30.502 224.033,30.622C223.745,30.79 223.361,30.934 222.881,31.054C222.413,31.186 221.873,31.252 221.261,31.252C220.133,31.252 219.257,31.03 218.633,30.586C218.021,30.142 217.715,29.5 217.715,28.66C217.715,27.868 217.973,27.274 218.489,26.878C219.005,26.47 219.731,26.218 220.667,26.122L223.223,25.87L223.223,25.366C223.223,24.766 223.043,24.328 222.683,24.052C222.323,23.776 221.837,23.638 221.225,23.638C220.721,23.638 220.247,23.71 219.803,23.854C219.359,23.998 218.963,24.16 218.615,24.34C218.519,24.256 218.429,24.16 218.345,24.052C218.273,23.944 218.237,23.824 218.237,23.692C218.237,23.524 218.279,23.386 218.363,23.278C218.447,23.17 218.579,23.068 218.759,22.972C219.083,22.804 219.455,22.678 219.875,22.594C220.295,22.498 220.751,22.45 221.243,22.45ZM231.018,31.234C230.178,31.234 229.494,31.048 228.966,30.676C228.45,30.304 228.192,29.686 228.192,28.822L228.192,20.272C228.252,20.248 228.342,20.224 228.462,20.2C228.594,20.164 228.732,20.146 228.876,20.146C229.38,20.146 229.632,20.362 229.632,20.794L229.632,22.864L232.584,22.864C232.62,22.924 232.656,23.008 232.692,23.116C232.728,23.212 232.746,23.32 232.746,23.44C232.746,23.848 232.566,24.052 232.206,24.052L229.632,24.052L229.632,28.732C229.632,29.212 229.764,29.554 230.028,29.758C230.304,29.95 230.688,30.046 231.18,30.046C231.384,30.046 231.612,30.01 231.864,29.938C232.116,29.866 232.326,29.782 232.494,29.686C232.566,29.758 232.632,29.848 232.692,29.956C232.752,30.064 232.782,30.19 232.782,30.334C232.782,30.598 232.626,30.814 232.314,30.982C232.002,31.15 231.57,31.234 231.018,31.234ZM237.301,30.964C237.241,30.988 237.151,31.012 237.031,31.036C236.911,31.072 236.779,31.09 236.635,31.09C236.119,31.09 235.861,30.874 235.861,30.442L235.861,22.72C235.921,22.696 236.011,22.672 236.131,22.648C236.263,22.612 236.401,22.594 236.545,22.594C237.049,22.594 237.301,22.816 237.301,23.26L237.301,30.964ZM235.645,20.056C235.645,19.804 235.729,19.594 235.897,19.426C236.077,19.246 236.305,19.156 236.581,19.156C236.857,19.156 237.079,19.246 237.247,19.426C237.415,19.594 237.499,19.804 237.499,20.056C237.499,20.308 237.415,20.524 237.247,20.704C237.079,20.872 236.857,20.956 236.581,20.956C236.305,20.956 236.077,20.872 235.897,20.704C235.729,20.524 235.645,20.308 235.645,20.056ZM248.735,26.842C248.735,27.514 248.639,28.12 248.447,28.66C248.255,29.2 247.979,29.662 247.619,30.046C247.271,30.43 246.845,30.724 246.341,30.928C245.837,31.132 245.273,31.234 244.649,31.234C244.025,31.234 243.461,31.132 242.957,30.928C242.453,30.724 242.021,30.43 241.661,30.046C241.301,29.662 241.025,29.2 240.833,28.66C240.641,28.12 240.545,27.514 240.545,26.842C240.545,26.17 240.641,25.564 240.833,25.024C241.037,24.484 241.319,24.022 241.679,23.638C242.039,23.254 242.471,22.96 242.975,22.756C243.479,22.552 244.037,22.45 244.649,22.45C245.261,22.45 245.819,22.552 246.323,22.756C246.827,22.96 247.253,23.254 247.601,23.638C247.961,24.022 248.237,24.484 248.429,25.024C248.633,25.564 248.735,26.17 248.735,26.842ZM244.649,23.638C243.833,23.638 243.191,23.92 242.723,24.484C242.255,25.048 242.021,25.834 242.021,26.842C242.021,27.862 242.249,28.654 242.705,29.218C243.173,29.77 243.821,30.046 244.649,30.046C245.477,30.046 246.119,29.764 246.575,29.2C247.031,28.636 247.259,27.85 247.259,26.842C247.259,25.834 247.025,25.048 246.557,24.484C246.101,23.92 245.465,23.638 244.649,23.638ZM257.622,25.582C257.622,24.91 257.43,24.418 257.046,24.106C256.674,23.794 256.17,23.638 255.534,23.638C255.054,23.638 254.628,23.698 254.256,23.818C253.884,23.938 253.566,24.076 253.302,24.232L253.302,30.964C253.242,30.988 253.152,31.012 253.032,31.036C252.912,31.072 252.78,31.09 252.636,31.09C252.12,31.09 251.862,30.874 251.862,30.442L251.862,24.304C251.862,24.052 251.91,23.848 252.006,23.692C252.114,23.524 252.294,23.362 252.546,23.206C252.858,23.014 253.272,22.84 253.788,22.684C254.304,22.528 254.886,22.45 255.534,22.45C256.626,22.45 257.484,22.696 258.108,23.188C258.744,23.68 259.062,24.454 259.062,25.51L259.062,30.964C259.002,30.988 258.906,31.012 258.774,31.036C258.654,31.072 258.528,31.09 258.396,31.09C257.88,31.09 257.622,30.874 257.622,30.442L257.622,25.582ZM273.03,28.786C273.03,29.554 272.748,30.154 272.184,30.586C271.62,31.018 270.804,31.234 269.736,31.234C269.28,31.234 268.86,31.192 268.476,31.108C268.092,31.036 267.762,30.94 267.486,30.82C267.222,30.688 267.012,30.544 266.856,30.388C266.712,30.22 266.64,30.052 266.64,29.884C266.64,29.74 266.676,29.602 266.748,29.47C266.832,29.338 266.952,29.224 267.108,29.128C267.432,29.368 267.81,29.584 268.242,29.776C268.674,29.956 269.166,30.046 269.718,30.046C270.966,30.046 271.59,29.626 271.59,28.786C271.59,28.102 271.176,27.658 270.348,27.454L268.854,27.058C268.122,26.866 267.588,26.59 267.252,26.23C266.916,25.858 266.748,25.384 266.748,24.808C266.748,24.496 266.808,24.196 266.928,23.908C267.06,23.62 267.258,23.368 267.522,23.152C267.786,22.936 268.11,22.768 268.494,22.648C268.89,22.516 269.352,22.45 269.88,22.45C270.72,22.45 271.398,22.576 271.914,22.828C272.43,23.068 272.688,23.35 272.688,23.674C272.688,23.83 272.646,23.968 272.562,24.088C272.49,24.208 272.388,24.298 272.256,24.358C272.04,24.214 271.734,24.058 271.338,23.89C270.942,23.722 270.474,23.638 269.934,23.638C269.394,23.638 268.962,23.74 268.638,23.944C268.326,24.148 268.17,24.436 268.17,24.808C268.17,25.084 268.26,25.318 268.44,25.51C268.62,25.702 268.92,25.846 269.34,25.942L270.582,26.248C271.398,26.452 272.01,26.758 272.418,27.166C272.826,27.562 273.03,28.102 273.03,28.786ZM277.589,30.964C277.529,30.988 277.439,31.012 277.319,31.036C277.199,31.072 277.067,31.09 276.923,31.09C276.407,31.09 276.149,30.874 276.149,30.442L276.149,19.336C276.209,19.312 276.299,19.288 276.419,19.264C276.551,19.228 276.689,19.21 276.833,19.21C277.337,19.21 277.589,19.426 277.589,19.858L277.589,23.098C277.877,22.93 278.213,22.78 278.597,22.648C278.993,22.516 279.437,22.45 279.929,22.45C280.433,22.45 280.889,22.516 281.297,22.648C281.717,22.78 282.077,22.984 282.377,23.26C282.677,23.524 282.911,23.866 283.079,24.286C283.247,24.694 283.331,25.174 283.331,25.726L283.331,30.964C283.271,30.988 283.175,31.012 283.043,31.036C282.923,31.072 282.797,31.09 282.665,31.09C282.149,31.09 281.891,30.874 281.891,30.442L281.891,25.762C281.891,25.042 281.693,24.508 281.297,24.16C280.901,23.812 280.379,23.638 279.731,23.638C279.311,23.638 278.915,23.716 278.543,23.872C278.183,24.016 277.865,24.196 277.589,24.412L277.589,30.964ZM287.953,27.688C288.277,29.26 289.309,30.046 291.049,30.046C291.553,30.046 292.009,29.962 292.417,29.794C292.825,29.626 293.149,29.446 293.389,29.254C293.677,29.422 293.821,29.65 293.821,29.938C293.821,30.106 293.743,30.268 293.587,30.424C293.443,30.58 293.239,30.718 292.975,30.838C292.723,30.958 292.423,31.054 292.075,31.126C291.739,31.198 291.373,31.234 290.977,31.234C289.585,31.234 288.481,30.856 287.665,30.1C286.861,29.344 286.459,28.24 286.459,26.788C286.459,26.104 286.555,25.498 286.747,24.97C286.951,24.43 287.227,23.974 287.575,23.602C287.935,23.23 288.361,22.948 288.853,22.756C289.345,22.552 289.879,22.45 290.455,22.45C290.995,22.45 291.493,22.54 291.949,22.72C292.405,22.9 292.795,23.158 293.119,23.494C293.455,23.818 293.713,24.208 293.893,24.664C294.085,25.108 294.181,25.6 294.181,26.14C294.181,26.404 294.121,26.596 294.001,26.716C293.881,26.824 293.713,26.89 293.497,26.914L287.953,27.688ZM290.437,23.62C289.705,23.62 289.099,23.878 288.619,24.394C288.139,24.898 287.887,25.624 287.863,26.572L292.813,25.888C292.753,25.228 292.519,24.688 292.111,24.268C291.715,23.836 291.157,23.62 290.437,23.62ZM298.745,30.964C298.685,30.988 298.595,31.012 298.475,31.036C298.355,31.072 298.223,31.09 298.079,31.09C297.563,31.09 297.305,30.874 297.305,30.442L297.305,19.336C297.365,19.312 297.455,19.288 297.575,19.264C297.707,19.228 297.839,19.21 297.971,19.21C298.487,19.21 298.745,19.426 298.745,19.858L298.745,30.964ZM304.127,30.964C304.067,30.988 303.977,31.012 303.857,31.036C303.737,31.072 303.605,31.09 303.461,31.09C302.945,31.09 302.687,30.874 302.687,30.442L302.687,19.336C302.747,19.312 302.837,19.288 302.957,19.264C303.089,19.228 303.221,19.21 303.353,19.21C303.869,19.21 304.127,19.426 304.127,19.858L304.127,30.964Z" style="fill:rgb(0,28,76);fill-rule:nonzero;"/>
    <g transform="matrix(0.984554,-0.175084,0.175084,0.984554,18.8132,66.9682)">
        <g transform="matrix(24,0,0,24,322.41,32.0925)">
        </g>
        <text x="178.437px" y="32.093px" style="font-family:'Chalkduster', cursive;font-size:24px;fill:rgb(255,47,0);">T<tspan x="193.685px 209.12px 221.981px 232.934px " y="32.093px 32.093px 32.093px 32.093px ">ests</tspan>ys<tspan x="272.527px 283.241px 298.118px " y="32.093px 32.093px 32.093px ">tem</tspan></text>
        <rect x="178.437" y="35.62" width="143.973" height="0.53" style="fill:rgb(255,47,0);"/>
    </g>
</svg>
