<?xml version="1.0" encoding="UTF-8" standalone="no"?><!DOCTYPE svg PUBLIC "-//W3C//DTD SVG 1.1//EN" "http://www.w3.org/Graphics/SVG/1.1/DTD/svg11.dtd"><svg width="100%" height="100%" viewBox="0 0 1275 305" version="1.1" xmlns="http://www.w3.org/2000/svg" xmlns:xlink="http://www.w3.org/1999/xlink" xml:space="preserve" xmlns:serif="http://www.serif.com/" style="fill-rule:evenodd;clip-rule:evenodd;stroke-linejoin:round;stroke-miterlimit:2;"><path d="M296.26,216.937c5.496,3.314 7.299,10.485 3.601,15.731c-11.498,16.312 -25.919,30.398 -42.566,41.526c-19.873,13.285 -42.429,22.027 -66.064,25.606c-23.635,3.579 -47.768,1.905 -70.683,-4.9c-22.915,-6.807 -44.05,-18.578 -61.899,-34.478c-17.85,-15.9 -31.977,-35.538 -41.376,-57.517c-9.4,-21.979 -13.841,-45.759 -13.007,-69.649c0.833,-23.89 6.92,-47.302 17.828,-68.573c9.137,-17.818 21.468,-33.765 36.348,-47.065c4.786,-4.278 12.116,-3.312 16.041,1.766l3.65,4.723c3.925,5.078 2.95,12.342 -1.768,16.694c-11.519,10.624 -21.1,23.214 -28.278,37.212c-8.949,17.452 -13.943,36.661 -14.627,56.262c-0.684,19.6 2.96,39.111 10.672,57.144c7.712,18.032 19.302,34.144 33.947,47.19c14.645,13.045 31.985,22.703 50.786,28.287c18.8,5.584 38.601,6.957 57.993,4.021c19.391,-2.936 37.897,-10.109 54.202,-21.009c13.078,-8.742 24.482,-19.709 33.709,-32.374c3.78,-5.188 10.882,-6.993 16.379,-3.679l5.112,3.082Z" style="fill:#001c4c;fill-rule:nonzero;"/><path d="M218.108,72.582c8.69,2.328 15.477,9.115 17.806,17.805l16.036,59.851c2.329,8.689 -0.155,17.961 -6.517,24.322l-43.813,43.814c-6.361,6.361 -15.633,8.846 -24.323,6.517l-59.85,-16.037c-8.69,-2.328 -15.477,-9.116 -17.806,-17.805l-16.036,-59.851c-2.329,-8.689 0.155,-17.961 6.517,-24.322l43.813,-43.814c6.362,-6.361 15.633,-8.845 24.323,-6.517l59.85,16.037Z" style="fill:#fff;fill-rule:nonzero;"/><path d="M267.417,23.274c8.689,2.328 15.477,9.115 17.805,17.805l16.037,59.85c2.328,8.69 -0.156,17.962 -6.517,24.323l-43.814,43.813c-6.361,6.362 -15.633,8.846 -24.323,6.518l-59.85,-16.037c-8.69,-2.328 -15.477,-9.116 -17.805,-17.806l-16.037,-59.85c-2.329,-8.69 0.156,-17.961 6.517,-24.322l43.813,-43.814c6.362,-6.361 15.634,-8.846 24.323,-6.517l59.851,16.037Z" style="fill:#7bc3e2;fill-opacity:0.69;fill-rule:nonzero;"/><path d="M372.167,125.267c2.1,-0 3.825,-0.2 5.175,-0.6c1.4,-0.45 2.4,-0.875 3,-1.275l-0,-10.875l-9.3,0.975c-2.6,0.25 -4.525,0.85 -5.775,1.8c-1.25,0.9 -1.875,2.25 -1.875,4.05c-0,1.9 0.725,3.375 2.175,4.425c1.45,1 3.65,1.5 6.6,1.5Zm-0.075,-31.725c4.35,-0 7.8,0.975 10.35,2.925c2.55,1.95 3.825,5.025 3.825,9.225l-0,17.775c-0,1.1 -0.225,1.95 -0.675,2.55c-0.4,0.55 -1.025,1.075 -1.875,1.575c-1.2,0.7 -2.8,1.3 -4.8,1.8c-1.95,0.55 -4.2,0.825 -6.75,0.825c-4.7,-0 -8.35,-0.925 -10.95,-2.775c-2.55,-1.85 -3.825,-4.525 -3.825,-8.025c-0,-3.3 1.075,-5.775 3.225,-7.425c2.15,-1.7 5.175,-2.75 9.075,-3.15l10.65,-1.05l-0,-2.1c-0,-2.5 -0.75,-4.325 -2.25,-5.475c-1.5,-1.15 -3.525,-1.725 -6.075,-1.725c-2.1,-0 -4.075,0.3 -5.925,0.9c-1.85,0.6 -3.5,1.275 -4.95,2.025c-0.4,-0.35 -0.775,-0.75 -1.125,-1.2c-0.3,-0.45 -0.45,-0.95 -0.45,-1.5c-0,-0.7 0.175,-1.275 0.525,-1.725c0.35,-0.45 0.9,-0.875 1.65,-1.275c1.35,-0.7 2.9,-1.225 4.65,-1.575c1.75,-0.4 3.65,-0.6 5.7,-0.6Zm53.325,26.4c-0,3.2 -1.175,5.7 -3.525,7.5c-2.35,1.8 -5.749,2.7 -10.199,2.7c-1.9,-0 -3.65,-0.175 -5.25,-0.525c-1.6,-0.3 -2.975,-0.7 -4.125,-1.2c-1.1,-0.55 -1.975,-1.15 -2.625,-1.8c-0.6,-0.7 -0.9,-1.4 -0.9,-2.1c0,-0.6 0.15,-1.175 0.45,-1.725c0.35,-0.55 0.85,-1.025 1.5,-1.425c1.35,1 2.925,1.9 4.725,2.7c1.8,0.75 3.85,1.125 6.15,1.125c5.199,-0 7.799,-1.75 7.799,-5.25c-0,-2.85 -1.725,-4.7 -5.174,-5.55l-6.225,-1.65c-3.05,-0.8 -5.275,-1.95 -6.675,-3.45c-1.4,-1.55 -2.1,-3.525 -2.1,-5.925c0,-1.3 0.25,-2.55 0.75,-3.75c0.55,-1.2 1.375,-2.25 2.475,-3.15c1.1,-0.9 2.45,-1.6 4.05,-2.1c1.65,-0.55 3.575,-0.825 5.775,-0.825c3.5,-0 6.324,0.525 8.474,1.575c2.15,1 3.225,2.175 3.225,3.525c-0,0.65 -0.175,1.225 -0.525,1.725c-0.3,0.5 -0.725,0.875 -1.275,1.125c-0.9,-0.6 -2.175,-1.25 -3.825,-1.95c-1.65,-0.7 -3.599,-1.05 -5.849,-1.05c-2.25,-0 -4.05,0.425 -5.4,1.275c-1.3,0.85 -1.95,2.05 -1.95,3.6c0,1.15 0.375,2.125 1.125,2.925c0.75,0.8 2,1.4 3.75,1.8l5.175,1.275c3.399,0.85 5.949,2.125 7.649,3.825c1.7,1.65 2.55,3.9 2.55,6.75Zm37.295,-0c0,3.2 -1.175,5.7 -3.525,7.5c-2.35,1.8 -5.75,2.7 -10.2,2.7c-1.9,-0 -3.65,-0.175 -5.25,-0.525c-1.6,-0.3 -2.975,-0.7 -4.125,-1.2c-1.1,-0.55 -1.975,-1.15 -2.625,-1.8c-0.6,-0.7 -0.9,-1.4 -0.9,-2.1c0,-0.6 0.15,-1.175 0.45,-1.725c0.35,-0.55 0.85,-1.025 1.5,-1.425c1.35,1 2.925,1.9 4.725,2.7c1.8,0.75 3.85,1.125 6.15,1.125c5.2,-0 7.8,-1.75 7.8,-5.25c0,-2.85 -1.725,-4.7 -5.175,-5.55l-6.225,-1.65c-3.05,-0.8 -5.275,-1.95 -6.675,-3.45c-1.4,-1.55 -2.1,-3.525 -2.1,-5.925c0,-1.3 0.25,-2.55 0.75,-3.75c0.55,-1.2 1.375,-2.25 2.475,-3.15c1.1,-0.9 2.45,-1.6 4.05,-2.1c1.65,-0.55 3.575,-0.825 5.775,-0.825c3.5,-0 6.325,0.525 8.475,1.575c2.15,1 3.225,2.175 3.225,3.525c0,0.65 -0.175,1.225 -0.525,1.725c-0.3,0.5 -0.725,0.875 -1.275,1.125c-0.9,-0.6 -2.175,-1.25 -3.825,-1.95c-1.65,-0.7 -3.6,-1.05 -5.85,-1.05c-2.25,-0 -4.05,0.425 -5.4,1.275c-1.3,0.85 -1.95,2.05 -1.95,3.6c0,1.15 0.375,2.125 1.125,2.925c0.75,0.8 2,1.4 3.75,1.8l5.175,1.275c3.4,0.85 5.95,2.125 7.65,3.825c1.7,1.65 2.55,3.9 2.55,6.75Zm17.488,-4.575c1.35,6.55 5.65,9.825 12.9,9.825c2.1,-0 4,-0.35 5.7,-1.05c1.7,-0.7 3.05,-1.45 4.05,-2.25c1.2,0.7 1.8,1.65 1.8,2.85c-0,0.7 -0.325,1.375 -0.975,2.025c-0.6,0.65 -1.45,1.225 -2.55,1.725c-1.05,0.5 -2.3,0.9 -3.75,1.2c-1.4,0.3 -2.925,0.45 -4.575,0.45c-5.8,-0 -10.4,-1.575 -13.8,-4.725c-3.35,-3.15 -5.025,-7.75 -5.025,-13.8c-0,-2.85 0.4,-5.375 1.2,-7.575c0.85,-2.25 2,-4.15 3.45,-5.7c1.5,-1.55 3.275,-2.725 5.325,-3.525c2.05,-0.85 4.275,-1.275 6.675,-1.275c2.25,-0 4.325,0.375 6.225,1.125c1.9,0.75 3.525,1.825 4.875,3.225c1.4,1.35 2.475,2.975 3.225,4.875c0.8,1.85 1.2,3.9 1.2,6.15c-0,1.1 -0.25,1.9 -0.75,2.4c-0.5,0.45 -1.2,0.725 -2.1,0.825l-23.1,3.225Zm10.35,-16.95c-3.05,-0 -5.575,1.075 -7.575,3.225c-2,2.1 -3.05,5.125 -3.15,9.075l20.625,-2.85c-0.25,-2.75 -1.225,-5 -2.925,-6.75c-1.65,-1.8 -3.975,-2.7 -6.975,-2.7Zm39.867,31.725c-3.5,-0 -6.35,-0.775 -8.55,-2.325c-2.15,-1.55 -3.225,-4.125 -3.225,-7.725l-0,-35.625c0.25,-0.1 0.625,-0.2 1.125,-0.3c0.55,-0.15 1.125,-0.225 1.725,-0.225c2.1,-0 3.15,0.9 3.15,2.7l-0,8.625l12.3,-0c0.15,0.25 0.3,0.6 0.45,1.05c0.15,0.4 0.225,0.85 0.225,1.35c-0,1.7 -0.75,2.55 -2.25,2.55l-10.725,-0l-0,19.5c-0,2 0.55,3.425 1.65,4.275c1.15,0.8 2.75,1.2 4.8,1.2c0.85,-0 1.8,-0.15 2.85,-0.45c1.05,-0.3 1.925,-0.65 2.625,-1.05c0.3,0.3 0.575,0.675 0.825,1.125c0.25,0.45 0.375,0.975 0.375,1.575c-0,1.1 -0.65,2 -1.95,2.7c-1.3,0.7 -3.1,1.05 -5.4,1.05Zm50.945,-4.875c2.1,-0 3.825,-0.2 5.175,-0.6c1.4,-0.45 2.4,-0.875 3,-1.275l0,-10.875l-9.3,0.975c-2.6,0.25 -4.525,0.85 -5.775,1.8c-1.25,0.9 -1.875,2.25 -1.875,4.05c0,1.9 0.725,3.375 2.175,4.425c1.45,1 3.65,1.5 6.6,1.5Zm-0.075,-31.725c4.35,-0 7.8,0.975 10.35,2.925c2.55,1.95 3.825,5.025 3.825,9.225l0,17.775c0,1.1 -0.225,1.95 -0.675,2.55c-0.4,0.55 -1.025,1.075 -1.875,1.575c-1.2,0.7 -2.8,1.3 -4.8,1.8c-1.95,0.55 -4.2,0.825 -6.75,0.825c-4.7,-0 -8.35,-0.925 -10.95,-2.775c-2.55,-1.85 -3.825,-4.525 -3.825,-8.025c0,-3.3 1.075,-5.775 3.225,-7.425c2.15,-1.7 5.175,-2.75 9.075,-3.15l10.65,-1.05l0,-2.1c0,-2.5 -0.75,-4.325 -2.25,-5.475c-1.5,-1.15 -3.525,-1.725 -6.075,-1.725c-2.1,-0 -4.075,0.3 -5.925,0.9c-1.85,0.6 -3.5,1.275 -4.95,2.025c-0.4,-0.35 -0.775,-0.75 -1.125,-1.2c-0.3,-0.45 -0.45,-0.95 -0.45,-1.5c0,-0.7 0.175,-1.275 0.525,-1.725c0.35,-0.45 0.9,-0.875 1.65,-1.275c1.35,-0.7 2.9,-1.225 4.65,-1.575c1.75,-0.4 3.65,-0.6 5.7,-0.6Zm58.5,29.925c0,1 -0.225,1.775 -0.675,2.325c-0.4,0.55 -1.05,1.1 -1.95,1.65c-1,0.65 -2.425,1.25 -4.275,1.8c-1.85,0.6 -3.975,0.9 -6.375,0.9c-2.7,-0 -5.175,-0.35 -7.425,-1.05c-2.25,-0.7 -4.2,-1.775 -5.85,-3.225c-1.6,-1.5 -2.85,-3.375 -3.75,-5.625c-0.85,-2.3 -1.275,-5.05 -1.275,-8.25c0,-3.25 0.45,-6.025 1.35,-8.325c0.9,-2.35 2.1,-4.275 3.6,-5.775c1.55,-1.5 3.35,-2.6 5.4,-3.3c2.1,-0.7 4.325,-1.05 6.675,-1.05c1.6,-0 3.15,0.2 4.65,0.6c1.5,0.4 2.8,0.9 3.9,1.5l0,-15.075c0.25,-0.1 0.625,-0.2 1.125,-0.3c0.55,-0.15 1.1,-0.225 1.65,-0.225c2.15,-0 3.225,0.9 3.225,2.7l0,40.725Zm-6,-22.425c-1,-0.7 -2.15,-1.3 -3.45,-1.8c-1.3,-0.5 -2.8,-0.75 -4.5,-0.75c-1.55,-0 -3.025,0.25 -4.425,0.75c-1.35,0.45 -2.55,1.225 -3.6,2.325c-1.05,1.05 -1.9,2.45 -2.55,4.2c-0.6,1.75 -0.9,3.875 -0.9,6.375c0,4.6 1.1,7.925 3.3,9.975c2.2,2.05 5.125,3.075 8.775,3.075c1.75,-0 3.175,-0.175 4.275,-0.525c1.15,-0.4 2.175,-0.875 3.075,-1.425l0,-22.2Zm65.092,4.575c0,-2.45 -0.7,-4.25 -2.1,-5.4c-1.4,-1.15 -3.275,-1.725 -5.625,-1.725c-3.25,-0 -6.15,1.15 -8.7,3.45c0.3,1 0.45,2.075 0.45,3.225l0,23.85c-0.25,0.1 -0.65,0.2 -1.2,0.3c-0.5,0.15 -1.025,0.225 -1.575,0.225c-2.15,-0 -3.225,-0.9 -3.225,-2.7l0,-21.225c0,-2.45 -0.7,-4.25 -2.1,-5.4c-1.4,-1.15 -3.3,-1.725 -5.7,-1.725c-1.6,-0 -3.125,0.25 -4.575,0.75c-1.4,0.5 -2.6,1.075 -3.6,1.725l0,28.05c-0.25,0.1 -0.625,0.2 -1.125,0.3c-0.5,0.15 -1.05,0.225 -1.65,0.225c-2.15,-0 -3.225,-0.9 -3.225,-2.7l0,-25.575c0,-1 0.2,-1.825 0.6,-2.475c0.45,-0.7 1.2,-1.4 2.25,-2.1c1.35,-0.85 3.05,-1.575 5.1,-2.175c2.1,-0.65 4.2,-0.975 6.3,-0.975c2.45,-0 4.625,0.375 6.525,1.125c1.9,0.7 3.35,1.675 4.35,2.925c1.3,-1.15 2.925,-2.1 4.875,-2.85c1.95,-0.8 4.175,-1.2 6.675,-1.2c4.05,-0 7.275,0.975 9.675,2.925c2.4,1.9 3.6,4.85 3.6,8.85l0,23.7c-0.25,0.1 -0.65,0.2 -1.2,0.3c-0.5,0.15 -1.025,0.225 -1.575,0.225c-2.15,-0 -3.225,-0.9 -3.225,-2.7l0,-21.225Zm27.404,23.4c-0.25,0.1 -0.625,0.2 -1.125,0.3c-0.5,0.15 -1.05,0.225 -1.65,0.225c-2.15,-0 -3.225,-0.9 -3.225,-2.7l0,-32.175c0.25,-0.1 0.625,-0.2 1.125,-0.3c0.55,-0.15 1.125,-0.225 1.725,-0.225c2.1,-0 3.15,0.925 3.15,2.775l0,32.1Zm-6.9,-45.45c0,-1.05 0.35,-1.925 1.05,-2.625c0.75,-0.75 1.7,-1.125 2.85,-1.125c1.15,-0 2.075,0.375 2.775,1.125c0.7,0.7 1.05,1.575 1.05,2.625c0,1.05 -0.35,1.95 -1.05,2.7c-0.7,0.7 -1.625,1.05 -2.775,1.05c-1.15,-0 -2.1,-0.35 -2.85,-1.05c-0.7,-0.75 -1.05,-1.65 -1.05,-2.7Zm46.367,23.025c0,-2.8 -0.8,-4.85 -2.4,-6.15c-1.55,-1.3 -3.65,-1.95 -6.3,-1.95c-2,-0 -3.775,0.25 -5.325,0.75c-1.55,0.5 -2.875,1.075 -3.975,1.725l0,28.05c-0.25,0.1 -0.625,0.2 -1.125,0.3c-0.5,0.15 -1.05,0.225 -1.65,0.225c-2.15,-0 -3.225,-0.9 -3.225,-2.7l0,-25.575c0,-1.05 0.2,-1.9 0.6,-2.55c0.45,-0.7 1.2,-1.375 2.25,-2.025c1.3,-0.8 3.025,-1.525 5.175,-2.175c2.15,-0.65 4.575,-0.975 7.275,-0.975c4.55,-0 8.125,1.025 10.725,3.075c2.65,2.05 3.975,5.275 3.975,9.675l0,22.725c-0.25,0.1 -0.65,0.2 -1.2,0.3c-0.5,0.15 -1.025,0.225 -1.575,0.225c-2.15,-0 -3.225,-0.9 -3.225,-2.7l0,-20.25Zm27.358,22.425c-0.25,0.1 -0.625,0.2 -1.125,0.3c-0.5,0.15 -1.05,0.225 -1.65,0.225c-2.15,-0 -3.225,-0.9 -3.225,-2.7l0,-32.175c0.25,-0.1 0.625,-0.2 1.125,-0.3c0.55,-0.15 1.125,-0.225 1.725,-0.225c2.1,-0 3.15,0.925 3.15,2.775l0,32.1Zm-6.9,-45.45c0,-1.05 0.35,-1.925 1.05,-2.625c0.75,-0.75 1.7,-1.125 2.85,-1.125c1.15,-0 2.075,0.375 2.775,1.125c0.7,0.7 1.05,1.575 1.05,2.625c0,1.05 -0.35,1.95 -1.05,2.7c-0.7,0.7 -1.625,1.05 -2.775,1.05c-1.15,-0 -2.1,-0.35 -2.85,-1.05c-0.7,-0.75 -1.05,-1.65 -1.05,-2.7Zm46.817,36.375c0,3.2 -1.175,5.7 -3.525,7.5c-2.35,1.8 -5.75,2.7 -10.2,2.7c-1.9,-0 -3.65,-0.175 -5.25,-0.525c-1.6,-0.3 -2.975,-0.7 -4.125,-1.2c-1.1,-0.55 -1.975,-1.15 -2.625,-1.8c-0.6,-0.7 -0.9,-1.4 -0.9,-2.1c0,-0.6 0.15,-1.175 0.45,-1.725c0.35,-0.55 0.85,-1.025 1.5,-1.425c1.35,1 2.925,1.9 4.725,2.7c1.8,0.75 3.85,1.125 6.15,1.125c5.2,-0 7.8,-1.75 7.8,-5.25c0,-2.85 -1.725,-4.7 -5.175,-5.55l-6.225,-1.65c-3.05,-0.8 -5.275,-1.95 -6.675,-3.45c-1.4,-1.55 -2.1,-3.525 -2.1,-5.925c0,-1.3 0.25,-2.55 0.75,-3.75c0.55,-1.2 1.375,-2.25 2.475,-3.15c1.1,-0.9 2.45,-1.6 4.05,-2.1c1.65,-0.55 3.575,-0.825 5.775,-0.825c3.5,-0 6.325,0.525 8.475,1.575c2.15,1 3.225,2.175 3.225,3.525c0,0.65 -0.175,1.225 -0.525,1.725c-0.3,0.5 -0.725,0.875 -1.275,1.125c-0.9,-0.6 -2.175,-1.25 -3.825,-1.95c-1.65,-0.7 -3.6,-1.05 -5.85,-1.05c-2.25,-0 -4.05,0.425 -5.4,1.275c-1.3,0.85 -1.95,2.05 -1.95,3.6c0,1.15 0.375,2.125 1.125,2.925c0.75,0.8 2,1.4 3.75,1.8l5.175,1.275c3.4,0.85 5.95,2.125 7.65,3.825c1.7,1.65 2.55,3.9 2.55,6.75Zm24.696,10.2c-3.5,-0 -6.35,-0.775 -8.55,-2.325c-2.15,-1.55 -3.225,-4.125 -3.225,-7.725l-0,-35.625c0.25,-0.1 0.625,-0.2 1.125,-0.3c0.55,-0.15 1.125,-0.225 1.725,-0.225c2.1,-0 3.15,0.9 3.15,2.7l-0,8.625l12.3,-0c0.15,0.25 0.3,0.6 0.45,1.05c0.15,0.4 0.225,0.85 0.225,1.35c-0,1.7 -0.75,2.55 -2.25,2.55l-10.725,-0l-0,19.5c-0,2 0.55,3.425 1.65,4.275c1.15,0.8 2.75,1.2 4.8,1.2c0.85,-0 1.8,-0.15 2.85,-0.45c1.05,-0.3 1.925,-0.65 2.625,-1.05c0.3,0.3 0.575,0.675 0.825,1.125c0.25,0.45 0.375,0.975 0.375,1.575c-0,1.1 -0.65,2 -1.95,2.7c-1.3,0.7 -3.1,1.05 -5.4,1.05Zm25.804,-1.125c-0.25,0.1 -0.625,0.2 -1.125,0.3c-0.5,0.15 -1.05,0.225 -1.65,0.225c-2.15,-0 -3.225,-0.9 -3.225,-2.7l0,-25.425c0,-1.15 0.2,-2.05 0.6,-2.7c0.45,-0.7 1.175,-1.375 2.175,-2.025c1.3,-0.85 3.05,-1.575 5.25,-2.175c2.25,-0.65 4.775,-0.975 7.575,-0.975c4,-0 6,1 6,3c0,0.5 -0.075,0.975 -0.225,1.425c-0.15,0.4 -0.35,0.75 -0.6,1.05c-0.5,-0.1 -1.15,-0.2 -1.95,-0.3c-0.8,-0.1 -1.6,-0.15 -2.4,-0.15c-2.3,-0 -4.325,0.25 -6.075,0.75c-1.75,0.45 -3.2,1 -4.35,1.65l0,28.05Zm38.396,-3.75c2.1,-0 3.825,-0.2 5.175,-0.6c1.4,-0.45 2.4,-0.875 3,-1.275l-0,-10.875l-9.3,0.975c-2.6,0.25 -4.525,0.85 -5.775,1.8c-1.25,0.9 -1.875,2.25 -1.875,4.05c-0,1.9 0.725,3.375 2.175,4.425c1.45,1 3.65,1.5 6.6,1.5Zm-0.075,-31.725c4.35,-0 7.8,0.975 10.35,2.925c2.55,1.95 3.825,5.025 3.825,9.225l-0,17.775c-0,1.1 -0.225,1.95 -0.675,2.55c-0.4,0.55 -1.025,1.075 -1.875,1.575c-1.2,0.7 -2.8,1.3 -4.8,1.8c-1.95,0.55 -4.2,0.825 -6.75,0.825c-4.7,-0 -8.35,-0.925 -10.95,-2.775c-2.55,-1.85 -3.825,-4.525 -3.825,-8.025c-0,-3.3 1.075,-5.775 3.225,-7.425c2.15,-1.7 5.175,-2.75 9.075,-3.15l10.65,-1.05l-0,-2.1c-0,-2.5 -0.75,-4.325 -2.25,-5.475c-1.5,-1.15 -3.525,-1.725 -6.075,-1.725c-2.1,-0 -4.075,0.3 -5.925,0.9c-1.85,0.6 -3.5,1.275 -4.95,2.025c-0.4,-0.35 -0.775,-0.75 -1.125,-1.2c-0.3,-0.45 -0.45,-0.95 -0.45,-1.5c-0,-0.7 0.175,-1.275 0.525,-1.725c0.35,-0.45 0.9,-0.875 1.65,-1.275c1.35,-0.7 2.9,-1.225 4.65,-1.575c1.75,-0.4 3.65,-0.6 5.7,-0.6Zm40.729,36.6c-3.5,-0 -6.35,-0.775 -8.55,-2.325c-2.15,-1.55 -3.225,-4.125 -3.225,-7.725l0,-35.625c0.25,-0.1 0.625,-0.2 1.125,-0.3c0.55,-0.15 1.125,-0.225 1.725,-0.225c2.1,-0 3.15,0.9 3.15,2.7l0,8.625l12.3,-0c0.15,0.25 0.3,0.6 0.45,1.05c0.15,0.4 0.225,0.85 0.225,1.35c0,1.7 -0.75,2.55 -2.25,2.55l-10.725,-0l0,19.5c0,2 0.55,3.425 1.65,4.275c1.15,0.8 2.75,1.2 4.8,1.2c0.85,-0 1.8,-0.15 2.85,-0.45c1.05,-0.3 1.925,-0.65 2.625,-1.05c0.3,0.3 0.575,0.675 0.825,1.125c0.25,0.45 0.375,0.975 0.375,1.575c0,1.1 -0.65,2 -1.95,2.7c-1.3,0.7 -3.1,1.05 -5.4,1.05Zm26.179,-1.125c-0.25,0.1 -0.625,0.2 -1.125,0.3c-0.5,0.15 -1.05,0.225 -1.65,0.225c-2.15,-0 -3.225,-0.9 -3.225,-2.7l0,-32.175c0.25,-0.1 0.625,-0.2 1.125,-0.3c0.55,-0.15 1.125,-0.225 1.725,-0.225c2.1,-0 3.15,0.925 3.15,2.775l0,32.1Zm-6.9,-45.45c0,-1.05 0.35,-1.925 1.05,-2.625c0.75,-0.75 1.7,-1.125 2.85,-1.125c1.15,-0 2.075,0.375 2.775,1.125c0.7,0.7 1.05,1.575 1.05,2.625c0,1.05 -0.35,1.95 -1.05,2.7c-0.7,0.7 -1.625,1.05 -2.775,1.05c-1.15,-0 -2.1,-0.35 -2.85,-1.05c-0.7,-0.75 -1.05,-1.65 -1.05,-2.7Zm54.542,28.275c-0,2.8 -0.4,5.325 -1.2,7.575c-0.8,2.25 -1.95,4.175 -3.45,5.775c-1.45,1.6 -3.225,2.825 -5.325,3.675c-2.1,0.85 -4.45,1.275 -7.05,1.275c-2.6,-0 -4.95,-0.425 -7.05,-1.275c-2.1,-0.85 -3.9,-2.075 -5.4,-3.675c-1.5,-1.6 -2.65,-3.525 -3.45,-5.775c-0.8,-2.25 -1.2,-4.775 -1.2,-7.575c-0,-2.8 0.4,-5.325 1.2,-7.575c0.85,-2.25 2.025,-4.175 3.525,-5.775c1.5,-1.6 3.3,-2.825 5.4,-3.675c2.1,-0.85 4.425,-1.275 6.975,-1.275c2.55,-0 4.875,0.425 6.975,1.275c2.1,0.85 3.875,2.075 5.325,3.675c1.5,1.6 2.65,3.525 3.45,5.775c0.85,2.25 1.275,4.775 1.275,7.575Zm-17.025,-13.35c-3.4,-0 -6.075,1.175 -8.025,3.525c-1.95,2.35 -2.925,5.625 -2.925,9.825c-0,4.25 0.95,7.55 2.85,9.9c1.95,2.3 4.65,3.45 8.1,3.45c3.45,-0 6.125,-1.175 8.025,-3.525c1.9,-2.35 2.85,-5.625 2.85,-9.825c-0,-4.2 -0.975,-7.475 -2.925,-9.825c-1.9,-2.35 -4.55,-3.525 -7.95,-3.525Zm54.054,8.1c0,-2.8 -0.8,-4.85 -2.4,-6.15c-1.55,-1.3 -3.65,-1.95 -6.3,-1.95c-2,-0 -3.775,0.25 -5.325,0.75c-1.55,0.5 -2.875,1.075 -3.975,1.725l0,28.05c-0.25,0.1 -0.625,0.2 -1.125,0.3c-0.5,0.15 -1.05,0.225 -1.65,0.225c-2.15,-0 -3.225,-0.9 -3.225,-2.7l0,-25.575c0,-1.05 0.2,-1.9 0.6,-2.55c0.45,-0.7 1.2,-1.375 2.25,-2.025c1.3,-0.8 3.025,-1.525 5.175,-2.175c2.15,-0.65 4.575,-0.975 7.275,-0.975c4.55,-0 8.125,1.025 10.725,3.075c2.65,2.05 3.975,5.275 3.975,9.675l0,22.725c-0.25,0.1 -0.65,0.2 -1.2,0.3c-0.5,0.15 -1.025,0.225 -1.575,0.225c-2.15,-0 -3.225,-0.9 -3.225,-2.7l0,-20.25Zm64.2,13.35c0,3.2 -1.175,5.7 -3.525,7.5c-2.35,1.8 -5.75,2.7 -10.2,2.7c-1.9,-0 -3.65,-0.175 -5.25,-0.525c-1.6,-0.3 -2.975,-0.7 -4.125,-1.2c-1.1,-0.55 -1.975,-1.15 -2.625,-1.8c-0.6,-0.7 -0.9,-1.4 -0.9,-2.1c0,-0.6 0.15,-1.175 0.45,-1.725c0.35,-0.55 0.85,-1.025 1.5,-1.425c1.35,1 2.925,1.9 4.725,2.7c1.8,0.75 3.85,1.125 6.15,1.125c5.2,-0 7.8,-1.75 7.8,-5.25c0,-2.85 -1.725,-4.7 -5.175,-5.55l-6.225,-1.65c-3.05,-0.8 -5.275,-1.95 -6.675,-3.45c-1.4,-1.55 -2.1,-3.525 -2.1,-5.925c0,-1.3 0.25,-2.55 0.75,-3.75c0.55,-1.2 1.375,-2.25 2.475,-3.15c1.1,-0.9 2.45,-1.6 4.05,-2.1c1.65,-0.55 3.575,-0.825 5.775,-0.825c3.5,-0 6.325,0.525 8.475,1.575c2.15,1 3.225,2.175 3.225,3.525c0,0.65 -0.175,1.225 -0.525,1.725c-0.3,0.5 -0.725,0.875 -1.275,1.125c-0.9,-0.6 -2.175,-1.25 -3.825,-1.95c-1.65,-0.7 -3.6,-1.05 -5.85,-1.05c-2.25,-0 -4.05,0.425 -5.4,1.275c-1.3,0.85 -1.95,2.05 -1.95,3.6c0,1.15 0.375,2.125 1.125,2.925c0.75,0.8 2,1.4 3.75,1.8l5.175,1.275c3.4,0.85 5.95,2.125 7.65,3.825c1.7,1.65 2.55,3.9 2.55,6.75Zm18.996,9.075c-0.25,0.1 -0.625,0.2 -1.125,0.3c-0.5,0.15 -1.05,0.225 -1.65,0.225c-2.15,-0 -3.225,-0.9 -3.225,-2.7l-0,-46.275c0.25,-0.1 0.625,-0.2 1.125,-0.3c0.55,-0.15 1.125,-0.225 1.725,-0.225c2.1,-0 3.15,0.9 3.15,2.7l-0,13.5c1.2,-0.7 2.6,-1.325 4.2,-1.875c1.65,-0.55 3.5,-0.825 5.55,-0.825c2.1,-0 4,0.275 5.7,0.825c1.75,0.55 3.25,1.4 4.5,2.55c1.25,1.1 2.225,2.525 2.925,4.275c0.7,1.7 1.05,3.7 1.05,6l-0,21.825c-0.25,0.1 -0.65,0.2 -1.2,0.3c-0.5,0.15 -1.025,0.225 -1.575,0.225c-2.15,-0 -3.225,-0.9 -3.225,-2.7l-0,-19.5c-0,-3 -0.825,-5.225 -2.475,-6.675c-1.65,-1.45 -3.825,-2.175 -6.525,-2.175c-1.75,-0 -3.4,0.325 -4.95,0.975c-1.5,0.6 -2.825,1.35 -3.975,2.25l-0,27.3Zm43.183,-13.65c1.35,6.55 5.65,9.825 12.9,9.825c2.1,-0 4,-0.35 5.7,-1.05c1.7,-0.7 3.05,-1.45 4.05,-2.25c1.2,0.7 1.8,1.65 1.8,2.85c0,0.7 -0.325,1.375 -0.975,2.025c-0.6,0.65 -1.45,1.225 -2.55,1.725c-1.05,0.5 -2.3,0.9 -3.75,1.2c-1.4,0.3 -2.925,0.45 -4.575,0.45c-5.8,-0 -10.4,-1.575 -13.8,-4.725c-3.35,-3.15 -5.025,-7.75 -5.025,-13.8c0,-2.85 0.4,-5.375 1.2,-7.575c0.85,-2.25 2,-4.15 3.45,-5.7c1.5,-1.55 3.275,-2.725 5.325,-3.525c2.05,-0.85 4.275,-1.275 6.675,-1.275c2.25,-0 4.325,0.375 6.225,1.125c1.9,0.75 3.525,1.825 4.875,3.225c1.4,1.35 2.475,2.975 3.225,4.875c0.8,1.85 1.2,3.9 1.2,6.15c0,1.1 -0.25,1.9 -0.75,2.4c-0.5,0.45 -1.2,0.725 -2.1,0.825l-23.1,3.225Zm10.35,-16.95c-3.05,-0 -5.575,1.075 -7.575,3.225c-2,2.1 -3.05,5.125 -3.15,9.075l20.625,-2.85c-0.25,-2.75 -1.225,-5 -2.925,-6.75c-1.65,-1.8 -3.975,-2.7 -6.975,-2.7Zm34.617,30.6c-0.25,0.1 -0.625,0.2 -1.125,0.3c-0.5,0.15 -1.05,0.225 -1.65,0.225c-2.15,-0 -3.225,-0.9 -3.225,-2.7l-0,-46.275c0.25,-0.1 0.625,-0.2 1.125,-0.3c0.55,-0.15 1.1,-0.225 1.65,-0.225c2.15,-0 3.225,0.9 3.225,2.7l-0,46.275Zm22.425,-0c-0.25,0.1 -0.625,0.2 -1.125,0.3c-0.5,0.15 -1.05,0.225 -1.65,0.225c-2.15,-0 -3.225,-0.9 -3.225,-2.7l-0,-46.275c0.25,-0.1 0.625,-0.2 1.125,-0.3c0.55,-0.15 1.1,-0.225 1.65,-0.225c2.15,-0 3.225,0.9 3.225,2.7l-0,46.275Z" style="fill:#001c4c;fill-rule:nonzero;"/><g transform="matrix(75,0,0,75,651.14,233.332)"></g><text x="360.29px" y="233.332px" style="font-family:'Baloo2-SemiBold', 'Baloo 2', cursive;font-weight:600;font-size:75px;fill:#fff;">c<tspan x="395.54px " y="233.332px ">o</tspan>mp<tspan x="543.29px 582.44px 611.09px " y="233.332px 233.332px 233.332px ">are</tspan></text></svg>