<?xml version="1.0" encoding="UTF-8" standalone="no"?><!DOCTYPE svg PUBLIC "-//W3C//DTD SVG 1.1//EN" "http://www.w3.org/Graphics/SVG/1.1/DTD/svg11.dtd"><svg width="100%" height="100%" viewBox="0 0 2778 406" version="1.1" xmlns="http://www.w3.org/2000/svg" xmlns:xlink="http://www.w3.org/1999/xlink" xml:space="preserve" xmlns:serif="http://www.serif.com/" style="fill-rule:evenodd;clip-rule:evenodd;stroke-linejoin:round;stroke-miterlimit:2;"><g id="designer"><g><path d="M611.916,304.454c-0,2.667 -0.567,4.733 -1.7,6.2c-1.134,1.467 -2.9,2.933 -5.3,4.4c-2.667,1.733 -6.467,3.367 -11.4,4.9c-4.934,1.533 -10.6,2.3 -17,2.3c-7.2,0 -13.8,-0.933 -19.8,-2.8c-6,-1.867 -11.167,-4.767 -15.5,-8.7c-4.334,-3.933 -7.667,-8.933 -10,-15c-2.334,-6.067 -3.5,-13.367 -3.5,-21.9c-0,-8.667 1.2,-16.1 3.6,-22.3c2.4,-6.2 5.633,-11.3 9.7,-15.3c4.066,-4 8.866,-6.933 14.4,-8.8c5.533,-1.867 11.433,-2.8 17.7,-2.8c4.266,0 8.4,0.533 12.4,1.6c4,1.067 7.466,2.4 10.4,4l-0,-40.2c0.666,-0.267 1.7,-0.567 3.1,-0.9c1.4,-0.333 2.833,-0.5 4.3,-0.5c5.733,0 8.6,2.4 8.6,7.2l-0,108.6Zm-16,-59.8c-2.667,-1.867 -5.734,-3.467 -9.2,-4.8c-3.467,-1.333 -7.467,-2 -12,-2c-4.134,0 -8.034,0.633 -11.7,1.9c-3.667,1.267 -6.9,3.333 -9.7,6.2c-2.8,2.867 -5.034,6.633 -6.7,11.3c-1.667,4.667 -2.5,10.333 -2.5,17c-0,12.267 2.933,21.133 8.8,26.6c5.866,5.467 13.666,8.2 23.4,8.2c4.666,0 8.5,-0.5 11.5,-1.5c3,-1 5.7,-2.233 8.1,-3.7l-0,-59.2Z" style="fill:#fff;fill-rule:nonzero;"/><path d="M653.716,282.854c3.6,17.467 15.066,26.2 34.4,26.2c5.6,0 10.666,-0.933 15.2,-2.8c4.533,-1.867 8.133,-3.867 10.8,-6c3.2,1.867 4.8,4.4 4.8,7.6c-0,1.867 -0.834,3.667 -2.5,5.4c-1.667,1.733 -3.934,3.267 -6.8,4.6c-2.867,1.333 -6.2,2.4 -10,3.2c-3.8,0.8 -7.9,1.2 -12.3,1.2c-15.467,0 -27.7,-4.2 -36.7,-12.6c-9,-8.4 -13.5,-20.667 -13.5,-36.8c-0,-7.6 1.1,-14.367 3.3,-20.3c2.2,-5.933 5.266,-10.967 9.2,-15.1c3.933,-4.133 8.633,-7.3 14.1,-9.5c5.466,-2.2 11.4,-3.3 17.8,-3.3c6,0 11.533,1 16.6,3c5.066,2 9.433,4.833 13.1,8.5c3.666,3.667 6.533,8 8.6,13c2.066,5 3.1,10.5 3.1,16.5c-0,2.933 -0.667,5.033 -2,6.3c-1.334,1.267 -3.2,2.033 -5.6,2.3l-61.6,8.6Zm27.6,-45.2c-8.134,0 -14.867,2.833 -20.2,8.5c-5.334,5.667 -8.134,13.767 -8.4,24.3l55,-7.6c-0.667,-7.333 -3.234,-13.367 -7.7,-18.1c-4.467,-4.733 -10.7,-7.1 -18.7,-7.1Z" style="fill:#fff;fill-rule:nonzero;"/><path d="M812.516,295.054c-0,8.533 -3.134,15.2 -9.4,20c-6.267,4.8 -15.334,7.2 -27.2,7.2c-5.067,0 -9.734,-0.433 -14,-1.3c-4.267,-0.867 -7.9,-2 -10.9,-3.4c-3,-1.4 -5.334,-3 -7,-4.8c-1.667,-1.8 -2.5,-3.633 -2.5,-5.5c-0,-1.6 0.433,-3.133 1.3,-4.6c0.866,-1.467 2.166,-2.733 3.9,-3.8c3.6,2.667 7.8,5.033 12.6,7.1c4.8,2.067 10.266,3.1 16.4,3.1c13.866,0 20.8,-4.667 20.8,-14c-0,-7.6 -4.6,-12.533 -13.8,-14.8l-16.6,-4.4c-8.134,-2.133 -14.067,-5.233 -17.8,-9.3c-3.734,-4.067 -5.6,-9.3 -5.6,-15.7c-0,-3.467 0.7,-6.8 2.1,-10c1.4,-3.2 3.566,-6 6.5,-8.4c2.933,-2.4 6.566,-4.3 10.9,-5.7c4.333,-1.4 9.433,-2.1 15.3,-2.1c9.333,0 16.866,1.367 22.6,4.1c5.733,2.733 8.6,5.9 8.6,9.5c-0,1.733 -0.434,3.267 -1.3,4.6c-0.867,1.333 -2.034,2.333 -3.5,3c-2.4,-1.6 -5.8,-3.333 -10.2,-5.2c-4.4,-1.867 -9.6,-2.8 -15.6,-2.8c-6,0 -10.767,1.133 -14.3,3.4c-3.534,2.267 -5.3,5.467 -5.3,9.6c-0,3.067 1,5.667 3,7.8c2,2.133 5.333,3.733 10,4.8l13.8,3.4c9.066,2.267 15.866,5.633 20.4,10.1c4.533,4.467 6.8,10.5 6.8,18.1Z" style="fill:#fff;fill-rule:nonzero;"/><path d="M853.716,319.254c-0.667,0.267 -1.667,0.567 -3,0.9c-1.334,0.333 -2.8,0.5 -4.4,0.5c-5.734,0 -8.6,-2.4 -8.6,-7.2l-0,-85.8c0.666,-0.267 1.7,-0.567 3.1,-0.9c1.4,-0.333 2.9,-0.5 4.5,-0.5c5.6,0 8.4,2.467 8.4,7.4l-0,85.6Zm-18.4,-121.2c-0,-2.8 0.966,-5.167 2.9,-7.1c1.933,-1.933 4.433,-2.9 7.5,-2.9c3.066,0 5.533,0.967 7.4,2.9c1.866,1.933 2.8,4.3 2.8,7.1c-0,2.8 -0.934,5.167 -2.8,7.1c-1.867,1.933 -4.334,2.9 -7.4,2.9c-3.067,0 -5.567,-0.967 -7.5,-2.9c-1.934,-1.933 -2.9,-4.3 -2.9,-7.1Z" style="fill:#fff;fill-rule:nonzero;"/><path d="M946.716,310.054c-2.267,1.867 -5.367,3.467 -9.3,4.8c-3.934,1.333 -8.634,2 -14.1,2c-5.867,0 -11.4,-0.833 -16.6,-2.5c-5.2,-1.667 -9.767,-4.333 -13.7,-8c-3.934,-3.667 -7.067,-8.433 -9.4,-14.3c-2.334,-5.867 -3.5,-13 -3.5,-21.4c-0,-7.6 1.133,-14.267 3.4,-20c2.266,-5.733 5.433,-10.533 9.5,-14.4c4.066,-3.867 8.9,-6.767 14.5,-8.7c5.6,-1.933 11.8,-2.9 18.6,-2.9c6.133,0 11.766,0.767 16.9,2.3c5.133,1.533 9.433,3.433 12.9,5.7c2,1.333 3.633,2.833 4.9,4.5c1.266,1.667 1.9,3.7 1.9,6.1l-0,80.4c-0,6.667 -1.1,12.3 -3.3,16.9c-2.2,4.6 -5.267,8.333 -9.2,11.2c-3.934,2.867 -8.567,4.967 -13.9,6.3c-5.334,1.333 -11.067,2 -17.2,2c-6.8,0 -12.567,-0.7 -17.3,-2.1c-4.734,-1.4 -7.967,-2.633 -9.7,-3.7c-4,-2.267 -6,-5.133 -6,-8.6c-0,-1.867 0.433,-3.433 1.3,-4.7c0.866,-1.267 1.966,-2.233 3.3,-2.9c2.8,2.133 6.733,4.1 11.8,5.9c5.066,1.8 10.6,2.7 16.6,2.7c8.933,0 15.766,-1.9 20.5,-5.7c4.733,-3.8 7.1,-9.9 7.1,-18.3l-0,-12.6Zm-21.6,-6.4c5.333,0 9.7,-0.833 13.1,-2.5c3.4,-1.667 6.233,-3.567 8.5,-5.7l-0,-52c-2.267,-1.467 -5.1,-2.767 -8.5,-3.9c-3.4,-1.133 -7.434,-1.7 -12.1,-1.7c-9.067,0 -16.3,2.733 -21.7,8.2c-5.4,5.467 -8.1,13.6 -8.1,24.4c-0,6 0.733,11.1 2.2,15.3c1.466,4.2 3.5,7.633 6.1,10.3c2.6,2.667 5.666,4.6 9.2,5.8c3.533,1.2 7.3,1.8 11.3,1.8Z" style="fill:#fff;fill-rule:nonzero;"/><path d="M1056.32,259.454c-0,-7.467 -2.1,-12.933 -6.3,-16.4c-4.2,-3.467 -9.834,-5.2 -16.9,-5.2c-5.334,0 -10.067,0.667 -14.2,2c-4.134,1.333 -7.667,2.867 -10.6,4.6l-0,74.8c-0.667,0.267 -1.667,0.567 -3,0.9c-1.334,0.333 -2.8,0.5 -4.4,0.5c-5.734,0 -8.6,-2.4 -8.6,-7.2l-0,-68.2c-0,-2.8 0.566,-5.1 1.7,-6.9c1.133,-1.8 3.1,-3.567 5.9,-5.3c3.466,-2.133 8.066,-4.067 13.8,-5.8c5.733,-1.733 12.2,-2.6 19.4,-2.6c12.133,0 21.7,2.733 28.7,8.2c7,5.467 10.5,14.067 10.5,25.8l-0,60.6c-0.667,0.267 -1.7,0.567 -3.1,0.9c-1.4,0.333 -2.834,0.5 -4.3,0.5c-5.734,0 -8.6,-2.4 -8.6,-7.2l-0,-54Z" style="fill:#fff;fill-rule:nonzero;"/><path d="M1113.72,282.854c3.6,17.467 15.066,26.2 34.4,26.2c5.6,0 10.666,-0.933 15.2,-2.8c4.533,-1.867 8.133,-3.867 10.8,-6c3.2,1.867 4.8,4.4 4.8,7.6c-0,1.867 -0.834,3.667 -2.5,5.4c-1.667,1.733 -3.934,3.267 -6.8,4.6c-2.867,1.333 -6.2,2.4 -10,3.2c-3.8,0.8 -7.9,1.2 -12.3,1.2c-15.467,0 -27.7,-4.2 -36.7,-12.6c-9,-8.4 -13.5,-20.667 -13.5,-36.8c-0,-7.6 1.1,-14.367 3.3,-20.3c2.2,-5.933 5.266,-10.967 9.2,-15.1c3.933,-4.133 8.633,-7.3 14.1,-9.5c5.466,-2.2 11.4,-3.3 17.8,-3.3c6,0 11.533,1 16.6,3c5.066,2 9.433,4.833 13.1,8.5c3.666,3.667 6.533,8 8.6,13c2.066,5 3.1,10.5 3.1,16.5c-0,2.933 -0.667,5.033 -2,6.3c-1.334,1.267 -3.2,2.033 -5.6,2.3l-61.6,8.6Zm27.6,-45.2c-8.134,0 -14.867,2.833 -20.2,8.5c-5.334,5.667 -8.134,13.767 -8.4,24.3l55,-7.6c-0.667,-7.333 -3.234,-13.367 -7.7,-18.1c-4.467,-4.733 -10.7,-7.1 -18.7,-7.1Z" style="fill:#fff;fill-rule:nonzero;"/><path d="M1222.12,319.254c-0.667,0.267 -1.667,0.567 -3,0.9c-1.334,0.333 -2.8,0.5 -4.4,0.5c-5.734,0 -8.6,-2.4 -8.6,-7.2l-0,-67.8c-0,-3.067 0.566,-5.5 1.7,-7.3c1.133,-1.8 3.033,-3.567 5.7,-5.3c3.466,-2.267 8.166,-4.233 14.1,-5.9c5.933,-1.667 12.633,-2.5 20.1,-2.5c10.666,0 16,2.667 16,8c-0,1.333 -0.2,2.567 -0.6,3.7c-0.4,1.133 -0.934,2.1 -1.6,2.9c-1.334,-0.267 -3.067,-0.533 -5.2,-0.8c-2.134,-0.267 -4.267,-0.4 -6.4,-0.4c-6.134,0 -11.534,0.633 -16.2,1.9c-4.667,1.267 -8.534,2.767 -11.6,4.5l-0,74.8Z" style="fill:#fff;fill-rule:nonzero;"/></g></g><path d="M406.245,289.349c7.334,4.416 9.734,13.977 4.806,20.972c-15.334,21.75 -34.561,40.533 -56.756,55.372c-26.5,17.711 -56.572,29.367 -88.089,34.139c-31.511,4.772 -63.689,2.539 -94.244,-6.533c-30.55,-9.078 -58.728,-24.773 -82.528,-45.973c-23.8,-21.2 -42.639,-47.383 -55.172,-76.689c-12.528,-29.305 -18.45,-61.011 -17.339,-92.861c1.111,-31.855 9.228,-63.072 23.767,-91.433c12.183,-23.756 28.627,-45.022 48.466,-62.756c6.384,-5.7 16.156,-4.416 21.389,2.356l4.867,6.3c5.233,6.772 3.933,16.456 -2.356,22.256c-15.361,14.166 -28.133,30.955 -37.705,49.616c-11.934,23.272 -18.595,48.884 -19.506,75.017c-0.911,26.133 3.95,52.15 14.234,76.194c10.283,24.039 25.733,45.523 45.261,62.917c19.527,17.394 42.644,30.272 67.711,37.717c25.072,7.444 51.472,9.277 77.328,5.361c25.855,-3.917 50.527,-13.478 72.272,-28.011c17.433,-11.656 32.639,-26.278 44.944,-43.167c5.039,-6.917 14.506,-9.322 21.839,-4.906l6.811,4.112Z" style="fill:#001c4c;fill-rule:nonzero;"/><path d="M302.045,96.876c11.589,3.1 20.639,12.15 23.739,23.739l21.383,79.8c3.106,11.589 -0.205,23.95 -8.688,32.434l-58.417,58.416c-8.483,8.478 -20.845,11.795 -32.433,8.689l-79.8,-21.383c-11.584,-3.106 -20.634,-12.156 -23.739,-23.739l-21.384,-79.8c-3.105,-11.589 0.211,-23.95 8.689,-32.433l58.417,-58.417c8.483,-8.483 20.844,-11.795 32.433,-8.689l79.8,21.383Z" style="fill:#fff;fill-rule:nonzero;"/><path d="M367.79,31.132c11.589,3.1 20.633,12.15 23.739,23.739l21.383,79.8c3.105,11.589 -0.206,23.95 -8.689,32.433l-58.417,58.417c-8.483,8.478 -20.844,11.794 -32.433,8.689l-79.8,-21.384c-11.583,-3.105 -20.633,-12.155 -23.739,-23.739l-21.383,-79.8c-3.106,-11.588 0.205,-23.95 8.689,-32.433l58.416,-58.417c8.484,-8.483 20.845,-11.794 32.434,-8.688l79.8,21.383Z" style="fill:#7bc3e2;fill-opacity:0.69;fill-rule:nonzero;"/><path d="M556.848,113.865c4.465,0 8.133,-0.425 11.004,-1.276c2.977,-0.957 5.103,-1.86 6.379,-2.711l-0,-23.125l-19.776,2.074c-5.528,0.531 -9.622,1.807 -12.28,3.827c-2.658,1.914 -3.987,4.785 -3.987,8.612c0,4.04 1.542,7.177 4.625,9.41c3.084,2.126 7.762,3.189 14.035,3.189Zm-0.16,-67.46c9.25,-0 16.586,2.073 22.008,6.22c5.423,4.146 8.134,10.685 8.134,19.616l-0,37.797c-0,2.339 -0.479,4.146 -1.435,5.422c-0.851,1.169 -2.18,2.286 -3.987,3.349c-2.552,1.489 -5.954,2.764 -10.207,3.828c-4.147,1.169 -8.931,1.754 -14.353,1.754c-9.995,-0 -17.756,-1.967 -23.285,-5.901c-5.422,-3.934 -8.133,-9.622 -8.133,-17.064c-0,-7.017 2.286,-12.28 6.858,-15.789c4.571,-3.615 11.004,-5.848 19.297,-6.698l22.646,-2.233l-0,-4.465c-0,-5.316 -1.595,-9.197 -4.784,-11.642c-3.19,-2.446 -7.496,-3.668 -12.918,-3.668c-4.466,-0 -8.666,0.638 -12.599,1.913c-3.934,1.276 -7.443,2.712 -10.526,4.306c-0.851,-0.744 -1.648,-1.594 -2.392,-2.551c-0.638,-0.957 -0.957,-2.02 -0.957,-3.19c-0,-1.488 0.372,-2.711 1.116,-3.668c0.744,-0.957 1.914,-1.861 3.509,-2.711c2.87,-1.489 6.166,-2.605 9.888,-3.349c3.721,-0.851 7.761,-1.276 12.12,-1.276Zm113.391,56.137c-0,6.805 -2.499,12.121 -7.496,15.948c-4.997,3.828 -12.227,5.741 -21.689,5.741c-4.04,0 -7.762,-0.372 -11.164,-1.116c-3.402,-0.638 -6.326,-1.488 -8.771,-2.552c-2.339,-1.169 -4.2,-2.445 -5.582,-3.827c-1.276,-1.489 -1.914,-2.977 -1.914,-4.466c0,-1.275 0.319,-2.498 0.957,-3.668c0.744,-1.169 1.807,-2.179 3.19,-3.03c2.87,2.127 6.219,4.04 10.047,5.741c3.827,1.595 8.187,2.393 13.077,2.393c11.058,-0 16.586,-3.722 16.586,-11.164c0,-6.06 -3.668,-9.994 -11.004,-11.802l-13.237,-3.508c-6.485,-1.701 -11.217,-4.147 -14.194,-7.336c-2.976,-3.296 -4.465,-7.496 -4.465,-12.599c0,-2.764 0.532,-5.423 1.595,-7.974c1.169,-2.552 2.924,-4.785 5.263,-6.698c2.339,-1.914 5.209,-3.403 8.612,-4.466c3.508,-1.169 7.602,-1.754 12.28,-1.754c7.442,-0 13.449,1.116 18.021,3.349c4.572,2.126 6.858,4.625 6.858,7.496c-0,1.382 -0.372,2.604 -1.117,3.668c-0.638,1.063 -1.541,1.86 -2.711,2.392c-1.914,-1.276 -4.625,-2.658 -8.133,-4.147c-3.509,-1.488 -7.655,-2.232 -12.44,-2.232c-4.784,-0 -8.612,0.903 -11.483,2.711c-2.764,1.807 -4.146,4.359 -4.146,7.655c0,2.445 0.797,4.518 2.392,6.22c1.595,1.701 4.253,2.977 7.974,3.827l11.004,2.711c7.23,1.808 12.653,4.519 16.267,8.134c3.615,3.508 5.423,8.293 5.423,14.353Zm79.306,0c-0,6.805 -2.499,12.121 -7.496,15.948c-4.997,3.828 -12.227,5.741 -21.689,5.741c-4.04,0 -7.761,-0.372 -11.164,-1.116c-3.402,-0.638 -6.326,-1.488 -8.771,-2.552c-2.339,-1.169 -4.2,-2.445 -5.582,-3.827c-1.276,-1.489 -1.914,-2.977 -1.914,-4.466c0,-1.275 0.319,-2.498 0.957,-3.668c0.744,-1.169 1.808,-2.179 3.19,-3.03c2.87,2.127 6.22,4.04 10.047,5.741c3.828,1.595 8.187,2.393 13.077,2.393c11.058,-0 16.586,-3.722 16.586,-11.164c0,-6.06 -3.668,-9.994 -11.004,-11.802l-13.237,-3.508c-6.485,-1.701 -11.216,-4.147 -14.193,-7.336c-2.977,-3.296 -4.466,-7.496 -4.466,-12.599c0,-2.764 0.532,-5.423 1.595,-7.974c1.17,-2.552 2.924,-4.785 5.263,-6.698c2.339,-1.914 5.21,-3.403 8.612,-4.466c3.508,-1.169 7.602,-1.754 12.28,-1.754c7.442,-0 13.449,1.116 18.021,3.349c4.572,2.126 6.858,4.625 6.858,7.496c-0,1.382 -0.372,2.604 -1.117,3.668c-0.638,1.063 -1.541,1.86 -2.711,2.392c-1.914,-1.276 -4.625,-2.658 -8.133,-4.147c-3.509,-1.488 -7.655,-2.232 -12.44,-2.232c-4.784,-0 -8.612,0.903 -11.482,2.711c-2.765,1.807 -4.147,4.359 -4.147,7.655c0,2.445 0.798,4.518 2.392,6.22c1.595,1.701 4.253,2.977 7.974,3.827l11.005,2.711c7.229,1.808 12.652,4.519 16.267,8.134c3.614,3.508 5.422,8.293 5.422,14.353Zm37.185,-9.728c2.871,13.928 12.015,20.892 27.431,20.892c4.466,-0 8.506,-0.745 12.121,-2.233c3.615,-1.489 6.485,-3.083 8.612,-4.784c2.551,1.488 3.827,3.508 3.827,6.06c0,1.488 -0.691,2.924 -2.073,4.306c-1.276,1.382 -3.083,2.605 -5.422,3.668c-2.233,1.063 -4.891,1.914 -7.975,2.552c-2.976,0.637 -6.219,0.956 -9.728,0.956c-12.333,0 -22.114,-3.349 -29.344,-10.047c-7.124,-6.698 -10.685,-16.48 -10.685,-29.344c-0,-6.061 0.85,-11.43 2.551,-16.108c1.808,-4.784 4.253,-8.824 7.336,-12.12c3.19,-3.296 6.964,-5.795 11.323,-7.496c4.36,-1.807 9.091,-2.711 14.194,-2.711c4.785,-0 9.197,0.797 13.237,2.392c4.04,1.595 7.496,3.881 10.366,6.858c2.977,2.87 5.263,6.326 6.858,10.366c1.701,3.934 2.552,8.293 2.552,13.077c-0,2.339 -0.532,4.041 -1.595,5.104c-1.063,0.957 -2.552,1.541 -4.466,1.754l-49.12,6.858Zm22.009,-36.043c-6.486,0 -11.855,2.286 -16.108,6.858c-4.253,4.465 -6.485,10.898 -6.698,19.297l43.857,-6.06c-0.531,-5.848 -2.605,-10.632 -6.22,-14.354c-3.508,-3.827 -8.452,-5.741 -14.831,-5.741Zm84.773,67.46c-7.443,0 -13.503,-1.648 -18.181,-4.944c-4.572,-3.295 -6.858,-8.771 -6.858,-16.426l0,-75.753c0.532,-0.213 1.329,-0.426 2.392,-0.638c1.17,-0.319 2.393,-0.479 3.668,-0.479c4.466,0 6.699,1.914 6.699,5.742l-0,18.34l26.154,-0c0.319,0.532 0.638,1.276 0.957,2.233c0.319,0.85 0.479,1.807 0.479,2.87c-0,3.615 -1.595,5.423 -4.785,5.423l-22.805,-0l-0,41.465c-0,4.252 1.169,7.283 3.508,9.09c2.445,1.701 5.848,2.552 10.207,2.552c1.807,-0 3.827,-0.319 6.06,-0.957c2.233,-0.638 4.093,-1.382 5.582,-2.233c0.638,0.638 1.223,1.435 1.754,2.392c0.532,0.957 0.798,2.074 0.798,3.349c-0,2.339 -1.383,4.253 -4.147,5.742c-2.764,1.488 -6.592,2.232 -11.482,2.232Zm108.331,-10.366c4.466,0 8.134,-0.425 11.004,-1.276c2.977,-0.957 5.104,-1.86 6.38,-2.711l-0,-23.125l-19.776,2.074c-5.529,0.531 -9.622,1.807 -12.28,3.827c-2.658,1.914 -3.987,4.785 -3.987,8.612c-0,4.04 1.542,7.177 4.625,9.41c3.083,2.126 7.761,3.189 14.034,3.189Zm-0.159,-67.46c9.25,-0 16.586,2.073 22.008,6.22c5.422,4.146 8.133,10.685 8.133,19.616l0,37.797c0,2.339 -0.478,4.146 -1.435,5.422c-0.85,1.169 -2.179,2.286 -3.987,3.349c-2.552,1.489 -5.954,2.764 -10.207,3.828c-4.146,1.169 -8.931,1.754 -14.353,1.754c-9.994,-0 -17.755,-1.967 -23.284,-5.901c-5.422,-3.934 -8.134,-9.622 -8.134,-17.064c0,-7.017 2.286,-12.28 6.858,-15.789c4.572,-3.615 11.004,-5.848 19.297,-6.698l22.647,-2.233l-0,-4.465c-0,-5.316 -1.595,-9.197 -4.785,-11.642c-3.19,-2.446 -7.495,-3.668 -12.918,-3.668c-4.465,-0 -8.665,0.638 -12.599,1.913c-3.934,1.276 -7.442,2.712 -10.526,4.306c-0.85,-0.744 -1.647,-1.594 -2.392,-2.551c-0.638,-0.957 -0.957,-2.02 -0.957,-3.19c0,-1.488 0.373,-2.711 1.117,-3.668c0.744,-0.957 1.914,-1.861 3.508,-2.711c2.871,-1.489 6.167,-2.605 9.888,-3.349c3.721,-0.851 7.762,-1.276 12.121,-1.276Zm124.394,63.633c0,2.126 -0.478,3.774 -1.435,4.944c-0.85,1.169 -2.233,2.339 -4.146,3.508c-2.127,1.382 -5.157,2.658 -9.091,3.828c-3.934,1.275 -8.452,1.913 -13.556,1.913c-5.741,0 -11.004,-0.744 -15.788,-2.232c-4.785,-1.489 -8.931,-3.775 -12.44,-6.858c-3.402,-3.19 -6.06,-7.177 -7.974,-11.961c-1.807,-4.891 -2.711,-10.738 -2.711,-17.543c0,-6.911 0.957,-12.812 2.871,-17.702c1.914,-4.997 4.465,-9.091 7.655,-12.28c3.296,-3.19 7.123,-5.529 11.482,-7.017c4.466,-1.489 9.197,-2.233 14.194,-2.233c3.403,-0 6.698,0.425 9.888,1.276c3.19,0.85 5.954,1.913 8.293,3.189l0,-32.055c0.532,-0.213 1.329,-0.426 2.392,-0.638c1.17,-0.319 2.339,-0.479 3.509,-0.479c4.572,0 6.857,1.914 6.857,5.742l0,86.598Zm-12.758,-47.685c-2.126,-1.489 -4.572,-2.764 -7.336,-3.828c-2.764,-1.063 -5.954,-1.594 -9.569,-1.594c-3.296,-0 -6.432,0.531 -9.409,1.594c-2.871,0.957 -5.423,2.605 -7.655,4.944c-2.233,2.233 -4.04,5.21 -5.423,8.931c-1.275,3.721 -1.913,8.24 -1.913,13.556c-0,9.782 2.339,16.852 7.017,21.211c4.678,4.359 10.898,6.539 18.659,6.539c3.721,-0 6.751,-0.372 9.09,-1.117c2.446,-0.85 4.625,-1.86 6.539,-3.03l0,-47.206Zm138.411,9.728c0,-5.209 -1.488,-9.037 -4.465,-11.482c-2.977,-2.446 -6.964,-3.668 -11.961,-3.668c-6.911,-0 -13.077,2.445 -18.5,7.336c0.638,2.126 0.957,4.412 0.957,6.857l0,50.715c-0.532,0.213 -1.382,0.425 -2.552,0.638c-1.063,0.319 -2.179,0.479 -3.349,0.479c-4.571,-0 -6.857,-1.914 -6.857,-5.742l-0,-45.133c-0,-5.209 -1.489,-9.037 -4.466,-11.482c-2.977,-2.446 -7.017,-3.668 -12.12,-3.668c-3.403,-0 -6.645,0.531 -9.729,1.594c-2.977,1.064 -5.528,2.286 -7.655,3.668l0,59.646c-0.531,0.213 -1.329,0.425 -2.392,0.638c-1.063,0.319 -2.233,0.479 -3.508,0.479c-4.572,-0 -6.858,-1.914 -6.858,-5.742l-0,-54.383c-0,-2.126 0.425,-3.88 1.276,-5.262c0.957,-1.489 2.551,-2.977 4.784,-4.466c2.871,-1.807 6.486,-3.349 10.845,-4.625c4.465,-1.382 8.931,-2.073 13.396,-2.073c5.21,-0 9.835,0.797 13.875,2.392c4.04,1.489 7.123,3.562 9.25,6.22c2.764,-2.446 6.22,-4.466 10.366,-6.06c4.147,-1.702 8.878,-2.552 14.194,-2.552c8.612,-0 15.469,2.073 20.573,6.22c5.103,4.04 7.655,10.313 7.655,18.818l-0,50.396c-0.532,0.213 -1.382,0.425 -2.552,0.638c-1.063,0.319 -2.179,0.479 -3.349,0.479c-4.572,-0 -6.858,-1.914 -6.858,-5.742l0,-45.133Zm58.273,49.758c-0.532,0.213 -1.329,0.425 -2.392,0.638c-1.064,0.319 -2.233,0.479 -3.509,0.479c-4.572,-0 -6.858,-1.914 -6.858,-5.742l0,-68.417c0.532,-0.213 1.329,-0.425 2.393,-0.638c1.169,-0.319 2.392,-0.478 3.668,-0.478c4.465,-0 6.698,1.967 6.698,5.901l-0,68.257Zm-14.672,-96.645c-0,-2.233 0.744,-4.093 2.232,-5.582c1.595,-1.595 3.615,-2.392 6.061,-2.392c2.445,-0 4.412,0.797 5.9,2.392c1.489,1.489 2.233,3.349 2.233,5.582c0,2.233 -0.744,4.146 -2.233,5.741c-1.488,1.489 -3.455,2.233 -5.9,2.233c-2.446,-0 -4.466,-0.744 -6.061,-2.233c-1.488,-1.595 -2.232,-3.508 -2.232,-5.741Zm98.594,48.96c0,-5.953 -1.701,-10.313 -5.103,-13.077c-3.296,-2.764 -7.762,-4.146 -13.397,-4.146c-4.252,-0 -8.027,0.531 -11.323,1.594c-3.296,1.064 -6.113,2.286 -8.452,3.668l-0,59.646c-0.532,0.213 -1.329,0.425 -2.392,0.638c-1.064,0.319 -2.233,0.479 -3.509,0.479c-4.572,-0 -6.858,-1.914 -6.858,-5.742l0,-54.383c0,-2.232 0.426,-4.04 1.276,-5.422c0.957,-1.488 2.552,-2.924 4.785,-4.306c2.764,-1.701 6.432,-3.243 11.004,-4.625c4.572,-1.382 9.728,-2.073 15.469,-2.073c9.675,-0 17.277,2.179 22.806,6.539c5.635,4.359 8.453,11.216 8.453,20.573l-0,48.322c-0.532,0.213 -1.383,0.425 -2.552,0.638c-1.063,0.319 -2.18,0.479 -3.349,0.479c-4.572,-0 -6.858,-1.914 -6.858,-5.742l0,-43.06Zm58.175,47.685c-0.532,0.213 -1.329,0.425 -2.392,0.638c-1.063,0.319 -2.233,0.479 -3.509,0.479c-4.572,-0 -6.857,-1.914 -6.857,-5.742l-0,-68.417c0.531,-0.213 1.329,-0.425 2.392,-0.638c1.169,-0.319 2.392,-0.478 3.668,-0.478c4.465,-0 6.698,1.967 6.698,5.901l0,68.257Zm-14.672,-96.645c-0,-2.233 0.744,-4.093 2.233,-5.582c1.594,-1.595 3.614,-2.392 6.06,-2.392c2.445,-0 4.412,0.797 5.901,2.392c1.488,1.489 2.232,3.349 2.232,5.582c0,2.233 -0.744,4.146 -2.232,5.741c-1.489,1.489 -3.456,2.233 -5.901,2.233c-2.446,-0 -4.466,-0.744 -6.06,-2.233c-1.489,-1.595 -2.233,-3.508 -2.233,-5.741Zm99.551,77.348c0,6.805 -2.498,12.121 -7.495,15.948c-4.997,3.828 -12.227,5.741 -21.69,5.741c-4.04,0 -7.761,-0.372 -11.163,-1.116c-3.403,-0.638 -6.326,-1.488 -8.772,-2.552c-2.339,-1.169 -4.2,-2.445 -5.582,-3.827c-1.276,-1.489 -1.913,-2.977 -1.913,-4.466c-0,-1.275 0.319,-2.498 0.956,-3.668c0.745,-1.169 1.808,-2.179 3.19,-3.03c2.871,2.127 6.22,4.04 10.047,5.741c3.828,1.595 8.187,2.393 13.078,2.393c11.057,-0 16.586,-3.722 16.586,-11.164c-0,-6.06 -3.668,-9.994 -11.004,-11.802l-13.237,-3.508c-6.486,-1.701 -11.217,-4.147 -14.194,-7.336c-2.977,-3.296 -4.466,-7.496 -4.466,-12.599c0,-2.764 0.532,-5.423 1.595,-7.974c1.17,-2.552 2.924,-4.785 5.263,-6.698c2.339,-1.914 5.21,-3.403 8.612,-4.466c3.509,-1.169 7.602,-1.754 12.28,-1.754c7.442,-0 13.45,1.116 18.021,3.349c4.572,2.126 6.858,4.625 6.858,7.496c0,1.382 -0.372,2.604 -1.116,3.668c-0.638,1.063 -1.542,1.86 -2.712,2.392c-1.913,-1.276 -4.624,-2.658 -8.133,-4.147c-3.509,-1.488 -7.655,-2.232 -12.44,-2.232c-4.784,-0 -8.611,0.903 -11.482,2.711c-2.764,1.807 -4.147,4.359 -4.147,7.655c0,2.445 0.798,4.518 2.393,6.22c1.594,1.701 4.252,2.977 7.974,3.827l11.004,2.711c7.23,1.808 12.652,4.519 16.267,8.134c3.615,3.508 5.422,8.293 5.422,14.353Zm52.514,21.689c-7.443,0 -13.503,-1.648 -18.181,-4.944c-4.572,-3.295 -6.858,-8.771 -6.858,-16.426l0,-75.753c0.532,-0.213 1.329,-0.426 2.392,-0.638c1.17,-0.319 2.393,-0.479 3.668,-0.479c4.466,0 6.699,1.914 6.699,5.742l-0,18.34l26.154,-0c0.319,0.532 0.638,1.276 0.957,2.233c0.319,0.85 0.479,1.807 0.479,2.87c-0,3.615 -1.595,5.423 -4.785,5.423l-22.805,-0l-0,41.465c-0,4.252 1.169,7.283 3.508,9.09c2.445,1.701 5.848,2.552 10.207,2.552c1.807,-0 3.827,-0.319 6.06,-0.957c2.233,-0.638 4.093,-1.382 5.582,-2.233c0.638,0.638 1.223,1.435 1.754,2.392c0.532,0.957 0.798,2.074 0.798,3.349c-0,2.339 -1.383,4.253 -4.147,5.742c-2.764,1.488 -6.592,2.232 -11.482,2.232Zm54.87,-2.392c-0.532,0.213 -1.329,0.425 -2.392,0.638c-1.064,0.319 -2.233,0.479 -3.509,0.479c-4.572,-0 -6.858,-1.914 -6.858,-5.742l0,-54.064c0,-2.445 0.426,-4.359 1.276,-5.741c0.957,-1.488 2.499,-2.924 4.625,-4.306c2.764,-1.807 6.486,-3.349 11.164,-4.625c4.784,-1.382 10.153,-2.073 16.107,-2.073c8.506,-0 12.759,2.126 12.759,6.379c-0,1.063 -0.16,2.073 -0.479,3.03c-0.319,0.851 -0.744,1.595 -1.276,2.233c-1.063,-0.213 -2.445,-0.425 -4.146,-0.638c-1.701,-0.213 -3.402,-0.319 -5.103,-0.319c-4.891,0 -9.197,0.532 -12.918,1.595c-3.722,0.957 -6.805,2.126 -9.25,3.508l-0,59.646Zm81.645,-7.974c4.465,0 8.133,-0.425 11.004,-1.276c2.977,-0.957 5.103,-1.86 6.379,-2.711l0,-23.125l-19.775,2.074c-5.529,0.531 -9.622,1.807 -12.28,3.827c-2.658,1.914 -3.987,4.785 -3.987,8.612c-0,4.04 1.541,7.177 4.625,9.41c3.083,2.126 7.761,3.189 14.034,3.189Zm-0.16,-67.46c9.25,-0 16.586,2.073 22.009,6.22c5.422,4.146 8.133,10.685 8.133,19.616l0,37.797c0,2.339 -0.478,4.146 -1.435,5.422c-0.851,1.169 -2.18,2.286 -3.987,3.349c-2.552,1.489 -5.954,2.764 -10.207,3.828c-4.146,1.169 -8.931,1.754 -14.353,1.754c-9.994,-0 -17.756,-1.967 -23.284,-5.901c-5.423,-3.934 -8.134,-9.622 -8.134,-17.064c0,-7.017 2.286,-12.28 6.858,-15.789c4.572,-3.615 11.004,-5.848 19.297,-6.698l22.646,-2.233l0,-4.465c0,-5.316 -1.595,-9.197 -4.784,-11.642c-3.19,-2.446 -7.496,-3.668 -12.918,-3.668c-4.466,-0 -8.665,0.638 -12.599,1.913c-3.934,1.276 -7.442,2.712 -10.526,4.306c-0.85,-0.744 -1.648,-1.594 -2.392,-2.551c-0.638,-0.957 -0.957,-2.02 -0.957,-3.19c0,-1.488 0.372,-2.711 1.117,-3.668c0.744,-0.957 1.913,-1.861 3.508,-2.711c2.871,-1.489 6.167,-2.605 9.888,-3.349c3.721,-0.851 7.761,-1.276 12.12,-1.276Zm86.607,77.826c-7.442,0 -13.502,-1.648 -18.181,-4.944c-4.571,-3.295 -6.857,-8.771 -6.857,-16.426l-0,-75.753c0.531,-0.213 1.329,-0.426 2.392,-0.638c1.17,-0.319 2.392,-0.479 3.668,-0.479c4.466,0 6.698,1.914 6.698,5.742l0,18.34l26.155,-0c0.319,0.532 0.638,1.276 0.957,2.233c0.319,0.85 0.478,1.807 0.478,2.87c0,3.615 -1.594,5.423 -4.784,5.423l-22.806,-0l0,41.465c0,4.252 1.17,7.283 3.509,9.09c2.445,1.701 5.847,2.552 10.207,2.552c1.807,-0 3.827,-0.319 6.06,-0.957c2.233,-0.638 4.093,-1.382 5.582,-2.233c0.638,0.638 1.222,1.435 1.754,2.392c0.532,0.957 0.797,2.074 0.797,3.349c0,2.339 -1.382,4.253 -4.146,5.742c-2.764,1.488 -6.592,2.232 -11.483,2.232Zm55.668,-2.392c-0.532,0.213 -1.329,0.425 -2.392,0.638c-1.064,0.319 -2.233,0.479 -3.509,0.479c-4.572,-0 -6.858,-1.914 -6.858,-5.742l0,-68.417c0.532,-0.213 1.329,-0.425 2.393,-0.638c1.169,-0.319 2.392,-0.478 3.668,-0.478c4.465,-0 6.698,1.967 6.698,5.901l-0,68.257Zm-14.672,-96.645c-0,-2.233 0.744,-4.093 2.232,-5.582c1.595,-1.595 3.615,-2.392 6.061,-2.392c2.445,-0 4.412,0.797 5.9,2.392c1.489,1.489 2.233,3.349 2.233,5.582c0,2.233 -0.744,4.146 -2.233,5.741c-1.488,1.489 -3.455,2.233 -5.9,2.233c-2.446,-0 -4.466,-0.744 -6.061,-2.233c-1.488,-1.595 -2.232,-3.508 -2.232,-5.741Zm115.977,60.124c0,5.954 -0.85,11.323 -2.551,16.108c-1.701,4.784 -4.147,8.877 -7.336,12.28c-3.084,3.402 -6.858,6.007 -11.324,7.814c-4.465,1.808 -9.462,2.711 -14.991,2.711c-5.528,0 -10.525,-0.903 -14.991,-2.711c-4.465,-1.807 -8.293,-4.412 -11.482,-7.814c-3.19,-3.403 -5.635,-7.496 -7.337,-12.28c-1.701,-4.785 -2.551,-10.154 -2.551,-16.108c-0,-5.954 0.85,-11.323 2.551,-16.107c1.808,-4.785 4.306,-8.878 7.496,-12.28c3.19,-3.403 7.017,-6.008 11.483,-7.815c4.465,-1.807 9.409,-2.711 14.831,-2.711c5.423,-0 10.367,0.904 14.832,2.711c4.465,1.807 8.24,4.412 11.323,7.815c3.19,3.402 5.635,7.495 7.336,12.28c1.808,4.784 2.711,10.153 2.711,16.107Zm-36.202,-28.387c-7.229,-0 -12.918,2.498 -17.064,7.495c-4.147,4.997 -6.22,11.961 -6.22,20.892c0,9.037 2.02,16.055 6.06,21.052c4.147,4.89 9.888,7.336 17.224,7.336c7.336,-0 13.025,-2.499 17.065,-7.496c4.04,-4.997 6.06,-11.961 6.06,-20.892c-0,-8.931 -2.073,-15.895 -6.22,-20.892c-4.04,-4.997 -9.675,-7.495 -16.905,-7.495Zm114.941,17.223c0,-5.953 -1.701,-10.313 -5.103,-13.077c-3.296,-2.764 -7.761,-4.146 -13.396,-4.146c-4.253,-0 -8.027,0.531 -11.323,1.594c-3.296,1.064 -6.114,2.286 -8.453,3.668l0,59.646c-0.531,0.213 -1.329,0.425 -2.392,0.638c-1.063,0.319 -2.233,0.479 -3.509,0.479c-4.571,-0 -6.857,-1.914 -6.857,-5.742l-0,-54.383c-0,-2.232 0.425,-4.04 1.276,-5.422c0.956,-1.488 2.551,-2.924 4.784,-4.306c2.764,-1.701 6.432,-3.243 11.004,-4.625c4.572,-1.382 9.728,-2.073 15.47,-2.073c9.675,-0 17.277,2.179 22.805,6.539c5.635,4.359 8.453,11.216 8.453,20.573l-0,48.322c-0.532,0.213 -1.382,0.425 -2.552,0.638c-1.063,0.319 -2.179,0.479 -3.349,0.479c-4.572,-0 -6.858,-1.914 -6.858,-5.742l0,-43.06Zm136.516,28.388c-0,6.805 -2.499,12.121 -7.496,15.948c-4.997,3.828 -12.227,5.741 -21.689,5.741c-4.04,0 -7.761,-0.372 -11.164,-1.116c-3.402,-0.638 -6.326,-1.488 -8.771,-2.552c-2.339,-1.169 -4.2,-2.445 -5.582,-3.827c-1.276,-1.489 -1.914,-2.977 -1.914,-4.466c0,-1.275 0.319,-2.498 0.957,-3.668c0.744,-1.169 1.808,-2.179 3.19,-3.03c2.87,2.127 6.219,4.04 10.047,5.741c3.828,1.595 8.187,2.393 13.077,2.393c11.058,-0 16.586,-3.722 16.586,-11.164c0,-6.06 -3.668,-9.994 -11.004,-11.802l-13.237,-3.508c-6.485,-1.701 -11.216,-4.147 -14.193,-7.336c-2.977,-3.296 -4.466,-7.496 -4.466,-12.599c0,-2.764 0.532,-5.423 1.595,-7.974c1.169,-2.552 2.924,-4.785 5.263,-6.698c2.339,-1.914 5.21,-3.403 8.612,-4.466c3.508,-1.169 7.602,-1.754 12.28,-1.754c7.442,-0 13.449,1.116 18.021,3.349c4.572,2.126 6.858,4.625 6.858,7.496c-0,1.382 -0.372,2.604 -1.117,3.668c-0.638,1.063 -1.541,1.86 -2.711,2.392c-1.914,-1.276 -4.625,-2.658 -8.133,-4.147c-3.509,-1.488 -7.655,-2.232 -12.44,-2.232c-4.784,-0 -8.612,0.903 -11.482,2.711c-2.765,1.807 -4.147,4.359 -4.147,7.655c0,2.445 0.798,4.518 2.392,6.22c1.595,1.701 4.253,2.977 7.974,3.827l11.004,2.711c7.23,1.808 12.653,4.519 16.268,8.134c3.614,3.508 5.422,8.293 5.422,14.353Zm40.393,19.297c-0.532,0.213 -1.329,0.425 -2.392,0.638c-1.064,0.319 -2.233,0.479 -3.509,0.479c-4.572,-0 -6.858,-1.914 -6.858,-5.742l0,-98.399c0.532,-0.213 1.329,-0.426 2.392,-0.638c1.17,-0.319 2.393,-0.479 3.669,-0.479c4.465,0 6.698,1.914 6.698,5.742l-0,28.706c2.551,-1.488 5.528,-2.817 8.931,-3.987c3.508,-1.169 7.442,-1.754 11.801,-1.754c4.466,-0 8.506,0.585 12.121,1.754c3.721,1.17 6.911,2.977 9.569,5.423c2.658,2.339 4.731,5.369 6.219,9.09c1.489,3.615 2.233,7.868 2.233,12.758l0,46.409c-0.532,0.213 -1.382,0.425 -2.552,0.638c-1.063,0.319 -2.179,0.479 -3.349,0.479c-4.572,-0 -6.857,-1.914 -6.857,-5.742l-0,-41.465c-0,-6.379 -1.755,-11.11 -5.263,-14.193c-3.509,-3.084 -8.134,-4.625 -13.875,-4.625c-3.721,-0 -7.23,0.691 -10.526,2.073c-3.189,1.276 -6.007,2.87 -8.452,4.784l-0,58.051Zm91.825,-29.025c2.871,13.928 12.014,20.892 27.431,20.892c4.465,-0 8.505,-0.745 12.12,-2.233c3.615,-1.489 6.486,-3.083 8.612,-4.784c2.552,1.488 3.828,3.508 3.828,6.06c-0,1.488 -0.691,2.924 -2.073,4.306c-1.276,1.382 -3.084,2.605 -5.423,3.668c-2.233,1.063 -4.891,1.914 -7.974,2.552c-2.977,0.637 -6.22,0.956 -9.728,0.956c-12.333,0 -22.115,-3.349 -29.345,-10.047c-7.123,-6.698 -10.685,-16.48 -10.685,-29.344c0,-6.061 0.851,-11.43 2.552,-16.108c1.807,-4.784 4.253,-8.824 7.336,-12.12c3.19,-3.296 6.964,-5.795 11.323,-7.496c4.359,-1.807 9.091,-2.711 14.194,-2.711c4.784,-0 9.197,0.797 13.237,2.392c4.04,1.595 7.495,3.881 10.366,6.858c2.977,2.87 5.263,6.326 6.858,10.366c1.701,3.934 2.551,8.293 2.551,13.077c0,2.339 -0.531,4.041 -1.594,5.104c-1.064,0.957 -2.552,1.541 -4.466,1.754l-49.12,6.858Zm22.008,-36.043c-6.485,0 -11.854,2.286 -16.107,6.858c-4.253,4.465 -6.486,10.898 -6.698,19.297l43.857,-6.06c-0.532,-5.848 -2.605,-10.632 -6.22,-14.354c-3.508,-3.827 -8.452,-5.741 -14.832,-5.741Zm73.61,65.068c-0.532,0.213 -1.329,0.425 -2.393,0.638c-1.063,0.319 -2.232,0.479 -3.508,0.479c-4.572,-0 -6.858,-1.914 -6.858,-5.742l0,-98.399c0.532,-0.213 1.329,-0.426 2.392,-0.638c1.17,-0.319 2.339,-0.479 3.509,-0.479c4.572,0 6.858,1.914 6.858,5.742l-0,98.399Zm47.684,0c-0.531,0.213 -1.329,0.425 -2.392,0.638c-1.063,0.319 -2.233,0.479 -3.509,0.479c-4.571,-0 -6.857,-1.914 -6.857,-5.742l-0,-98.399c0.531,-0.213 1.329,-0.426 2.392,-0.638c1.17,-0.319 2.339,-0.479 3.509,-0.479c4.571,0 6.857,1.914 6.857,5.742l0,98.399Z" style="fill:#001c4c;fill-rule:nonzero;"/></svg>