<?xml version="1.0" encoding="UTF-8" standalone="no"?>
<!DOCTYPE svg PUBLIC "-//W3C//DTD SVG 1.1//EN" "http://www.w3.org/Graphics/SVG/1.1/DTD/svg11.dtd">
<svg width="100%" height="100%" viewBox="0 0 306 73" version="1.1" xmlns="http://www.w3.org/2000/svg" xmlns:xlink="http://www.w3.org/1999/xlink" xml:space="preserve" xmlns:serif="http://www.serif.com/" style="fill-rule:evenodd;clip-rule:evenodd;stroke-linejoin:round;stroke-miterlimit:2;">
    <g transform="matrix(1.69144,0,0,1,-61.1297,-3.9533)">
        <path d="M91.839,53.575L91.839,55.875L90.633,55.875L90.633,53.795C90.633,53.195 90.53,52.759 90.325,52.485C90.12,52.212 89.856,52.075 89.533,52.075C89.312,52.075 89.102,52.135 88.901,52.255C88.7,52.375 88.532,52.509 88.398,52.655L88.398,55.875L87.18,55.875L87.18,52.615C87.18,52.322 87.218,52.075 87.292,51.875C87.367,51.675 87.488,51.489 87.653,51.315C87.874,51.062 88.158,50.849 88.504,50.675C88.851,50.502 89.202,50.415 89.557,50.415C89.951,50.415 90.306,50.519 90.621,50.725C90.936,50.932 91.185,51.222 91.366,51.595C91.421,51.675 91.468,51.752 91.508,51.825C91.547,51.899 91.583,51.989 91.614,52.095C91.677,52.282 91.73,52.502 91.774,52.755C91.817,53.009 91.839,53.282 91.839,53.575ZM95.28,53.695L95.28,55.875L94.074,55.875L94.074,53.795C94.074,53.195 93.975,52.759 93.778,52.485C93.581,52.212 93.317,52.075 92.986,52.075C92.741,52.075 92.507,52.162 92.282,52.335C92.058,52.509 91.859,52.742 91.685,53.035L91.118,51.695C91.346,51.349 91.626,51.049 91.957,50.795C92.288,50.542 92.674,50.415 93.116,50.415C93.534,50.415 93.906,50.532 94.233,50.765C94.56,50.999 94.817,51.359 95.002,51.845C95.187,52.332 95.28,52.949 95.28,53.695ZM87.18,54.855L88.398,54.855L88.398,60.015C88.343,60.042 88.266,60.075 88.167,60.115C88.069,60.155 87.961,60.175 87.842,60.175C87.622,60.175 87.456,60.102 87.346,59.955C87.235,59.809 87.18,59.569 87.18,59.235L87.18,54.855ZM90.633,54.855L91.839,54.855L91.839,60.015C91.792,60.042 91.717,60.075 91.614,60.115C91.512,60.155 91.401,60.175 91.283,60.175C91.062,60.175 90.899,60.102 90.792,59.955C90.686,59.809 90.633,59.569 90.633,59.235L90.633,54.855ZM94.074,54.855L95.28,54.855L95.28,60.015C95.232,60.042 95.158,60.075 95.055,60.115C94.953,60.155 94.846,60.175 94.736,60.175C94.507,60.175 94.34,60.102 94.233,59.955C94.127,59.809 94.074,59.569 94.074,59.235L94.074,54.855Z" style="fill:white;fill-rule:nonzero;"/>
    </g>
    <g transform="matrix(1.69144,0,0,1,-61.1297,-3.9533)">
        <path d="M99.536,58.735C99.82,58.735 100.063,58.685 100.264,58.585C100.465,58.485 100.612,58.389 100.707,58.295L100.707,55.715L99.395,55.935C99.032,55.989 98.758,56.125 98.573,56.345C98.388,56.565 98.295,56.889 98.295,57.315C98.295,57.755 98.397,58.102 98.602,58.355C98.807,58.609 99.119,58.735 99.536,58.735ZM99.501,50.415C100.234,50.415 100.815,50.685 101.245,51.225C101.675,51.765 101.889,52.615 101.889,53.775L101.889,58.435C101.889,58.742 101.85,58.982 101.771,59.155C101.692,59.329 101.582,59.482 101.44,59.615C101.235,59.815 100.969,59.985 100.642,60.125C100.315,60.265 99.946,60.335 99.536,60.335C98.772,60.335 98.175,60.085 97.745,59.585C97.315,59.085 97.101,58.349 97.101,57.375C97.101,56.495 97.27,55.819 97.609,55.345C97.948,54.872 98.429,54.589 99.052,54.495L100.707,54.215L100.707,53.755C100.707,53.155 100.593,52.722 100.364,52.455C100.136,52.189 99.824,52.055 99.43,52.055C99.115,52.055 98.809,52.129 98.514,52.275C98.218,52.422 97.956,52.589 97.727,52.775C97.656,52.669 97.593,52.539 97.538,52.385C97.483,52.232 97.455,52.069 97.455,51.895C97.455,51.482 97.589,51.169 97.857,50.955C98.078,50.782 98.332,50.649 98.62,50.555C98.908,50.462 99.201,50.415 99.501,50.415Z" style="fill:white;fill-rule:nonzero;"/>
    </g>
    <g transform="matrix(1.69144,0,0,1,-61.1297,-3.9533)">
        <path d="M105.236,52.695L105.236,55.635L104.018,55.635L104.018,52.655C104.018,52.335 104.059,52.072 104.142,51.865C104.225,51.659 104.349,51.462 104.514,51.275C104.735,51.035 105.025,50.835 105.384,50.675C105.742,50.515 106.134,50.435 106.56,50.435C107.246,50.435 107.589,50.762 107.589,51.415C107.589,51.575 107.575,51.722 107.547,51.855C107.52,51.989 107.486,52.109 107.447,52.215C107.368,52.189 107.268,52.162 107.145,52.135C107.023,52.109 106.899,52.095 106.773,52.095C106.45,52.095 106.156,52.152 105.892,52.265C105.628,52.379 105.409,52.522 105.236,52.695ZM104.018,54.775L105.236,54.955L105.236,60.015C105.181,60.042 105.104,60.075 105.005,60.115C104.907,60.155 104.798,60.175 104.68,60.175C104.459,60.175 104.294,60.102 104.183,59.955C104.073,59.809 104.018,59.569 104.018,59.235L104.018,54.775Z" style="fill:white;fill-rule:nonzero;"/>
    </g>
    <g transform="matrix(1.69144,0,0,1,-61.1297,-3.9533)">
        <path d="M110.959,55.955L110.155,54.995L112.839,50.515C113.083,50.529 113.276,50.625 113.418,50.805C113.56,50.985 113.631,51.222 113.631,51.515C113.631,51.755 113.586,51.969 113.495,52.155C113.404,52.342 113.268,52.562 113.087,52.815L110.959,55.955ZM110.155,55.295L111.065,54.515L113.938,58.975C113.915,59.349 113.848,59.645 113.737,59.865C113.627,60.085 113.473,60.195 113.276,60.195C113.126,60.195 112.989,60.129 112.862,59.995C112.736,59.862 112.606,59.669 112.472,59.415L110.155,55.295ZM109.173,54.715L110.391,54.895L110.391,60.015C110.336,60.042 110.259,60.075 110.161,60.115C110.062,60.155 109.954,60.175 109.835,60.175C109.615,60.175 109.449,60.102 109.339,59.955C109.228,59.809 109.173,59.569 109.173,59.235L109.173,54.715ZM110.391,55.915L109.173,55.735L109.173,47.075C109.228,47.049 109.307,47.015 109.41,46.975C109.512,46.935 109.623,46.915 109.741,46.915C109.962,46.915 110.125,46.985 110.231,47.125C110.338,47.265 110.391,47.509 110.391,47.855L110.391,55.915Z" style="fill:white;fill-rule:nonzero;"/>
    </g>
    <g transform="matrix(1.69144,0,0,1,-61.1297,-3.9533)">
        <path d="M115.996,56.515L115.937,55.015L119.295,54.215C119.271,53.589 119.141,53.065 118.905,52.645C118.668,52.225 118.333,52.015 117.9,52.015C117.458,52.015 117.092,52.282 116.8,52.815C116.508,53.349 116.358,54.109 116.351,55.095L116.374,55.855C116.437,56.802 116.638,57.512 116.977,57.985C117.316,58.459 117.762,58.695 118.313,58.695C118.644,58.695 118.948,58.609 119.224,58.435C119.5,58.262 119.72,58.075 119.886,57.875C119.981,57.969 120.057,58.095 120.117,58.255C120.176,58.415 120.205,58.589 120.205,58.775C120.205,59.069 120.119,59.335 119.945,59.575C119.772,59.815 119.537,60.002 119.242,60.135C118.946,60.269 118.613,60.335 118.242,60.335C117.635,60.335 117.103,60.145 116.646,59.765C116.189,59.385 115.834,58.819 115.582,58.065C115.33,57.312 115.204,56.389 115.204,55.295C115.204,54.509 115.273,53.812 115.411,53.205C115.548,52.599 115.74,52.089 115.984,51.675C116.228,51.262 116.516,50.949 116.847,50.735C117.178,50.522 117.533,50.415 117.911,50.415C118.408,50.415 118.847,50.592 119.23,50.945C119.612,51.299 119.91,51.789 120.122,52.415C120.335,53.042 120.442,53.755 120.442,54.555C120.442,54.889 120.394,55.132 120.3,55.285C120.205,55.439 120.071,55.535 119.898,55.575L115.996,56.515Z" style="fill:white;fill-rule:nonzero;"/>
    </g>
    <g transform="matrix(1.69144,0,0,1,-61.1297,-3.9533)">
        <path d="M122.275,54.775L123.481,54.775L123.481,57.335C123.481,57.815 123.563,58.155 123.729,58.355C123.894,58.555 124.127,58.655 124.427,58.655C124.553,58.655 124.695,58.622 124.852,58.555C125.01,58.489 125.14,58.409 125.242,58.315C125.298,58.409 125.347,58.525 125.39,58.665C125.434,58.805 125.455,58.962 125.455,59.135C125.455,59.482 125.351,59.765 125.142,59.985C124.933,60.205 124.62,60.315 124.202,60.315C123.619,60.315 123.151,60.095 122.801,59.655C122.45,59.215 122.275,58.482 122.275,57.455L122.275,54.775ZM122.96,52.535L122.96,50.895L125.313,50.895C125.345,50.975 125.374,51.089 125.402,51.235C125.43,51.382 125.443,51.535 125.443,51.695C125.443,51.975 125.406,52.185 125.331,52.325C125.256,52.465 125.152,52.535 125.018,52.535L122.96,52.535ZM123.481,55.335L122.275,55.335L122.275,48.115C122.322,48.089 122.397,48.055 122.499,48.015C122.602,47.975 122.712,47.955 122.83,47.955C123.051,47.955 123.215,48.029 123.321,48.175C123.427,48.322 123.481,48.562 123.481,48.895L123.481,55.335Z" style="fill:white;fill-rule:nonzero;"/>
    </g>
    <g transform="matrix(1.69144,0,0,1,-61.1297,-3.9533)">
        <path d="M129.747,60.315C130.276,60.315 130.747,60.132 131.16,59.765C131.574,59.399 131.897,58.845 132.13,58.105C132.363,57.365 132.479,56.442 132.479,55.335C132.479,54.189 132.353,53.255 132.1,52.535C131.848,51.815 131.503,51.282 131.066,50.935C130.628,50.589 130.138,50.415 129.594,50.415C129.192,50.415 128.831,50.499 128.512,50.665C128.193,50.832 127.923,51.029 127.702,51.255C127.536,51.429 127.42,51.605 127.353,51.785C127.286,51.965 127.253,52.195 127.253,52.475L127.253,59.055L128.47,59.055L128.47,52.595C128.604,52.462 128.762,52.342 128.943,52.235C129.125,52.129 129.341,52.075 129.594,52.075C129.893,52.075 130.169,52.182 130.421,52.395C130.674,52.609 130.875,52.952 131.024,53.425C131.174,53.899 131.249,54.535 131.249,55.335C131.249,56.482 131.097,57.322 130.794,57.855C130.49,58.389 130.082,58.655 129.57,58.655C129.263,58.655 128.997,58.565 128.772,58.385C128.547,58.205 128.36,58.002 128.21,57.775L128.21,59.595C128.36,59.782 128.573,59.949 128.849,60.095C129.125,60.242 129.424,60.315 129.747,60.315ZM128.47,58.455L127.253,58.415L127.253,62.835C127.253,63.182 127.308,63.429 127.418,63.575C127.528,63.722 127.694,63.795 127.915,63.795C128.033,63.795 128.141,63.779 128.24,63.745C128.338,63.712 128.415,63.675 128.47,63.635L128.47,58.455Z" style="fill:white;fill-rule:nonzero;"/>
    </g>
    <g transform="matrix(1.69144,0,0,1,-61.1297,-3.9533)">
        <path d="M134.453,54.775L135.66,54.955L135.66,60.015C135.612,60.042 135.537,60.075 135.435,60.115C135.332,60.155 135.222,60.175 135.104,60.175C134.883,60.175 134.72,60.102 134.613,59.955C134.507,59.809 134.453,59.569 134.453,59.235L134.453,54.775ZM135.66,55.975L134.453,55.795L134.453,47.075C134.501,47.049 134.576,47.015 134.678,46.975C134.781,46.935 134.887,46.915 134.997,46.915C135.226,46.915 135.394,46.985 135.5,47.125C135.606,47.265 135.66,47.509 135.66,47.855L135.66,55.975Z" style="fill:white;fill-rule:nonzero;"/>
    </g>
    <g transform="matrix(1.69144,0,0,1,-61.1297,-3.9533)">
        <path d="M139.999,58.735C140.283,58.735 140.525,58.685 140.726,58.585C140.927,58.485 141.075,58.389 141.17,58.295L141.17,55.715L139.857,55.935C139.495,55.989 139.221,56.125 139.035,56.345C138.85,56.565 138.758,56.889 138.758,57.315C138.758,57.755 138.86,58.102 139.065,58.355C139.27,58.609 139.581,58.735 139.999,58.735ZM139.964,50.415C140.697,50.415 141.278,50.685 141.708,51.225C142.137,51.765 142.352,52.615 142.352,53.775L142.352,58.435C142.352,58.742 142.313,58.982 142.234,59.155C142.155,59.329 142.045,59.482 141.903,59.615C141.698,59.815 141.432,59.985 141.105,60.125C140.777,60.265 140.409,60.335 139.999,60.335C139.234,60.335 138.637,60.085 138.208,59.585C137.778,59.085 137.563,58.349 137.563,57.375C137.563,56.495 137.733,55.819 138.072,55.345C138.411,54.872 138.892,54.589 139.514,54.495L141.17,54.215L141.17,53.755C141.17,53.155 141.055,52.722 140.827,52.455C140.598,52.189 140.287,52.055 139.893,52.055C139.577,52.055 139.272,52.129 138.976,52.275C138.681,52.422 138.419,52.589 138.19,52.775C138.119,52.669 138.056,52.539 138.001,52.385C137.946,52.232 137.918,52.069 137.918,51.895C137.918,51.482 138.052,51.169 138.32,50.955C138.541,50.782 138.795,50.649 139.083,50.555C139.37,50.462 139.664,50.415 139.964,50.415Z" style="fill:white;fill-rule:nonzero;"/>
    </g>
    <g transform="matrix(1.69144,0,0,1,-61.1297,-3.9533)">
        <path d="M147.188,52.095C146.692,52.095 146.274,52.379 145.935,52.945C145.596,53.512 145.426,54.329 145.426,55.395C145.426,56.449 145.59,57.255 145.917,57.815C146.244,58.375 146.668,58.655 147.188,58.655C147.496,58.655 147.756,58.585 147.969,58.445C148.181,58.305 148.367,58.149 148.524,57.975C148.627,58.082 148.71,58.209 148.773,58.355C148.836,58.502 148.867,58.675 148.867,58.875C148.867,59.289 148.706,59.632 148.382,59.905C148.059,60.179 147.641,60.315 147.129,60.315C146.554,60.315 146.045,60.135 145.604,59.775C145.162,59.415 144.817,58.869 144.569,58.135C144.321,57.402 144.197,56.489 144.197,55.395C144.197,54.289 144.327,53.369 144.587,52.635C144.847,51.902 145.198,51.349 145.639,50.975C146.081,50.602 146.565,50.415 147.094,50.415C147.598,50.415 148.01,50.565 148.329,50.865C148.649,51.165 148.808,51.515 148.808,51.915C148.808,52.102 148.779,52.269 148.719,52.415C148.66,52.562 148.587,52.682 148.501,52.775C148.335,52.589 148.15,52.429 147.945,52.295C147.74,52.162 147.488,52.095 147.188,52.095Z" style="fill:white;fill-rule:nonzero;"/>
    </g>
    <g transform="matrix(1.69144,0,0,1,-61.1297,-3.9533)">
        <path d="M151.055,56.515L150.996,55.015L154.354,54.215C154.33,53.589 154.2,53.065 153.964,52.645C153.727,52.225 153.392,52.015 152.958,52.015C152.517,52.015 152.15,52.282 151.859,52.815C151.567,53.349 151.417,54.109 151.409,55.095L151.433,55.855C151.496,56.802 151.697,57.512 152.036,57.985C152.375,58.459 152.821,58.695 153.372,58.695C153.703,58.695 154.007,58.609 154.283,58.435C154.559,58.262 154.779,58.075 154.945,57.875C155.04,57.969 155.116,58.095 155.176,58.255C155.235,58.415 155.264,58.589 155.264,58.775C155.264,59.069 155.177,59.335 155.004,59.575C154.831,59.815 154.596,60.002 154.301,60.135C154.005,60.269 153.672,60.335 153.301,60.335C152.694,60.335 152.162,60.145 151.705,59.765C151.248,59.385 150.893,58.819 150.641,58.065C150.389,57.312 150.263,56.389 150.263,55.295C150.263,54.509 150.331,53.812 150.469,53.205C150.607,52.599 150.799,52.089 151.043,51.675C151.287,51.262 151.575,50.949 151.906,50.735C152.237,50.522 152.592,50.415 152.97,50.415C153.467,50.415 153.906,50.592 154.289,50.945C154.671,51.299 154.969,51.789 155.181,52.415C155.394,53.042 155.501,53.755 155.501,54.555C155.501,54.889 155.453,55.132 155.359,55.285C155.264,55.439 155.13,55.535 154.957,55.575L151.055,56.515Z" style="fill:white;fill-rule:nonzero;"/>
    </g>
    <path d="M71.102,52.065C72.422,52.86 72.854,54.581 71.967,55.84C69.207,59.755 65.746,63.136 61.751,65.807C56.981,68.995 51.568,71.093 45.895,71.952C40.223,72.811 34.431,72.409 28.931,70.776C23.432,69.142 18.36,66.317 14.076,62.501C9.792,58.685 6.401,53.972 4.145,48.697C1.89,43.422 0.824,37.715 1.024,31.982C1.224,26.248 2.685,20.629 5.302,15.524C7.495,11.248 10.455,7.42 14.026,4.228C15.175,3.202 16.934,3.433 17.876,4.652L18.752,5.786C19.694,7.005 19.46,8.748 18.328,9.792C15.563,12.342 13.264,15.364 11.541,18.723C9.393,22.912 8.194,27.522 8.03,32.226C7.866,36.93 8.741,41.613 10.592,45.941C12.443,50.268 15.224,54.135 18.739,57.266C22.254,60.397 26.415,62.715 30.927,64.055C35.44,65.395 40.192,65.725 44.846,65.02C49.5,64.315 53.941,62.594 57.855,59.978C60.993,57.88 63.73,55.248 65.945,52.208C66.852,50.963 68.556,50.53 69.876,51.325L71.102,52.065Z" style="fill:rgb(0,28,76);fill-rule:nonzero;"/>
    <path d="M52.346,17.42C54.432,17.978 56.061,19.607 56.619,21.693L60.468,36.057C61.027,38.143 60.431,40.368 58.904,41.895L48.389,52.41C46.862,53.936 44.637,54.533 42.551,53.974L28.187,50.125C26.102,49.566 24.473,47.937 23.914,45.852L20.065,31.488C19.506,29.402 20.103,27.177 21.629,25.65L32.144,15.135C33.671,13.608 35.896,13.012 37.982,13.571L52.346,17.42Z" style="fill:white;fill-rule:nonzero;"/>
    <path d="M64.18,5.586C66.266,6.144 67.894,7.773 68.453,9.859L72.302,24.223C72.861,26.309 72.265,28.534 70.738,30.061L60.223,40.576C58.696,42.102 56.471,42.699 54.385,42.14L40.021,38.291C37.936,37.732 36.307,36.103 35.748,34.018L31.899,19.654C31.34,17.568 31.936,15.343 33.463,13.816L43.978,3.301C45.505,1.774 47.73,1.178 49.816,1.737L64.18,5.586Z" style="fill:rgb(123,195,226);fill-opacity:0.69;fill-rule:nonzero;"/>
    <path d="M89.32,30.064C89.824,30.064 90.238,30.016 90.562,29.92C90.898,29.812 91.138,29.71 91.282,29.614L91.282,27.004L89.05,27.238C88.426,27.298 87.964,27.442 87.664,27.67C87.364,27.886 87.214,28.21 87.214,28.642C87.214,29.098 87.388,29.452 87.736,29.704C88.084,29.944 88.612,30.064 89.32,30.064ZM89.302,22.45C90.346,22.45 91.174,22.684 91.786,23.152C92.398,23.62 92.704,24.358 92.704,25.366L92.704,29.632C92.704,29.896 92.65,30.1 92.542,30.244C92.446,30.376 92.296,30.502 92.092,30.622C91.804,30.79 91.42,30.934 90.94,31.054C90.472,31.186 89.932,31.252 89.32,31.252C88.192,31.252 87.316,31.03 86.692,30.586C86.08,30.142 85.774,29.5 85.774,28.66C85.774,27.868 86.032,27.274 86.548,26.878C87.064,26.47 87.79,26.218 88.726,26.122L91.282,25.87L91.282,25.366C91.282,24.766 91.102,24.328 90.742,24.052C90.382,23.776 89.896,23.638 89.284,23.638C88.78,23.638 88.306,23.71 87.862,23.854C87.418,23.998 87.022,24.16 86.674,24.34C86.578,24.256 86.488,24.16 86.404,24.052C86.332,23.944 86.296,23.824 86.296,23.692C86.296,23.524 86.338,23.386 86.422,23.278C86.506,23.17 86.638,23.068 86.818,22.972C87.142,22.804 87.514,22.678 87.934,22.594C88.354,22.498 88.81,22.45 89.302,22.45ZM102.1,28.786C102.1,29.554 101.818,30.154 101.254,30.586C100.69,31.018 99.874,31.234 98.806,31.234C98.35,31.234 97.93,31.192 97.546,31.108C97.162,31.036 96.832,30.94 96.556,30.82C96.292,30.688 96.082,30.544 95.926,30.388C95.782,30.22 95.71,30.052 95.71,29.884C95.71,29.74 95.746,29.602 95.818,29.47C95.902,29.338 96.022,29.224 96.178,29.128C96.502,29.368 96.88,29.584 97.312,29.776C97.744,29.956 98.236,30.046 98.788,30.046C100.036,30.046 100.66,29.626 100.66,28.786C100.66,28.102 100.246,27.658 99.418,27.454L97.924,27.058C97.192,26.866 96.658,26.59 96.322,26.23C95.986,25.858 95.818,25.384 95.818,24.808C95.818,24.496 95.878,24.196 95.998,23.908C96.13,23.62 96.328,23.368 96.592,23.152C96.856,22.936 97.18,22.768 97.564,22.648C97.96,22.516 98.422,22.45 98.95,22.45C99.79,22.45 100.468,22.576 100.984,22.828C101.5,23.068 101.758,23.35 101.758,23.674C101.758,23.83 101.716,23.968 101.632,24.088C101.56,24.208 101.458,24.298 101.326,24.358C101.11,24.214 100.804,24.058 100.408,23.89C100.012,23.722 99.544,23.638 99.004,23.638C98.464,23.638 98.032,23.74 97.708,23.944C97.396,24.148 97.24,24.436 97.24,24.808C97.24,25.084 97.33,25.318 97.51,25.51C97.69,25.702 97.99,25.846 98.41,25.942L99.652,26.248C100.468,26.452 101.08,26.758 101.488,27.166C101.896,27.562 102.1,28.102 102.1,28.786ZM111.051,28.786C111.051,29.554 110.769,30.154 110.205,30.586C109.641,31.018 108.825,31.234 107.757,31.234C107.301,31.234 106.881,31.192 106.497,31.108C106.113,31.036 105.783,30.94 105.507,30.82C105.243,30.688 105.033,30.544 104.877,30.388C104.733,30.22 104.661,30.052 104.661,29.884C104.661,29.74 104.697,29.602 104.769,29.47C104.853,29.338 104.973,29.224 105.129,29.128C105.453,29.368 105.831,29.584 106.263,29.776C106.695,29.956 107.187,30.046 107.739,30.046C108.987,30.046 109.611,29.626 109.611,28.786C109.611,28.102 109.197,27.658 108.369,27.454L106.875,27.058C106.143,26.866 105.609,26.59 105.273,26.23C104.937,25.858 104.769,25.384 104.769,24.808C104.769,24.496 104.829,24.196 104.949,23.908C105.081,23.62 105.279,23.368 105.543,23.152C105.807,22.936 106.131,22.768 106.515,22.648C106.911,22.516 107.373,22.45 107.901,22.45C108.741,22.45 109.419,22.576 109.935,22.828C110.451,23.068 110.709,23.35 110.709,23.674C110.709,23.83 110.667,23.968 110.583,24.088C110.511,24.208 110.409,24.298 110.277,24.358C110.061,24.214 109.755,24.058 109.359,23.89C108.963,23.722 108.495,23.638 107.955,23.638C107.415,23.638 106.983,23.74 106.659,23.944C106.347,24.148 106.191,24.436 106.191,24.808C106.191,25.084 106.281,25.318 106.461,25.51C106.641,25.702 106.941,25.846 107.361,25.942L108.603,26.248C109.419,26.452 110.031,26.758 110.439,27.166C110.847,27.562 111.051,28.102 111.051,28.786ZM115.248,27.688C115.572,29.26 116.604,30.046 118.344,30.046C118.848,30.046 119.304,29.962 119.712,29.794C120.12,29.626 120.444,29.446 120.684,29.254C120.972,29.422 121.116,29.65 121.116,29.938C121.116,30.106 121.038,30.268 120.882,30.424C120.738,30.58 120.534,30.718 120.27,30.838C120.018,30.958 119.718,31.054 119.37,31.126C119.034,31.198 118.668,31.234 118.272,31.234C116.88,31.234 115.776,30.856 114.96,30.1C114.156,29.344 113.754,28.24 113.754,26.788C113.754,26.104 113.85,25.498 114.042,24.97C114.246,24.43 114.522,23.974 114.87,23.602C115.23,23.23 115.656,22.948 116.148,22.756C116.64,22.552 117.174,22.45 117.75,22.45C118.29,22.45 118.788,22.54 119.244,22.72C119.7,22.9 120.09,23.158 120.414,23.494C120.75,23.818 121.008,24.208 121.188,24.664C121.38,25.108 121.476,25.6 121.476,26.14C121.476,26.404 121.416,26.596 121.296,26.716C121.176,26.824 121.008,26.89 120.792,26.914L115.248,27.688ZM117.732,23.62C117,23.62 116.394,23.878 115.914,24.394C115.434,24.898 115.182,25.624 115.158,26.572L120.108,25.888C120.048,25.228 119.814,24.688 119.406,24.268C119.01,23.836 118.452,23.62 117.732,23.62ZM127.3,31.234C126.46,31.234 125.776,31.048 125.248,30.676C124.732,30.304 124.474,29.686 124.474,28.822L124.474,20.272C124.534,20.248 124.624,20.224 124.744,20.2C124.876,20.164 125.014,20.146 125.158,20.146C125.662,20.146 125.914,20.362 125.914,20.794L125.914,22.864L128.866,22.864C128.902,22.924 128.938,23.008 128.974,23.116C129.01,23.212 129.028,23.32 129.028,23.44C129.028,23.848 128.848,24.052 128.488,24.052L125.914,24.052L125.914,28.732C125.914,29.212 126.046,29.554 126.31,29.758C126.586,29.95 126.97,30.046 127.462,30.046C127.666,30.046 127.894,30.01 128.146,29.938C128.398,29.866 128.608,29.782 128.776,29.686C128.848,29.758 128.914,29.848 128.974,29.956C129.034,30.064 129.064,30.19 129.064,30.334C129.064,30.598 128.908,30.814 128.596,30.982C128.284,31.15 127.852,31.234 127.3,31.234ZM139.527,30.064C140.031,30.064 140.445,30.016 140.769,29.92C141.105,29.812 141.345,29.71 141.489,29.614L141.489,27.004L139.257,27.238C138.633,27.298 138.171,27.442 137.871,27.67C137.571,27.886 137.421,28.21 137.421,28.642C137.421,29.098 137.595,29.452 137.943,29.704C138.291,29.944 138.819,30.064 139.527,30.064ZM139.509,22.45C140.553,22.45 141.381,22.684 141.993,23.152C142.605,23.62 142.911,24.358 142.911,25.366L142.911,29.632C142.911,29.896 142.857,30.1 142.749,30.244C142.653,30.376 142.503,30.502 142.299,30.622C142.011,30.79 141.627,30.934 141.147,31.054C140.679,31.186 140.139,31.252 139.527,31.252C138.399,31.252 137.523,31.03 136.899,30.586C136.287,30.142 135.981,29.5 135.981,28.66C135.981,27.868 136.239,27.274 136.755,26.878C137.271,26.47 137.997,26.218 138.933,26.122L141.489,25.87L141.489,25.366C141.489,24.766 141.309,24.328 140.949,24.052C140.589,23.776 140.103,23.638 139.491,23.638C138.987,23.638 138.513,23.71 138.069,23.854C137.625,23.998 137.229,24.16 136.881,24.34C136.785,24.256 136.695,24.16 136.611,24.052C136.539,23.944 136.503,23.824 136.503,23.692C136.503,23.524 136.545,23.386 136.629,23.278C136.713,23.17 136.845,23.068 137.025,22.972C137.349,22.804 137.721,22.678 138.141,22.594C138.561,22.498 139.017,22.45 139.509,22.45ZM153.549,29.632C153.549,29.872 153.495,30.058 153.387,30.19C153.291,30.322 153.135,30.454 152.919,30.586C152.679,30.742 152.337,30.886 151.893,31.018C151.449,31.162 150.939,31.234 150.363,31.234C149.715,31.234 149.121,31.15 148.581,30.982C148.041,30.814 147.573,30.556 147.177,30.208C146.793,29.848 146.493,29.398 146.277,28.858C146.073,28.306 145.971,27.646 145.971,26.878C145.971,26.098 146.079,25.432 146.295,24.88C146.511,24.316 146.799,23.854 147.159,23.494C147.531,23.134 147.963,22.87 148.455,22.702C148.959,22.534 149.493,22.45 150.057,22.45C150.441,22.45 150.813,22.498 151.173,22.594C151.533,22.69 151.845,22.81 152.109,22.954L152.109,19.336C152.169,19.312 152.259,19.288 152.379,19.264C152.511,19.228 152.643,19.21 152.775,19.21C153.291,19.21 153.549,19.426 153.549,19.858L153.549,29.632ZM152.109,24.25C151.869,24.082 151.593,23.938 151.281,23.818C150.969,23.698 150.609,23.638 150.201,23.638C149.829,23.638 149.475,23.698 149.139,23.818C148.815,23.926 148.527,24.112 148.275,24.376C148.023,24.628 147.819,24.964 147.663,25.384C147.519,25.804 147.447,26.314 147.447,26.914C147.447,28.018 147.711,28.816 148.239,29.308C148.767,29.8 149.469,30.046 150.345,30.046C150.765,30.046 151.107,30.004 151.371,29.92C151.647,29.824 151.893,29.71 152.109,29.578L152.109,24.25ZM167.731,25.348C167.731,24.76 167.563,24.328 167.227,24.052C166.891,23.776 166.441,23.638 165.877,23.638C165.097,23.638 164.401,23.914 163.789,24.466C163.861,24.706 163.897,24.964 163.897,25.24L163.897,30.964C163.837,30.988 163.741,31.012 163.609,31.036C163.489,31.072 163.363,31.09 163.231,31.09C162.715,31.09 162.457,30.874 162.457,30.442L162.457,25.348C162.457,24.76 162.289,24.328 161.953,24.052C161.617,23.776 161.161,23.638 160.585,23.638C160.201,23.638 159.835,23.698 159.487,23.818C159.151,23.938 158.863,24.076 158.623,24.232L158.623,30.964C158.563,30.988 158.473,31.012 158.353,31.036C158.233,31.072 158.101,31.09 157.957,31.09C157.441,31.09 157.183,30.874 157.183,30.442L157.183,24.304C157.183,24.064 157.231,23.866 157.327,23.71C157.435,23.542 157.615,23.374 157.867,23.206C158.191,23.002 158.599,22.828 159.091,22.684C159.595,22.528 160.099,22.45 160.603,22.45C161.191,22.45 161.713,22.54 162.169,22.72C162.625,22.888 162.973,23.122 163.213,23.422C163.525,23.146 163.915,22.918 164.383,22.738C164.851,22.546 165.385,22.45 165.985,22.45C166.957,22.45 167.731,22.684 168.307,23.152C168.883,23.608 169.171,24.316 169.171,25.276L169.171,30.964C169.111,30.988 169.015,31.012 168.883,31.036C168.763,31.072 168.637,31.09 168.505,31.09C167.989,31.09 167.731,30.874 167.731,30.442L167.731,25.348ZM174.308,30.964C174.248,30.988 174.158,31.012 174.038,31.036C173.918,31.072 173.786,31.09 173.642,31.09C173.126,31.09 172.868,30.874 172.868,30.442L172.868,22.72C172.928,22.696 173.018,22.672 173.138,22.648C173.27,22.612 173.408,22.594 173.552,22.594C174.056,22.594 174.308,22.816 174.308,23.26L174.308,30.964ZM172.652,20.056C172.652,19.804 172.736,19.594 172.904,19.426C173.084,19.246 173.312,19.156 173.588,19.156C173.864,19.156 174.086,19.246 174.254,19.426C174.422,19.594 174.506,19.804 174.506,20.056C174.506,20.308 174.422,20.524 174.254,20.704C174.086,20.872 173.864,20.956 173.588,20.956C173.312,20.956 173.084,20.872 172.904,20.704C172.736,20.524 172.652,20.308 172.652,20.056ZM183.78,25.582C183.78,24.91 183.588,24.418 183.204,24.106C182.832,23.794 182.328,23.638 181.692,23.638C181.212,23.638 180.786,23.698 180.414,23.818C180.042,23.938 179.724,24.076 179.46,24.232L179.46,30.964C179.4,30.988 179.31,31.012 179.19,31.036C179.07,31.072 178.938,31.09 178.794,31.09C178.278,31.09 178.02,30.874 178.02,30.442L178.02,24.304C178.02,24.052 178.068,23.848 178.164,23.692C178.272,23.524 178.452,23.362 178.704,23.206C179.016,23.014 179.43,22.84 179.946,22.684C180.462,22.528 181.044,22.45 181.692,22.45C182.784,22.45 183.642,22.696 184.266,23.188C184.902,23.68 185.22,24.454 185.22,25.51L185.22,30.964C185.16,30.988 185.064,31.012 184.932,31.036C184.812,31.072 184.686,31.09 184.554,31.09C184.038,31.09 183.78,30.874 183.78,30.442L183.78,25.582ZM190.346,30.964C190.286,30.988 190.196,31.012 190.076,31.036C189.956,31.072 189.824,31.09 189.68,31.09C189.164,31.09 188.906,30.874 188.906,30.442L188.906,22.72C188.966,22.696 189.056,22.672 189.176,22.648C189.308,22.612 189.446,22.594 189.59,22.594C190.094,22.594 190.346,22.816 190.346,23.26L190.346,30.964ZM188.69,20.056C188.69,19.804 188.774,19.594 188.942,19.426C189.122,19.246 189.35,19.156 189.626,19.156C189.902,19.156 190.124,19.246 190.292,19.426C190.46,19.594 190.544,19.804 190.544,20.056C190.544,20.308 190.46,20.524 190.292,20.704C190.124,20.872 189.902,20.956 189.626,20.956C189.35,20.956 189.122,20.872 188.942,20.704C188.774,20.524 188.69,20.308 188.69,20.056ZM199.926,28.786C199.926,29.554 199.644,30.154 199.08,30.586C198.516,31.018 197.7,31.234 196.632,31.234C196.176,31.234 195.756,31.192 195.372,31.108C194.988,31.036 194.658,30.94 194.382,30.82C194.118,30.688 193.908,30.544 193.752,30.388C193.608,30.22 193.536,30.052 193.536,29.884C193.536,29.74 193.572,29.602 193.644,29.47C193.728,29.338 193.848,29.224 194.004,29.128C194.328,29.368 194.706,29.584 195.138,29.776C195.57,29.956 196.062,30.046 196.614,30.046C197.862,30.046 198.486,29.626 198.486,28.786C198.486,28.102 198.072,27.658 197.244,27.454L195.75,27.058C195.018,26.866 194.484,26.59 194.148,26.23C193.812,25.858 193.644,25.384 193.644,24.808C193.644,24.496 193.704,24.196 193.824,23.908C193.956,23.62 194.154,23.368 194.418,23.152C194.682,22.936 195.006,22.768 195.39,22.648C195.786,22.516 196.248,22.45 196.776,22.45C197.616,22.45 198.294,22.576 198.81,22.828C199.326,23.068 199.584,23.35 199.584,23.674C199.584,23.83 199.542,23.968 199.458,24.088C199.386,24.208 199.284,24.298 199.152,24.358C198.936,24.214 198.63,24.058 198.234,23.89C197.838,23.722 197.37,23.638 196.83,23.638C196.29,23.638 195.858,23.74 195.534,23.944C195.222,24.148 195.066,24.436 195.066,24.808C195.066,25.084 195.156,25.318 195.336,25.51C195.516,25.702 195.816,25.846 196.236,25.942L197.478,26.248C198.294,26.452 198.906,26.758 199.314,27.166C199.722,27.562 199.926,28.102 199.926,28.786ZM205.853,31.234C205.013,31.234 204.329,31.048 203.801,30.676C203.285,30.304 203.027,29.686 203.027,28.822L203.027,20.272C203.087,20.248 203.177,20.224 203.297,20.2C203.429,20.164 203.567,20.146 203.711,20.146C204.215,20.146 204.467,20.362 204.467,20.794L204.467,22.864L207.419,22.864C207.455,22.924 207.491,23.008 207.527,23.116C207.563,23.212 207.581,23.32 207.581,23.44C207.581,23.848 207.401,24.052 207.041,24.052L204.467,24.052L204.467,28.732C204.467,29.212 204.599,29.554 204.863,29.758C205.139,29.95 205.523,30.046 206.015,30.046C206.219,30.046 206.447,30.01 206.699,29.938C206.951,29.866 207.161,29.782 207.329,29.686C207.401,29.758 207.467,29.848 207.527,29.956C207.587,30.064 207.617,30.19 207.617,30.334C207.617,30.598 207.461,30.814 207.149,30.982C206.837,31.15 206.405,31.234 205.853,31.234ZM212.046,30.964C211.986,30.988 211.896,31.012 211.776,31.036C211.656,31.072 211.524,31.09 211.38,31.09C210.864,31.09 210.606,30.874 210.606,30.442L210.606,24.34C210.606,24.064 210.654,23.848 210.75,23.692C210.858,23.524 211.032,23.362 211.272,23.206C211.584,23.002 212.004,22.828 212.532,22.684C213.072,22.528 213.678,22.45 214.35,22.45C215.31,22.45 215.79,22.69 215.79,23.17C215.79,23.29 215.772,23.404 215.736,23.512C215.7,23.608 215.652,23.692 215.592,23.764C215.472,23.74 215.316,23.716 215.124,23.692C214.932,23.668 214.74,23.656 214.548,23.656C213.996,23.656 213.51,23.716 213.09,23.836C212.67,23.944 212.322,24.076 212.046,24.232L212.046,30.964ZM221.261,30.064C221.765,30.064 222.179,30.016 222.503,29.92C222.839,29.812 223.079,29.71 223.223,29.614L223.223,27.004L220.991,27.238C220.367,27.298 219.905,27.442 219.605,27.67C219.305,27.886 219.155,28.21 219.155,28.642C219.155,29.098 219.329,29.452 219.677,29.704C220.025,29.944 220.553,30.064 221.261,30.064ZM221.243,22.45C222.287,22.45 223.115,22.684 223.727,23.152C224.339,23.62 224.645,24.358 224.645,25.366L224.645,29.632C224.645,29.896 224.591,30.1 224.483,30.244C224.387,30.376 224.237,30.502 224.033,30.622C223.745,30.79 223.361,30.934 222.881,31.054C222.413,31.186 221.873,31.252 221.261,31.252C220.133,31.252 219.257,31.03 218.633,30.586C218.021,30.142 217.715,29.5 217.715,28.66C217.715,27.868 217.973,27.274 218.489,26.878C219.005,26.47 219.731,26.218 220.667,26.122L223.223,25.87L223.223,25.366C223.223,24.766 223.043,24.328 222.683,24.052C222.323,23.776 221.837,23.638 221.225,23.638C220.721,23.638 220.247,23.71 219.803,23.854C219.359,23.998 218.963,24.16 218.615,24.34C218.519,24.256 218.429,24.16 218.345,24.052C218.273,23.944 218.237,23.824 218.237,23.692C218.237,23.524 218.279,23.386 218.363,23.278C218.447,23.17 218.579,23.068 218.759,22.972C219.083,22.804 219.455,22.678 219.875,22.594C220.295,22.498 220.751,22.45 221.243,22.45ZM231.018,31.234C230.178,31.234 229.494,31.048 228.966,30.676C228.45,30.304 228.192,29.686 228.192,28.822L228.192,20.272C228.252,20.248 228.342,20.224 228.462,20.2C228.594,20.164 228.732,20.146 228.876,20.146C229.38,20.146 229.632,20.362 229.632,20.794L229.632,22.864L232.584,22.864C232.62,22.924 232.656,23.008 232.692,23.116C232.728,23.212 232.746,23.32 232.746,23.44C232.746,23.848 232.566,24.052 232.206,24.052L229.632,24.052L229.632,28.732C229.632,29.212 229.764,29.554 230.028,29.758C230.304,29.95 230.688,30.046 231.18,30.046C231.384,30.046 231.612,30.01 231.864,29.938C232.116,29.866 232.326,29.782 232.494,29.686C232.566,29.758 232.632,29.848 232.692,29.956C232.752,30.064 232.782,30.19 232.782,30.334C232.782,30.598 232.626,30.814 232.314,30.982C232.002,31.15 231.57,31.234 231.018,31.234ZM237.301,30.964C237.241,30.988 237.151,31.012 237.031,31.036C236.911,31.072 236.779,31.09 236.635,31.09C236.119,31.09 235.861,30.874 235.861,30.442L235.861,22.72C235.921,22.696 236.011,22.672 236.131,22.648C236.263,22.612 236.401,22.594 236.545,22.594C237.049,22.594 237.301,22.816 237.301,23.26L237.301,30.964ZM235.645,20.056C235.645,19.804 235.729,19.594 235.897,19.426C236.077,19.246 236.305,19.156 236.581,19.156C236.857,19.156 237.079,19.246 237.247,19.426C237.415,19.594 237.499,19.804 237.499,20.056C237.499,20.308 237.415,20.524 237.247,20.704C237.079,20.872 236.857,20.956 236.581,20.956C236.305,20.956 236.077,20.872 235.897,20.704C235.729,20.524 235.645,20.308 235.645,20.056ZM248.735,26.842C248.735,27.514 248.639,28.12 248.447,28.66C248.255,29.2 247.979,29.662 247.619,30.046C247.271,30.43 246.845,30.724 246.341,30.928C245.837,31.132 245.273,31.234 244.649,31.234C244.025,31.234 243.461,31.132 242.957,30.928C242.453,30.724 242.021,30.43 241.661,30.046C241.301,29.662 241.025,29.2 240.833,28.66C240.641,28.12 240.545,27.514 240.545,26.842C240.545,26.17 240.641,25.564 240.833,25.024C241.037,24.484 241.319,24.022 241.679,23.638C242.039,23.254 242.471,22.96 242.975,22.756C243.479,22.552 244.037,22.45 244.649,22.45C245.261,22.45 245.819,22.552 246.323,22.756C246.827,22.96 247.253,23.254 247.601,23.638C247.961,24.022 248.237,24.484 248.429,25.024C248.633,25.564 248.735,26.17 248.735,26.842ZM244.649,23.638C243.833,23.638 243.191,23.92 242.723,24.484C242.255,25.048 242.021,25.834 242.021,26.842C242.021,27.862 242.249,28.654 242.705,29.218C243.173,29.77 243.821,30.046 244.649,30.046C245.477,30.046 246.119,29.764 246.575,29.2C247.031,28.636 247.259,27.85 247.259,26.842C247.259,25.834 247.025,25.048 246.557,24.484C246.101,23.92 245.465,23.638 244.649,23.638ZM257.622,25.582C257.622,24.91 257.43,24.418 257.046,24.106C256.674,23.794 256.17,23.638 255.534,23.638C255.054,23.638 254.628,23.698 254.256,23.818C253.884,23.938 253.566,24.076 253.302,24.232L253.302,30.964C253.242,30.988 253.152,31.012 253.032,31.036C252.912,31.072 252.78,31.09 252.636,31.09C252.12,31.09 251.862,30.874 251.862,30.442L251.862,24.304C251.862,24.052 251.91,23.848 252.006,23.692C252.114,23.524 252.294,23.362 252.546,23.206C252.858,23.014 253.272,22.84 253.788,22.684C254.304,22.528 254.886,22.45 255.534,22.45C256.626,22.45 257.484,22.696 258.108,23.188C258.744,23.68 259.062,24.454 259.062,25.51L259.062,30.964C259.002,30.988 258.906,31.012 258.774,31.036C258.654,31.072 258.528,31.09 258.396,31.09C257.88,31.09 257.622,30.874 257.622,30.442L257.622,25.582ZM273.03,28.786C273.03,29.554 272.748,30.154 272.184,30.586C271.62,31.018 270.804,31.234 269.736,31.234C269.28,31.234 268.86,31.192 268.476,31.108C268.092,31.036 267.762,30.94 267.486,30.82C267.222,30.688 267.012,30.544 266.856,30.388C266.712,30.22 266.64,30.052 266.64,29.884C266.64,29.74 266.676,29.602 266.748,29.47C266.832,29.338 266.952,29.224 267.108,29.128C267.432,29.368 267.81,29.584 268.242,29.776C268.674,29.956 269.166,30.046 269.718,30.046C270.966,30.046 271.59,29.626 271.59,28.786C271.59,28.102 271.176,27.658 270.348,27.454L268.854,27.058C268.122,26.866 267.588,26.59 267.252,26.23C266.916,25.858 266.748,25.384 266.748,24.808C266.748,24.496 266.808,24.196 266.928,23.908C267.06,23.62 267.258,23.368 267.522,23.152C267.786,22.936 268.11,22.768 268.494,22.648C268.89,22.516 269.352,22.45 269.88,22.45C270.72,22.45 271.398,22.576 271.914,22.828C272.43,23.068 272.688,23.35 272.688,23.674C272.688,23.83 272.646,23.968 272.562,24.088C272.49,24.208 272.388,24.298 272.256,24.358C272.04,24.214 271.734,24.058 271.338,23.89C270.942,23.722 270.474,23.638 269.934,23.638C269.394,23.638 268.962,23.74 268.638,23.944C268.326,24.148 268.17,24.436 268.17,24.808C268.17,25.084 268.26,25.318 268.44,25.51C268.62,25.702 268.92,25.846 269.34,25.942L270.582,26.248C271.398,26.452 272.01,26.758 272.418,27.166C272.826,27.562 273.03,28.102 273.03,28.786ZM277.589,30.964C277.529,30.988 277.439,31.012 277.319,31.036C277.199,31.072 277.067,31.09 276.923,31.09C276.407,31.09 276.149,30.874 276.149,30.442L276.149,19.336C276.209,19.312 276.299,19.288 276.419,19.264C276.551,19.228 276.689,19.21 276.833,19.21C277.337,19.21 277.589,19.426 277.589,19.858L277.589,23.098C277.877,22.93 278.213,22.78 278.597,22.648C278.993,22.516 279.437,22.45 279.929,22.45C280.433,22.45 280.889,22.516 281.297,22.648C281.717,22.78 282.077,22.984 282.377,23.26C282.677,23.524 282.911,23.866 283.079,24.286C283.247,24.694 283.331,25.174 283.331,25.726L283.331,30.964C283.271,30.988 283.175,31.012 283.043,31.036C282.923,31.072 282.797,31.09 282.665,31.09C282.149,31.09 281.891,30.874 281.891,30.442L281.891,25.762C281.891,25.042 281.693,24.508 281.297,24.16C280.901,23.812 280.379,23.638 279.731,23.638C279.311,23.638 278.915,23.716 278.543,23.872C278.183,24.016 277.865,24.196 277.589,24.412L277.589,30.964ZM287.953,27.688C288.277,29.26 289.309,30.046 291.049,30.046C291.553,30.046 292.009,29.962 292.417,29.794C292.825,29.626 293.149,29.446 293.389,29.254C293.677,29.422 293.821,29.65 293.821,29.938C293.821,30.106 293.743,30.268 293.587,30.424C293.443,30.58 293.239,30.718 292.975,30.838C292.723,30.958 292.423,31.054 292.075,31.126C291.739,31.198 291.373,31.234 290.977,31.234C289.585,31.234 288.481,30.856 287.665,30.1C286.861,29.344 286.459,28.24 286.459,26.788C286.459,26.104 286.555,25.498 286.747,24.97C286.951,24.43 287.227,23.974 287.575,23.602C287.935,23.23 288.361,22.948 288.853,22.756C289.345,22.552 289.879,22.45 290.455,22.45C290.995,22.45 291.493,22.54 291.949,22.72C292.405,22.9 292.795,23.158 293.119,23.494C293.455,23.818 293.713,24.208 293.893,24.664C294.085,25.108 294.181,25.6 294.181,26.14C294.181,26.404 294.121,26.596 294.001,26.716C293.881,26.824 293.713,26.89 293.497,26.914L287.953,27.688ZM290.437,23.62C289.705,23.62 289.099,23.878 288.619,24.394C288.139,24.898 287.887,25.624 287.863,26.572L292.813,25.888C292.753,25.228 292.519,24.688 292.111,24.268C291.715,23.836 291.157,23.62 290.437,23.62ZM298.745,30.964C298.685,30.988 298.595,31.012 298.475,31.036C298.355,31.072 298.223,31.09 298.079,31.09C297.563,31.09 297.305,30.874 297.305,30.442L297.305,19.336C297.365,19.312 297.455,19.288 297.575,19.264C297.707,19.228 297.839,19.21 297.971,19.21C298.487,19.21 298.745,19.426 298.745,19.858L298.745,30.964ZM304.127,30.964C304.067,30.988 303.977,31.012 303.857,31.036C303.737,31.072 303.605,31.09 303.461,31.09C302.945,31.09 302.687,30.874 302.687,30.442L302.687,19.336C302.747,19.312 302.837,19.288 302.957,19.264C303.089,19.228 303.221,19.21 303.353,19.21C303.869,19.21 304.127,19.426 304.127,19.858L304.127,30.964Z" style="fill:rgb(0,28,76);fill-rule:nonzero;"/>
</svg>
