<?xml version="1.0" encoding="UTF-8" standalone="no"?><!DOCTYPE svg PUBLIC "-//W3C//DTD SVG 1.1//EN" "http://www.w3.org/Graphics/SVG/1.1/DTD/svg11.dtd"><svg width="100%" height="100%" viewBox="0 0 2084 305" version="1.1" xmlns="http://www.w3.org/2000/svg" xmlns:xlink="http://www.w3.org/1999/xlink" xml:space="preserve" xmlns:serif="http://www.serif.com/" style="fill-rule:evenodd;clip-rule:evenodd;stroke-linejoin:round;stroke-miterlimit:2;"><g id="designer"><g><path d="M458.937,228.341c-0,2 -0.425,3.55 -1.275,4.65c-0.85,1.1 -2.175,2.2 -3.975,3.3c-2,1.3 -4.85,2.525 -8.55,3.675c-3.7,1.15 -7.95,1.725 -12.75,1.725c-5.4,-0 -10.35,-0.7 -14.85,-2.1c-4.5,-1.4 -8.375,-3.575 -11.625,-6.525c-3.25,-2.95 -5.75,-6.7 -7.5,-11.25c-1.75,-4.55 -2.625,-10.025 -2.625,-16.425c-0,-6.5 0.9,-12.075 2.7,-16.725c1.8,-4.65 4.225,-8.475 7.275,-11.475c3.05,-3 6.65,-5.2 10.8,-6.6c4.15,-1.4 8.575,-2.1 13.275,-2.1c3.2,-0 6.3,0.4 9.3,1.2c3,0.8 5.6,1.8 7.8,3l-0,-30.15c0.5,-0.2 1.275,-0.425 2.325,-0.675c1.05,-0.25 2.125,-0.375 3.225,-0.375c4.3,-0 6.45,1.8 6.45,5.4l-0,81.45Zm-12,-44.85c-2,-1.4 -4.3,-2.6 -6.9,-3.6c-2.6,-1 -5.6,-1.5 -9,-1.5c-3.1,-0 -6.025,0.475 -8.775,1.425c-2.75,0.95 -5.175,2.5 -7.275,4.65c-2.1,2.15 -3.775,4.975 -5.025,8.475c-1.25,3.5 -1.875,7.75 -1.875,12.75c-0,9.2 2.2,15.85 6.6,19.95c4.4,4.1 10.25,6.15 17.55,6.15c3.5,-0 6.375,-0.375 8.625,-1.125c2.25,-0.75 4.275,-1.675 6.075,-2.775l-0,-44.4Z" style="fill:#fff;fill-rule:nonzero;"/><path d="M490.287,212.141c2.7,13.1 11.3,19.65 25.8,19.65c4.2,-0 8,-0.7 11.4,-2.1c3.4,-1.4 6.1,-2.9 8.1,-4.5c2.4,1.4 3.6,3.3 3.6,5.7c-0,1.4 -0.625,2.75 -1.875,4.05c-1.25,1.3 -2.95,2.45 -5.1,3.45c-2.15,1 -4.65,1.8 -7.5,2.4c-2.85,0.6 -5.925,0.9 -9.225,0.9c-11.6,-0 -20.775,-3.15 -27.525,-9.45c-6.75,-6.3 -10.125,-15.5 -10.125,-27.6c-0,-5.7 0.825,-10.775 2.475,-15.225c1.65,-4.45 3.95,-8.225 6.9,-11.325c2.95,-3.1 6.475,-5.475 10.575,-7.125c4.1,-1.65 8.55,-2.475 13.35,-2.475c4.5,-0 8.65,0.75 12.45,2.25c3.8,1.5 7.075,3.625 9.825,6.375c2.75,2.75 4.9,6 6.45,9.75c1.55,3.75 2.325,7.875 2.325,12.375c-0,2.2 -0.5,3.775 -1.5,4.725c-1,0.95 -2.4,1.525 -4.2,1.725l-46.2,6.45Zm20.7,-33.9c-6.1,-0 -11.15,2.125 -15.15,6.375c-4,4.25 -6.1,10.325 -6.3,18.225l41.25,-5.7c-0.5,-5.5 -2.425,-10.025 -5.775,-13.575c-3.35,-3.55 -8.025,-5.325 -14.025,-5.325Z" style="fill:#fff;fill-rule:nonzero;"/><path d="M609.387,221.291c-0,6.4 -2.35,11.4 -7.05,15c-4.7,3.6 -11.5,5.4 -20.4,5.4c-3.8,-0 -7.3,-0.325 -10.5,-0.975c-3.2,-0.65 -5.925,-1.5 -8.175,-2.55c-2.25,-1.05 -4,-2.25 -5.25,-3.6c-1.25,-1.35 -1.875,-2.725 -1.875,-4.125c-0,-1.2 0.325,-2.35 0.975,-3.45c0.65,-1.1 1.625,-2.05 2.925,-2.85c2.7,2 5.85,3.775 9.45,5.325c3.6,1.55 7.7,2.325 12.3,2.325c10.4,-0 15.6,-3.5 15.6,-10.5c-0,-5.7 -3.45,-9.4 -10.35,-11.1l-12.45,-3.3c-6.1,-1.6 -10.55,-3.925 -13.35,-6.975c-2.8,-3.05 -4.2,-6.975 -4.2,-11.775c-0,-2.6 0.525,-5.1 1.575,-7.5c1.05,-2.4 2.675,-4.5 4.875,-6.3c2.2,-1.8 4.925,-3.225 8.175,-4.275c3.25,-1.05 7.075,-1.575 11.475,-1.575c7,-0 12.65,1.025 16.95,3.075c4.3,2.05 6.45,4.425 6.45,7.125c-0,1.3 -0.325,2.45 -0.975,3.45c-0.65,1 -1.525,1.75 -2.625,2.25c-1.8,-1.2 -4.35,-2.5 -7.65,-3.9c-3.3,-1.4 -7.2,-2.1 -11.7,-2.1c-4.5,-0 -8.075,0.85 -10.725,2.55c-2.65,1.7 -3.975,4.1 -3.975,7.2c-0,2.3 0.75,4.25 2.25,5.85c1.5,1.6 4,2.8 7.5,3.6l10.35,2.55c6.8,1.7 11.9,4.225 15.3,7.575c3.4,3.35 5.1,7.875 5.1,13.575Z" style="fill:#fff;fill-rule:nonzero;"/><path d="M640.287,239.441c-0.5,0.2 -1.25,0.425 -2.25,0.675c-1,0.25 -2.1,0.375 -3.3,0.375c-4.3,-0 -6.45,-1.8 -6.45,-5.4l-0,-64.35c0.5,-0.2 1.275,-0.425 2.325,-0.675c1.05,-0.25 2.175,-0.375 3.375,-0.375c4.2,-0 6.3,1.85 6.3,5.55l-0,64.2Zm-13.8,-90.9c-0,-2.1 0.725,-3.875 2.175,-5.325c1.45,-1.45 3.325,-2.175 5.625,-2.175c2.3,-0 4.15,0.725 5.55,2.175c1.4,1.45 2.1,3.225 2.1,5.325c-0,2.1 -0.7,3.875 -2.1,5.325c-1.4,1.45 -3.25,2.175 -5.55,2.175c-2.3,-0 -4.175,-0.725 -5.625,-2.175c-1.45,-1.45 -2.175,-3.225 -2.175,-5.325Z" style="fill:#fff;fill-rule:nonzero;"/><path d="M710.037,232.541c-1.7,1.4 -4.025,2.6 -6.975,3.6c-2.95,1 -6.475,1.5 -10.575,1.5c-4.4,-0 -8.55,-0.625 -12.45,-1.875c-3.9,-1.25 -7.325,-3.25 -10.275,-6c-2.95,-2.75 -5.3,-6.325 -7.05,-10.725c-1.75,-4.4 -2.625,-9.75 -2.625,-16.05c-0,-5.7 0.85,-10.7 2.55,-15c1.7,-4.3 4.075,-7.9 7.125,-10.8c3.05,-2.9 6.675,-5.075 10.875,-6.525c4.2,-1.45 8.85,-2.175 13.95,-2.175c4.6,-0 8.825,0.575 12.675,1.725c3.85,1.15 7.075,2.575 9.675,4.275c1.5,1 2.725,2.125 3.675,3.375c0.95,1.25 1.425,2.775 1.425,4.575l-0,60.3c-0,5 -0.825,9.225 -2.475,12.675c-1.65,3.45 -3.95,6.25 -6.9,8.4c-2.95,2.15 -6.425,3.725 -10.425,4.725c-4,1 -8.3,1.5 -12.9,1.5c-5.1,-0 -9.425,-0.525 -12.975,-1.575c-3.55,-1.05 -5.975,-1.975 -7.275,-2.775c-3,-1.7 -4.5,-3.85 -4.5,-6.45c-0,-1.4 0.325,-2.575 0.975,-3.525c0.65,-0.95 1.475,-1.675 2.475,-2.175c2.1,1.6 5.05,3.075 8.85,4.425c3.8,1.35 7.95,2.025 12.45,2.025c6.7,-0 11.825,-1.425 15.375,-4.275c3.55,-2.85 5.325,-7.425 5.325,-13.725l-0,-9.45Zm-16.2,-4.8c4,-0 7.275,-0.625 9.825,-1.875c2.55,-1.25 4.675,-2.675 6.375,-4.275l-0,-39c-1.7,-1.1 -3.825,-2.075 -6.375,-2.925c-2.55,-0.85 -5.575,-1.275 -9.075,-1.275c-6.8,-0 -12.225,2.05 -16.275,6.15c-4.05,4.1 -6.075,10.2 -6.075,18.3c-0,4.5 0.55,8.325 1.65,11.475c1.1,3.15 2.625,5.725 4.575,7.725c1.95,2 4.25,3.45 6.9,4.35c2.65,0.9 5.475,1.35 8.475,1.35Z" style="fill:#fff;fill-rule:nonzero;"/><path d="M792.237,194.591c-0,-5.6 -1.575,-9.7 -4.725,-12.3c-3.15,-2.6 -7.375,-3.9 -12.675,-3.9c-4,-0 -7.55,0.5 -10.65,1.5c-3.1,1 -5.75,2.15 -7.95,3.45l-0,56.1c-0.5,0.2 -1.25,0.425 -2.25,0.675c-1,0.25 -2.1,0.375 -3.3,0.375c-4.3,-0 -6.45,-1.8 -6.45,-5.4l-0,-51.15c-0,-2.1 0.425,-3.825 1.275,-5.175c0.85,-1.35 2.325,-2.675 4.425,-3.975c2.6,-1.6 6.05,-3.05 10.35,-4.35c4.3,-1.3 9.15,-1.95 14.55,-1.95c9.1,-0 16.275,2.05 21.525,6.15c5.25,4.1 7.875,10.55 7.875,19.35l-0,45.45c-0.5,0.2 -1.275,0.425 -2.325,0.675c-1.05,0.25 -2.125,0.375 -3.225,0.375c-4.3,-0 -6.45,-1.8 -6.45,-5.4l-0,-40.5Z" style="fill:#fff;fill-rule:nonzero;"/><path d="M835.287,212.141c2.7,13.1 11.3,19.65 25.8,19.65c4.2,-0 8,-0.7 11.4,-2.1c3.4,-1.4 6.1,-2.9 8.1,-4.5c2.4,1.4 3.6,3.3 3.6,5.7c-0,1.4 -0.625,2.75 -1.875,4.05c-1.25,1.3 -2.95,2.45 -5.1,3.45c-2.15,1 -4.65,1.8 -7.5,2.4c-2.85,0.6 -5.925,0.9 -9.225,0.9c-11.6,-0 -20.775,-3.15 -27.525,-9.45c-6.75,-6.3 -10.125,-15.5 -10.125,-27.6c-0,-5.7 0.825,-10.775 2.475,-15.225c1.65,-4.45 3.95,-8.225 6.9,-11.325c2.95,-3.1 6.475,-5.475 10.575,-7.125c4.1,-1.65 8.55,-2.475 13.35,-2.475c4.5,-0 8.65,0.75 12.45,2.25c3.8,1.5 7.075,3.625 9.825,6.375c2.75,2.75 4.9,6 6.45,9.75c1.55,3.75 2.325,7.875 2.325,12.375c-0,2.2 -0.5,3.775 -1.5,4.725c-1,0.95 -2.4,1.525 -4.2,1.725l-46.2,6.45Zm20.7,-33.9c-6.1,-0 -11.15,2.125 -15.15,6.375c-4,4.25 -6.1,10.325 -6.3,18.225l41.25,-5.7c-0.5,-5.5 -2.425,-10.025 -5.775,-13.575c-3.35,-3.55 -8.025,-5.325 -14.025,-5.325Z" style="fill:#fff;fill-rule:nonzero;"/><path d="M916.587,239.441c-0.5,0.2 -1.25,0.425 -2.25,0.675c-1,0.25 -2.1,0.375 -3.3,0.375c-4.3,-0 -6.45,-1.8 -6.45,-5.4l-0,-50.85c-0,-2.3 0.425,-4.125 1.275,-5.475c0.85,-1.35 2.275,-2.675 4.275,-3.975c2.6,-1.7 6.125,-3.175 10.575,-4.425c4.45,-1.25 9.475,-1.875 15.075,-1.875c8,-0 12,2 12,6c-0,1 -0.15,1.925 -0.45,2.775c-0.3,0.85 -0.7,1.575 -1.2,2.175c-1,-0.2 -2.3,-0.4 -3.9,-0.6c-1.6,-0.2 -3.2,-0.3 -4.8,-0.3c-4.6,-0 -8.65,0.475 -12.15,1.425c-3.5,0.95 -6.4,2.075 -8.7,3.375l-0,56.1Z" style="fill:#fff;fill-rule:nonzero;"/></g></g><path d="M304.684,217.011c5.5,3.313 7.3,10.484 3.604,15.73c-11.5,16.312 -25.921,30.4 -42.567,41.529c-19.875,13.283 -42.429,22.025 -66.066,25.604c-23.634,3.579 -47.767,1.904 -70.684,-4.9c-22.912,-6.808 -44.045,-18.579 -61.895,-34.479c-17.85,-15.9 -31.98,-35.538 -41.38,-57.517c-9.395,-21.979 -13.837,-45.758 -13.004,-69.646c0.834,-23.891 6.921,-47.304 17.825,-68.575c9.138,-17.816 21.471,-33.766 36.35,-47.066c4.788,-4.275 12.117,-3.313 16.042,1.766l3.65,4.725c3.925,5.079 2.95,12.342 -1.767,16.692c-11.521,10.625 -21.1,23.217 -28.279,37.212c-8.95,17.455 -13.946,36.663 -14.629,56.263c-0.683,19.6 2.962,39.112 10.675,57.146c7.712,18.029 19.3,34.141 33.946,47.187c14.646,13.046 31.983,22.704 50.783,28.288c18.804,5.583 38.604,6.958 57.996,4.021c19.392,-2.938 37.896,-10.109 54.204,-21.009c13.075,-8.741 24.479,-19.708 33.708,-32.375c3.78,-5.187 10.88,-6.991 16.38,-3.679l5.108,3.083Z" style="fill:#001c4c;fill-rule:nonzero;"/><path d="M226.534,72.657c8.692,2.325 15.479,9.113 17.804,17.804l16.038,59.85c2.329,8.692 -0.155,17.963 -6.517,24.325l-43.813,43.813c-6.362,6.358 -15.633,8.846 -24.325,6.517l-59.85,-16.038c-8.687,-2.329 -15.475,-9.117 -17.804,-17.804l-16.037,-59.85c-2.329,-8.692 0.158,-17.963 6.516,-24.325l43.813,-43.813c6.362,-6.362 15.633,-8.845 24.325,-6.516l59.85,16.037Z" style="fill:#fff;fill-rule:nonzero;"/><path d="M275.842,23.349c8.692,2.325 15.475,9.112 17.804,17.804l16.038,59.85c2.329,8.692 -0.154,17.963 -6.517,24.325l-43.812,43.813c-6.363,6.358 -15.634,8.845 -24.325,6.516l-59.85,-16.037c-8.688,-2.329 -15.475,-9.117 -17.804,-17.804l-16.038,-59.85c-2.329,-8.692 0.154,-17.963 6.517,-24.325l43.812,-43.813c6.363,-6.362 15.634,-8.846 24.325,-6.517l59.85,16.038Z" style="fill:#7bc3e2;fill-opacity:0.69;fill-rule:nonzero;"/><path d="M417.636,85.399c3.349,-0 6.1,-0.319 8.253,-0.957c2.233,-0.718 3.827,-1.395 4.784,-2.033l0,-17.344l-14.831,1.555c-4.147,0.399 -7.217,1.356 -9.21,2.871c-1.994,1.435 -2.991,3.588 -2.991,6.459c0,3.03 1.156,5.382 3.469,7.057c2.312,1.594 5.821,2.392 10.526,2.392Zm-0.12,-50.595c6.937,-0 12.44,1.555 16.506,4.664c4.067,3.11 6.1,8.014 6.1,14.713l0,28.347c0,1.755 -0.358,3.11 -1.076,4.067c-0.638,0.877 -1.635,1.714 -2.99,2.512c-1.914,1.116 -4.466,2.073 -7.655,2.87c-3.11,0.878 -6.699,1.316 -10.765,1.316c-7.496,0 -13.317,-1.475 -17.463,-4.425c-4.067,-2.951 -6.101,-7.217 -6.101,-12.799c0,-5.263 1.715,-9.21 5.144,-11.841c3.428,-2.711 8.253,-4.386 14.473,-5.024l16.984,-1.674l0,-3.349c0,-3.987 -1.196,-6.898 -3.588,-8.732c-2.392,-1.834 -5.622,-2.751 -9.689,-2.751c-3.349,-0 -6.498,0.478 -9.449,1.435c-2.95,0.957 -5.582,2.034 -7.894,3.23c-0.638,-0.558 -1.236,-1.196 -1.794,-1.914c-0.479,-0.718 -0.718,-1.515 -0.718,-2.392c0,-1.117 0.279,-2.034 0.837,-2.751c0.559,-0.718 1.436,-1.396 2.632,-2.034c2.153,-1.116 4.625,-1.953 7.416,-2.511c2.791,-0.638 5.821,-0.957 9.09,-0.957Zm85.043,42.103c0,5.103 -1.874,9.09 -5.622,11.961c-3.747,2.87 -9.17,4.306 -16.267,4.306c-3.03,-0 -5.821,-0.28 -8.372,-0.838c-2.552,-0.478 -4.745,-1.116 -6.579,-1.913c-1.754,-0.878 -3.15,-1.835 -4.186,-2.871c-0.957,-1.117 -1.436,-2.233 -1.436,-3.349c0,-0.957 0.24,-1.874 0.718,-2.751c0.558,-0.877 1.356,-1.635 2.392,-2.273c2.153,1.595 4.665,3.03 7.536,4.306c2.87,1.196 6.14,1.794 9.808,1.794c8.293,0 12.439,-2.791 12.439,-8.372c0,-4.546 -2.751,-7.496 -8.253,-8.852l-9.928,-2.631c-4.864,-1.276 -8.412,-3.11 -10.645,-5.502c-2.233,-2.472 -3.349,-5.622 -3.349,-9.449c0,-2.074 0.399,-4.067 1.196,-5.981c0.877,-1.914 2.193,-3.588 3.947,-5.024c1.755,-1.435 3.908,-2.551 6.459,-3.349c2.632,-0.877 5.702,-1.315 9.21,-1.315c5.582,-0 10.087,0.837 13.516,2.511c3.429,1.595 5.143,3.469 5.143,5.622c0,1.037 -0.279,1.954 -0.837,2.751c-0.478,0.798 -1.156,1.396 -2.033,1.794c-1.436,-0.957 -3.469,-1.993 -6.1,-3.11c-2.632,-1.116 -5.742,-1.674 -9.33,-1.674c-3.588,-0 -6.459,0.678 -8.612,2.033c-2.073,1.356 -3.11,3.27 -3.11,5.742c0,1.834 0.598,3.389 1.794,4.664c1.197,1.276 3.19,2.233 5.981,2.871l8.253,2.033c5.422,1.356 9.489,3.389 12.2,6.101c2.711,2.631 4.067,6.219 4.067,10.765Zm59.48,-0c-0,5.103 -1.874,9.09 -5.622,11.961c-3.748,2.87 -9.17,4.306 -16.267,4.306c-3.03,-0 -5.821,-0.28 -8.373,-0.838c-2.551,-0.478 -4.744,-1.116 -6.578,-1.913c-1.755,-0.878 -3.15,-1.835 -4.187,-2.871c-0.957,-1.117 -1.435,-2.233 -1.435,-3.349c-0,-0.957 0.239,-1.874 0.718,-2.751c0.558,-0.877 1.355,-1.635 2.392,-2.273c2.153,1.595 4.665,3.03 7.535,4.306c2.871,1.196 6.14,1.794 9.808,1.794c8.293,0 12.44,-2.791 12.44,-8.372c-0,-4.546 -2.751,-7.496 -8.253,-8.852l-9.928,-2.631c-4.864,-1.276 -8.413,-3.11 -10.645,-5.502c-2.233,-2.472 -3.349,-5.622 -3.349,-9.449c-0,-2.074 0.398,-4.067 1.196,-5.981c0.877,-1.914 2.193,-3.588 3.947,-5.024c1.754,-1.435 3.907,-2.551 6.459,-3.349c2.631,-0.877 5.701,-1.315 9.21,-1.315c5.582,-0 10.087,0.837 13.516,2.511c3.429,1.595 5.143,3.469 5.143,5.622c0,1.037 -0.279,1.954 -0.837,2.751c-0.479,0.798 -1.156,1.396 -2.034,1.794c-1.435,-0.957 -3.468,-1.993 -6.1,-3.11c-2.631,-1.116 -5.741,-1.674 -9.329,-1.674c-3.589,-0 -6.459,0.678 -8.612,2.033c-2.074,1.356 -3.11,3.27 -3.11,5.742c-0,1.834 0.598,3.389 1.794,4.664c1.196,1.276 3.19,2.233 5.981,2.871l8.253,2.033c5.422,1.356 9.489,3.389 12.2,6.101c2.711,2.631 4.067,6.219 4.067,10.765Zm27.889,-7.297c2.153,10.446 9.01,15.669 20.573,15.669c3.349,0 6.379,-0.558 9.09,-1.674c2.711,-1.117 4.864,-2.313 6.459,-3.589c1.914,1.117 2.871,2.632 2.871,4.546c-0,1.116 -0.518,2.192 -1.555,3.229c-0.957,1.037 -2.313,1.954 -4.067,2.751c-1.674,0.798 -3.668,1.435 -5.98,1.914c-2.233,0.478 -4.665,0.718 -7.297,0.718c-9.249,-0 -16.586,-2.512 -22.008,-7.536c-5.343,-5.024 -8.014,-12.36 -8.014,-22.008c0,-4.545 0.638,-8.572 1.914,-12.081c1.356,-3.588 3.19,-6.618 5.502,-9.09c2.392,-2.472 5.223,-4.346 8.492,-5.622c3.27,-1.356 6.818,-2.033 10.646,-2.033c3.588,-0 6.897,0.598 9.927,1.794c3.03,1.196 5.622,2.91 7.775,5.143c2.233,2.153 3.947,4.745 5.143,7.775c1.276,2.95 1.914,6.219 1.914,9.808c0,1.754 -0.399,3.03 -1.196,3.827c-0.797,0.718 -1.914,1.157 -3.349,1.316l-36.84,5.143Zm16.506,-27.032c-4.864,0 -8.891,1.715 -12.081,5.144c-3.189,3.349 -4.864,8.173 -5.023,14.472l32.893,-4.545c-0.399,-4.385 -1.954,-7.974 -4.665,-10.765c-2.632,-2.87 -6.34,-4.306 -11.124,-4.306Zm63.58,50.596c-5.582,-0 -10.127,-1.236 -13.636,-3.708c-3.429,-2.472 -5.143,-6.579 -5.143,-12.32l-0,-56.815c0.399,-0.16 0.997,-0.319 1.794,-0.479c0.877,-0.239 1.794,-0.358 2.751,-0.358c3.349,-0 5.024,1.435 5.024,4.306l-0,13.755l19.616,-0c0.239,0.398 0.478,0.957 0.717,1.674c0.24,0.638 0.359,1.356 0.359,2.153c0,2.711 -1.196,4.067 -3.588,4.067l-17.104,-0l-0,31.099c-0,3.189 0.877,5.462 2.631,6.817c1.834,1.276 4.386,1.914 7.655,1.914c1.356,0 2.871,-0.239 4.545,-0.717c1.675,-0.479 3.07,-1.037 4.187,-1.675c0.478,0.478 0.917,1.077 1.315,1.794c0.399,0.718 0.598,1.555 0.598,2.512c0,1.754 -1.036,3.19 -3.109,4.306c-2.074,1.116 -4.944,1.675 -8.612,1.675Zm81.248,-7.775c3.349,-0 6.1,-0.319 8.253,-0.957c2.233,-0.718 3.828,-1.395 4.785,-2.033l-0,-17.344l-14.832,1.555c-4.146,0.399 -7.216,1.356 -9.21,2.871c-1.993,1.435 -2.99,3.588 -2.99,6.459c-0,3.03 1.156,5.382 3.469,7.057c2.312,1.594 5.821,2.392 10.525,2.392Zm-0.119,-50.595c6.937,-0 12.439,1.555 16.506,4.664c4.067,3.11 6.1,8.014 6.1,14.713l0,28.347c0,1.755 -0.359,3.11 -1.076,4.067c-0.638,0.877 -1.635,1.714 -2.991,2.512c-1.913,1.116 -4.465,2.073 -7.655,2.87c-3.11,0.878 -6.698,1.316 -10.765,1.316c-7.495,0 -13.316,-1.475 -17.463,-4.425c-4.067,-2.951 -6.1,-7.217 -6.1,-12.799c0,-5.263 1.715,-9.21 5.143,-11.841c3.429,-2.711 8.253,-4.386 14.473,-5.024l16.985,-1.674l-0,-3.349c-0,-3.987 -1.196,-6.898 -3.588,-8.732c-2.393,-1.834 -5.622,-2.751 -9.689,-2.751c-3.349,-0 -6.499,0.478 -9.449,1.435c-2.95,0.957 -5.582,2.034 -7.894,3.23c-0.638,-0.558 -1.236,-1.196 -1.795,-1.914c-0.478,-0.718 -0.717,-1.515 -0.717,-2.392c-0,-1.117 0.279,-2.034 0.837,-2.751c0.558,-0.718 1.435,-1.396 2.632,-2.034c2.152,-1.116 4.624,-1.953 7.415,-2.511c2.791,-0.638 5.821,-0.957 9.091,-0.957Zm93.296,47.724c-0,1.595 -0.359,2.831 -1.077,3.708c-0.638,0.877 -1.674,1.754 -3.109,2.632c-1.595,1.036 -3.868,1.993 -6.818,2.87c-2.951,0.957 -6.34,1.436 -10.167,1.436c-4.306,-0 -8.253,-0.559 -11.842,-1.675c-3.588,-1.116 -6.698,-2.831 -9.329,-5.143c-2.552,-2.392 -4.545,-5.383 -5.981,-8.971c-1.355,-3.668 -2.033,-8.054 -2.033,-13.157c-0,-5.183 0.718,-9.609 2.153,-13.277c1.435,-3.748 3.349,-6.818 5.741,-9.21c2.472,-2.392 5.343,-4.146 8.612,-5.263c3.349,-1.116 6.898,-1.674 10.645,-1.674c2.552,-0 5.024,0.319 7.416,0.957c2.392,0.637 4.466,1.435 6.22,2.392l0,-24.042c0.399,-0.159 0.997,-0.319 1.794,-0.478c0.877,-0.24 1.754,-0.359 2.632,-0.359c3.428,-0 5.143,1.435 5.143,4.306l-0,64.948Zm-9.569,-35.763c-1.595,-1.117 -3.429,-2.074 -5.502,-2.871c-2.073,-0.797 -4.466,-1.196 -7.177,-1.196c-2.472,-0 -4.824,0.399 -7.057,1.196c-2.153,0.718 -4.066,1.954 -5.741,3.708c-1.675,1.675 -3.03,3.907 -4.067,6.698c-0.957,2.791 -1.435,6.18 -1.435,10.167c-0,7.336 1.754,12.639 5.263,15.908c3.508,3.27 8.173,4.904 13.994,4.904c2.791,0 5.064,-0.279 6.818,-0.837c1.834,-0.638 3.469,-1.395 4.904,-2.273l0,-35.404Zm103.809,7.296c-0,-3.907 -1.117,-6.778 -3.35,-8.612c-2.232,-1.834 -5.222,-2.751 -8.97,-2.751c-5.183,-0 -9.808,1.834 -13.875,5.502c0.478,1.595 0.718,3.309 0.718,5.143l-0,38.036c-0.399,0.16 -1.037,0.319 -1.914,0.479c-0.798,0.239 -1.635,0.359 -2.512,0.359c-3.429,-0 -5.143,-1.436 -5.143,-4.306l-0,-33.85c-0,-3.907 -1.117,-6.778 -3.349,-8.612c-2.233,-1.834 -5.263,-2.751 -9.091,-2.751c-2.551,-0 -4.984,0.399 -7.296,1.196c-2.233,0.797 -4.146,1.714 -5.741,2.751l-0,44.734c-0.399,0.16 -0.997,0.319 -1.794,0.479c-0.798,0.239 -1.675,0.359 -2.632,0.359c-3.429,-0 -5.143,-1.436 -5.143,-4.306l-0,-40.787c-0,-1.595 0.319,-2.911 0.957,-3.948c0.717,-1.116 1.914,-2.232 3.588,-3.349c2.153,-1.355 4.864,-2.512 8.134,-3.468c3.349,-1.037 6.698,-1.555 10.047,-1.555c3.907,-0 7.376,0.598 10.406,1.794c3.03,1.116 5.343,2.671 6.937,4.665c2.074,-1.834 4.665,-3.349 7.775,-4.546c3.11,-1.275 6.658,-1.913 10.645,-1.913c6.459,-0 11.603,1.555 15.43,4.664c3.828,3.031 5.741,7.735 5.741,14.114l0,37.797c-0.398,0.16 -1.036,0.319 -1.913,0.479c-0.798,0.239 -1.635,0.359 -2.512,0.359c-3.429,-0 -5.143,-1.436 -5.143,-4.306l-0,-33.85Zm43.704,37.318c-0.399,0.16 -0.997,0.319 -1.794,0.479c-0.798,0.239 -1.675,0.359 -2.632,0.359c-3.429,-0 -5.143,-1.436 -5.143,-4.306l0,-51.313c0.399,-0.16 0.997,-0.319 1.794,-0.479c0.877,-0.239 1.794,-0.358 2.751,-0.358c3.349,-0 5.024,1.475 5.024,4.425l-0,51.193Zm-11.004,-72.484c-0,-1.674 0.558,-3.07 1.674,-4.186c1.196,-1.196 2.711,-1.794 4.545,-1.794c1.835,-0 3.31,0.598 4.426,1.794c1.116,1.116 1.675,2.512 1.675,4.186c-0,1.675 -0.559,3.11 -1.675,4.306c-1.116,1.117 -2.591,1.675 -4.426,1.675c-1.834,-0 -3.349,-0.558 -4.545,-1.675c-1.116,-1.196 -1.674,-2.631 -1.674,-4.306Zm73.946,36.721c-0,-4.466 -1.276,-7.735 -3.828,-9.808c-2.472,-2.073 -5.821,-3.11 -10.047,-3.11c-3.19,-0 -6.021,0.399 -8.493,1.196c-2.472,0.797 -4.585,1.714 -6.339,2.751l0,44.734c-0.399,0.16 -0.997,0.319 -1.794,0.479c-0.797,0.239 -1.675,0.359 -2.632,0.359c-3.428,-0 -5.143,-1.436 -5.143,-4.306l0,-40.787c0,-1.675 0.319,-3.031 0.957,-4.067c0.718,-1.117 1.914,-2.193 3.588,-3.23c2.074,-1.276 4.825,-2.432 8.254,-3.468c3.428,-1.037 7.296,-1.555 11.602,-1.555c7.256,-0 12.958,1.634 17.104,4.904c4.226,3.269 6.339,8.412 6.339,15.429l0,36.242c-0.398,0.16 -1.036,0.319 -1.913,0.479c-0.798,0.239 -1.635,0.359 -2.512,0.359c-3.429,-0 -5.143,-1.436 -5.143,-4.306l-0,-32.295Zm43.631,35.763c-0.399,0.16 -0.997,0.319 -1.794,0.479c-0.798,0.239 -1.675,0.359 -2.632,0.359c-3.429,-0 -5.143,-1.436 -5.143,-4.306l-0,-51.313c0.399,-0.16 0.997,-0.319 1.794,-0.479c0.877,-0.239 1.794,-0.358 2.751,-0.358c3.349,-0 5.024,1.475 5.024,4.425l-0,51.193Zm-11.004,-72.484c-0,-1.674 0.558,-3.07 1.674,-4.186c1.196,-1.196 2.711,-1.794 4.545,-1.794c1.834,-0 3.31,0.598 4.426,1.794c1.116,1.116 1.675,2.512 1.675,4.186c-0,1.675 -0.559,3.11 -1.675,4.306c-1.116,1.117 -2.592,1.675 -4.426,1.675c-1.834,-0 -3.349,-0.558 -4.545,-1.675c-1.116,-1.196 -1.674,-2.631 -1.674,-4.306Zm74.663,58.012c0,5.103 -1.874,9.09 -5.622,11.961c-3.747,2.87 -9.17,4.306 -16.267,4.306c-3.03,-0 -5.821,-0.28 -8.372,-0.838c-2.552,-0.478 -4.745,-1.116 -6.579,-1.913c-1.754,-0.878 -3.15,-1.835 -4.186,-2.871c-0.957,-1.117 -1.436,-2.233 -1.436,-3.349c0,-0.957 0.24,-1.874 0.718,-2.751c0.558,-0.877 1.356,-1.635 2.392,-2.273c2.153,1.595 4.665,3.03 7.536,4.306c2.87,1.196 6.14,1.794 9.808,1.794c8.293,0 12.439,-2.791 12.439,-8.372c0,-4.546 -2.751,-7.496 -8.253,-8.852l-9.928,-2.631c-4.864,-1.276 -8.412,-3.11 -10.645,-5.502c-2.233,-2.472 -3.349,-5.622 -3.349,-9.449c0,-2.074 0.399,-4.067 1.196,-5.981c0.877,-1.914 2.193,-3.588 3.947,-5.024c1.755,-1.435 3.908,-2.551 6.459,-3.349c2.632,-0.877 5.702,-1.315 9.21,-1.315c5.582,-0 10.087,0.837 13.516,2.511c3.429,1.595 5.144,3.469 5.144,5.622c-0,1.037 -0.28,1.954 -0.838,2.751c-0.478,0.798 -1.156,1.396 -2.033,1.794c-1.435,-0.957 -3.469,-1.993 -6.1,-3.11c-2.632,-1.116 -5.742,-1.674 -9.33,-1.674c-3.588,-0 -6.459,0.678 -8.612,2.033c-2.073,1.356 -3.11,3.27 -3.11,5.742c0,1.834 0.598,3.389 1.794,4.664c1.197,1.276 3.19,2.233 5.981,2.871l8.253,2.033c5.422,1.356 9.489,3.389 12.2,6.101c2.712,2.631 4.067,6.219 4.067,10.765Zm39.385,16.267c-5.582,-0 -10.127,-1.236 -13.635,-3.708c-3.429,-2.472 -5.144,-6.579 -5.144,-12.32l0,-56.815c0.399,-0.16 0.997,-0.319 1.794,-0.479c0.878,-0.239 1.795,-0.358 2.752,-0.358c3.349,-0 5.023,1.435 5.023,4.306l0,13.755l19.616,-0c0.239,0.398 0.479,0.957 0.718,1.674c0.239,0.638 0.359,1.356 0.359,2.153c-0,2.711 -1.196,4.067 -3.589,4.067l-17.104,-0l0,31.099c0,3.189 0.877,5.462 2.632,6.817c1.834,1.276 4.385,1.914 7.655,1.914c1.355,0 2.87,-0.239 4.545,-0.717c1.674,-0.479 3.07,-1.037 4.186,-1.675c0.479,0.478 0.917,1.077 1.316,1.794c0.399,0.718 0.598,1.555 0.598,2.512c-0,1.754 -1.037,3.19 -3.11,4.306c-2.073,1.116 -4.944,1.675 -8.612,1.675Zm41.153,-1.795c-0.399,0.16 -0.997,0.319 -1.794,0.479c-0.798,0.239 -1.675,0.359 -2.632,0.359c-3.429,-0 -5.143,-1.436 -5.143,-4.306l-0,-40.548c-0,-1.834 0.319,-3.27 0.957,-4.306c0.718,-1.117 1.874,-2.193 3.469,-3.23c2.073,-1.355 4.864,-2.512 8.372,-3.468c3.589,-1.037 7.615,-1.555 12.081,-1.555c6.379,-0 9.569,1.594 9.569,4.784c-0,0.797 -0.12,1.555 -0.359,2.273c-0.239,0.638 -0.558,1.196 -0.957,1.674c-0.797,-0.159 -1.834,-0.319 -3.11,-0.478c-1.276,-0.16 -2.552,-0.239 -3.827,-0.239c-3.668,-0 -6.898,0.398 -9.689,1.196c-2.791,0.717 -5.103,1.594 -6.937,2.631l-0,44.734Zm61.234,-5.98c3.349,-0 6.1,-0.319 8.253,-0.957c2.233,-0.718 3.827,-1.395 4.784,-2.033l0,-17.344l-14.831,1.555c-4.147,0.399 -7.217,1.356 -9.21,2.871c-1.994,1.435 -2.991,3.588 -2.991,6.459c0,3.03 1.156,5.382 3.469,7.057c2.312,1.594 5.821,2.392 10.526,2.392Zm-0.12,-50.595c6.937,-0 12.44,1.555 16.506,4.664c4.067,3.11 6.1,8.014 6.1,14.713l0,28.347c0,1.755 -0.358,3.11 -1.076,4.067c-0.638,0.877 -1.635,1.714 -2.99,2.512c-1.914,1.116 -4.466,2.073 -7.655,2.87c-3.11,0.878 -6.699,1.316 -10.765,1.316c-7.496,0 -13.317,-1.475 -17.463,-4.425c-4.067,-2.951 -6.101,-7.217 -6.101,-12.799c0,-5.263 1.715,-9.21 5.144,-11.841c3.429,-2.711 8.253,-4.386 14.473,-5.024l16.984,-1.674l0,-3.349c0,-3.987 -1.196,-6.898 -3.588,-8.732c-2.392,-1.834 -5.622,-2.751 -9.689,-2.751c-3.349,-0 -6.498,0.478 -9.449,1.435c-2.95,0.957 -5.582,2.034 -7.894,3.23c-0.638,-0.558 -1.236,-1.196 -1.794,-1.914c-0.479,-0.718 -0.718,-1.515 -0.718,-2.392c0,-1.117 0.279,-2.034 0.837,-2.751c0.559,-0.718 1.436,-1.396 2.632,-2.034c2.153,-1.116 4.625,-1.953 7.416,-2.511c2.791,-0.638 5.821,-0.957 9.09,-0.957Zm64.955,58.37c-5.582,-0 -10.127,-1.236 -13.635,-3.708c-3.429,-2.472 -5.144,-6.579 -5.144,-12.32l0,-56.815c0.399,-0.16 0.997,-0.319 1.794,-0.479c0.878,-0.239 1.795,-0.358 2.752,-0.358c3.349,-0 5.023,1.435 5.023,4.306l0,13.755l19.616,-0c0.24,0.398 0.479,0.957 0.718,1.674c0.239,0.638 0.359,1.356 0.359,2.153c-0,2.711 -1.196,4.067 -3.589,4.067l-17.104,-0l0,31.099c0,3.189 0.877,5.462 2.632,6.817c1.834,1.276 4.385,1.914 7.655,1.914c1.355,0 2.87,-0.239 4.545,-0.717c1.674,-0.479 3.07,-1.037 4.186,-1.675c0.479,0.478 0.917,1.077 1.316,1.794c0.399,0.718 0.598,1.555 0.598,2.512c-0,1.754 -1.037,3.19 -3.11,4.306c-2.073,1.116 -4.944,1.675 -8.612,1.675Zm41.751,-1.795c-0.399,0.16 -0.997,0.319 -1.794,0.479c-0.798,0.239 -1.675,0.359 -2.632,0.359c-3.429,-0 -5.143,-1.436 -5.143,-4.306l0,-51.313c0.399,-0.16 0.997,-0.319 1.794,-0.479c0.877,-0.239 1.794,-0.358 2.751,-0.358c3.349,-0 5.024,1.475 5.024,4.425l-0,51.193Zm-11.004,-72.484c-0,-1.674 0.558,-3.07 1.674,-4.186c1.196,-1.196 2.711,-1.794 4.545,-1.794c1.834,-0 3.31,0.598 4.426,1.794c1.116,1.116 1.675,2.512 1.675,4.186c-0,1.675 -0.559,3.11 -1.675,4.306c-1.116,1.117 -2.592,1.675 -4.426,1.675c-1.834,-0 -3.349,-0.558 -4.545,-1.675c-1.116,-1.196 -1.674,-2.631 -1.674,-4.306Zm86.983,45.094c0,4.465 -0.638,8.492 -1.914,12.08c-1.276,3.589 -3.11,6.659 -5.502,9.21c-2.312,2.552 -5.143,4.506 -8.492,5.861c-3.349,1.356 -7.097,2.034 -11.244,2.034c-4.146,-0 -7.894,-0.678 -11.243,-2.034c-3.349,-1.355 -6.22,-3.309 -8.612,-5.861c-2.392,-2.551 -4.226,-5.621 -5.502,-9.21c-1.276,-3.588 -1.914,-7.615 -1.914,-12.08c0,-4.466 0.638,-8.493 1.914,-12.081c1.356,-3.588 3.23,-6.658 5.622,-9.21c2.392,-2.552 5.263,-4.505 8.612,-5.861c3.349,-1.356 7.057,-2.033 11.123,-2.033c4.067,-0 7.775,0.677 11.124,2.033c3.349,1.356 6.18,3.309 8.493,5.861c2.392,2.552 4.226,5.622 5.502,9.21c1.355,3.588 2.033,7.615 2.033,12.081Zm-27.152,-21.291c-5.422,-0 -9.688,1.874 -12.798,5.622c-3.11,3.747 -4.665,8.97 -4.665,15.669c0,6.778 1.515,12.04 4.546,15.788c3.109,3.668 7.415,5.502 12.917,5.502c5.503,0 9.769,-1.874 12.799,-5.621c3.03,-3.748 4.545,-8.971 4.545,-15.669c-0,-6.699 -1.555,-11.922 -4.665,-15.669c-3.03,-3.748 -7.256,-5.622 -12.679,-5.622Zm86.206,12.918c0,-4.466 -1.275,-7.735 -3.827,-9.808c-2.472,-2.073 -5.821,-3.11 -10.047,-3.11c-3.19,-0 -6.021,0.399 -8.493,1.196c-2.472,0.797 -4.585,1.714 -6.339,2.751l-0,44.734c-0.399,0.16 -0.997,0.319 -1.794,0.479c-0.798,0.239 -1.675,0.359 -2.632,0.359c-3.429,-0 -5.143,-1.436 -5.143,-4.306l0,-40.787c0,-1.675 0.319,-3.031 0.957,-4.067c0.718,-1.117 1.914,-2.193 3.588,-3.23c2.073,-1.276 4.825,-2.432 8.253,-3.468c3.429,-1.037 7.297,-1.555 11.603,-1.555c7.256,-0 12.957,1.634 17.104,4.904c4.226,3.269 6.339,8.412 6.339,15.429l0,36.242c-0.398,0.16 -1.036,0.319 -1.914,0.479c-0.797,0.239 -1.634,0.359 -2.511,0.359c-3.429,-0 -5.144,-1.436 -5.144,-4.306l0,-32.295Zm102.387,21.291c-0,5.103 -1.874,9.09 -5.622,11.961c-3.748,2.87 -9.17,4.306 -16.267,4.306c-3.03,-0 -5.821,-0.28 -8.373,-0.838c-2.551,-0.478 -4.744,-1.116 -6.578,-1.913c-1.754,-0.878 -3.15,-1.835 -4.186,-2.871c-0.957,-1.117 -1.436,-2.233 -1.436,-3.349c0,-0.957 0.239,-1.874 0.718,-2.751c0.558,-0.877 1.355,-1.635 2.392,-2.273c2.153,1.595 4.665,3.03 7.536,4.306c2.87,1.196 6.14,1.794 9.808,1.794c8.293,0 12.439,-2.791 12.439,-8.372c0,-4.546 -2.751,-7.496 -8.253,-8.852l-9.928,-2.631c-4.864,-1.276 -8.412,-3.11 -10.645,-5.502c-2.233,-2.472 -3.349,-5.622 -3.349,-9.449c-0,-2.074 0.399,-4.067 1.196,-5.981c0.877,-1.914 2.193,-3.588 3.947,-5.024c1.754,-1.435 3.907,-2.551 6.459,-3.349c2.631,-0.877 5.701,-1.315 9.21,-1.315c5.582,-0 10.087,0.837 13.516,2.511c3.429,1.595 5.143,3.469 5.143,5.622c0,1.037 -0.279,1.954 -0.837,2.751c-0.478,0.798 -1.156,1.396 -2.033,1.794c-1.436,-0.957 -3.469,-1.993 -6.1,-3.11c-2.632,-1.116 -5.742,-1.674 -9.33,-1.674c-3.588,-0 -6.459,0.678 -8.612,2.033c-2.073,1.356 -3.11,3.27 -3.11,5.742c0,1.834 0.598,3.389 1.794,4.664c1.196,1.276 3.19,2.233 5.981,2.871l8.253,2.033c5.422,1.356 9.489,3.389 12.2,6.101c2.711,2.631 4.067,6.219 4.067,10.765Zm30.295,14.472c-0.399,0.16 -0.997,0.319 -1.795,0.479c-0.797,0.239 -1.674,0.359 -2.631,0.359c-3.429,-0 -5.143,-1.436 -5.143,-4.306l-0,-73.8c0.398,-0.159 0.996,-0.319 1.794,-0.478c0.877,-0.24 1.794,-0.359 2.751,-0.359c3.349,-0 5.024,1.435 5.024,4.306l-0,21.53c1.913,-1.117 4.146,-2.113 6.698,-2.991c2.631,-0.877 5.582,-1.315 8.851,-1.315c3.349,-0 6.379,0.438 9.09,1.315c2.791,0.878 5.183,2.233 7.177,4.067c1.993,1.754 3.548,4.027 4.665,6.818c1.116,2.711 1.674,5.901 1.674,9.569l0,34.806c-0.398,0.16 -1.036,0.319 -1.913,0.479c-0.798,0.239 -1.635,0.359 -2.512,0.359c-3.429,-0 -5.144,-1.436 -5.144,-4.306l0,-31.099c0,-4.784 -1.315,-8.333 -3.947,-10.645c-2.631,-2.313 -6.1,-3.469 -10.406,-3.469c-2.791,-0 -5.422,0.518 -7.894,1.555c-2.392,0.957 -4.505,2.153 -6.339,3.588l-0,43.538Zm68.869,-21.769c2.153,10.446 9.01,15.669 20.573,15.669c3.349,0 6.379,-0.558 9.09,-1.674c2.711,-1.117 4.864,-2.313 6.459,-3.589c1.914,1.117 2.871,2.632 2.871,4.546c-0,1.116 -0.519,2.192 -1.555,3.229c-0.957,1.037 -2.313,1.954 -4.067,2.751c-1.675,0.798 -3.668,1.435 -5.981,1.914c-2.232,0.478 -4.664,0.718 -7.296,0.718c-9.25,-0 -16.586,-2.512 -22.008,-7.536c-5.343,-5.024 -8.014,-12.36 -8.014,-22.008c-0,-4.545 0.638,-8.572 1.914,-12.081c1.355,-3.588 3.189,-6.618 5.502,-9.09c2.392,-2.472 5.223,-4.346 8.492,-5.622c3.269,-1.356 6.818,-2.033 10.645,-2.033c3.589,-0 6.898,0.598 9.928,1.794c3.03,1.196 5.622,2.91 7.775,5.143c2.232,2.153 3.947,4.745 5.143,7.775c1.276,2.95 1.914,6.219 1.914,9.808c-0,1.754 -0.399,3.03 -1.196,3.827c-0.798,0.718 -1.914,1.157 -3.349,1.316l-36.84,5.143Zm16.506,-27.032c-4.864,0 -8.891,1.715 -12.081,5.144c-3.189,3.349 -4.864,8.173 -5.023,14.472l32.892,-4.545c-0.398,-4.385 -1.953,-7.974 -4.664,-10.765c-2.632,-2.87 -6.34,-4.306 -11.124,-4.306Zm55.207,48.801c-0.399,0.16 -0.997,0.319 -1.794,0.479c-0.798,0.239 -1.675,0.359 -2.632,0.359c-3.429,-0 -5.143,-1.436 -5.143,-4.306l-0,-73.8c0.399,-0.159 0.997,-0.319 1.794,-0.478c0.877,-0.24 1.754,-0.359 2.631,-0.359c3.429,-0 5.144,1.435 5.144,4.306l-0,73.799Zm35.763,0c-0.399,0.16 -0.997,0.319 -1.794,0.479c-0.797,0.239 -1.675,0.359 -2.631,0.359c-3.429,-0 -5.144,-1.436 -5.144,-4.306l0,-73.8c0.399,-0.159 0.997,-0.319 1.795,-0.478c0.877,-0.24 1.754,-0.359 2.631,-0.359c3.429,-0 5.143,1.435 5.143,4.306l0,73.799Z" style="fill:#001c4c;fill-rule:nonzero;"/></svg>