<svg xmlns="http://www.w3.org/2000/svg" width="116" height="35" fill="none" viewBox="0 0 116 35" role="img"><path fill="#fff" d="m22.37 3.734-5.45 15.051-5.427-14.979-5.594 15.41H.138V.274l33.881-.02v18.962h-6.034L22.369 3.734Z"></path><path fill="#fff" d="M22.366 17.757 16.921 32.81l-5.436-15.053-2.278 6.302H.136v10.189H34.02v-10.19l-9.376-.003-2.277-6.298Zm16.494 6.315h5.251v2.425h-2.424v1.43h2.175v2.425h-2.175v1.567h2.424v2.425h-5.25V24.072Zm7.191 10.272V24.072h2.827v7.847h2.12v2.425H46.05Zm6.374-10.272h5.251v2.425h-2.425v1.43h2.176v2.425h-2.175v1.567h2.424v2.425h-5.251V24.072Zm11.791 10.272-1.76-4.714h.013-.027v4.714h-2.827V24.072h2.827v4.373h-.013.013l-.027.027v-.027h.041l1.552-4.373h2.98l-2.26 4.959 2.523 5.313h-3.035Zm5.5 0V26.58h-1.552v-2.507h6.001v2.507h-1.622v7.765h-2.827Zm10.24 0-1.566-4.278-.028.028c.014.504.042 1.008.042 1.512v2.738h-2.827V24.072h2.731c2.451 0 4.225.708 4.225 3.42 0 1.13-.499 2.138-1.621 2.574l2.106 4.278h-3.063Zm-1.372-5.518c.749 0 1.15-.64 1.15-1.307 0-.9-.554-1.281-1.33-1.24v2.534l.18.014Zm9.311-4.931c2.868 0 3.99 2.806 3.99 5.314 0 2.506-1.122 5.313-3.99 5.313-2.867 0-3.99-2.807-3.99-5.313 0-2.508 1.123-5.314 3.99-5.314Zm0 8.038c1.067 0 1.11-2.085 1.11-2.724 0-.641-.043-2.725-1.11-2.725-1.066 0-1.108 2.084-1.108 2.724 0 .64.042 2.725 1.108 2.725Zm5.625-7.861h2.688l2.26 6.185.027-.027c-.11-1.185-.32-2.357-.32-3.542v-2.616h2.717v10.272h-2.716l-2.105-5.927-.029.028c.07.967.195 1.921.195 2.889v3.01H93.52V24.072Zm9.312 10.272V24.072h2.826v10.272h-2.826Zm9.365 0-1.759-4.714h.014-.027v4.714h-2.827V24.072h2.827v4.373h-.015.015l-.027.027v-.027h.04l1.551-4.373h2.981l-2.259 4.959 2.522 5.313h-3.036ZM64.36 19.22c-1.698-.125-3.248-1.57-3.362-3.429L60.948.253h5.039v12.692c0 1.039.978 2.02 2.019 2.02h1.598c1.025 0 1.992-.866 1.992-2.02V.253h5.038l-.05 15.534c.01 1.864-1.663 3.308-3.361 3.434h-8.864Zm-25.434-.039-.05-18.94h5.265l4.48 11.075L53.069.237h5.293v18.986l-5.273.012V11.22l-3.577 8.018h-1.825l-3.543-7.975-.003 7.975-5.215-.057Zm64.338-14.433v4.144h3.422c1.155 0 2.252-.893 2.252-2.075 0-1.182-1.097-2.07-2.252-2.07h-3.422Zm-4.987 14.46V.254h11.8c2.644.12 3.876 2.026 4.014 4.022v3.316c-.028 2.308-2.214 3.333-2.214 3.333s1.927.673 2.273 3.325c.346 2.651.507 3.666.507 3.666.146.727.623 1.315.623 1.315h-5.141s-.6-.946-.831-2.79c-.231-1.845-1.014-2.63-1.245-2.767-.231-.14-.576-.578-2.075-.578h-2.674v6.135l-5.037-.021ZM84.294 4.748v4.144h3.422c1.155 0 2.253-.893 2.253-2.075 0-1.182-1.098-2.07-2.253-2.07h-3.422Zm-4.987 14.46V.254h11.8c2.644.12 3.876 2.026 4.013 4.022v3.316c-.027 2.308-2.213 3.333-2.213 3.333s1.927.673 2.272 3.325c.347 2.651.508 3.666.508 3.666.145.727.623 1.315.623 1.315h-5.142s-.6-.946-.83-2.79c-.23-1.845-1.015-2.63-1.246-2.767-.23-.14-.576-.578-2.075-.578h-2.674v6.135l-5.037-.021Z"></path></svg>
