<?xml version="1.0" encoding="UTF-8" standalone="no"?><!DOCTYPE svg PUBLIC "-//W3C//DTD SVG 1.1//EN" "http://www.w3.org/Graphics/SVG/1.1/DTD/svg11.dtd"><svg width="100%" height="100%" viewBox="0 0 3500 2500" version="1.1" xmlns="http://www.w3.org/2000/svg" xmlns:xlink="http://www.w3.org/1999/xlink" xml:space="preserve" xmlns:serif="http://www.serif.com/" style="fill-rule:evenodd;clip-rule:evenodd;stroke-linejoin:round;stroke-miterlimit:2;"><g><path d="M3500,2493.83l0,-377.708c-40.833,5.875 -82.542,8.875 -125,8.875c-418.917,0 -769.042,-294.333 -854.875,-687.5l729.875,0l0,-375l-729.875,0c85.833,-393.167 435.958,-687.5 854.875,-687.5c42.458,0 84.167,3 125,8.838l0,-377.671c-41.125,-4.084 -82.792,-6.167 -125,-6.167c-690.375,-0 -1250,559.625 -1250,1250c0,690.375 559.625,1250 1250,1250c42.208,0 83.875,-2.083 125,-6.167Z" style="fill:#231f20;fill-rule:nonzero;"/><path d="M0,1250c0,690.375 559.625,1250 1250,1250c45.042,0 89.542,-2.375 133.333,-7l0,-378.083c-43.458,6.666 -88,10.083 -133.333,10.083c-483.25,0 -875,-391.75 -875,-875c0,-483.25 391.75,-875 875,-875c45.333,0 89.875,3.421 133.333,10.083l0,-378.083c-43.791,-4.621 -88.291,-7 -133.333,-7c-690.375,0 -1250,559.625 -1250,1250Z" style="fill:#231f20;fill-rule:nonzero;"/></g></svg>