<?xml version="1.0" encoding="utf-8"?>
<!-- Generator: Adobe Illustrator 19.2.1, SVG Export Plug-In . SVG Version: 6.00 Build 0)  -->
<svg version="1.1" id="layer" xmlns="http://www.w3.org/2000/svg" xmlns:xlink="http://www.w3.org/1999/xlink" x="0px" y="0px"
	 viewBox="0 0 652 652" style="enable-background:new 0 0 652 652;" xml:space="preserve">
<style type="text/css">
	.st0{fill:#1E1A00;}
	.st1{fill:#224147;}
	.st2{fill:#FFE200;}
	.st3{fill:#FCDE00;}
	.st4{fill:#FDE000;}
	.st5{fill:#FDDF00;}
	.st6{fill:#FFE100;}
	.st7{fill:#FFE300;}
	.st8{fill:#FFE400;}
	.st9{fill:#FFE600;}
	.st10{fill:#FEE100;}
	.st11{fill:#FCE000;}
	.st12{fill:#FBDF00;}
	.st13{fill:#F7DC06;}
	.st14{fill:#F8DD04;}
	.st15{fill:#F9DE02;}
	.st16{fill:#F9DD02;}
	.st17{fill:#E8D020;}
	.st18{fill:#FADE00;}
	.st19{fill:#F8DC05;}
	.st20{fill:#F9DD03;}
	.st21{fill:#F7DC08;}
	.st22{fill:#F8DD05;}
	.st23{fill:#F5DA0C;}
	.st24{fill:#F5DB0B;}
	.st25{fill:#F9DD04;}
	.st26{fill:#FADF00;}
	.st27{fill:#F2D811;}
	.st28{fill:#F4DA0E;}
	.st29{fill:#F6DB09;}
	.st30{fill:#F7DC07;}
	.st31{fill:#F2D812;}
	.st32{fill:#F5DA0D;}
	.st33{fill:#F0D714;}
	.st34{fill:#DDC829;}
	.st35{fill:#344B49;}
	.st36{fill:#F1D713;}
	.st37{fill:#F4D90F;}
	.st38{fill:#F6DB0B;}
	.st39{fill:#3F5249;}
	.st40{fill:#F4D90E;}
	.st41{fill:#2D4748;}
	.st42{fill:#F5DB0C;}
	.st43{fill:#EED419;}
	.st44{fill:#EFD616;}
	.st45{fill:#F0D615;}
	.st46{fill:#81824B;}
	.st47{fill:#8B894A;}
	.st48{fill:#224247;}
	.st49{fill:#4F5D4B;}
	.st50{fill:#55604A;}
	.st51{fill:#505D4A;}
	.st52{fill:#415349;}
	.st53{fill:#354B49;}
	.st54{fill:#324A48;}
	.st55{fill:#F3D910;}
	.st56{fill:#374D49;}
	.st57{fill:#364C49;}
	.st58{fill:#4F5C4B;}
	.st59{fill:#46564A;}
	.st60{fill:#F2D810;}
	.st61{fill:#4C5B4B;}
	.st62{fill:#535F4D;}
	.st63{fill:#60694B;}
	.st64{fill:#2F4848;}
	.st65{fill:#304948;}
	.st66{fill:#48574A;}
	.st67{fill:#DAC52C;}
	.st68{fill:#44554A;}
	.st69{fill:#48584A;}
	.st70{fill:#4B5A4B;}
	.st71{fill:#274447;}
	.st72{fill:#264347;}
	.st73{fill:#244347;}
	.st74{fill:#41534A;}
	.st75{fill:#6D734D;}
	.st76{fill:#FFFFFF;}
	.st77{fill:#787A4B;}
	.st78{fill:#004D98;}
	.st79{fill:#F04D44;}
	.st80{fill:#201B00;}
	.st81{fill:#272425;}
	.st82{fill:#211B00;}
	.st83{fill:#272323;}
	.st84{fill:#F4D800;}
	.st85{fill:#FAFAF5;}
	.st86{fill:#FFE70B;}
	.st87{fill:#FEE112;}
	.st88{fill:#F6DC2F;}
	.st89{fill:#EFD84C;}
	.st90{fill:#ECEBE7;}
	.st91{fill:#EBE9E0;}
	.st92{fill:#E5E4E9;}
	.st93{fill:#EED306;}
	.st94{fill:#F2D825;}
	.st95{fill:#FFE839;}
</style>
<path class="st0" d="M562.6,260.1c-0.8,2.5-0.1,5.8,3.1,8.3c0.5,0.4,1,1.1,0.9,1.6c-1.7,11.9,6.4,23.1,2.8,35.1
	c-0.6,1.9-1,3.6,0.6,5.3c0.7,0.7,1.1,1.8,1.5,2.8c2.5,6.3-3.1,12.3-1.9,17.6c1.5,6.1,2.7,11.4-0.4,16.9c-1.4,2.6-3.1,5.1-0.7,8.1
	c0.4,0.4,0.3,1.2,0.4,1.8c1.3,6.7-5.3,11.6-5,17c0.4,6.6,0.4,12.1-3.8,17.2c-1.8,2.2-3.5,4.2-1.8,7.3c0.4,0.7,0.2,1.7,0.2,2.5
	c0,6.8-7.9,10.2-8.1,15.7c-0.3,6.8-2,11.9-6.9,16.1c-1.9,1.6-3.4,3-2.8,5.8c0.2,1-0.1,2.1-0.2,3.1c-0.8,7-9.6,8.7-10.7,14.6
	c-1.3,6.7-4.4,11.3-10.1,14.4c-1.7,0.9-2.9,1.8-3.2,4.1c-0.8,6.3-4.9,10.1-10.4,12.6c-1.8,0.8-3.9,1.3-4.2,4.1
	c-0.7,6.6-5.7,9.6-11.2,11.6c-2.5,0.9-4.7,1.5-5,4.7c-0.1,1-0.9,1.9-1.4,2.8c-3.2,6.4-12.3,4.5-15.3,10c-3.4,6.3-8.2,8.8-14.4,9.8
	c-2.4,0.3-3.8,1-4.8,3.3c-0.5,1.3-1.6,3.2-2.7,3.4c-11.9,2.1-19.8,13.8-32.5,13.5c-2.2,0-3.5,0.7-4.7,2.4c-0.9,1.2-2.1,2-3.2,3
	c-5.1,4.4-12.5-0.6-17.2,3.6c-5.1,4.5-10.6,4.9-16.5,3.9c-2.5-0.4-4.5-0.5-6.2,1.7c-0.5,0.6-1.3,1-2.1,1.4c-6,3.3-12.7-1.8-17.7,0.4
	c-6.1,2.7-11.4,4-17.5,1.8c-2.5-0.9-4.4-1.3-7,0.3c-5,3.2-10.2,1.6-15.2-0.5c-1.8-0.8-3.3-2.4-5.8-1.1c-5.6,3.2-11.1,1.6-16.2-1.5
	c-2.3-1.4-4.3-2.4-6.9-0.8c-0.9,0.5-2,0.6-3.1,0.8c-6.8,1.1-11-6.6-16.7-5.8c-6.9,0.9-12.1-0.5-16.9-4.8c-1.9-1.7-3.6-2.7-6.2-2
	c-1.2,0.3-2.5,0.1-3.8,0c-6.8-0.1-9.4-8.3-15.3-8.6c-6.9-0.3-11.8-2.9-15.6-8.1c-1.2-1.7-2.5-2.7-4.7-2.5c-1.2,0.1-2.5,0-3.8-0.3
	c-6.7-1.4-8.2-9.7-13.6-11.3c-6.4-1.9-11.3-4.4-14.2-10.3c-1.1-2.2-2-4.1-5-3.9c-1,0.1-2-0.6-3-1c-6.7-2.3-6.2-11.4-11.7-13.7
	c-6.4-2.7-10.2-6.6-11.8-12.9c-0.7-2.6-1.8-4-4.4-4.6c-1.2-0.3-2.2-1.2-3.3-1.9c-5.9-3.5-3.6-12.1-9.2-15.5c-6-3.6-8.3-8.8-8.8-15.2
	c-0.1-1.8-0.7-3-2.5-3.9c-5.8-3-7.4-8.4-7.6-14.4c-0.1-2.1,0.4-4.1-2-5.6c-5.8-3.6-7-9.4-6.5-15.5c0.2-2.7-0.2-4.4-2.4-5.9
	c-0.8-0.6-1.4-1.6-2.1-2.4c-4.6-5.4,0.4-12.9-3.4-17.9c-4.1-5.6-5-11-3.2-17.3c0.6-2.1,0.4-3.7-1.2-5.2c-0.7-0.7-1.3-1.7-1.7-2.6
	c-3.1-6.1,2.3-12.6,0.2-17.7c-2.5-6.2-3.7-11.5-1-17.5c1.1-2.4,1.5-4.3,0-7c-2.8-5.1-1.3-10.3,1.3-15.1c1.3-2.4,1.7-4.2,0.5-7
	c-2.2-5.3-0.4-10.5,2.7-15c1.6-2.3,2-4,1.1-6.9c-1.7-5.5,0.5-10.4,4-14.7c1.7-2,3.1-3.9,2-6.8c-0.5-1.3-0.7-3.5,0-4.3
	c7.5-9.2,5.6-23.1,15.2-31.2c1.3-1.1,2.6-1.8,2.3-4c-0.9-6.7,2.8-11.2,7.8-14.9c1.6-1.2,3.5-2,3.5-4.7c-0.1-6.4,3.6-10.7,8.9-13.6
	c2.4-1.3,4-2.8,4.2-5.7c0.1-1.2,0.7-2.4,1.1-3.6c2.3-7.1,12.1-6.6,14.2-13.2c2.3-7.2,7.4-10.6,13.7-12.9c2.1-0.8,3.1-1.7,3.6-3.8
	c0.4-1.4,1.3-2.6,2-4c3.2-6.3,12.2-3.9,15.3-9.7c3.3-6.3,8.5-8.5,14.8-9.5c1.8-0.3,3-0.6,3.9-2.4c2.7-5.9,8-7.9,14-8.1
	c2.8-0.1,4.9-0.5,6.1-3.3c0.4-1.1,1.7-1.8,2.6-2.7c4.8-4.7,12.6-0.8,16.8-5c5-5,10.4-6,16.7-5.5c2.3,0.2,4.1,0,5.6-2
	c0.6-0.8,1.6-1.4,2.4-2c5.6-4.2,12.8,1.1,17.5-1.9c5.8-3.7,11.1-4.9,17.3-3c2.6,0.8,4.4,0.7,6.8-1c4.8-3.4,10.1-2.5,15.2-0.5
	c2.4,0.9,4.6,1.7,7-0.4c1-0.9,3.1-1.8,4.1-1.3c11.1,5.1,24.1-1.9,34.6,5.7c1.4,1,2.5,1.2,4,0.4c1.1-0.6,2.4-0.6,3.7-0.9
	c7-1.6,11.2,6.3,17.3,5.6c6.8-0.8,12.1,0.8,16.8,5.3c1.2,1.1,2,2.8,4.2,2.1c7-2.2,11.9,1.5,16.2,6.2c1.8,1.9,3.2,3.1,5.9,2.1
	c0.7-0.3,1.7,0.1,2.5,0.2c7.1,0.6,9.4,9.1,15,10.3c6.6,1.4,11.6,3.4,14.9,9.1c1.3,2.2,2.6,3.7,5.3,3.6c1.2,0,2.5,0.5,3.7,0.9
	c6.5,1.9,6.6,10.7,12.4,12.4c6.7,2,10.4,6,12.8,12c0.7,1.7,1,3.4,3.5,3.8c6.1,1.1,9.4,5.6,11,11.1c0.9,3.1,1.8,5.4,5.2,6.2
	c1,0.2,1.8,1.1,2.7,1.6c5.8,3.5,3.4,12.2,8.6,15.3c6,3.7,8.4,8.7,9.1,15c0.3,2.4,0.9,3.9,3.1,4.8c0.9,0.4,1.7,1.3,2.5,2
	c4.9,4.5,2.1,12.2,5.6,16.2c4.2,4.8,7.5,9,7,15.4c-0.3,3.3,0.4,5.8,3.2,8.2C563.1,249.5,563.2,254.2,562.6,260.1"/>
<path class="st1" d="M363.6,542.5c-4.1-0.3-8.2,0.1-11.6,2.5c-2,1.3-3.6,0.4-5.4,0.3c-4.9-0.4-9.8-0.9-14.4,1.3
	c-2.6,1.3-4.9,0.7-7.3-0.2c-3.7-1.5-7.4-1.6-11.2,0c-2.2,0.9-4.3,1-6.7,0.1c-5-1.8-10.5-1.1-15.3-2c-8.5-1.6-17.3-2.4-25.6-5
	c-10.3-3.2-20.6-6.4-30.6-10.5c-2.8-1.2-6.1-1.1-8.3-3.8c-0.3-0.3-0.6-0.7-1-0.8c-10.1-3.1-18.1-10.3-27.6-14.5
	c-2.2-1-4.1-1.9-5.5-3.9c-1.2-1.7-2.5-4.2-4.2-4.6c-10.8-2.4-14-14.8-24.3-18.1c-1.9-0.6-2.3-5.2-4.3-6.7
	c-7.1-5.4-11.6-12.8-16.9-19.7c-2.8-3.6-5.4-7.6-8.2-10.8c-7.3-8.3-8.6-20-17.2-27.2c-0.9-0.8-1.3-1.5-1.3-2.7
	c0.4-6.5-1.5-12.1-6.7-16.2c-1.2-0.9-1.1-2.2-0.8-3.5c0.3-1,0.9-2.3,0.5-3c-4.6-9.5-5.8-19.9-8.5-29.9c-0.8-3-2.6-5.6-1.4-8.8
	c0.2-0.6,0.3-1.3,0-1.9c-4-10.1,0.5-21.2-3.4-31.3c-0.8-2-0.2-3.7,0.5-5.5c1-2.8,2.6-6,1.4-8.6c-2.9-6.6,2-12.1,1.8-17.8
	c-0.3-8.1,3.6-14.9,4.3-22.3c0.5-5.5,1.6-10.2,4.2-14.9c1.6-3,3.4-6.4,1.7-10.3c-0.7-1.5,0.2-2.8,1.5-3.8c1.1-0.9,2.6-2,2.9-3.2
	c2.6-10.3,10.3-18.3,13.2-28.5c0.6-2.1,1.7-3.7,3.5-5c4.1-3.2,7.2-7.2,7.8-12.6c0.2-1.6,0.8-2.5,2.3-3.4c4.9-3,9.3-6.7,10.5-12.9
	c0-0.2,0-0.5,0.1-0.6c8.4-3.9,12.4-12.6,19.3-17.9c4.2-3.2,9-5.4,11.7-10.3c0.2-0.4,0.3-1,0.6-1.1c7.9-2.6,13.1-9.2,20.1-13.1
	c4.9-2.7,10.9-3.6,14.3-8.8c1-1.5,2.4-1.5,3.9-1.5c2.8,0,6.2-0.4,7.8-2.2c7.2-8.2,19.6-4.5,26.7-12.3c9.5,2.4,17.2-4.3,26.4-5.2
	c10.4-1,21.1-0.9,31.4-3.7c2.3-0.6,4.1-0.4,6.1,0.3c4.3,1.4,8.7,1.7,13,0.1c2.3-0.9,4.4-0.7,6.7,0.4c4.5,2.1,9.2,3.2,14.1,1.3
	c2.2-0.9,4.1,0.5,6,1.3c10.1,3.8,21.1,4.2,31.2,8.1c3.1,1.2,6.8,0.8,9.3,3.7c0.1,0.2,0.3,0.3,0.5,0.3c10.4,1.4,18.4,8.3,27.9,11.8
	c2.5,0.9,4.7,2,6.4,3.9c1.7,1.9,3.6,3.9,6,4.6c6.4,1.8,10.3,7.7,15.6,10.2c9.4,4.3,13.2,14.8,22.9,18.1c2.8,1,2.6,4.9,4.5,6.6
	c7.3,6.6,12.7,14.8,19.2,22.1c2.2,2.4,3.3,5.2,5,7.6c6.2,8.8,10.3,18.9,16.2,27.8c1.3,2,3,3.5,2.7,6.1c-0.1,0.6-0.2,1.4,0.1,1.9
	c5.6,9.4,7,20.3,11.5,30c0.9,2,2,3.6,1.2,5.9c-0.2,0.8-0.3,1.8,0,2.5c3.7,10.2,2.9,21.2,6,31.5c0.5,1.7,1,3.1,0.4,4.9
	c-1.7,5.4-2,10.8,0.5,16.1c1.5,3.2-2.2,5.7-1.6,8.4c2.5,11.1-4.2,21.4-2.3,32.3c0.4,2.1-1.5,3.5-1.8,5.3
	c-1.8,11.1-7.5,21.1-8.9,32.3c-0.2,1.8-0.5,3.3-1.9,4.5c-3.7,3.5-5.7,7.9-6.3,12.9c-0.5,4.1-4.1,6.4-5.6,9.6
	c-3.6,8.1-9,14.8-13.6,22.1c-2.4,3.9-4.4,7.8-8.1,10.8c-2.6,2.1-5,4.5-5.9,8.1c-0.6,2.4-2.2,4.1-4.5,5c-0.8,0.3-1.8,0.6-2.2,1.3
	c-6.1,9.1-16.2,14.1-22.8,22.6c-1.2,1.5-2.4,2.2-4,2.8c-4.9,2-9.8,4.4-12.8,9.1c-1.3,2.1-3.6,2-5.4,2.9c-9.8,5-19.7,9.9-29.4,15.3
	c-2.5,1.4-4.5,3-7.4,2.7c-0.6-0.1-1.4-0.2-1.9,0.1c-9.1,5.5-20.1,5.3-29.4,10.1C369.3,542.9,366.5,542.2,363.6,542.5"/>
<path class="st2" d="M180.8,141.3c-4.7,6.3-9.6,9.9-16.4,10.4c-4,0.3-8,0.7-12,0.6c-1.6,0-4.2,1.4-4.9-1.1c-0.6-1.9,1.1-3.6,2.5-4.9
	c4.1-3.9,9-6.4,14.8-6.3C169.7,140.3,174.7,140.8,180.8,141.3"/>
<path class="st2" d="M163.9,156.5c-4.2,6.5-9.1,10.8-16.7,11.5c-3.4,0.3-6.7,1-10,1.2c-1.7,0.1-4,1.8-5.2-0.4
	c-1.1-2.1,0.7-4.1,2.1-5.6c3.2-3.4,7.2-6.2,11.9-6.6C151.6,156,157.3,156.5,163.9,156.5"/>
<path class="st3" d="M137.5,457.4c5.6,3.1,8.3,7.6,8.8,12.9c0.6,5.6,0.2,11.4,0.3,17c0.1,4.1-2.2,2.8-4,1.6c-5.3-3.8-7-9.4-6.7-15.5
	C136.2,468.4,136.9,463.4,137.5,457.4"/>
<path class="st4" d="M508.5,187.2c-10.2-7-9.9-16.1-9.3-25c0.2-2.6-1.3-7.1,2-7.5c3.3-0.4,5.4,3.4,6.9,6.6
	C512.3,169.7,508.3,177.8,508.5,187.2"/>
<path class="st5" d="M150.5,473.2c6.7,3.9,10,8.7,10.5,15.3c0.4,4.4,0.7,8.8,0.9,13.3c0.1,1.1,0.9,2.8-0.6,3.3
	c-1,0.3-2.5-0.3-3.5-0.9c-4.5-3.1-6.7-7.7-7.2-12.8C150.1,485.7,150.5,480,150.5,473.2"/>
<path class="st6" d="M465.5,500.4c4.2-6,8.9-9,15.2-9.4c4.4-0.3,8.8-0.5,13.2-0.6c1.3,0,3.1-0.9,3.8,1.1c0.5,1.5-0.5,2.9-1.4,4
	c-4.1,4.4-9.4,6.3-15.3,6.1C476.1,501.4,471.3,500.8,465.5,500.4"/>
<path class="st2" d="M483.3,505.5c-9.6,14.6-22.1,8-34.3,7.5C458.3,500.2,470.5,505.5,483.3,505.5"/>
<path class="st6" d="M447.3,530.8c-6.6,10.5-18.3,8.4-33.8,1C424.6,521.3,435.6,529.6,447.3,530.8"/>
<path class="st2" d="M214.9,118.7c-4.6,5.4-9.9,7.5-16.1,6.8c-4.6-0.4-9.2-1.4-13.8-2.2c-1.2-0.2-2.8,0.4-3.2-1.3
	c-0.4-1.7,0.7-2.9,1.9-3.8c4.6-3.6,9.9-4.7,15.6-3.5C204.2,115.8,209.1,117.2,214.9,118.7"/>
<path class="st2" d="M519.5,204.3c-6-5.4-8.5-11-7.4-18.1c0.6-4.2,1.1-8.4,1.5-12.5c0.4-3.5,2.2-3.1,4-1.4c4.2,3.8,5.8,8.9,5.3,14.3
	C522.4,192.1,520.9,197.6,519.5,204.3"/>
<path class="st2" d="M121.7,187.2c-3.7,0.6-3.4-1.7-2.5-3.8c2.3-5.2,6.7-8.1,12-9.3c4.3-1,8.7-1.4,13.1-2c1-0.1,2-0.5,2.9,0.5
	c1.1,1.3,0.2,2.4-0.4,3.4c-2.3,3.3-5.1,6.3-9.1,7.5C132.4,185,127,186,121.7,187.2"/>
<path class="st6" d="M316.4,567.9c-5.2-1.1-9.8-2.6-13.2-6.5c-2.2-2.6-4.5-5.1-6.6-7.8c-1.1-1.4-3.8-2.9-3-4.3
	c1.3-2.1,4.1-1.3,6.5-0.9c9.8,1.5,14.7,9.8,20.6,16.1C323.2,567.3,317.5,566.4,316.4,567.9"/>
<path class="st6" d="M466,142.8c-7.3-3.1-11.7-7.4-13.1-14.5c-0.6-3.3-1.8-6.5-2.5-9.8c-0.4-1.7-2.3-4-0.4-5.2
	c2.1-1.4,4.5,0.2,6.3,1.7c3.3,2.7,5.8,6.2,6.7,10.4C464.2,130.8,464.9,136.2,466,142.8"/>
<path class="st6" d="M312.7,92.4c-14.1,5.7-21.4-6.1-31.7-11C289.1,73.4,300.5,79.2,312.7,92.4"/>
<path class="st6" d="M119.3,457.2c-13.5-11.5-5.5-22.9-3.2-35.2C127.6,433.1,120.1,444.5,119.3,457.2"/>
<path class="st6" d="M449.2,130.2c-6.7-1.6-11.1-4.8-13.3-10.5c-1.8-4.5-3.3-9.1-4.9-13.6c-0.4-1.2-1.4-2.3-0.3-3.5
	c1.3-1.3,2.8-0.5,4.1,0.1c5.5,2.2,8.7,6.5,10.4,12C446.7,119.4,447.7,124.3,449.2,130.2"/>
<path class="st2" d="M547.7,362.5c-0.8-8.1,1.3-13.6,6.1-18.1c2.5-2.3,5-4.6,7.5-6.8c1.5-1.3,3-4.2,4.8-3.1c2.4,1.3,1.9,4.6,1.3,7
	c-1.4,5.3-4.3,9.6-8.9,12.7C555.1,356.5,552,359.3,547.7,362.5"/>
<path class="st6" d="M481,155.8c-14.1-6.8-10.8-20-14.4-30.9C477.3,125.9,481.4,136.3,481,155.8"/>
<path class="st6" d="M495,472.2c3.1-7,7.5-11,14.3-12.4c4.4-0.9,8.7-1.8,13-2.8c3.4-0.8,3.9,0.9,2.7,3.4c-2.6,5.6-7.4,8.6-13.3,9.6
	C506.5,470.9,501.3,471.4,495,472.2"/>
<path class="st6" d="M373.8,544.8c7-4,13.2-4.6,19.6-1.2c2.4,1.3,5.1,2.1,7.5,3.4c2.1,1.2,6.1,1.1,5.7,3.9c-0.5,3.1-4.4,3.7-7.3,4.1
	c-5,0.7-9.6-1-13.9-3.5C381.9,549.2,378.2,547.2,373.8,544.8"/>
<path class="st7" d="M165.2,488.4c6.3,2.5,9.8,6.9,11.2,12.9c1,4.5,1.7,9.1,2.4,13.7c0.2,1.2,0.4,3-0.3,3.5
	c-1.2,0.9-2.8,0.1-4.1-0.6c-4.3-2.5-6.9-6.4-7.9-11C165.3,501,164.7,494.9,165.2,488.4"/>
<path class="st2" d="M253,103c-6.9,4.3-12.7,5.7-19.2,2.8c-3.1-1.3-6.5-2-9.6-3.3c-1.6-0.7-4.7-0.3-4.6-2.6c0.1-2.4,2.8-3.6,5-4.3
	c4.6-1.3,9.2-1.5,13.6,0.6C242.8,98.4,247.4,100.4,253,103"/>
<path class="st7" d="M102.1,384.2c8.5,12.5-0.4,22.4-3.4,33.2C89.1,411.5,92.2,400,102.1,384.2"/>
<path class="st2" d="M529,420.8c1.2-7.6,4-12.4,9.8-15.3c3.8-1.9,7.5-3.9,11.2-5.8c1.2-0.6,2.4-2.3,3.9-1.1c1.4,1.3,1,3.1,0.4,4.7
	c-1.6,4.6-4.4,8.3-8.7,10.4C540.5,416.3,535.2,418.2,529,420.8"/>
<path class="st2" d="M543.6,260.8c-4.1-6.2-5.2-11.7-2.9-17.6c1.7-4.3,3.4-8.6,5.1-12.9c0.4-1.2,0.6-2.9,2.1-2.7
	c1,0.1,2.2,1.3,2.8,2.3c2.7,4.9,2.7,10.2,0.6,15.3C549.2,250.1,546.5,254.9,543.6,260.8"/>
<path class="st2" d="M526.6,188.5c10.7,5,8.9,17.2,2.1,33.4C518.1,211.1,525.5,199.8,526.6,188.5"/>
<path class="st6" d="M259.8,85.9c8.2-8.5,19.7-3,32.3,8.5C278.7,101.1,270.5,90.1,259.8,85.9"/>
<path class="st2" d="M108.2,403.3c4.7,5.2,6,10.5,4.7,16.4c-1.1,4.7-2.6,9.4-3.9,14c-0.3,1.2-0.4,2.9-1.9,2.9c-1,0-2.3-1.1-3-2.1
	c-3.2-4.6-3.7-9.8-2-15.1C103.8,414.3,106,409.2,108.2,403.3"/>
<path class="st7" d="M537.1,241.4c-4.9-6.6-6.3-12.4-3.9-19c1.3-3.6,1.9-7.3,3.2-10.9c0.5-1.3-0.3-4,2.2-3.8
	c1.7,0.1,2.8,1.8,3.5,3.4c2,4.1,2.7,8.6,1.4,12.9C541.9,229.6,539.6,235,537.1,241.4"/>
<path class="st6" d="M232.9,532.3c8.2,1.5,13.5,4.2,16.6,10.4c1.7,3.4,4,6.5,5.7,9.8c0.6,1.3,2.9,2.5,1,4.3
	c-1.4,1.2-3.1,0.8-4.8,0.3c-4.5-1.3-8-4.2-10.3-7.9C238.1,544.2,236,538.8,232.9,532.3"/>
<path class="st7" d="M131.3,474c-13.7-9.3-6.5-21.5-5.6-32.7C135.1,444.4,135,456.7,131.3,474"/>
<path class="st6" d="M236.2,549.7c-8.8,2.8-16.5-6.7-20.9-25.2C226.4,525.1,229.1,531.9,236.2,549.7"/>
<path class="st2" d="M94.4,343.7c2.7,6.3,3,11.8-0.4,17.2c-2.3,3.7-4.5,7.6-6.9,11.3c-0.7,1.2-1.1,3.3-2.8,3
	c-1.8-0.2-2.3-2.3-2.8-3.8c-1.3-4.2-0.6-8.6,1.4-12.3C85.8,353.8,89.7,348.8,94.4,343.7"/>
<path class="st2" d="M543.6,382.3c-0.7-7.4,1.5-12.6,6.6-16.6c3.5-2.8,7-5.5,10.5-8.2c0.9-0.7,1.7-2.2,3.1-1.5
	c1.5,0.8,1.5,2.5,1.4,4c-0.3,5.4-3,9.8-7.1,13C553.8,376.3,548.9,378.9,543.6,382.3"/>
<path class="st2" d="M97.3,364.2c7.6,13.1-2.4,22.3-6.4,33C81.9,389.5,86.2,378.9,97.3,364.2"/>
<path class="st6" d="M481.3,486.6c6.8-13.6,19.9-10.3,30.9-12.7C512.1,482.9,502.8,488.2,481.3,486.6"/>
<path class="st6" d="M551.9,321.4c-2.9-6.2-1.9-11.4,1-16.2c2.6-4.3,6-8.2,9-12.3c0.7-1,1.4-2.6,2.7-2.1c0.9,0.4,1.6,1.9,2,3.1
	c1.4,5.3,0,10.3-3,14.5C560.2,312.9,556,316.8,551.9,321.4"/>
<path class="st2" d="M93.6,302.8c2.7,6,1.2,11.2-1.8,15.5c-3.1,4.5-7.2,8.3-10.8,12.4c-2.4,2.8-3.5,1.2-4.2-1.3
	c-1.6-5.5,0.6-10.2,3.8-14.1C84.3,310.9,89,307.1,93.6,302.8"/>
<path class="st2" d="M519,439c2.2-7.8,5.8-12.5,12.3-14.9c3.5-1.3,7-2.9,10.5-4.2c1.4-0.5,3.1-2.3,4.5-0.5c1.1,1.4,0.3,3.4-0.4,4.8
	c-2,4.4-5.4,7.7-9.8,9.4C530.9,435.7,525.4,437,519,439"/>
<path class="st6" d="M412.9,110.8c-15.3-1.4-17-14.8-23.7-23.6C398.8,83.2,406.4,92.5,412.9,110.8"/>
<path class="st2" d="M252.6,540.1c6.9-0.7,11.8,1.8,15.6,6.4c3.1,3.8,5.8,7.8,8.5,11.8c0.7,0.9,2.2,1.8,1.4,3.2
	c-0.8,1.4-2.6,1.5-4,1.3c-5.1-0.6-9.3-3.2-12.2-7.2C258.5,550.8,255.9,545.6,252.6,540.1"/>
<path class="st2" d="M197,513.4c6.6,1.6,10.9,4.9,13.3,10.3c2,4.6,3.5,9.5,5.3,14.2c1.5,3.8-0.7,4.1-3.3,3.3
	c-5.4-1.7-8.9-5.7-10.8-10.8C199.7,525.1,198.6,519.6,197,513.4"/>
<path class="st6" d="M431.3,523.2c5-5.2,10.3-7.5,16.9-6.6c4.2,0.6,8.4,1.1,12.5,1.8c1.4,0.2,3.3-0.4,3.8,1.4c0.6,1.9-1,3.1-2.3,4.1
	c-4,3.2-8.9,4.2-13.8,3.3C442.9,526.3,437.4,524.7,431.3,523.2"/>
<path class="st2" d="M312.2,550.9c7.8-2.4,13.5-1.4,18.7,2.9c3.1,2.6,6.3,5,9.3,7.7c1.2,1,3.7,1.6,2.6,3.7c-0.7,1.4-2.7,1.8-4.5,1.9
	c-5.4,0.3-10-1.5-14-4.9C320.5,558.8,316.9,555.2,312.2,550.9"/>
<path class="st7" d="M180.4,501.5c6.6,2.1,10.6,6.1,12.6,12c1.5,4.4,2.5,8.9,3.6,13.5c0.3,1.2,1.1,2.6,0.1,3.6
	c-1.2,1.1-2.8,0.4-4.1-0.2c-4.9-2.4-7.9-6.6-9.2-11.5C181.8,513.4,181.4,507.7,180.4,501.5"/>
<path class="st2" d="M98,226c-2.4-10.3,9.7-17,25.9-19.8C123.6,216.5,114.5,220.3,98,226"/>
<path class="st2" d="M135.9,188c-1.4,6.5-5.1,10.4-10.2,12.7c-4.8,2.1-10,3.4-15,5c-3.7,1.2-4.2-0.7-3.1-3.5
	c2.1-5.8,6.6-9.1,12.4-10.7C124.8,190.3,129.8,189.4,135.9,188"/>
<path class="st2" d="M233.6,110c-5.5,4.9-10.8,6.6-17,5.1c-4.5-1.1-9-2.2-13.5-3.3c-1.2-0.3-3-0.3-3.1-1.7c0-1,1.1-2.3,2-3
	c5-3.7,10.6-3.9,16.3-2.3C223.2,106.1,227.9,108,233.6,110"/>
<path class="st6" d="M431.8,120c-7.4-1.6-12-4.8-14.8-10.6c-1.9-4-3.9-8-5.6-12c-0.5-1.2-2.2-2.5-0.5-3.9c1.3-1.1,2.8-0.4,4.2,0.1
	c4.9,1.6,8.4,5,10.5,9.5C427.9,108.2,429.5,113.6,431.8,120"/>
<path class="st6" d="M96.6,282.1c1.2,6.8-0.2,11.9-4.1,16.1c-3.4,3.7-7.3,7-11.1,10.5c-0.8,0.8-1.5,2.3-3,1.4
	c-1.2-0.7-1.3-2.1-1.3-3.4c-0.2-5.7,2.2-10.4,6.2-14C87.2,289.2,91.5,286.1,96.6,282.1"/>
<path class="st2" d="M548.2,280.7c-3.8-6.2-4.2-11.8-1.5-17.5c2-4.2,4-8.3,6.2-12.4c0.5-1,0.6-2.7,2.3-2.6c1.7,0.1,2.5,1.7,3,2.9
	c1.6,4.5,1.7,9.3-0.4,13.6C555,270.1,551.6,275.1,548.2,280.7"/>
<path class="st7" d="M107,242.5c-0.1,7.7-2.7,12.7-8,16.3c-3.5,2.4-7.1,4.7-10.6,6.9c-1.2,0.7-2.4,2.4-3.9,1.4c-1.6-1-1.2-3-0.9-4.6
	c0.9-4.8,3.6-8.7,7.6-11.3C95.9,248.1,101,245.7,107,242.5"/>
<path class="st6" d="M508,456.1c2.3-7.1,6.2-11.6,12.8-13.5c3.6-1.1,7.2-2.3,10.9-3.3c1.6-0.4,3.7-2.5,5-0.2c1,1.7-0.3,3.7-1.3,5.3
	c-2.3,3.7-5.7,6.4-9.8,7.7C520.1,453.7,514.3,454.7,508,456.1"/>
<path class="st2" d="M93.3,323.4c5.3,14.4-6.6,21.1-11.9,30.8C74.2,348.3,77.8,337.6,93.3,323.4"/>
<path class="st2" d="M560.8,268.7c7.3,8.5,1.8,18.6-9.8,31.3C545,291.7,550.1,283.7,560.8,268.7"/>
<path class="st2" d="M372.3,80.5c6,1,10.4,4,13.6,8.9c2,3,3.8,6.1,5.4,9.3c0.7,1.3,2.9,2.7,1.3,4.3c-1.3,1.3-3.3,0.3-4.8-0.2
	c-3.9-1.2-7.4-2.9-9.8-6.5c-2.6-3.9-5.3-7.6-7.9-11.5c-0.7-1-2.1-2.1-1.1-3.3C369.7,80.8,371.3,80.8,372.3,80.5"/>
<path class="st2" d="M101.3,262.1c0,7.4-1.9,12.9-7.2,17c-3.5,2.7-6.9,5.5-10.5,8.2c-0.9,0.7-2,2.2-3.2,1.2
	c-0.8-0.7-1.1-2.2-1.1-3.4c0.1-5.7,3-10.1,7.3-13.4C90.9,268.3,95.7,265.6,101.3,262.1"/>
<path class="st6" d="M559.4,376.7c5,9.7-6.3,18.8-22.2,24.4C537.5,386.2,550.9,383.9,559.4,376.7"/>
<path class="st2" d="M89.5,247.5c0.5-17.7,14.6-18.2,25.5-24.3C113,238.8,100.1,240.7,89.5,247.5"/>
<path class="st7" d="M333.2,550.5c6.4-2.6,11.9-2.6,17,0.6c4.3,2.6,8.4,5.7,12.6,8.5c3.6,2.3,1.8,3.6-0.8,4.5
	c-5.1,1.8-10.2,0.7-14.5-2.2C342.7,558.7,338.4,554.7,333.2,550.5"/>
<path class="st7" d="M374.2,97.7c-6.4,1.4-11.3-0.4-15.1-4.1c-4-3.8-7.2-8.3-10.8-12.5c-2.2-2.6-1-3.7,1.8-4
	c5.5-0.5,10.1,1.9,13.5,5.8C367.4,87.3,370.5,92.4,374.2,97.7"/>
<path class="st2" d="M394.3,539.4c8.2-6.4,14.1-6,32.7,2.2C421.6,551.3,411.2,548.3,394.3,539.4"/>
<path class="st7" d="M272.1,545.1c7.9-0.7,13.3,1.5,17.5,6.6c2.5,2.9,5,5.8,7.4,8.7c1,1.2,3.3,2.3,2.4,4c-1.1,2-3.6,1.6-5.7,1.3
	c-4.4-0.6-8.1-2.8-10.9-6C279.2,555.4,276.1,550.6,272.1,545.1"/>
<path class="st7" d="M386.4,557.4c-7.8,7.4-19.2,2.5-31.4-8.7C363.2,542.5,373.2,547.7,386.4,557.4"/>
<path class="st7" d="M550.6,342.1c-1.5-8-0.3-13.8,4.8-18.6c2.4-2.3,4.5-5,6.8-7.5c1.2-1.3,2.3-3.9,4-3.3c2.4,0.9,2.4,3.8,2.1,6.1
	c-0.5,4.8-2.3,9-5.9,12.3C558.8,334.5,555.1,337.9,550.6,342.1"/>
<path class="st7" d="M164.1,135.8c4.7-11.5,16.7-10.2,32.1-6.4C191.7,137.4,186.4,138.5,164.1,135.8"/>
<path class="st2" d="M353.8,93.9c-5.5,2.5-10.4,1-14.1-1.8c-4.9-3.6-8.9-8.4-13.2-12.7c-2.5-2.5-0.3-3.2,1.6-3.6
	c5.7-1.1,10.5,1.2,14.3,4.9C346.5,84.6,349.9,89.2,353.8,93.9"/>
<path class="st8" d="M239.1,92.3c5.6-7.9,16.3-6.8,33.1,5.4C259.3,105.8,249.8,96,239.1,92.3"/>
<path class="st7" d="M495,170.4c-9.1-5.7-10.5-9.8-10.8-31.2C494,140.8,496.4,147.7,495,170.4"/>
<path class="st8" d="M303.5,77.9c7.6-5.7,17.1-1.3,29.2,13.8C323.3,96.4,316.4,90.8,303.5,77.9"/>
<path class="st9" d="M323.2,489.4c-92.5,0-168-74.8-168-166.3c0-94.6,74.6-169.8,168.1-169.6c94.1,0.2,168.1,75.2,168,170.3
	C491.2,414.9,415.5,489.4,323.2,489.4"/>
<path class="st10" d="M303.9,133.3c0.7,0.5,1.9,1,1.9,1.5c0.1,5.4-4.3,5.9-7.9,6c-3.3,0.1-8.7,3.6-9.3-3.5c-0.5-6.3-4.1-5.2-7.1-2.7
	c-2.5,2.1-3.1,1.5-3.6-1c-0.8-3.9-1.4-7.9-2-11.9c-0.2-1.3-0.1-2.7,1.4-3.1c3.5-0.9,8.3,0.3,8-6c0-0.9,2.2-0.7,2.3,0.4
	c0.8,4.4,3.5,4,6.5,2.9c3.6-1.3,4.8,0.2,5.1,3.7c0.4,4.2,1.4,8.3,2.1,12.5c-1.5,1.6-3.5,0.8-5.3,1.1c-1,0.2-2.3,0.4-2.2,1.7
	c0.2,1.6,1.6,1.6,2.9,1.6C299.7,136.6,300.9,133.1,303.9,133.3"/>
<path class="st11" d="M168,207.7c-3.2-2.7-7.2-5.3-10.1-8.8c-2-2.4,1.6-3.9,2.9-5.3c2.2-2.5,3-4.4-0.3-6.3c-1.5-0.9-1.4-2-0.3-3.1
	c1-1.1,2-0.3,2.6,0.5c3.3,4.3,5.1,0.6,6.5-1.5c2.4-3.5,4.6-4.3,7.5-0.7c0.9,1.1,2.3,1.8,3.4,2.8c2.2,2.1,7.3,3.9,0,6.6
	c-3.1,1.2-5.1,4.7-0.3,7.4c1.1,0.6,2,1.6,3,2.3c1.1,0.8,2,1.7,0.9,3.1c-1.1,1.4-2.1,0.8-3.1-0.3c-0.6-0.6-1.2-1.2-1.9-1.7
	c-5.3-4.7-6.9-4.2-8.8,2.7C169.5,207.5,169.4,207.6,168,207.7"/>
<path class="st12" d="M220.5,170.7c-4.5-8.1-8.7-15.7-13-23.1c-1.2-2-0.7-2.9,1.2-3.9c5.9-3.2,11.9-6.4,17.7-9.8
	c2.8-1.7,3.5-0.1,4.6,2c3.4,6.3,7,12.5,10.4,18.8c1.1,2,4,3.5-2.1,4C232.5,159.2,225.2,163.3,220.5,170.7"/>
<path class="st12" d="M362.3,117.9c-4.7-0.7-8.8-1.4-12.9-2.1c-1-0.2-2.3-0.1-2.2-1.6c0.1-2,1.5-1.5,2.8-1.3
	c6.3,0.9,12.6,1.9,18.8,2.8c1,0.2,2.2,0.2,2,1.7c-0.2,1.1-0.8,1.7-1.9,2.2c-3.1,1.3-8.9,1-8.7,4.7c0.2,4.6,5.9,1.9,9,3.2
	c1.2,0.5,2.7,0.6,2.3,2.4c-0.4,1.8-2,1.1-3.1,1.1c-0.8-0.1-1.7-0.3-2.5-0.6c-5.6-1.9-8.1,0.3-8.3,6c-0.1,2.8-0.1,5.8-4,6.1
	c-1.3,0.1-3.1,0.7-3.8-1.3c-0.6-2,0.8-2,2.3-2.7c3.3-1.4,2.5-4.9,2.7-7.7c0.3-3.5-3.1-1.9-4.6-2.9c-2.5-1.6-8.2,1.1-7.6-2.8
	c0.6-4.1,5.1,0.3,7.9-0.3c2.3-0.4,5.4,2.3,5.9-2.7C356.7,119.8,360.2,120.5,362.3,117.9"/>
<path class="st13" d="M371.8,511.2c-0.6,4.3-1.1,7.6-1.6,10.9c-0.2,1.5-0.1,3.2-1.8,3.7c-1.9,0.6-2.4-1.3-3.1-2.5
	c-2.1-3.3-4.1-6.6-6.5-10.6c-0.9,5.5,2.8,9.9,0.2,15.9c-3.1-7.3-3.2-14.1-5-20.5c-0.4-1.3,0.7-1.3,1.5-1.3c1.9,0,3.5-0.1,4.7,2.2
	c1.9,3.9,4.4,7.5,7,11.8c2.3-5.3,1.6-10.5,2.8-15.2c0.3-1.2,0.2-2.5,1.9-2.7c2-0.3,2.7,1,3,2.5c1,5,2,9.9,2.9,14.9
	c0.2,1.1,0.8,2.8-0.9,3.2c-1.9,0.4-1.5-1.4-1.9-2.5C373.9,518.2,374.6,514.8,371.8,511.2"/>
<path class="st14" d="M398,512c-0.2,5.3-6.1,9.2-12.2,9.8c-4.1,0.4-2.8-3.4-3.8-5.3c-1.3-2.4-2.1-5.1-2.5-7.7
	c-0.4-2.5-3.6-5.5-0.7-7.5c3-2.1,6.8-3.2,10.7-2.8c0.8,0.1,1.8,0.5,2.2,1.1C394.3,504,394,509.7,398,512"/>
<path class="st12" d="M431.5,147.7c-0.1,1.1-3.4,2-0.6,3c5.3,1.9,3.1,4.5,1.3,7.4c-1.6,2.5-3.3,4.9-4.5,7.6c-1.6,3.5-4,4.6-7.6,3.5
	c-1.1-1.6-1.3-3.4,0.7-4.2c3.1-1.3,4.1-4,5.5-6.6c0.2-0.5,0.5-1,0.8-1.4c1.4-1.8,0.9-3.3-0.9-4.5c-0.6-0.5-1.3-0.9-1.9-1.3
	c-1.6-0.9-3.2-1.7-4.6-2.7c-0.6-0.4-1.3-0.7-2-0.9c-1.5-0.2-2.1,1-2.9,1.9c-0.4,0.4-0.8,0.7-1.3,1c-2.9,1.7-3.4,5.1-5.4,7.5
	c-0.6,0.8-0.6,2.8-2.5,1.8c-1.6-0.8-1.3-1.8-0.5-3.1c2.8-4.4,5.5-8.9,8.2-13.4c2.6-4.3,4.4,0.9,6.7,0.5c1-1.3,2-2.2,3.4-0.5
	c1.4,2.8,4,2.2,6.3,2.1C430.8,145.7,432,146,431.5,147.7"/>
<path class="st15" d="M439.7,497c-2.1,2.7-3.9,1.5-5.8,0.5c-1.9-1-3.8-1.8-5.7-2.7c-2.1-1-3.8,0.4-5.2,1.4c-2.1,1.5,0.2,2.8,0.5,4.3
	c0.4,1.8,3.9,3.8,1.4,5.2c-3,1.7-3.1-2.3-4.3-4c-1.8-2.6-3.4-5.3-4.7-8.2c-0.9-2.1-4.6-4.4-1.6-6.4c4-2.6,7.9-7.2,13.5-5.2
	c3.8,1.3,4.5,4.8,2.8,8.4c-1.1,2.4,0.7,2.2,1.9,2.9C435,494.3,437.3,495.7,439.7,497"/>
<path class="st16" d="M223.3,487.4c-3.3,5.3-5.9,9.4-8.5,13.6c-0.7-0.4-1.3-0.8-2-1.2c2.6-6.4,6.3-12.3,10.4-17.8
	c1.6-2.1,3,0.7,3.1,2.8c0.3,5.1,0.6,10.1,1,16.1c3.4-3.4,4.9-7,7-10.2c0.6-0.9,1-2.8,2.7-1.6c1.5,1,0.4,2.2-0.2,3.2
	c-2.7,4.6-5.4,9.1-8,13.7c-0.5,0.9-1.2,2.1-2.3,1.8c-1.4-0.3-1.8-1.7-1.9-3C224.2,499.5,223.8,494.2,223.3,487.4"/>
<path class="st17" d="M314.1,519.8c0-2.5-0.1-5.1,0-7.6c0-1.1-0.4-2.9,1.5-2.9c1.8,0,1.6,1.7,1.5,2.9c-0.3,3.8,0.6,5.7,5.1,5.8
	c5.2,0.1,6.9-1.8,6.1-6.6c-0.2-1.3,0-2.8,1.6-2.7c0.6,0,1.6,1.5,1.6,2.4c0.2,5.7,0.1,11.4,0.1,17.2c0,1.1-0.5,2.3-1.8,2.1
	c-1.6-0.2-1.4-1.8-1.6-3c-0.5-2.6,2.1-6.7-3.7-6.8c-4.8-0.1-7.9,0.4-6.9,6.3c0.2,1.3,0.6,3.5-1.4,3.7c-2.7,0.2-1.9-2.2-1.9-3.7
	c-0.1-2.3,0-4.7,0-7C314.3,519.8,314.2,519.8,314.1,519.8"/>
<path class="st18" d="M137.9,344.6c-6.3,2.8-13.4,1.7-20,2.3c-2.7,0.3-1.7-2.8-0.1-4.1c3.9-3.3,7.9-6.4,13.3-10.8
	c-5.4,0.2-9.1,0.4-12.9,0.6c-1.2,0-2.8,0.4-2.7-1.6c0.1-1.3,1.5-1.2,2.5-1.3c5-0.4,10.1-0.9,15.2-1.3c1.2-0.1,2.7-0.4,3.4,1
	c0.9,1.8-0.6,2.6-1.7,3.6c-4,3.3-8.1,6.6-13.5,10.9c6.6-0.5,11.4-0.9,16.3-1.3C137.8,343.3,137.8,343.9,137.9,344.6"/>
<path class="st12" d="M528.6,341c-2.9-0.3-5.4-0.5-8-0.7c-9.1-0.5-11.7-4.7-8.3-13.5c1.6-4.1,7.3-5.8,9.5-2.3
	c2.7,4.3,4.2,1.5,6.5,0.4c1.4-0.7,3.3-3.3,4.7-0.7c1,1.8-1.5,2.6-2.9,3.4c-1.4,0.9-2.9,1.7-4.3,2.7c-1.9,1.4-2.5,3.6-2.1,5.6
	c0.4,2.2,2.8,1.2,4.3,1.5c1.9,0.4,5.1-0.6,4.9,2.3C532.7,342.8,529.7,339.8,528.6,341"/>
<path class="st18" d="M451.4,486.6c-6.1-0.2-11.3-5.9-11.2-12.3c0.1-5.8,4.9-10.2,10.8-9.9c5.7,0.3,11.1,6,11.1,11.9
	C462.1,482,457.1,486.8,451.4,486.6"/>
<path class="st19" d="M410.4,490.5c-2.1,3.1-5.2,3.8-8.1,5c-2.1,0.9-2.9,1.8-1.8,4.2c1.1,2.4,2.4,2.6,4.4,1.7
	c2.6-1.1,5.2-2.2,8.8-3.8c-1.2,5.2-5,4.8-7.4,6.1c-2.2,1.3-3.3,1.9-2,4.7c1.1,2.5,2.3,3.3,4.7,2c0.4-0.2,0.7-0.5,1.1-0.5
	c2.8-0.4,6.3-4.8,7.9-1.6c1.1,2.2-4.7,2.7-7.2,4.4c-5.3,3.6-8.3,1.8-9.9-3.9c-0.4-1.6-1.4-3.1-1.9-4.7c-0.9-2.9-4.7-6.6-2.6-8.4
	C400.1,492.4,405.2,490.6,410.4,490.5"/>
<path class="st12" d="M217.7,481.3c-0.1,6.3-5.6,11.8-11.7,11.7c-5.6-0.1-10.3-4.6-10.3-10c-0.1-6.1,5.7-12.1,11.6-12.1
	C213.1,470.9,217.8,475.5,217.7,481.3"/>
<path class="st15" d="M497.4,430.8c-6.8-0.1-12.2-5.2-12-11.3c0.2-6,4.8-10.1,10.9-9.9c6.4,0.2,11.7,5.3,11.6,11.1
	C507.9,426.8,503.6,430.9,497.4,430.8"/>
<path class="st20" d="M148.3,391.6c-3.3-3.1-3.3-6.5-4.4-9.3c-0.8-2-1.4-3.4-4-2.5c-2.6,0.9-2.9,2.1-2.1,4.7
	c0.8,2.5,3.1,5.1,1.1,8.5c-3-2.2-2.6-5.5-3.8-8.1c-0.8-1.8-1.3-3.4-4-2.2c-2.1,0.9-3.8,1.4-3,4.4c0.9,3.2,3.4,6.2,1.8,10.8
	c-3.4-4.6-3.9-9.4-5.6-13.8c-0.8-1.9,0.7-2.7,2.1-3.2c2.4-0.9,4.8-1.6,7.2-2.4C145.3,374.8,148.1,377,148.3,391.6"/>
<path class="st20" d="M157.3,425.6c-5-0.5-5-4.1-6.7-6.2c-1.3-1.6-1.8-3.8-4.8-2c-2.6,1.6-3.1,2.8-1.5,5.5c1.6,2.6,3.7,5.1,3.3,8.7
	c-4-3.5-6.3-8.1-8.6-12.8c-0.5-1,0.7-1.4,1.3-1.8c4.9-2.9,9.9-5.7,14.8-8.7c1.8-1.1,2.7-0.3,3.5,1.1c1.7,2.9,3.5,5.8,5.1,8.8
	c0.5,1,2,2.2,0.2,3.1c-1.5,0.8-2.1-0.9-2.7-1.9c-1.3-2-2.5-4-3.5-6c-1.2-2.4-2.5-1.4-4.1-0.5c-1.6,0.9-2.7,1.8-1.3,3.9
	C154,419.4,155.4,422.1,157.3,425.6"/>
<path class="st21" d="M199.5,462.3c2.9,4.1,1.8,8.5-2.6,8.7c-5.5,0.3-5.7,3.1-6.3,6.8c-0.2,1.3,0.4,3.6-1.7,3.4
	c-2.4-0.2-1.6-2.4-1.3-4c0.4-2.1,0.8-4.2,1-6.3c0.2-2.4-1.3-4.1-3-5.3c-2.2-1.5-2.5,1.4-3.9,2c-1.7,0.7-2.5,4.7-4.7,2.4
	c-1.9-2,1.3-3.5,2.6-4.9c3-3.3,6.2-6.3,9.2-9.6c1.7-1.9,3-2.1,4.2,0.4c0.5,0.9,0,1.7-0.5,2.4c-1.4,2.2-4.4,4.2-1,6.9
	c2.8,2.3,4.6,0.9,5.7-2.1C197.9,462.4,198.5,461.7,199.5,462.3"/>
<path class="st22" d="M518.8,281.8c2.6,3.3,1.9,6.5,2.7,9.1c0.7,2.2,1.2,3.4,3.8,2.6c2-0.7,3.7-0.7,3.3-4c-0.4-3.2-2.7-6.6-0.1-10.8
	c2.7,4.9,2.3,9.9,3.5,14.4c0.6,2.1-1.1,2.4-2.6,2.6c-5.4,0.9-10.8,1.9-16.2,2.9c-1.4,0.3-2.6,0.2-2.8-1.5c-0.5-4.5-2.3-8.9-1.5-14.4
	c3.5,2.6,2.5,6.1,3.3,8.8c0.6,1.9,0.5,4.3,3.8,3.7c3.4-0.6,3.3-2.4,2.6-5C518,287.8,517.2,285.3,518.8,281.8"/>
<path class="st23" d="M467.3,181.3c5.5,2.1,10.8,3.2,16.4,2.5c1.5-0.2,2.5,1.4,2.1,2.6c-2.1,5.2-2,10.2,0.3,15.3
	c0.4,0.9,0.2,1.8-0.8,1.9c-0.8,0.1-2.1,0-2.3-0.4c-2.1-5.2-7.6-7.1-10.6-11.4c-1.7-2.5-1.7-6.7-5.8-7.4c-0.2,0-0.4-1.5-0.3-2.3
	C466.3,181.7,467.1,181.5,467.3,181.3"/>
<path class="st14" d="M521.2,345.3c1.6,3.1,0.9,5.9,0.1,8.4c-1,3.2,0.2,4,3.1,4.6c3,0.6,3.7-0.4,4-3c0.3-3,1.1-6,1.9-9.7
	c1.9,3.7,1.1,14.7-0.7,15.9c-0.7,0.5-19.1-1.8-19.9-2.6c-1.7-1.4,0.2-11.6,2.9-15.2c1.3,3.3,0,6.3-0.5,9.4c-0.3,1.8-0.5,3.4,2.1,3.6
	c1.9,0.1,3.5,0.6,4.3-2.2C519.4,351.5,518.2,348,521.2,345.3"/>
<path class="st20" d="M115.9,300c6.7-1.1,13.3-1.2,20,0.1c0.8,0.2,1.5,0.9,1.1,1.9c-0.5,1.4-1.7,1-2.6,0.8c-5.2-1.1-6.5,1.3-6.4,6.1
	c0,3.6,1,4.8,4.5,4.9c1.4,0,3.6-0.3,4.2,2.8c-6.9,1-13.6-1-20.4-0.9c-0.3,0-1.1-0.9-1-1.2c0.4-2.1,2.2-1.7,3.5-1.4
	c6.2,1.5,7.2-1.9,6.7-6.9C125.3,303.2,125.5,303.2,115.9,300"/>
<path class="st21" d="M146,246.7c-3.9-2.5-7.2-3.7-10.8,0.9c0.5-4.9,1.8-9.4-4.5-11.4c5.7,0.4,9-1.3,9.7-6.8c1.7,4.7,4,7.9,10.5,5.8
	C147.5,239,143.2,241.3,146,246.7"/>
<path class="st24" d="M493.4,236.1c5.2,0.7,8.1-1.3,9.4-6.4c1.5,4.9,3.9,7.6,10.5,5c-3.6,4.3-7.6,6.8-5.1,12.1
	c-4.2-3.1-7.6-2.6-11.8,2.3C498.3,243.1,498.8,238.9,493.4,236.1"/>
<path class="st23" d="M139.7,287.2c0.3,2.7-0.5,5-2.6,6.8c-1.4,1.2-3.4,3-4.7,1.5c-1.8-2.1,1.2-2.3,2.3-3.3c3.2-2.9,3.5-6.2,0.8-9.5
	c-2.7-3.2-10-4-12.8-1.3c-3.1,2.9-3.3,6.2-0.4,9.5c0.9,1,3.1,1.6,1.2,3.3c-1.6,1.4-2.7-0.4-3.6-1.3c-3.1-3-3.2-9.5-0.1-12.8
	c3.8-4.1,8.6-4.1,13.5-2.4C137.7,279.1,140.1,282.2,139.7,287.2"/>
<path class="st23" d="M171.5,437.4c0.6-4.4-1.6-6.9-5.7-7.6c-4-0.7-10.6,4.5-10.5,8.5c0.1,4.3,2.5,7.1,7.3,6.7
	c1.3-0.1,2.6-0.6,2.6,1.4c-0.1,1.7-1.5,1.9-2.8,1.9c-4.6,0.1-7.4-2.5-9.3-6.4c-2.1-4.6-0.1-8.2,3.2-11.3c3.6-3.4,7.7-5.4,12.6-2.8
	c3.8,2,6.2,5.2,5.7,9.7c-0.2,1.4-0.1,4-2.4,3.7C169.9,440.7,171.3,438.8,171.5,437.4"/>
<path class="st25" d="M522,319.7c-4.5,0.2-8-1.6-9.7-5.7c-1.5-3.6-1.6-7.5,1.3-10.7c0.9-1,2.2-2.5,3.7-1c1.5,1.4-0.3,2-1.1,2.9
	c-3.4,3.4-3,6.9,0.4,9.8c3.1,2.8,10.4,2.2,12.8-1.2c2.6-3.6,2.5-7.1-1.7-9.7c-1.2-0.8-3.1-1.6-1.5-3.2c1.2-1.3,2.8,0.1,3.9,0.9
	c4.1,2.9,4.2,7.2,3.1,11.4C532.2,317.3,527.6,319.7,522,319.7"/>
<path class="st26" d="M354.1,526c0.8,2,0.3,2.4-0.3,2.5c-1.4,0.3-2.5-0.2-3-1.6c-1.2-3.5-3.2-4.8-7.2-4c-3,0.6-4.5,1.6-5,4.5
	c-0.2,1.2-0.2,2.9-2,2.6c-2.6-0.5-1-2.5-0.7-3.5c1.2-5.1,2.6-10.2,4.1-15.3c0.6-2.1,2.4-5,4.1-2.6
	C348.2,514.3,351.3,520.8,354.1,526"/>
<path class="st14" d="M121,370.3c-0.8-1.5-1.1-2.6,0-3.8c6.3-6.6,5.8-9.1-2.2-12.6c-1.1-0.5-2-1.1-1.7-2.3c0.4-1.6,1.7-0.6,2.6-0.5
	c5.8,1,11.7,2,17.5,3c1.3,0.2,2.4,0.8,2.6,2.3c0.2,1.4-0.6,2.3-1.8,3C132.3,363,126.7,366.7,121,370.3"/>
<path class="st27" d="M496.2,440.3c-1.2,4.8-3.2,8.7-8.8,9.3c-5.8,0.6-12.3-3.9-13.3-9.5c-0.9-5.2,1.1-9.1,6-11.3
	c1.9-0.8,4.7-1.9,5.4,0.8c0.6,2.3-2.3,1.4-3.7,1.9c-3.8,1.1-5.5,3.8-4.9,7.6c0.6,3.9,7,8.3,10.6,7.5c3.8-0.8,5.6-3.3,5.5-7.3
	c0-1.7-3.6-4.4,0.4-4.8C495.7,434.4,495.8,438,496.2,440.3"/>
<path class="st21" d="M302.2,508c2.8-0.3,5.2,0.7,7.1,3c0.9,1.1,2.1,2.6,0.5,3.8c-1.6,1.2-2.1-0.7-2.7-1.6c-2-3-5-3.4-7.9-2.1
	c-3.8,1.7-4.3,5.4-4.2,9.2c0.1,3.3,1.1,5.9,4.5,6.9c2.9,0.9,5.4,0.3,7.3-2.4c0.7-1.1,1.9-2.1,3.1-0.9c1.2,1.2-0.2,2.3-0.9,3.2
	c-2.9,3.7-9.4,4.5-13.2,1.5c-4.7-3.7-4.6-8.7-3.2-13.8C293.8,510,297.1,507.7,302.2,508"/>
<path class="st28" d="M262.5,505.5c-1.9,0.2-2.7-0.7-3.1-2.1c-1.2-3.3-3.8-4.6-7-3.9c-4.3,1-5.6,4.9-6.6,8.6c-0.8,3,0.4,5.5,3,7.1
	c2.6,1.6,5.2,1.6,7.5-0.7c1-1.1,2-1.7,3.1-0.2c1.1,1.5-0.3,2.2-1.3,2.9c-3.9,3-10.5,2.2-13.6-2c-3.2-4.3-2.2-8.9,0.1-13.2
	c2-3.8,5.4-6,9.9-5.4C259.4,497.4,262.5,499.9,262.5,505.5"/>
<path class="st23" d="M460.6,201.1c-1.1-0.9-2.3-1.8-3.4-2.8c-0.9-0.8-2.1-1.6-1.4-3.1c0.9-1.8,2.1-1.3,3.7-0.8
	c2.1,0.6,4.4,1.2,6.7,0.1c-0.5-2.3-2.4-3.4-3.7-5c-0.8-1-0.8-1.8,0.2-2.7c1.3-1.1,1.8,0,2.4,0.8c4.5,5.3,9,10.6,13.4,16
	c0.7,0.9,2.1,1.8,0.7,3.1c-1.9,1.7-2.4-0.4-3.3-1.3c-1.3-1.3-2.5-2.8-3.8-4.1c-2-0.9-4.3-0.9-6.4-1.6c-1.3-0.4-2.6-0.6-3.3,1
	C462.1,201.1,461.5,201.7,460.6,201.1"/>
<path class="st29" d="M502.9,404.8c3.3,1.4,6.6,2.7,9.9,4.1c0.8,0.4,1.5,1,1.2,1.9c-0.4,1.5-1.5,1.2-2.5,0.8
	c-5.1-2.1-10.1-4.2-15.1-6.3c-1.4-0.6-3-1-2.5-3c0.5-1.9,1.7-2.6,3.8-2.4c5,0.5,10.1,0.8,15.1,1.2c0.7-1,1.3-2,2.8-1.3
	c2.6,1.6,3.4,3.4-0.4,4c-2.8,0.4-5.7-0.1-8.5-0.2C505.2,403.3,503.3,401.7,502.9,404.8"/>
<path class="st30" d="M513.1,381.9c3,0.9,6.1,1.7,9.1,2.6c0.8,0.2,1.7,0.5,1.4,1.7c-0.3,1-1,1.4-1.9,1.1c-5.9-1.6-11.8-3.2-17.6-4.9
	c-1.2-0.4-1.5-1.4-1.1-2.6c0.4-1.4,1.4-2,2.8-2c5.3-0.3,10.5-0.7,15.8-1c0.8-1,1.7-1.9,3.1-1.3c2.7,2.8,1.2,3.8-1.7,3.9
	c-2.9,0.2-5.7,0.2-8.6,0.2c-0.9,0.4-1.8,0.7-2.8,0.8C511.7,381.4,512.7,381.2,513.1,381.9"/>
<path class="st20" d="M268.5,507.5c0.9,3.6,4.4,4.2,7,5.9c3,2,5.5,4.3,3.7,8.3c-1.7,3.7-4.9,4.1-8.5,3.4c-4.1-0.7-7.2-2.4-7.7-7
	c-0.1-0.7,0.4-1.9,0.8-2.1c1.2-0.4,1.8,0.3,2,1.6c0.3,2.1,1.6,3.5,3.5,4.2c2.3,0.8,5.3,1.8,6.8-1c1.6-2.9-1.4-3.8-3.2-5.2
	c-3.3-2.5-9.6-3.3-5.9-10C268.3,505.6,269.3,505.8,268.5,507.5"/>
<path class="st31" d="M459.6,456.2c-1.9,2.5,0.2,3.8,1.7,5.1c2.1,1.8,2.8-0.7,4-1.5c1.7-1.2,2.5-3.4,4.8-3.7
	c1.1,0.9,1.1,1.8,0.2,2.6c-4,3.6-6.5,7.2-0.3,11.1c0.9,0.6,1.5,1.7,0.6,2.7c-1.2,1.5-2.2,0.5-3.1-0.4c-3.9-3.8-7.9-7.6-11.7-11.5
	c-3.4-3.4,0.4-4.4,2.1-6.1C459.4,454.2,460,454.8,459.6,456.2"/>
<path class="st32" d="M168.9,460.8c-0.7-0.4-1.3-0.6-1.6-1c-1-1.2,0.1-1.9,0.8-2.5c3-2.6,6-5.3,9.1-7.8c2.3-1.9,4.2-3.6,0.9-6.3
	c-0.8-0.7-2.2-1.8-0.7-3.1c1.5-1.2,2.2,0.5,2.9,1.3c2.5,2.8,5,5.7,7.4,8.6c0.7,0.9,2.1,1.9,0.7,3.1c-1.1,1-2-0.1-2.5-0.9
	c-2.7-4.4-5-1.8-7.4,0.3C175.3,455.2,172.2,457.9,168.9,460.8"/>
<path class="st32" d="M515.6,399.8c-0.9,0.4-1.9,0.9-2.8,1.3c-2.2-3.7-6-5.8-8.8-8.8c-1.6-1.7-5.2-2.8-3.2-5.9
	c1.8-2.8,4.1-0.1,6.1,0.6c4.1,1.5,8.2,3.4,12.2,5.1c1.3,0.5,2.3,1.4,1.5,2.8c-0.8,1.4-1.8,0.2-2.7-0.1c-3.5-1.3-6.9-2.7-11.8-4.7
	C510,394.2,512.8,397,515.6,399.8"/>
<path class="st33" d="M422.6,143.9c-0.8-1.6-1.8-0.3-2.7-0.2c2.1-3.6-0.9-4.5-3.1-5.8c-1.3-0.7-3-1.5-1.7-3.3c1-1.5,2.1,0.2,3.2,0.5
	c3.5,1.1,5.7,6.5,10.6,3c0.2-0.1,1.1,0.3,1.1,0.4c0.3,6.1,5.8,6.7,9.4,9.2c0.9,0.6,1.7,1.4,0.9,2.6c-0.8,1.3-1.7,0.5-2.6,0
	c-2-1.1-3.6-3-6.2-2.8c-0.5-1.1-1.4-1.3-2.5-1.4C426.9,145.3,424.7,144.7,422.6,143.9"/>
<path class="st28" d="M137.4,414.4c-3.2-3.3-4.1-7.3-5.8-10.8c-0.8-1.5,0.1-2.2,1.5-2.8c5-2.2,10-4.6,15-6.9
	c1.1-0.5,2.4-1.4,3.1,0.5c0.5,1.4-0.8,1.9-1.7,2.3c-3,1.5-6,3.3-9.2,4.2c-4.8,1.5-5.9,3.8-3.1,8.1
	C137.9,410.4,139.2,411.9,137.4,414.4"/>
<path class="st28" d="M512.6,369.4c-1.6-1-3.3-1.9-4.7-3.1c-0.9-0.7-0.7-1.9-0.3-2.9c0.5-1.3,1.4-1.2,2.5-0.9c5.5,1.5,11,3,16.5,4.5
	c1,0.3,2.1,0.9,1.7,2.2c-0.6,2-2,0.7-3.1,0.5c-3.5-0.9-6.9-1.9-10.4-2.8c-0.2,0-0.5,0-0.6,0.1c-0.1,0.3-0.1,0.7-0.1,1
	C514.2,369.2,514,370,512.6,369.4"/>
<path class="st34" d="M125.9,324.7c-2.7,0-5.5,0-8.2,0c-0.9,0-2.2,0.3-2.5-1.2c-0.2-1.5,0.9-1.8,1.9-1.8c5.7-0.3,11.3-0.5,17-0.6
	c1.1,0,2.3,0.2,2.4,1.5c0.2,1.8-1.2,2-2.5,2c-2.7,0.1-5.5,0-8.2,0C125.9,324.6,125.9,324.7,125.9,324.7"/>
<path class="st35" d="M303.9,133.3c-2.1,2.2-3.7,5-7.3,5c-1.6,0-3.6,1.1-4.6-1c-0.6-1.3-1.1-3.1-0.6-4.2c0.8-2,3.3-1.8,5-1.8
	c1.6,0,3.1,1.2,4.9,0.8C302.4,132.2,303.4,132.4,303.9,133.3"/>
<path class="st36" d="M244,494.9c-2.4,4.9-5.2,10.5-8,16.1c-0.4,0.9-1.4,1-2.1,0.4c-0.7-0.5-0.9-1.3-0.4-2.2
	c2.7-5.4,5.4-10.9,8-16.4c0.4-0.9,1.2-1.3,2-0.9C244.2,492.3,244.5,493.1,244,494.9"/>
<path class="st37" d="M413.4,150.4c0.1-0.6,0.1-1.1,0.2-1.7c1.6-1.2,3.6-1.3,5.2-2.5l1.1,1c1.3,2.4,0.2,5.3,1.7,7.6
	c-0.2,0.8-0.7,1.5-1.4,1.9c-2.3,0.3-1.6,1.7-1.1,3c-0.2,0.9-0.9,1.3-1.6,1.6c-3.7-1.4-7.3-2.8-3.4-7.6
	C415.1,152.5,413.6,151.6,413.4,150.4"/>
<path class="st38" d="M268.5,507.5c-0.5-0.6-1-1.3-1.5-1.9c4.6-4.2,12.1-3.2,13.9,1.8c0.4,1.1,0.9,2.6-0.5,3.3
	c-1.2,0.5-1.6-0.6-2.1-1.6C275.7,504.9,272.4,504.2,268.5,507.5"/>
<path class="st39" d="M427.6,157.6c-1.4,3.5-1.2,8.4-7.1,8.3c-1.1,0-0.7,2.1-0.4,3.3c-2.5-1.6-1-4.2-1.4-6.2c1.6-1.8,2.7-4,4.8-5.4
	C424.8,157.3,426.2,157.3,427.6,157.6"/>
<path class="st40" d="M470.9,202.1c1.3,2,0.2,4,0.1,5.9c-0.1,1.6,1.1,4.3-1.3,4.6c-3.8,0.5-1.7-3.3-2.8-4.9
	c-0.5-1.2-0.4-2.4-0.2-3.6C467.6,202.3,467.9,199.3,470.9,202.1"/>
<path class="st41" d="M470.9,202.1c-2.4-0.7-2.8,0.7-2.6,2.6c-3.8,0.2-5.3-1.9-5.6-5.4c0.7-1.6,1.9-1.7,3.3-1
	c2.4,0.2,5.2-0.6,6.2,2.7L470.9,202.1z"/>
<path class="st17" d="M512.6,369.4c0.5-0.4,1-0.9,1.6-1.3c3.5,2.5,7,4.9,10.4,7.4c-1,0.4-2.1,0.8-3.1,1.3
	C519.3,373.4,515,372.6,512.6,369.4"/>
<path class="st42" d="M423.8,157.8c-1.6,1.8-1.5,5.4-5.2,5.1c-0.4-0.5-0.8-1-1.2-1.5c0.5-0.5,1.1-1,1.7-1.5c0-1.3-0.5-2.7,0.9-3.6
	c0.5-0.4,0.9-0.8,1.4-1.2c0.5-0.3,1-0.4,1.6-0.1C423.8,155.7,424.6,156.5,423.8,157.8"/>
<path class="st43" d="M459.6,456.2c-0.5-0.6-1.1-1.1-1.6-1.7c2.2-2.1,4.6-7.2,6.8-5.1C466.7,451.4,461.5,453.9,459.6,456.2"/>
<path class="st44" d="M199.5,462.3c-0.5,0.6-1,1.1-1.5,1.7c-3.7-0.6-5.8-2.9-6.6-6.5c0.6-0.5,1.1-1,1.7-1.5
	C195.6,457.6,198,459.5,199.5,462.3"/>
<path class="st45" d="M463.1,199.9c1.6,1.8,2.8,3.9,5.2,4.8c-0.5,1-0.9,2-1.4,3.1c-2.1-2.2-4.2-4.5-6.3-6.7c0.5-0.5,0.9-1,1.4-1.5
	C462.5,199.2,462.9,199.3,463.1,199.9"/>
<path class="st46" d="M513.1,381.9c-1.9,0.4-3-0.7-5.2-2.2h6.4C513.9,380.4,513.5,381.1,513.1,381.9"/>
<path class="st47" d="M502.9,404.8c-1.3-0.1-2.3-0.6-2.8-2.1c2.3-0.3,4.5-0.4,6.5,0.8C505.4,404.1,503.8,403.3,502.9,404.8"/>
<path class="st48" d="M323.4,483c-90.5,0-161.8-72.2-161.8-163.6c0-87.1,73.4-159.5,161.7-159.4c90.1,0.1,161.6,72.7,161.5,164.1
	C484.7,411,411.5,483,323.4,483"/>
<path class="st49" d="M293.9,125c2-0.5,3.4,0.1,3.3,1.9c-0.1,2.6-2.7,2-4.3,2.5c-1.3,0.4-2.6-0.1-2.7-1.7
	C290,124.8,292.6,125.6,293.9,125"/>
<path class="st50" d="M291.9,123.1c-1.8,0.3-2.8-0.7-2.7-2c0.4-2.8,3.1-2,4.9-2.5c1.5-0.4,2.4,0.8,2.1,2.2
	C295.7,123.2,293.2,122.4,291.9,123.1"/>
<path class="st51" d="M287.4,128.6c-1,2.8-3.1,2.2-4.9,2.4c-1.5,0.1-2.6-1-2.2-2.4c0.6-2.5,3.2-1.6,4.8-2.1
	C286.7,126,287.1,127.6,287.4,128.6"/>
<path class="st52" d="M282.7,124.4c-1.9,0.3-3.1,0-3.1-1.7c0-2.7,2.3-1.8,3.7-2.1c1.3-0.3,2.8-0.2,2.7,1.6
	C285.8,124.6,283.7,124.1,282.7,124.4"/>
<path class="st53" d="M166.1,191.9c2.1,2,5.2,2.9,4.9,5.2c-0.3,2-2.1,5.1-4.8,4.5c-1.7-0.4-4.8-1.9-4.2-4.5
	C162.4,195.2,164.6,193.7,166.1,191.9"/>
<path class="st54" d="M173.6,193.6c-2-1.2-4.8-2.3-4.6-4.6c0.2-1.9,1.9-4.8,4.5-4.4c1.8,0.3,4.3,1.9,4.3,4.1
	C177.8,190.9,175.8,192.5,173.6,193.6"/>
<path class="st55" d="M236.4,152.6c0,0.3,0,0.7,0,1c-2.4,3.4-6.6,3.9-9.8,6.1c-1.8,1.1-3.6,2.4-5.8,2.4c-1.4-0.5-1.7-1.5-1.6-2.9
	c1.4-2.1,4.4-4.1-0.5-5.8c-3.7-1.3,1.5-4.6-1.2-6.4c-0.5-0.8-0.8-1.6-0.5-2.5c2.2-2.5,5-4.2,8-5.4c3,0.1,4,1.6,2,3.8
	c-3.1,3.6,1.7,1.8,1.9,3c0.7,1.1,0.5,2.2-0.1,3.2c-0.7,1.2-2.2,2.6,0.8,2.7C232,151.5,234.3,151.1,236.4,152.6"/>
<path class="st56" d="M228.8,146.2c-0.8,0.2-1.7,0.2-2.4,0.5c-1.3,0.6-2.8,1.7-3.7-0.3c-0.9-1.9,1.1-2.3,2.1-3.2
	c1-0.9,6.4-1.7,0.3-3.2c-1.4,0.4-1.8-0.2-1.5-1.5c2.2-2,4.4-2.4,5.8,0.7c1.9,4.1,5.2,7.6,6,12.2
	C230.2,153.6,229.6,149.7,228.8,146.2"/>
<path class="st57" d="M219,146.4c3.8,2.8,0.4,4.2-1.6,5.5c2.2,1.7,5.8-1,6.5,2.9c0.6,3-1.9,3.4-3.9,4.2c-0.9,0.7-1.7,0.6-2.5-0.2
	c-1.3-2.5-2.7-5.1-4-7.6c-0.9-1.9,1-2.3,1.8-3.2C216.4,147.1,217.7,146.7,219,146.4"/>
<path class="st58" d="M226.2,159c3-2.6,6.7-3.9,10.2-5.4c2.8,2.6-0.6,2.6-1.5,3.2c-2.3,1.4-4.9,2.5-7.3,3.7
	C226.8,160.3,226.3,159.8,226.2,159"/>
<path class="st59" d="M223.6,138.5c0.5,0.5,1,1,1.5,1.5c-2.6,1.7-5.2,3.5-7.7,5.2c-0.4,0.4-1,0.5-1.6,0.5c-0.8-0.4-1.5-0.8-1-1.9
	C217.8,142.2,220.1,139.3,223.6,138.5"/>
<path class="st60" d="M228.8,146.2c1.4,2.8,2.4,6.2,6.7,5.3c0.3,0.4,0.6,0.8,0.9,1.2c-2.7,0.4-5.4,0.7-8.1,1.1
	c-1.1-1.4-2.2-2.8-1.1-4.8C228.4,148.4,228.7,147.3,228.8,146.2"/>
<path class="st61" d="M214.8,143.7l1.5,1.3c0.4,1.3-0.7,2.5-0.2,3.8c-0.8,0.8-1.7,1.6-2.5,2.4C211,148.3,208.9,145.3,214.8,143.7"/>
<path class="st62" d="M226.2,159c0.5,0.5,0.9,1,1.4,1.5c-2.3,1.3-4,4.7-7.5,2.3c0.1-0.5,0.5-0.9,1-0.9
	C222.8,160.9,224.5,159.9,226.2,159"/>
<path class="st63" d="M221.1,161.8c-0.4,0.3-0.7,0.6-1,0.9c-1.4-0.9-1.9-2.4-2.5-3.8c0.8,0,1.6,0.1,2.5,0.2
	C219.8,160.2,219.7,161.4,221.1,161.8"/>
<path class="st64" d="M394.6,513.5c-0.8,4-4.5,4.1-7.3,4.6c-2.7,0.5-3.1-2.8-2.9-4.5c0.3-4,4.3-3.2,6.8-3.8
	C393.2,509.4,394.6,511.2,394.6,513.5"/>
<path class="st65" d="M386.3,501.6c2.8-0.4,4.6,0.2,4.4,2.8c-0.3,3.7-3.8,3.5-6.2,4.2c-2.4,0.6-2.5-1.7-2.7-3.2
	C381.2,501.2,385.1,502.8,386.3,501.6"/>
<path class="st66" d="M422.5,155.5c-0.3-0.3-0.7-0.4-1.1-0.4c-5.2-1.8-1.6-5.1-1.5-7.9c1.7,0.9,3.4,1.9,5.1,2.8
	C425.3,152.4,425.7,154.8,422.5,155.5"/>
<path class="st67" d="M422.5,155.5c0.8-1.8,1.7-3.6,2.5-5.5c0.4,0.4,0.8,0.7,1.3,1.1c1,2.1,3.1,4,1.3,6.7l0-0.2
	c-1.2,1.4-2.5,0.3-3.8,0.2C423.4,157.1,422.9,156.3,422.5,155.5"/>
<path class="st68" d="M422.6,143.9c3.5-2.8,4.8,0.1,6.4,2.4C425.9,148,423.3,148.5,422.6,143.9"/>
<path class="st69" d="M427.5,157.8c-0.4-2.2-0.8-4.4-1.3-6.7C429.4,152.8,432.8,154.5,427.5,157.8"/>
<path class="st70" d="M418.8,146.2c-0.1,4.3-3.2,2.2-5.2,2.5C414.4,146,415.8,144.5,418.8,146.2"/>
<path class="st65" d="M428.7,487.6c-1.4,3.8-4.7,5.3-7.7,6.1c-2.3,0.6-3.8-3-3.4-4.3c1-3.5,4.7-4.4,7.9-5
	C427.2,484.1,428.3,485.9,428.7,487.6"/>
<path class="st54" d="M514.3,332.5c0.2-2.6-0.4-6.2,3.5-6.3c3.8-0.1,3.9,3.3,3.7,6.1c-0.1,2.3,0.5,5.1-3.6,5.2
	C513.8,337.4,514.1,335.1,514.3,332.5"/>
<path class="st71" d="M459.2,477.2c-0.9,3.8-3.1,6.6-7.7,6.5c-3.9-0.1-8.9-5.6-8.6-9.6c0.3-4.2,2.9-6.6,6.9-6.9
	C454.1,467,459.3,472.5,459.2,477.2"/>
<path class="st72" d="M214.8,480.6c-0.4,5.4-5,10-9.2,9.7c-4.5-0.4-6.9-3.1-6.8-7.6c0.1-4.3,5.2-9.2,9.2-8.9
	C212.5,474.2,214.6,476.9,214.8,480.6"/>
<path class="st73" d="M494.6,412.6c5.7,0.1,10.8,4.4,10.5,8.4c-0.3,4.3-2.7,7-7.3,7.1c-4.6,0.1-9.5-4.3-9.4-8.4
	C488.6,415.1,491.1,412.7,494.6,412.6"/>
<path class="st65" d="M191.4,457.4c2.2,2.2,4.4,4.3,6.6,6.5c0.2,2.3-0.3,4.5-3,4.6c-3.3,0.1-5-2.7-7.1-4.8c-2-2,0.6-2.8,1.4-4
	C189.9,458.9,190.7,458.2,191.4,457.4"/>
<path class="st41" d="M480.9,196.8c-3.1-3.7-5.4-6.4-8.2-9.7h9.4C481.7,190.2,481.4,192.8,480.9,196.8"/>
<path class="st66" d="M342.6,512.5c1.9,2.3,4.6,4.2,3.5,7.3c-0.2,0.7-3.2,1.3-4,0.7C338.9,518,343.1,515.4,342.6,512.5"/>
<path class="st74" d="M135.3,357.1c-2.6,1.1-3.8,5.1-7.2,3.4c-0.8-0.4-1.4-3.3-0.9-4C129.7,353.6,132.4,357.3,135.3,357.1"/>
<path class="st75" d="M463.1,199.9c-0.4-0.1-0.7-0.2-1.1-0.3c-0.1-0.7-1.1-1.7-0.2-2.1c1.4-0.7,2.9-0.1,4.1,0.8
	C465,198.7,463.6,198.6,463.1,199.9"/>
<path class="st49" d="M420,156.3c0.6,1.4,0,2.6-0.9,3.6c-1-1.2-4.1-1-3.1-3.5C416.9,153.9,418.6,156.1,420,156.3"/>
<path class="st76" d="M323.2,478c-87.9,0-156.7-69.8-156.6-158.8c0.1-84.5,71.3-154.6,156.8-154.3c87.2,0.3,156.5,70.3,156.4,158
	C479.7,408.4,409.4,478,323.2,478"/>
<path class="st60" d="M216.1,148.9c-5.2-1.6-0.1-2.6,0.2-3.8c0.4,0,0.7,0,1.1,0.1c0.6,0.4,1.1,0.9,1.7,1.3
	C218.1,147.3,217.1,148.1,216.1,148.9"/>
<path class="st77" d="M227.2,148.9c0.4,1.6,0.8,3.2,1.1,4.8C225,152.8,223.9,151.4,227.2,148.9"/>
<path class="st9" d="M321.9,298.5c0.4-0.1,0.8-0.1,1.2-0.2c2.4,2.2,1.7,5.1,1.8,7.8c0.3,9.5-0.5,19.1,0.5,28.6
	c0.3,1.2,0.4,2.5,0.8,3.7c1.8,6.5,5.5,8.5,11.4,5.1c15.6-9.2,26.7-21.8,29.9-40.4c1.5-9,0.1-18.2,2.2-27.1c2-1.5,3-6.2,6.7-2
	c-0.5,33.7,0,67.4-0.4,101.2c-0.1,6.2,2,12.1,1,18.3c-2.8,2.7-6,3.8-9.9,4.6c-6.5,1.3-13.4,3-19,6.5c-3.8,2.4-5.2,4.4-8-0.5
	c-0.9-1.5-3.5-0.4-5.4-0.4c-2.8,0.1-5.7-0.2-6.6-3.6c-0.9-3.5-5-4.3-6.3-3.8c-4.8,1.9-9.8,2.1-14.7,2.7c-0.4,0-0.9,0.2-1.2,0.5
	c-4.6,4.5-5.5,4.6-10.8,1.3c-3-6.7-2.2-11.1,3.3-15.7c5.7-4.8,11.9-8.9,17.5-13.6c1.8-1.5,3.7-3,3.9-5.5c0.2-2.9,1.7-6.6-0.7-8.4
	c-2.1-1.5-4.2,1.9-6.3,3.2c-4.3,2.8-8.2,6-12.4,8.8c-4.3,2.8-6.6,2-6.8-2.9c-0.5-12.1-0.4-24.1,0-36.2c0.1-3.4,2.2-5.9,4.8-7.9
	c3.5-2.8,6.9-5.7,10.4-8.3C314.4,309.9,319.8,305.6,321.9,298.5"/>
<path class="st78" d="M236.9,259.9c5.8-5.5,11.3-11.4,18.5-15.1c8.8-4.6,13.2-2.4,15.5,7.2c2,8.1,0.8,16.4,1.3,24.5
	c0.1,2.6-1.9,3.6-3.1,5.2c-2.7,6-8.4,8.9-13.4,12.1c-3.9,2.6-5.3-0.8-5.6-4c-0.6-6.3-0.1-12.7-0.3-20.2c-3.8,5-3.9,9.8-3.9,14.5
	c-0.1,28.6,0.1,57.2-0.1,85.8c0.3,2.1-1.1,6,1.3,5.9c3.9-0.1,2.6-4.3,2.8-7c-0.2-7.6,0.1-15.3-0.1-22.9c-0.1-5.5,1.8-9.9,6.2-13.1
	c3.9-2.9,7.4-6.4,11.7-8.7c3.1-1.7,5.7-1,5.8,2.8c0.4,13.5,1.5,27.1-4,40c-4.6,14-13.4,24.8-25.4,33.2c-4,2.8-8.5,6.6-13.8,3.8
	c-4.9-2.6-5.2-8-5.4-12.8c-0.4-8-0.4-16.1-0.6-24.1c-1.1-3.2-1.5-6.6-1.5-10c0.1-21,0-42,0-63c0-8,1.6-15.6,5.4-22.6
	C231.5,267.7,232.3,262.4,236.9,259.9"/>
<path class="st79" d="M321.9,298.5c0.8,5.8-1.7,9.9-6.6,12.5c-17.3,9.3-23.8,23.5-20.5,42.8c0.9,5.3,0.1,10.8,0.1,17.6
	c9.3-6.7,17.4-12.5,25.6-18.4c3.1,10.8,1.7,15.5-6.3,21.8c-3.8,3-7.4,6.4-11.6,8.8c-7,4-8.9,9.7-7.5,17c-0.1,10.2-0.2,20.4-0.2,30.6
	c0,1.3-0.7,3.1,1,4c1.6,0.8,2.8-0.6,3.9-1.5c7.1-5.3,14.1-10.7,21.6-16.4c1.6,10.1,1.5,18.2-8.1,24.1c-7.7,4.7-14.3,11.3-21.4,17
	c-7.6,6.1-14.1,4.1-16.7-5.3c-1.4-5.3-1.8-10.8-1.8-16.4c0-23.8-0.1-47.6-0.2-71.3c-2-2.4-0.9-5.3-1-8
	c-1.2-25.8,10.3-44.8,31.7-58.3c1.6-1,3.3-1.9,5.2-2.2c3.8-2.6,7.6-5.1,12.2-8.2C321.5,292.4,321.7,295.4,321.9,298.5"/>
<path class="st80" d="M377,393.3c-2.4-5.3-3.2-10.9-3.1-16.6c0.1-30,0-60,0.1-90c0-4.8,0.9-9.6,1.3-14.5c-0.8-2.6,0.6-4.8,1.2-7.1
	c1.8-5.4,4.7-10.1,9.1-13.7l0,0c4-7.8,10.9-12.7,18.1-17c4.1-2.5,8.3-1.5,12.5,0.1c2.1,1.6,2.3,4.3,3.6,6.3
	c4.7,8.5,3.4,17.6,2.9,26.6c-0.1,2.4-1.6,4.4-3.3,6c-4,3.8-8.3,7.3-12.9,10.3c-4.8,3.1-6.8,2-7.2-3.8c-0.4-5.8,0.2-11.7-0.5-18.8
	c-3.3,4.5-3.6,8.5-3.6,12.4c-0.1,11.2,0,22.5-0.1,33.7c0.6,4.6-1.5,8.9-1.1,13.5c0.9,3,1.3,6,1.2,9.1c0.1,4.6,0,9.1,0,13.7
	c-0.3,3-0.1,5.9-0.1,8.9c0,5.7-0.3,11.3,0.8,16.9c-3.3,10-6.8,19.9-17.8,24.2C377.6,393.5,377.3,393.4,377,393.3"/>
<path class="st81" d="M324.3,336.2c-2.2-9-0.5-18.1-1-27.2c-0.2-3.6-0.2-7.2-0.3-10.8c0.1-19.7,0.3-39.5,0.3-59.2
	c0-22.3,10-38.9,28.5-50.7c10.2-6.5,15.7-4.2,18,7.6c1.5,7.8,0.5,15.7,0.7,23.5c0,1.4-0.6,2.4-1.7,3.2c-5.9,4.7-11.8,9.4-18.6,14.7
	v-28.6c-7.1,2.4-6.8,7.9-7.3,13.1c-0.3,24.5,0.2,48.9-0.3,73.4c-1.7,2-4.1,1.9-6.4,2.1c-9.7,0.9-10,1.2-10,11.1
	c0,6.7,0.1,13.4,0,20.2C326.2,331.2,326.5,334,324.3,336.2"/>
<path class="st9" d="M230.3,269.9c-4.8,11.1-5.8,22.8-5.6,34.7c0.2,20.8-0.1,41.5-0.2,62.3c-6.8-5.8-15.9-6.5-23.5-10.5
	c-3.1-1.7-3.4-5.9-0.5-7.9c0.9-0.6,2.1-1.7,1.2-2.4c-4.8-3.9,0.4-5.4,1.7-7.9c0.8-1.5,3.4-2.6,1.6-4.8c-1.7-2-4-3.5-6.7-1.8
	c-5.8,3.5-9.6,1-12.8-3.8c-0.5-0.8-1.5-1.6-2.5-1.8c-2.4-0.6-4.3-1-1.9-4.1c0.5-0.7,0.1-4.4-2-4.6c-4.3-0.5-4.1-2.5-3.1-5.6
	c1.3-4,4.1-5.5,8-5.5c8.2-0.1,14.3-5.6,21.1-9c1.6-0.8,3.4-5.9,1.7-9.3c-2.5-5.4-1.6-8.3,4.9-7.9c1.5,0.1,2.5-0.1,3.2-2.1
	c3.4-10.1,3.6-10,13.6-8.1C229.2,269.2,229.7,269.3,230.3,269.9"/>
<path class="st9" d="M309.1,296.9c-4.7,3.7-9.4,7.3-14,11c-14.3,11.5-21.3,26.6-21.7,44.8c-0.1,4.2-0.2,8.5-0.2,12.7
	c-1.2,0.5-2.3,1-3.5,1.4c1.8-14.2,3.2-28.5,2.2-44c-6.6,5.3-12.8,10.1-18.9,15c-1.7,1.4-1,3.6-1,5.4c-0.1,9.1-0.2,18.2-0.2,27.2
	c-1.6,1.7-2.1,4.7-5.2,4.4c-1.9-0.2-1.7-2-1.9-3.3c-0.1-31.1-0.2-62.2-0.2-93.3c0-4.6,0.8-9.3,6.7-11.9v28.9
	c6.7-5.1,12.3-9.4,17.9-13.6c4.6,2,8.7,4.5,11.3,9.2c1.5,2.8,4.5,3.2,7.7,2.8C295.3,292.7,302.7,291.6,309.1,296.9"/>
<path class="st9" d="M393.6,306.4c-0.1-12.5-0.2-25-0.2-37.5c0-1.3,0.3-2.5,0.5-3.8c0.7-3.2,2-7.3,5.3-6.8c2.8,0.4,1.1,4.7,1.2,7.2
	c0.2,6.3,0.1,12.7,0.1,20.6c7.2-5.7,13.5-10.7,19.8-15.8c1.3-1.1,0.8-2.8,0.8-4.2c0-8.5,0.5-17-1.5-25.3c0.3,0.2,0.9,0.4,1,0.7
	c2.6,7.7,6.1,14.5,15.5,15.5c1.6,0.2,3.3,1.3,3.6,3.2c1.3,7,5.4,5.3,9.9,3.5c2.6-1,5.6-4.1,7.9-1.9c2.5,2.4-0.5,5.2-1.9,7.8
	c-1.2,2.2-1.5,4.9-2.7,7.1c-1.3,2.5-2.4,5.5-6.6,3.8c-2.2-0.9-5,1.3-4.4,3.1c3.2,8.4-3.8,10.7-8.3,13.2c-12.4,6.8-25.3,12.7-37.9,19
	c-0.4-0.4-0.7-0.9-0.7-1.5c-0.3-1.9,0.2-3.7,1.1-5.4c0.8-1.5-0.2-1.7-1.4-1.6C394.1,307.3,393.7,307,393.6,306.4"/>
<path class="st82" d="M324.3,336.2c0-11,0.3-22-0.1-33.1c-0.2-4.9,1.6-7.1,6.1-7.4c4-0.3,8-0.3,12-0.4c2.5,3.1,1.5,6.9,1.6,10.3
	c0.2,4.1-0.1,8.3,1.7,12.4c2.8-1.6,3.3-3.9,3.4-6.1c0.4-9.2,0-18.5,1.4-27.7c0.1-0.8,0.3,0.1-0.1-0.6c-0.6-1.4,0,0.3-0.2,0.1
	c-0.1-3,2-4.4,4-6c5.2-4,10.3-8.1,15.5-12.2c0.7,0.3,1.1,0.7,1.4,1.3c1,3,0.8,6-0.5,8.9c-0.4,10.7-0.2,21.6-2.8,32.1
	c-4.2,17.3-15.5,29.2-30.7,37.4C329.6,349.5,325.4,346.1,324.3,336.2"/>
<path class="st83" d="M377.9,393.5c8.1-5.9,12.9-14.2,16.6-23.2c1.4-1.3,2.5-3,3.7-4.5c1.7-9.8,0.2-19.8,0.7-29.6
	c0.2-3.6,0.1-7.4,4.4-8.9c5.7-4.2,11.3-8.5,17.6-13.2c0.7,27.7,1.4,54.5-22.8,73.6c-1.9,2.9-3.8,5.8-7.9,5.7
	C386.2,394.1,382.1,398.3,377.9,393.5"/>
<path class="st84" d="M350.3,283.8c0.1,9.9,0.2,19.9,0.3,29.8c0,1.4-0.3,3-1,4.3c-0.8,1.7-2.2,3.6-4.2,3.5c-2.7-0.1-2.1-2.8-2.2-4.5
	c-0.4-7.2-0.5-14.4-0.8-21.6c0.1-22,0.2-44.1,0.4-66.1c0-2.5,0.1-5,0.2-7.5c0.1,21.8,0.1,43.5,0.3,65.3c0,2.2-1.4,6.4,1.4,6.4
	c3,0,6-2.9,5.6-7.2C350.1,285.4,350.2,284.6,350.3,283.8"/>
<path class="st85" d="M403.4,327.2c-2,1.8-2.4,4.1-2.4,6.7c0.1,8.8,0,17.7,0.1,26.5c0,3,0.1,5.9-2.6,8c-3.9-1.8-1-7-4.4-9
	c1.2-1.7,3.2-3.1,1.3-5.5c1.3-1.7,0.9-3.2-0.7-4.4c-1.3-1.4-0.3-3.3-1-4.9c0-5.1,0-10.3,0-15.4c1.4-4.4,4.4-5.1,8.4-3.5
	C402.5,326.2,402.9,326.7,403.4,327.2"/>
<path class="st7" d="M416.1,234.5c-5.6-2.2-10.3,0.2-14.8,3.1c-5.9,3.9-10.7,8.8-15.7,13.7c1.9-3.9,2.5-8.5,6.5-11.1
	c0.9-0.6,1.6-2,0.7-2.7c-5.8-3.9,0.2-5,1.8-5.5C401.9,229.4,409.3,229.7,416.1,234.5"/>
<path class="st7" d="M370,265.8l-0.2-0.1c-2-3.6,0-7,0.8-10.3c0.6-2.5,2.5-4.5,5.7-2.7c3.5,2,6.4,0.5,9.4-1.2
	c-2.7,4.9-5.4,9.8-8.2,14.7C374.8,267.9,372.4,268.1,370,265.8"/>
<path class="st86" d="M348,412.1c-1.5,2.9-2.3,6.6-6.5,7c-2.3,0.2-4.5-1-4.2-3.6c0.5-4.3,4.4-4.7,7.5-5.6
	C346.1,409.5,347.8,410.1,348,412.1"/>
<path class="st87" d="M390.3,393.4c2.7-1.9,5.3-3.8,8-5.7c-0.4,4.5-1.9,8.6-4.3,12.6C390.1,399.4,390.7,396.1,390.3,393.4"/>
<path class="st88" d="M402,325.7c-3.1,0.6-6.2,0.8-8.4,3.5c0-2.8,0-5.6,0-8.4c0.2-0.6,0.5-0.7,0.9-0.1c1.3,1.6,2.9,2.1,4.9,1.8
	C401.7,322.3,402.3,323.7,402,325.7"/>
<path class="st89" d="M230.3,269.9c-0.6-0.1-1.2-0.2-1.8-0.3c0.6-0.8,1.7-1.7,1.6-2.5c-0.6-5.2,2.4-6.8,6.8-7.3
	C234.7,263.2,232.5,266.6,230.3,269.9"/>
<path class="st90" d="M394.5,320.7c-0.3,0-0.6,0.1-0.9,0.1c0-4.8,0-9.6,0-14.5c0.2,0,0.5,0,0.7,0c2.7,2.3-0.4,5.7,1.5,8.2
	c-0.1,0.4-0.1,0.7-0.1,1.1C394,317,394.7,319,394.5,320.7"/>
<path class="st91" d="M370,265.8c2.5,0.1,4.9,0.2,7.4,0.3c-0.7,2-1.4,4.1-2.1,6.1c-1.5,1.2-3,2.5-4.5,3.7
	C370.4,272.5,370.2,269.1,370,265.8"/>
<path class="st92" d="M244.5,371.5c0.9,1.4,1.4,4.4,3.8,1.2c0.9-1.1,1.7-2.3,3.4-2.3c0.1,0.4,0.2,0.8,0.2,1.2
	c-0.1,3.5-1.7,7.3-4.9,7.1C243.5,378.5,244.5,374.3,244.5,371.5"/>
<path class="st93" d="M394.5,359.2c5.3,1.4,2.5,6.2,3.9,9.3c-0.9,1.5-2.2,2-3.9,1.8c-1.9-5.7-1.3-11.6-1-17.5
	c0.6-0.3,1.1-0.1,1.4,0.5c0.1,0.6,0.2,1.2,0.4,1.7C395.9,356.5,395.6,357.9,394.5,359.2"/>
<path class="st94" d="M394.4,352.7H394l-0.4,0c0-2.7,0-5.4,0-8.1c0.7,1.5,1.4,3,2.1,4.5C397.1,351,395.7,351.8,394.4,352.7"/>
<path class="st76" d="M395.8,314.6c-2.4-2.4-0.8-5.5-1.5-8.2c1.1-2,2.3-3,4.4-1.1c2,1.8,0.4,3.4-0.8,4
	C395.5,310.6,396.8,312.9,395.8,314.6"/>
<path class="st94" d="M394.5,359.2c0-1.8,0-3.6,0-5.4c0.5-0.6,1-0.6,1.5,0C401.7,357.4,397,357.9,394.5,359.2"/>
<path class="st95" d="M396.1,353.8c-0.5,0-1,0-1.5,0c-0.1-0.4-0.1-0.7-0.2-1.1c0.4-1.2,0.8-2.4,1.2-3.6
	C398.1,350.5,398.8,352,396.1,353.8"/>
</svg>
