<?xml version="1.0" encoding="UTF-8" standalone="no"?><!DOCTYPE svg PUBLIC "-//W3C//DTD SVG 1.1//EN" "http://www.w3.org/Graphics/SVG/1.1/DTD/svg11.dtd"><svg width="100%" height="100%" viewBox="0 0 355 355" version="1.1" xmlns="http://www.w3.org/2000/svg" xmlns:xlink="http://www.w3.org/1999/xlink" xml:space="preserve" xmlns:serif="http://www.serif.com/" style="fill-rule:evenodd;clip-rule:evenodd;stroke-linejoin:round;stroke-miterlimit:2;"><g id="Oktagon"><path d="M250.471,103.869l-30.363,-30.362l-85.879,-0l-60.725,60.725l0,85.883l60.725,60.725l85.879,0l30.363,-30.362l30.371,-30.363l-0,-85.883l-30.371,-30.363Z" style="fill:url(#_Radial1);"/><path d="M178.246,229.898l-3.354,0l-0,5.634l3.354,-0l-0,-5.634Zm-8.6,5.63l3.362,-0l0,-5.634l-3.362,0l-0,5.634Zm41.496,19.058c-0.375,1.604 -0.829,2.779 -1.384,3.517c-0.562,0.741 -1.271,1.295 -2.141,1.662c-0.871,0.367 -2.271,0.55 -4.209,0.55l-4.525,0l0,-24.283l2.738,-0c2.416,-0 4.041,0.116 4.887,0.325c1.125,0.279 2.084,0.879 2.875,1.775c0.788,0.896 1.367,2.133 1.742,3.696c0.375,1.579 0.554,3.712 0.554,6.437c0,2.613 -0.179,4.721 -0.537,6.321m2.954,-20.613c-1.196,-1.47 -2.509,-2.529 -3.925,-3.15c-1.421,-0.625 -3.513,-0.941 -6.304,-0.941l-11.03,-0l0,36.579l11.355,-0c2.433,-0 4.433,-0.35 5.979,-1.033c1.554,-0.684 2.883,-1.725 3.971,-3.075c1.091,-1.367 1.995,-3.217 2.712,-5.559c0.725,-2.337 1.075,-5.087 1.075,-8.246c0,-3.508 -0.333,-6.445 -1.025,-8.804c-0.679,-2.358 -1.621,-4.287 -2.808,-5.771m-33.3,16.113c-0,3.633 -0.188,6 -0.563,7.104c-0.383,1.117 -1.075,1.979 -2.091,2.6c-1.025,0.617 -2.346,0.925 -3.963,0.925c-1.904,0 -3.441,-0.429 -4.608,-1.308c-1.171,-0.879 -1.913,-2.125 -2.221,-3.729c-0.162,-0.942 -0.254,-2.946 -0.254,-6.021l-0,-19.775l-6.954,-0l-0,19.512c-0,5.471 0.454,9.221 1.375,11.267c0.9,2.033 2.375,3.612 4.4,4.725c2.029,1.117 4.841,1.679 8.45,1.679c3.466,0 6.266,-0.671 8.387,-2.021c2.117,-1.35 3.484,-3.116 4.088,-5.304c0.6,-2.192 0.912,-5.746 0.912,-10.654l0,-19.204l-6.958,-0l-0,20.204Zm-28.771,-3.596c-1.358,-0.967 -3.546,-1.904 -6.592,-2.8c-2.87,-0.837 -4.704,-1.587 -5.483,-2.271c-0.783,-0.666 -1.179,-1.496 -1.179,-2.471c-0,-1.004 0.446,-1.841 1.317,-2.508c0.887,-0.675 2.141,-1.017 3.775,-1.017c1.629,0 2.883,0.392 3.77,1.163c0.88,0.783 1.446,2.133 1.725,4.079l6.046,-0.304c-0.121,-3.554 -1.179,-6.288 -3.158,-8.208c-1.988,-1.913 -4.738,-2.867 -8.267,-2.867c-2.354,-0 -4.321,0.408 -5.925,1.221c-1.604,0.816 -2.858,2.021 -3.762,3.612c-0.909,1.596 -1.367,3.388 -1.367,5.379c0,1.721 0.35,3.313 1.067,4.805c0.7,1.487 1.654,2.691 2.858,3.595c1.196,0.921 3.083,1.775 5.654,2.546c2.875,0.888 4.696,1.509 5.438,1.875c0.75,0.371 1.3,0.838 1.666,1.413c0.367,0.579 0.555,1.271 0.555,2.083c-0,1.383 -0.53,2.55 -1.58,3.492c-1.041,0.946 -2.475,1.408 -4.304,1.408c-3.679,0 -5.85,-2.279 -6.521,-6.842l-5.833,0.7c0.821,8.325 4.9,12.492 12.225,12.492c4.142,0 7.192,-1.075 9.138,-3.233c1.945,-2.154 2.92,-4.825 2.92,-7.992c0,-2.187 -0.366,-4.05 -1.083,-5.592c-0.704,-1.537 -1.742,-2.779 -3.1,-3.758m-67.487,-32.812l180.533,-0l-0,-4.2l-180.534,-0l0,4.2Zm95.5,-84.005l-8.92,0l-0,14.321l8.92,0l0,-14.321Zm-74.095,71.171l14.795,0l0,-59.546l18.096,0l0,36.075c0.613,17.48 13.2,25.18 30.567,25.18c17.358,-0 29.958,-7.7 30.446,-25.18l-0,-37.795l22.866,61.266l15.53,0l26.77,-71.171l-15.645,0l-18.713,55.763l-18.462,-55.763l-27.021,0l-0,47.205c-1.096,9.537 -5.867,12.962 -15.771,13.57c-9.896,-0.608 -14.788,-4.033 -15.779,-13.57l-0,-47.205l-68.221,0l-0,11.625l20.542,0l-0,59.546Zm61.504,-71.171l-8.563,0l0,14.321l8.563,0l-0,-14.321Z" style="fill:#fff;"/><path d="M180.508,232.153l-3.362,-0l-0,5.633l3.362,-0l0,-5.633Zm-8.608,5.629l3.371,-0l-0,-5.634l-3.371,0l0,5.634Zm41.496,19.062c-0.367,1.6 -0.829,2.775 -1.384,3.521c-0.554,0.742 -1.27,1.288 -2.133,1.654c-0.871,0.367 -2.279,0.554 -4.217,0.554l-4.524,0l-0,-24.287l2.745,-0c2.417,-0 4.034,0.117 4.88,0.329c1.133,0.283 2.083,0.875 2.875,1.771c0.787,0.904 1.366,2.142 1.741,3.704c0.375,1.571 0.563,3.713 0.563,6.429c-0,2.613 -0.188,4.721 -0.546,6.325m2.962,-20.616c-1.195,-1.471 -2.508,-2.521 -3.933,-3.15c-1.412,-0.617 -3.512,-0.942 -6.304,-0.942l-11.029,-0l-0,36.587l11.354,0c2.433,0 4.433,-0.35 5.979,-1.041c1.554,-0.684 2.883,-1.717 3.975,-3.075c1.096,-1.367 2,-3.217 2.717,-5.55c0.716,-2.338 1.066,-5.096 1.066,-8.254c0,-3.509 -0.333,-6.446 -1.016,-8.805c-0.684,-2.358 -1.621,-4.279 -2.809,-5.77m-33.308,16.112c-0,3.633 -0.179,6.008 -0.554,7.113c-0.384,1.108 -1.084,1.97 -2.1,2.591c-1.025,0.625 -2.338,0.925 -3.954,0.925c-1.913,0 -3.45,-0.429 -4.617,-1.308c-1.171,-0.879 -1.904,-2.117 -2.213,-3.721c-0.17,-0.942 -0.262,-2.946 -0.262,-6.029l-0,-19.775l-6.946,-0l0,19.512c0,5.48 0.446,9.221 1.367,11.267c0.908,2.033 2.375,3.613 4.4,4.725c2.029,1.125 4.841,1.679 8.45,1.679c3.475,0 6.271,-0.671 8.387,-2.021c2.117,-1.341 3.492,-3.116 4.088,-5.304c0.608,-2.192 0.912,-5.737 0.912,-10.654l0,-19.204l-6.958,-0l-0,20.204Zm-28.771,-3.596c-1.35,-0.958 -3.546,-1.904 -6.583,-2.8c-2.871,-0.837 -4.713,-1.587 -5.492,-2.262c-0.783,-0.667 -1.179,-1.496 -1.179,-2.48c-0,-1.004 0.446,-1.833 1.325,-2.508c0.887,-0.675 2.142,-1.008 3.767,-1.008c1.629,-0 2.883,0.391 3.77,1.162c0.88,0.775 1.455,2.134 1.725,4.079l6.046,-0.312c-0.121,-3.554 -1.171,-6.288 -3.15,-8.2c-1.987,-1.912 -4.746,-2.875 -8.275,-2.875c-2.354,0 -4.321,0.408 -5.925,1.221c-1.595,0.816 -2.858,2.021 -3.762,3.612c-0.909,1.596 -1.359,3.396 -1.359,5.388c0,1.712 0.351,3.304 1.059,4.804c0.7,1.479 1.662,2.683 2.858,3.596c1.196,0.921 3.084,1.766 5.663,2.537c2.875,0.888 4.687,1.517 5.429,1.884c0.754,0.362 1.3,0.837 1.666,1.404c0.367,0.579 0.555,1.271 0.555,2.083c-0,1.392 -0.53,2.559 -1.571,3.5c-1.05,0.938 -2.484,1.4 -4.313,1.4c-3.671,0 -5.85,-2.271 -6.512,-6.841l-5.842,0.7c0.821,8.333 4.9,12.491 12.233,12.491c4.142,0 7.184,-1.075 9.13,-3.233c1.946,-2.146 2.92,-4.825 2.92,-7.992c0,-2.179 -0.358,-4.05 -1.075,-5.591c-0.712,-1.53 -1.75,-2.78 -3.108,-3.759m-67.487,-32.804l180.541,0l0,-4.208l-180.541,-0l-0,4.208Zm95.5,-84.012l-8.921,-0l-0,14.316l8.921,0l-0,-14.316Zm-74.088,71.17l14.788,0l-0,-59.537l18.095,-0l0,36.067c0.621,17.479 13.209,25.187 30.576,25.187c17.358,0 29.949,-7.708 30.437,-25.187l-0,-37.796l22.867,61.266l15.529,0l26.779,-71.17l-15.654,-0l-18.704,55.762l-18.463,-55.762l-27.029,-0l-0,47.204c-1.096,9.546 -5.867,12.962 -15.763,13.579c-9.904,-0.617 -14.795,-4.033 -15.779,-13.579l0,-47.204l-68.221,-0l0,11.633l20.542,-0l0,59.537Zm61.496,-71.17l-8.554,-0l-0,14.316l8.554,0l0,-14.316Z" style="fill:#1a181c;"/><path d="M289.9,223.81l-33.033,32.967l-33.008,32.975l-93.384,-0l-33.008,-32.975l-33.012,-32.967l-0,-93.267l33.012,-32.966l33.008,-32.971l93.384,-0l33.008,32.971l33.033,32.966l0,93.267Zm5.942,-165.492l-49.154,-49.237l-139.038,-0l-49.154,49.237l-49.162,49.225l-0,139.259l49.162,49.233l49.154,49.233l139.038,0l49.154,-49.233l49.179,-49.233l0,-139.259l-49.179,-49.225Z" style="fill:#00417c;"/><path d="M107.65,9.09l-49.154,49.229l-49.163,49.229l0,139.259l49.163,49.229l49.154,49.246l69.133,-0c19.009,-15.904 35.275,-34.988 47.988,-56.442l-0.913,0.921l-93.379,-0l-33.008,-32.983l-33.021,-32.967l0,-93.263l33.021,-32.975l33.008,-32.966l93.379,-0l0.921,0.916c-12.721,-21.45 -28.987,-40.533 -47.996,-56.433l-69.133,0Z" style="fill:url(#_Radial2);fill-rule:nonzero;"/><path d="M224.075,64.819l32.8,32.767l33.025,32.967l0,93.266l-33.025,32.963l-32.8,32.766c11.113,14.855 24.383,27.988 39.338,38.971l32.429,-32.475l49.179,-49.237l-0,-139.255l-49.179,-49.229l-32.421,-32.475c-14.963,10.988 -28.233,24.117 -39.346,38.971Z" style="fill:url(#_Radial3);fill-rule:nonzero;"/><path d="M345.019,170.943l-55.121,0l0,-40.47l-33.029,-33.013l-33.008,-33.017l-93.384,0l-33.008,33.017l-33.016,33.013l-0,40.47l-55.117,0l-0,-63.3l49.158,-49.154l49.154,-49.154l139.038,0l49.154,49.154l49.179,49.154l0,63.3Zm-271.241,49.05l-0,-85.654l30.283,-30.279l30.279,-30.279l85.654,-0l30.275,30.279l30.296,30.279l0,85.654l-30.296,30.284l-30.275,30.279l-85.654,-0l-60.563,-60.563Zm271.242,26.692l-49.179,49.154l-49.154,49.163l-139.038,-0l-49.154,-49.163l-49.158,-49.154l-0,-63.167l55.117,0l-0,40.342l33.016,33.008l33.009,33.013l93.383,-0l33.008,-33.013l33.029,-33.008l0,-40.342l55.121,0l0,63.167Zm-42.579,-194.796l-51.887,-51.887l-146.767,-0l-51.892,51.887l-51.896,51.888l0,146.775l51.896,51.887l51.892,51.896l146.767,-0l51.887,-51.896l51.913,-51.887l-0,-146.775l-51.913,-51.888Z" style="fill:#fff;fill-rule:nonzero;"/><path d="M67.3,222.661l3.567,-1.471l-0,-88.062l-3.567,-1.475l0,91.008Z" style="fill:url(#_Linear4);fill-rule:nonzero;"/><path d="M247.875,6.465l49.992,49.992l50.025,49.995l3.608,-1.491l-51.083,-51.058l-51.055,-51.046l-1.487,3.608Z" style="fill:url(#_Linear5);fill-rule:nonzero;"/><path d="M53.908,53.903l-51.062,51.058l3.608,1.492l50,-49.996l50,-49.992l-1.5,-3.608l-51.046,51.046Z" style="fill:url(#_Linear6);fill-rule:nonzero;"/><path d="M221.196,70.869l31.129,31.134l31.158,31.133l3.555,-1.475l-64.367,-64.35l-1.475,3.558Z" style="fill:url(#_Linear7);fill-rule:nonzero;"/><path d="M131.667,67.311l-64.367,64.35l3.567,1.475l31.133,-31.133l31.138,-31.134l-1.471,-3.558Z" style="fill:url(#_Linear8);fill-rule:nonzero;"/><path d="M252.325,252.332l-31.129,31.137l1.475,3.567l32.179,-32.188l32.188,-32.17l-3.555,-1.484l-31.158,31.138Z" style="fill:url(#_Linear9);fill-rule:nonzero;"/><path d="M67.3,222.678l32.188,32.17l32.179,32.188l1.47,-3.567l-31.137,-31.137l-31.133,-31.138l-3.567,1.484Z" style="fill:url(#_Linear10);fill-rule:nonzero;"/><path d="M2.846,249.369l51.062,51.054l51.046,51.063l1.5,-3.604l-50,-50.004l-50,-49.996l-3.608,1.487Z" style="fill:url(#_Linear11);fill-rule:nonzero;"/><path d="M347.892,247.882l-50.025,49.992l-49.992,50.008l1.492,3.604l51.046,-51.066l51.083,-51.05l-3.604,-1.488Z" style="fill:#9ca09f;"/><rect x="287.037" y="173.794" width="60.854" height="6.883" style="fill:url(#_Linear12);"/><path d="M104.954,2.848l1.5,3.605l141.421,-0l1.487,-3.605l-144.408,0Z" style="fill:url(#_Linear13);fill-rule:nonzero;"/><path d="M131.667,67.303l1.471,3.562l88.058,0l1.475,-3.562l-91.004,-0Z" style="fill:url(#_Linear14);fill-rule:nonzero;"/><path d="M2.846,249.361l3.608,-1.488l0,-67.204l60.846,0l0,-6.883l-60.846,-0l0,-67.342l-3.608,-1.487l-0,144.404Z" style="fill:url(#_Linear15);fill-rule:nonzero;"/><path d="M106.454,347.873l-1.5,3.605l144.408,-0l-1.487,-3.605l-141.421,0Z" style="fill:url(#_Linear16);fill-rule:nonzero;"/><path d="M347.892,106.444l-0,141.429l3.608,1.488l0,-144.404l-3.608,1.487Z" style="fill:url(#_Linear17);fill-rule:nonzero;"/><path d="M283.483,133.136l0,88.058l3.555,1.475l-0,-91.016l-3.555,1.483Z" style="fill:url(#_Linear18);fill-rule:nonzero;"/><path d="M133.138,283.461l-1.471,3.567l91.004,-0l-1.475,-3.567l-88.059,-0Z" style="fill:url(#_Linear19);fill-rule:nonzero;"/><path d="M351.497,249.371l-51.083,51.05l-51.05,51.059l-144.409,-0l-51.05,-51.059l-51.058,-51.05l0,-144.412l51.058,-51.054l51.05,-51.05l144.409,-0l51.05,51.05l51.083,51.054l0,144.412Zm-49.054,-197.483l-51.892,-51.888l-146.766,0l-51.888,51.888l-51.896,51.887l0,146.775l51.896,51.888l51.888,51.896l146.766,-0l51.892,-51.896l51.912,-51.888l0,-146.775l-51.912,-51.887Z" style="fill:#1a181c;"/><path d="M133.138,283.47l-31.138,-31.146l-31.133,-31.125l0,-88.067l31.133,-31.129l31.138,-31.138l1.204,2.913l-30.283,30.279l-30.279,30.279l-0,85.659l30.279,30.27l30.283,30.292l-1.204,2.913Z" style="fill:#1a181c;"/><path d="M9.334,170.935l0,-63.292l49.163,-49.154l49.154,-49.154l-1.196,-2.879l-50,49.996l-50,50l-0,67.333l2.879,-2.85Z" style="fill:#1a181c;"/><path d="M58.496,295.84l-49.163,-49.155l0,-63.17l55.121,-0l2.846,-2.846l-60.846,-0l0,67.204l100,100l1.196,-2.871l-49.154,-49.162Z" style="fill:#1a181c;"/><path d="M287.036,180.668l-0,42.005l-32.188,32.175l-32.175,32.179l0,0.008l-91.008,0l-1.179,2.854l93.375,0l-0,-0.008l33.008,-33.013l33.029,-33.016l0,-40.334l55.146,0l2.854,-2.85l-60.862,0Z" style="fill:#1a181c;"/><path d="M256.868,97.461l-33.008,-33.013l0,-0.004l-93.367,0l1.18,2.863l91,-0l32.179,32.171l32.183,32.183l0,42.121l2.867,-2.846l-0,-40.467l-33.034,-33.008Z" style="fill:#1a181c;"/><path d="M345.019,170.943l-55.121,0l0,-40.47l-33.029,-33.013l-33.008,-33.017l-93.384,0l-33.008,33.017l-33.016,33.013l-0,40.47l-55.117,0l-0,-63.3l49.158,-49.154l49.154,-49.154l139.038,0l49.154,49.154l49.179,49.154l0,63.3Zm-271.241,49.05l-0,-85.654l30.283,-30.279l30.279,-30.279l85.654,-0l30.275,30.279l30.296,30.279l0,85.654l-30.296,30.284l-30.275,30.279l-85.654,-0l-60.563,-60.563Zm271.242,26.692l-49.179,49.154l-49.154,49.163l-139.038,-0l-49.154,-49.163l-49.158,-49.154l-0,-63.167l55.117,0l-0,40.342l33.016,33.008l33.009,33.013l93.383,-0l33.008,-33.013l33.029,-33.008l0,-40.342l55.121,0l0,63.167Zm-42.579,-194.796l-51.887,-51.887l-146.767,-0l-51.892,51.887l-51.896,51.888l0,146.775l51.896,51.887l51.892,51.896l146.767,-0l51.887,-51.896l51.913,-51.887l-0,-146.775l-51.913,-51.888Z" style="fill:#fff;fill-rule:nonzero;"/><path d="M67.3,222.661l3.567,-1.471l-0,-88.062l-3.567,-1.475l0,91.008Z" style="fill:url(#_Linear20);fill-rule:nonzero;"/><path d="M247.875,6.465l49.992,49.992l50.025,49.995l3.608,-1.491l-51.083,-51.058l-51.055,-51.046l-1.487,3.608Z" style="fill:url(#_Linear21);fill-rule:nonzero;"/><path d="M53.908,53.903l-51.062,51.058l3.608,1.492l50,-49.996l50,-49.992l-1.5,-3.608l-51.046,51.046Z" style="fill:url(#_Linear22);fill-rule:nonzero;"/><path d="M221.196,70.869l31.129,31.134l31.158,31.133l3.555,-1.475l-64.367,-64.35l-1.475,3.558Z" style="fill:url(#_Linear23);fill-rule:nonzero;"/><path d="M131.667,67.311l-64.367,64.35l3.567,1.475l31.133,-31.133l31.138,-31.134l-1.471,-3.558Z" style="fill:url(#_Linear24);fill-rule:nonzero;"/><path d="M252.325,252.332l-31.129,31.137l1.475,3.567l32.179,-32.188l32.188,-32.17l-3.555,-1.484l-31.158,31.138Z" style="fill:url(#_Linear25);fill-rule:nonzero;"/><path d="M67.3,222.678l32.188,32.17l32.179,32.188l1.47,-3.567l-31.137,-31.137l-31.133,-31.138l-3.567,1.484Z" style="fill:url(#_Linear26);fill-rule:nonzero;"/><path d="M2.846,249.369l51.062,51.054l51.046,51.063l1.5,-3.604l-50,-50.004l-50,-49.996l-3.608,1.487Z" style="fill:url(#_Linear27);fill-rule:nonzero;"/><path d="M347.892,247.882l-50.025,49.992l-49.992,50.008l1.492,3.604l51.046,-51.066l51.083,-51.05l-3.604,-1.488Z" style="fill:#9ca09f;"/><rect x="287.037" y="173.794" width="60.854" height="6.883" style="fill:url(#_Linear28);"/><path d="M104.954,2.848l1.5,3.605l141.421,-0l1.487,-3.605l-144.408,0Z" style="fill:url(#_Linear29);fill-rule:nonzero;"/><path d="M131.667,67.303l1.471,3.562l88.058,0l1.475,-3.562l-91.004,-0Z" style="fill:url(#_Linear30);fill-rule:nonzero;"/><path d="M2.846,249.361l3.608,-1.488l0,-67.204l60.846,0l0,-6.883l-60.846,-0l0,-67.342l-3.608,-1.487l-0,144.404Z" style="fill:url(#_Linear31);fill-rule:nonzero;"/><path d="M106.454,347.873l-1.5,3.605l144.408,-0l-1.487,-3.605l-141.421,0Z" style="fill:url(#_Linear32);fill-rule:nonzero;"/><path d="M347.892,106.444l-0,141.429l3.608,1.488l0,-144.404l-3.608,1.487Z" style="fill:url(#_Linear33);fill-rule:nonzero;"/><path d="M283.483,133.136l0,88.058l3.555,1.475l-0,-91.016l-3.555,1.483Z" style="fill:url(#_Linear34);fill-rule:nonzero;"/><path d="M133.138,283.461l-1.471,3.567l91.004,-0l-1.475,-3.567l-88.059,-0Z" style="fill:url(#_Linear35);fill-rule:nonzero;"/><path d="M351.497,249.371l-51.083,51.05l-51.05,51.059l-144.409,-0l-51.05,-51.059l-51.058,-51.05l0,-144.412l51.058,-51.054l51.05,-51.05l144.409,-0l51.05,51.05l51.083,51.054l0,144.412Zm-49.054,-197.483l-51.892,-51.888l-146.766,0l-51.888,51.888l-51.896,51.887l0,146.775l51.896,51.888l51.888,51.896l146.766,-0l51.892,-51.896l51.912,-51.888l0,-146.775l-51.912,-51.887Z" style="fill:#1a181c;"/><path d="M133.138,283.47l-31.138,-31.146l-31.133,-31.125l0,-88.067l31.133,-31.129l31.138,-31.138l1.204,2.913l-30.283,30.279l-30.279,30.279l-0,85.659l30.279,30.27l30.283,30.292l-1.204,2.913Z" style="fill:#1a181c;"/><path d="M9.334,170.935l0,-63.292l49.163,-49.154l49.154,-49.154l-1.196,-2.879l-50,49.996l-50,50l-0,67.333l2.879,-2.85Z" style="fill:#1a181c;"/><path d="M58.496,295.84l-49.163,-49.155l0,-63.17l55.121,-0l2.846,-2.846l-60.846,-0l0,67.204l100,100l1.196,-2.871l-49.154,-49.162Z" style="fill:#1a181c;"/><path d="M287.036,180.668l-0,42.005l-32.188,32.175l-32.175,32.179l0,0.008l-91.008,0l-1.179,2.854l93.375,0l-0,-0.008l33.008,-33.013l33.029,-33.016l0,-40.334l55.146,0l2.854,-2.85l-60.862,0Z" style="fill:#1a181c;"/><path d="M256.868,97.461l-33.008,-33.013l0,-0.004l-93.367,0l1.18,2.863l91,-0l32.179,32.171l32.183,32.183l0,42.121l2.867,-2.846l-0,-40.467l-33.034,-33.008Z" style="fill:#1a181c;"/></g><g id="Beschriftung"><path d="M254.81,31.968l-3.475,3.48l1.116,1.12c0.754,0.75 1.317,1.213 1.692,1.375c0.375,0.163 0.787,0.192 1.242,0.096c0.445,-0.104 0.875,-0.358 1.275,-0.762c0.408,-0.404 0.658,-0.838 0.758,-1.296c0.104,-0.454 0.067,-0.863 -0.1,-1.221c-0.167,-0.358 -0.679,-0.962 -1.521,-1.804l-0.987,-0.988Zm-12.184,8.146l12.234,-12.233l3.254,3.25c1.212,1.212 1.946,2.067 2.2,2.554c0.408,0.783 0.496,1.679 0.266,2.688c-0.229,1 -0.833,1.987 -1.808,2.962c-0.883,0.883 -1.792,1.458 -2.725,1.725c-0.929,0.263 -1.767,0.267 -2.508,0.008c-0.742,-0.262 -1.729,-1.004 -2.95,-2.225l-1.329,-1.325l-4.613,4.613l-2.021,-2.017Z" style="fill:#fff;fill-rule:nonzero;"/><path d="M253.806,51.292l-1.925,-1.925l8.863,-8.862l1.783,1.783l-1.258,1.262c0.896,-0.287 1.558,-0.404 1.996,-0.358c0.437,0.046 0.812,0.225 1.133,0.55c0.437,0.433 0.708,1.004 0.817,1.704l-2.646,1.438c-0.063,-0.571 -0.234,-1 -0.517,-1.284c-0.267,-0.266 -0.604,-0.4 -1.004,-0.408c-0.396,-0.004 -0.904,0.204 -1.508,0.633c-0.609,0.434 -1.605,1.338 -2.992,2.73l-2.742,2.737Z" style="fill:#fff;fill-rule:nonzero;"/><path d="M263.363,51.988c-0.9,0.896 -1.4,1.75 -1.513,2.562c-0.108,0.817 0.083,1.467 0.583,1.963c0.484,0.483 1.134,0.667 1.938,0.554c0.812,-0.125 1.666,-0.633 2.571,-1.533c0.883,-0.884 1.379,-1.729 1.487,-2.546c0.117,-0.813 -0.075,-1.467 -0.567,-1.958c-0.487,-0.488 -1.133,-0.671 -1.945,-0.555c-0.813,0.113 -1.663,0.617 -2.555,1.513m-1.845,-2.1c0.87,-0.871 1.833,-1.488 2.891,-1.854c1.059,-0.367 2.046,-0.45 2.959,-0.254c0.912,0.2 1.72,0.65 2.412,1.345c1.167,1.163 1.625,2.542 1.379,4.125c-0.25,1.588 -0.987,2.988 -2.216,4.213c-0.913,0.917 -1.913,1.567 -2.992,1.954c-1.088,0.392 -2.092,0.488 -3.025,0.296c-0.942,-0.196 -1.742,-0.629 -2.417,-1.304c-1.079,-1.079 -1.562,-2.384 -1.446,-3.921c0.109,-1.542 0.93,-3.075 2.455,-4.6" style="fill:#fff;fill-rule:nonzero;"/><path d="M272.131,60.37c-0.804,0.8 -1.333,1.471 -1.591,1.996c-0.255,0.533 -0.359,1.025 -0.305,1.471c0.059,0.454 0.242,0.829 0.559,1.146c0.421,0.425 1.012,0.562 1.783,0.416c0.771,-0.146 1.613,-0.683 2.533,-1.604c1.017,-1.017 1.605,-1.904 1.75,-2.65c0.146,-0.758 -0.012,-1.367 -0.475,-1.833c-0.445,-0.438 -1.041,-0.592 -1.795,-0.471c-0.755,0.129 -1.571,0.642 -2.459,1.529m0.5,9.746l-1.787,-1.788l1.304,-1.3c-0.796,0.205 -1.521,0.234 -2.175,0.088c-0.65,-0.146 -1.192,-0.429 -1.613,-0.854c-0.812,-0.813 -1.112,-1.925 -0.908,-3.338c0.208,-1.416 1.063,-2.879 2.567,-4.383c1.516,-1.517 2.954,-2.363 4.316,-2.55c1.359,-0.179 2.471,0.154 3.334,1.017c0.404,0.408 0.679,0.887 0.825,1.45c0.146,0.554 0.162,1.187 0.046,1.895l4.395,-4.4l1.93,1.925l-12.234,12.238Z" style="fill:#fff;fill-rule:nonzero;"/><path d="M279.297,76.784l1.325,-1.325c-0.746,0.209 -1.471,0.234 -2.175,0.071c-0.704,-0.154 -1.296,-0.479 -1.767,-0.95c-0.475,-0.475 -0.779,-1.025 -0.908,-1.654c-0.125,-0.629 -0.05,-1.267 0.225,-1.921c0.275,-0.642 0.858,-1.408 1.737,-2.287l5.613,-5.613l1.925,1.929l-4.075,4.067c-1.163,1.167 -1.867,1.937 -2.125,2.308c-0.259,0.371 -0.371,0.746 -0.342,1.117c0.029,0.371 0.179,0.696 0.467,0.979c0.321,0.325 0.729,0.508 1.225,0.554c0.5,0.046 0.966,-0.066 1.404,-0.329c0.437,-0.275 1.258,-1.008 2.458,-2.204l3.742,-3.742l1.925,1.929l-8.863,8.863l-1.791,-1.792Z" style="fill:#fff;fill-rule:nonzero;"/><path d="M295.683,80.666l-2.309,-1.475c0.788,-1.066 0.813,-1.975 0.075,-2.708c-0.479,-0.479 -1.062,-0.658 -1.754,-0.554c-0.692,0.116 -1.517,0.646 -2.471,1.6c-1.054,1.054 -1.65,1.95 -1.796,2.675c-0.15,0.721 0.021,1.325 0.509,1.812c0.362,0.363 0.787,0.538 1.266,0.525c0.48,-0.016 1.092,-0.283 1.817,-0.812l1.504,2.287c-2.529,1.746 -4.716,1.692 -6.571,-0.158c-1.183,-1.192 -1.612,-2.517 -1.283,-3.988c0.333,-1.479 1.129,-2.854 2.404,-4.129c1.521,-1.521 3.004,-2.35 4.442,-2.496c1.45,-0.145 2.692,0.309 3.746,1.359c0.854,0.854 1.321,1.775 1.408,2.766c0.088,0.984 -0.237,2.084 -0.987,3.296" style="fill:#fff;fill-rule:nonzero;"/><path d="M303.07,82.831l-1.871,1.871l-1.308,-1.309l-3.579,3.571c-0.771,0.775 -1.2,1.246 -1.288,1.404c-0.141,0.305 -0.1,0.575 0.142,0.809c0.179,0.179 0.512,0.358 0.992,0.546l-1.65,1.987c-0.675,-0.212 -1.296,-0.6 -1.859,-1.162c-0.492,-0.492 -0.767,-0.996 -0.829,-1.53c-0.058,-0.525 0.079,-1.062 0.417,-1.6c0.246,-0.404 0.866,-1.095 1.858,-2.087l3.867,-3.867l-0.884,-0.887l1.867,-1.871l0.887,0.887l1.763,-1.758l3.296,0.558l-3.129,3.13l1.308,1.308Z" style="fill:#fff;fill-rule:nonzero;"/><path d="M305.615,82.969l2.171,-2.166l1.925,1.929l-2.167,2.166l-1.929,-1.929Zm-10.067,10.067l8.863,-8.863l1.929,1.93l-8.862,8.862l-1.93,-1.929Z" style="fill:#fff;fill-rule:nonzero;"/><path d="M305.398,94.021c-0.9,0.9 -1.4,1.75 -1.513,2.562c-0.108,0.817 0.083,1.467 0.579,1.963c0.488,0.483 1.133,0.667 1.942,0.554c0.812,-0.121 1.666,-0.633 2.566,-1.533c0.884,-0.884 1.38,-1.729 1.492,-2.546c0.113,-0.813 -0.079,-1.467 -0.567,-1.954c-0.487,-0.488 -1.133,-0.675 -1.945,-0.559c-0.813,0.113 -1.663,0.617 -2.555,1.513m-1.845,-2.1c0.87,-0.867 1.833,-1.483 2.891,-1.854c1.059,-0.367 2.046,-0.45 2.959,-0.254c0.912,0.2 1.716,0.65 2.412,1.345c1.167,1.163 1.625,2.542 1.379,4.125c-0.25,1.588 -0.987,2.992 -2.216,4.213c-0.913,0.921 -1.913,1.571 -2.992,1.954c-1.087,0.392 -2.096,0.488 -3.029,0.296c-0.938,-0.196 -1.742,-0.629 -2.417,-1.304c-1.075,-1.079 -1.558,-2.384 -1.446,-3.921c0.113,-1.542 0.934,-3.071 2.459,-4.6" style="fill:#fff;fill-rule:nonzero;"/><path d="M314.616,112.103l-1.929,-1.929l4.529,-4.533c0.908,-0.904 1.475,-1.546 1.704,-1.921c0.225,-0.371 0.325,-0.733 0.287,-1.096c-0.033,-0.358 -0.179,-0.666 -0.429,-0.912c-0.321,-0.325 -0.721,-0.513 -1.187,-0.563c-0.471,-0.054 -0.946,0.05 -1.417,0.309c-0.475,0.266 -1.221,0.904 -2.242,1.925l-4.016,4.016l-1.925,-1.925l8.862,-8.862l1.784,1.787l-1.292,1.292c0.817,-0.183 1.55,-0.2 2.196,-0.054c0.65,0.15 1.216,0.462 1.7,0.946c0.562,0.558 0.891,1.187 0.983,1.862c0.096,0.679 -0.012,1.325 -0.325,1.929c-0.312,0.609 -0.904,1.35 -1.771,2.213l-5.512,5.516Z" style="fill:#fff;fill-rule:nonzero;"/><path d="M238.44,49.433l1.77,1.766l-1.208,1.213c0.788,-0.154 1.492,-0.163 2.104,-0.025c0.613,0.141 1.142,0.429 1.579,0.871c0.471,0.47 0.755,0.991 0.863,1.566c0.112,0.575 0.037,1.209 -0.221,1.9c0.8,-0.15 1.496,-0.162 2.1,-0.021c0.604,0.134 1.117,0.413 1.533,0.825c0.496,0.5 0.805,1.046 0.925,1.638c0.121,0.6 0.055,1.212 -0.2,1.833c-0.254,0.625 -0.833,1.396 -1.745,2.309l-5.675,5.67l-1.925,-1.925l5.07,-5.07c0.888,-0.884 1.396,-1.55 1.534,-2.005c0.133,-0.445 0.021,-0.854 -0.346,-1.22c-0.429,-0.43 -0.979,-0.567 -1.65,-0.421c-0.671,0.146 -1.6,0.821 -2.792,2.012l-4.262,4.263l-1.929,-1.929l4.862,-4.863c0.967,-0.967 1.533,-1.637 1.704,-2.025c0.234,-0.504 0.134,-0.967 -0.287,-1.392c-0.284,-0.283 -0.642,-0.445 -1.071,-0.5c-0.429,-0.05 -0.879,0.055 -1.346,0.313c-0.475,0.262 -1.142,0.825 -2.008,1.696l-4.313,4.312l-1.929,-1.929l8.863,-8.862Z" style="fill:#fff;fill-rule:nonzero;"/><path d="M248.136,67.987c-0.9,0.904 -1.4,1.754 -1.512,2.567c-0.109,0.812 0.083,1.462 0.583,1.962c0.483,0.484 1.133,0.671 1.938,0.55c0.812,-0.116 1.666,-0.629 2.57,-1.529c0.884,-0.883 1.38,-1.733 1.488,-2.546c0.117,-0.812 -0.075,-1.466 -0.567,-1.958c-0.487,-0.488 -1.133,-0.675 -1.946,-0.554c-0.808,0.108 -1.662,0.616 -2.554,1.508m-1.846,-2.096c0.871,-0.866 1.834,-1.483 2.892,-1.854c1.058,-0.367 2.046,-0.454 2.958,-0.254c0.913,0.2 1.721,0.646 2.413,1.342c1.167,1.17 1.625,2.545 1.379,4.129c-0.25,1.583 -0.987,2.987 -2.217,4.212c-0.912,0.917 -1.912,1.567 -2.991,1.954c-1.088,0.388 -2.092,0.488 -3.025,0.296c-0.942,-0.196 -1.742,-0.633 -2.417,-1.304c-1.079,-1.079 -1.562,-2.387 -1.45,-3.921c0.113,-1.537 0.933,-3.075 2.458,-4.6" style="fill:#fff;fill-rule:nonzero;"/><path d="M257.355,86.07l-1.925,-1.93l4.529,-4.525c0.904,-0.912 1.471,-1.554 1.7,-1.925c0.229,-0.37 0.325,-0.737 0.291,-1.095c-0.037,-0.359 -0.179,-0.667 -0.429,-0.917c-0.325,-0.317 -0.725,-0.508 -1.191,-0.563c-0.471,-0.05 -0.942,0.059 -1.413,0.317c-0.479,0.263 -1.221,0.904 -2.242,1.921l-4.016,4.021l-1.929,-1.929l8.862,-8.863l1.783,1.783l-1.291,1.292c0.821,-0.179 1.55,-0.2 2.2,-0.05c0.646,0.15 1.216,0.463 1.696,0.946c0.562,0.562 0.891,1.183 0.983,1.862c0.1,0.68 -0.013,1.321 -0.325,1.93c-0.313,0.604 -0.904,1.345 -1.771,2.212l-5.512,5.513Z" style="fill:#fff;fill-rule:nonzero;"/><path d="M269.37,77.956l2.171,-2.171l1.925,1.93l-2.166,2.17l-1.93,-1.929Zm-10.066,10.067l8.862,-8.863l1.929,1.93l-8.862,8.862l-1.929,-1.929Z" style="fill:#fff;fill-rule:nonzero;"/><path d="M275.384,86.375l-1.871,1.867l-1.308,-1.309l-3.579,3.58c-0.771,0.775 -1.2,1.241 -1.284,1.4c-0.145,0.3 -0.099,0.575 0.138,0.812c0.179,0.179 0.513,0.358 0.996,0.542l-1.654,1.987c-0.675,-0.208 -1.296,-0.6 -1.859,-1.158c-0.491,-0.492 -0.766,-1.004 -0.829,-1.533c-0.058,-0.525 0.079,-1.063 0.417,-1.6c0.246,-0.4 0.867,-1.096 1.858,-2.084l3.867,-3.871l-0.883,-0.887l1.866,-1.867l0.888,0.888l1.762,-1.763l3.296,0.559l-3.129,3.129l1.308,1.308Z" style="fill:#fff;fill-rule:nonzero;"/><path d="M273.816,93.671c-0.9,0.896 -1.4,1.75 -1.513,2.562c-0.108,0.813 0.084,1.467 0.584,1.963c0.483,0.483 1.133,0.667 1.937,0.554c0.813,-0.125 1.667,-0.633 2.571,-1.533c0.883,-0.884 1.379,-1.729 1.487,-2.546c0.117,-0.813 -0.075,-1.467 -0.566,-1.958c-0.488,-0.488 -1.134,-0.671 -1.946,-0.555c-0.808,0.113 -1.663,0.617 -2.554,1.513m-1.846,-2.1c0.871,-0.871 1.833,-1.488 2.892,-1.854c1.058,-0.367 2.045,-0.45 2.958,-0.254c0.912,0.195 1.721,0.65 2.412,1.345c1.167,1.163 1.625,2.542 1.38,4.125c-0.25,1.588 -0.988,2.988 -2.217,4.213c-0.913,0.917 -1.913,1.567 -2.992,1.954c-1.087,0.392 -2.091,0.488 -3.029,0.296c-0.937,-0.196 -1.737,-0.629 -2.412,-1.304c-1.08,-1.079 -1.563,-2.384 -1.45,-3.921c0.112,-1.542 0.933,-3.075 2.458,-4.6" style="fill:#fff;fill-rule:nonzero;"/><path d="M278.269,106.985l-1.925,-1.93l8.863,-8.862l1.783,1.792l-1.258,1.258c0.896,-0.288 1.558,-0.404 1.996,-0.354c0.437,0.041 0.812,0.225 1.133,0.546c0.437,0.437 0.708,1.004 0.817,1.7l-2.646,1.445c-0.063,-0.575 -0.234,-1.004 -0.517,-1.283c-0.267,-0.271 -0.604,-0.408 -1.004,-0.417c-0.4,0 -0.904,0.213 -1.513,0.638c-0.608,0.429 -1.6,1.342 -2.987,2.725l-2.742,2.742Z" style="fill:#fff;fill-rule:nonzero;"/><path d="M291.388,109.719c0.675,-0.709 1.05,-1.375 1.121,-2c0.071,-0.629 -0.084,-1.134 -0.471,-1.521c-0.404,-0.404 -0.929,-0.563 -1.571,-0.479c-0.65,0.087 -1.304,0.458 -1.954,1.125l2.875,2.875Zm-2.479,2.279l1.521,2.304c-1.15,0.633 -2.205,0.892 -3.18,0.788c-0.97,-0.113 -1.841,-0.555 -2.616,-1.325c-1.075,-1.075 -1.546,-2.263 -1.409,-3.567c0.146,-1.529 0.967,-3.042 2.475,-4.55c1.48,-1.479 3.013,-2.317 4.6,-2.517c1.346,-0.162 2.48,0.225 3.417,1.159c1.042,1.037 1.467,2.237 1.292,3.6c-0.204,1.554 -1.163,3.191 -2.879,4.904l-0.275,0.262l-4.813,-4.812c-0.692,0.716 -1.079,1.416 -1.162,2.104c-0.08,0.687 0.091,1.25 0.525,1.683c0.616,0.617 1.454,0.609 2.504,-0.033" style="fill:#fff;fill-rule:nonzero;"/><path d="M295.827,115.293c-0.804,0.805 -1.333,1.475 -1.592,1.996c-0.254,0.534 -0.358,1.025 -0.304,1.479c0.059,0.446 0.242,0.83 0.559,1.142c0.42,0.425 1.016,0.563 1.783,0.413c0.771,-0.146 1.617,-0.675 2.533,-1.596c1.021,-1.021 1.609,-1.909 1.75,-2.659c0.146,-0.75 -0.012,-1.362 -0.475,-1.829c-0.441,-0.441 -1.041,-0.596 -1.796,-0.471c-0.754,0.13 -1.57,0.638 -2.458,1.525m0.5,9.75l-1.783,-1.783l1.3,-1.3c-0.796,0.2 -1.521,0.225 -2.171,0.079c-0.654,-0.146 -1.192,-0.429 -1.617,-0.854c-0.812,-0.808 -1.112,-1.921 -0.908,-3.337c0.208,-1.417 1.062,-2.871 2.571,-4.375c1.512,-1.521 2.95,-2.371 4.312,-2.555c1.363,-0.183 2.471,0.155 3.334,1.017c0.404,0.404 0.679,0.888 0.829,1.446c0.141,0.558 0.158,1.192 0.041,1.896l4.396,-4.396l1.929,1.929l-12.233,12.233Z" style="fill:#fff;fill-rule:nonzero;"/><path d="M51.499,92.655l1.742,-2.208c1.787,1.342 3.296,1.392 4.533,0.158c0.609,-0.612 0.929,-1.254 0.959,-1.925c0.033,-0.67 -0.192,-1.237 -0.663,-1.712c-0.279,-0.279 -0.575,-0.454 -0.892,-0.525c-0.316,-0.071 -0.666,-0.046 -1.041,0.079c-0.375,0.125 -1.188,0.521 -2.446,1.188c-1.125,0.604 -2.038,0.95 -2.742,1.045c-0.704,0.096 -1.429,0.013 -2.158,-0.25c-0.734,-0.262 -1.392,-0.675 -1.963,-1.245c-0.666,-0.671 -1.116,-1.421 -1.341,-2.263c-0.234,-0.833 -0.217,-1.654 0.041,-2.462c0.267,-0.809 0.788,-1.6 1.567,-2.384c1.183,-1.183 2.425,-1.783 3.725,-1.804c1.3,-0.021 2.567,0.542 3.796,1.692l-1.921,2.137c-0.742,-0.566 -1.392,-0.833 -1.95,-0.804c-0.554,0.038 -1.108,0.329 -1.654,0.871c-0.546,0.546 -0.85,1.079 -0.917,1.6c-0.066,0.525 0.071,0.954 0.404,1.292c0.334,0.333 0.75,0.479 1.246,0.437c0.496,-0.037 1.358,-0.404 2.592,-1.092c1.312,-0.725 2.358,-1.15 3.137,-1.279c0.78,-0.125 1.546,-0.05 2.3,0.221c0.755,0.279 1.496,0.783 2.234,1.517c1.054,1.062 1.625,2.283 1.691,3.658c0.071,1.379 -0.587,2.758 -1.979,4.15c-2.462,2.463 -5.225,2.429 -8.3,-0.092" style="fill:#fff;fill-rule:nonzero;"/><path d="M65.082,78.538c-0.146,0.346 -0.413,0.846 -0.792,1.492c-0.437,0.758 -0.658,1.316 -0.65,1.691c0.004,0.375 0.158,0.713 0.462,1.013c0.338,0.337 0.726,0.521 1.159,0.55c0.433,0.029 0.804,-0.109 1.117,-0.413c0.266,-0.275 0.445,-0.637 0.525,-1.091c0.083,-0.455 0.041,-0.859 -0.113,-1.221c-0.154,-0.359 -0.567,-0.879 -1.242,-1.554l-0.466,-0.467Zm-4.48,0.658l-2.129,1.359c-0.683,-1.105 -0.983,-2.096 -0.887,-2.975c0.1,-0.88 0.6,-1.775 1.508,-2.688c0.813,-0.812 1.554,-1.317 2.208,-1.517c0.655,-0.2 1.271,-0.195 1.85,0.013c0.575,0.208 1.38,0.833 2.417,1.867l2.721,2.758c0.767,0.771 1.375,1.308 1.808,1.625c0.438,0.308 0.95,0.6 1.542,0.854l-1.904,1.904l-1.221,-0.721c0.067,0.717 0.008,1.367 -0.175,1.938c-0.175,0.571 -0.475,1.071 -0.9,1.492c-0.708,0.708 -1.521,1.045 -2.446,1.02c-0.929,-0.025 -1.787,-0.433 -2.579,-1.225c-0.5,-0.5 -0.846,-1.029 -1.038,-1.587c-0.187,-0.554 -0.225,-1.113 -0.116,-1.667c0.108,-0.558 0.441,-1.291 1.008,-2.196c0.683,-1.1 1.113,-1.908 1.288,-2.437c-0.492,-0.496 -0.85,-0.783 -1.075,-0.867c-0.23,-0.083 -0.475,-0.079 -0.763,0.009c-0.287,0.087 -0.596,0.3 -0.933,0.641c-0.35,0.346 -0.538,0.696 -0.588,1.046c-0.037,0.354 0.096,0.804 0.404,1.354" style="fill:#fff;fill-rule:nonzero;"/><path d="M63.421,70.986l1.067,-1.067l-0.667,-0.666c-0.808,-0.805 -1.312,-1.471 -1.525,-1.988c-0.204,-0.512 -0.237,-1.046 -0.104,-1.592c0.138,-0.55 0.454,-1.075 0.958,-1.575c0.546,-0.55 1.184,-0.983 1.909,-1.304l1.375,1.875c-0.4,0.225 -0.746,0.479 -1.025,0.759c-0.279,0.275 -0.392,0.55 -0.359,0.829c0.03,0.279 0.28,0.65 0.738,1.104l0.629,0.629l1.433,-1.433l1.846,1.841l-1.437,1.438l7.021,7.017l-1.93,1.929l-7.02,-7.017l-1.067,1.063l-1.842,-1.842Z" style="fill:#fff;fill-rule:nonzero;"/><path d="M76.923,64.828c-0.713,-0.675 -1.38,-1.046 -2.009,-1.121c-0.625,-0.071 -1.129,0.083 -1.517,0.471c-0.404,0.404 -0.562,0.933 -0.479,1.57c0.088,0.65 0.459,1.305 1.125,1.955l2.879,-2.875Zm2.275,2.479l2.305,-1.517c0.633,1.146 0.895,2.204 0.787,3.179c-0.108,0.971 -0.55,1.842 -1.321,2.613c-1.079,1.075 -2.271,1.546 -3.575,1.412c-1.521,-0.146 -3.037,-0.971 -4.546,-2.475c-1.479,-1.483 -2.32,-3.012 -2.516,-4.604c-0.163,-1.342 0.225,-2.479 1.154,-3.417c1.042,-1.037 2.242,-1.466 3.6,-1.287c1.562,0.2 3.196,1.158 4.912,2.875l0.263,0.275l-4.813,4.812c0.709,0.696 1.417,1.084 2.1,1.167c0.692,0.079 1.25,-0.096 1.684,-0.525c0.616,-0.621 0.608,-1.458 -0.034,-2.508" style="fill:#fff;fill-rule:nonzero;"/><path d="M80.043,54.364l1.867,1.871l-1.308,1.308l3.579,3.579c0.775,0.771 1.242,1.2 1.4,1.284c0.3,0.146 0.571,0.104 0.812,-0.138c0.18,-0.179 0.355,-0.512 0.538,-0.991l1.987,1.65c-0.204,0.675 -0.595,1.295 -1.154,1.858c-0.491,0.492 -1.004,0.767 -1.533,0.829c-0.529,0.058 -1.063,-0.079 -1.6,-0.417c-0.4,-0.245 -1.096,-0.866 -2.084,-1.858l-3.87,-3.867l-0.888,0.884l-1.866,-1.867l0.887,-0.887l-1.762,-1.763l0.558,-3.296l3.129,3.129l1.308,-1.308Z" style="fill:#fff;fill-rule:nonzero;"/><path d="M80.47,53.939l2.05,-2.05l8.025,4.558l-4.6,-7.987l1.996,-1.996l5.971,11.091l1.167,2.155c0.408,0.837 0.641,1.508 0.716,2.012c0.071,0.504 0.03,1 -0.15,1.488c-0.175,0.487 -0.504,0.97 -0.991,1.458c-0.375,0.375 -0.788,0.692 -1.238,0.954l-2,-1.671c0.375,-0.229 0.684,-0.462 0.921,-0.7c0.367,-0.366 0.546,-0.791 0.538,-1.275c-0.009,-0.479 -0.263,-1.116 -0.75,-1.912l-11.655,-6.125Z" style="fill:#fff;fill-rule:nonzero;"/><path d="M66.449,99.186l1.871,1.871l-1.309,1.308l3.575,3.58c0.775,0.77 1.242,1.2 1.404,1.283c0.3,0.146 0.571,0.1 0.809,-0.138c0.179,-0.179 0.358,-0.512 0.541,-0.995l1.988,1.654c-0.208,0.675 -0.596,1.296 -1.158,1.858c-0.492,0.492 -1,0.767 -1.53,0.829c-0.529,0.059 -1.066,-0.079 -1.6,-0.421c-0.404,-0.241 -1.1,-0.862 -2.087,-1.854l-3.871,-3.866l-0.887,0.883l-1.867,-1.867l0.887,-0.887l-1.762,-1.763l0.562,-3.296l3.125,3.13l1.309,-1.309Z" style="fill:#fff;fill-rule:nonzero;"/><path d="M75.787,97.19c-0.712,-0.675 -1.379,-1.045 -2.004,-1.12c-0.629,-0.071 -1.133,0.087 -1.517,0.47c-0.404,0.409 -0.566,0.934 -0.479,1.571c0.083,0.654 0.454,1.304 1.125,1.959l2.875,-2.88Zm2.275,2.48l2.304,-1.517c0.634,1.146 0.896,2.204 0.788,3.179c-0.109,0.971 -0.55,1.842 -1.325,2.617c-1.075,1.071 -2.263,1.541 -3.567,1.408c-1.525,-0.146 -3.042,-0.971 -4.55,-2.475c-1.479,-1.483 -2.317,-3.012 -2.512,-4.604c-0.163,-1.342 0.22,-2.479 1.154,-3.417c1.041,-1.037 2.237,-1.466 3.6,-1.287c1.562,0.2 3.196,1.158 4.912,2.875l0.259,0.279l-4.813,4.812c0.713,0.692 1.417,1.08 2.104,1.163c0.688,0.079 1.246,-0.096 1.679,-0.525c0.617,-0.621 0.609,-1.458 -0.033,-2.508" style="fill:#fff;fill-rule:nonzero;"/><path d="M81.252,97.066l1.571,-2.287c1.1,0.762 2.079,0.712 2.945,-0.154c0.463,-0.467 0.717,-0.9 0.767,-1.305c0.05,-0.408 -0.067,-0.754 -0.35,-1.037c-0.196,-0.192 -0.4,-0.296 -0.608,-0.308c-0.217,-0.009 -0.525,0.108 -0.925,0.337c-1.992,1.158 -3.396,1.763 -4.204,1.808c-1.009,0.063 -1.921,-0.32 -2.751,-1.145c-0.824,-0.825 -1.22,-1.746 -1.199,-2.763c0.029,-1.021 0.537,-2.029 1.533,-3.025c0.954,-0.954 1.862,-1.492 2.725,-1.617c0.867,-0.125 1.808,0.125 2.837,0.746l-1.404,2.225c-0.871,-0.554 -1.687,-0.454 -2.433,0.296c-0.479,0.475 -0.746,0.879 -0.809,1.213c-0.062,0.341 0.013,0.616 0.23,0.833c0.195,0.196 0.445,0.267 0.762,0.212c0.321,-0.05 1.088,-0.42 2.313,-1.104c1.375,-0.771 2.475,-1.133 3.287,-1.087c0.808,0.05 1.567,0.429 2.279,1.141c0.854,0.859 1.271,1.859 1.242,3.005c-0.029,1.141 -0.567,2.229 -1.6,3.266c-0.933,0.938 -1.938,1.475 -2.996,1.604c-1.062,0.13 -2.129,-0.158 -3.212,-0.854" style="fill:#fff;fill-rule:nonzero;"/><path d="M86.704,78.933l1.871,1.871l-1.308,1.308l3.571,3.579c0.775,0.771 1.245,1.2 1.404,1.288c0.304,0.141 0.575,0.1 0.808,-0.142c0.179,-0.179 0.358,-0.512 0.546,-0.992l1.987,1.65c-0.212,0.675 -0.6,1.296 -1.162,1.859c-0.492,0.491 -0.996,0.766 -1.525,0.829c-0.529,0.058 -1.067,-0.079 -1.604,-0.417c-0.404,-0.246 -1.096,-0.866 -2.088,-1.858l-3.866,-3.867l-0.888,0.884l-1.871,-1.867l0.888,-0.888l-1.759,-1.762l0.559,-3.296l3.129,3.129l1.308,-1.308Z" style="fill:#fff;fill-rule:nonzero;"/><path d="M96.039,76.939c-0.709,-0.675 -1.375,-1.05 -2.004,-1.121c-0.625,-0.071 -1.13,0.083 -1.517,0.471c-0.404,0.404 -0.563,0.929 -0.479,1.571c0.087,0.65 0.458,1.304 1.125,1.954l2.875,-2.875Zm2.279,2.479l2.304,-1.521c0.633,1.15 0.892,2.204 0.788,3.179c-0.113,0.971 -0.555,1.842 -1.325,2.617c-1.075,1.075 -2.263,1.546 -3.567,1.408c-1.529,-0.141 -3.042,-0.966 -4.55,-2.475c-1.479,-1.479 -2.321,-3.008 -2.517,-4.6c-0.162,-1.346 0.225,-2.479 1.159,-3.416c1.037,-1.042 2.237,-1.467 3.6,-1.292c1.554,0.204 3.191,1.162 4.904,2.879l0.262,0.275l-4.812,4.813c0.716,0.691 1.416,1.083 2.104,1.162c0.687,0.079 1.25,-0.092 1.683,-0.525c0.617,-0.617 0.609,-1.454 -0.033,-2.504" style="fill:#fff;fill-rule:nonzero;"/><path d="M101.613,72.5c0.805,0.804 1.475,1.333 1.996,1.591c0.534,0.254 1.025,0.359 1.475,0.304c0.45,-0.058 0.834,-0.241 1.146,-0.558c0.425,-0.421 0.563,-1.017 0.413,-1.783c-0.146,-0.771 -0.68,-1.613 -1.6,-2.534c-1.021,-1.016 -1.905,-1.608 -2.655,-1.75c-0.754,-0.145 -1.362,0.013 -1.829,0.475c-0.441,0.442 -0.596,1.042 -0.471,1.796c0.13,0.754 0.638,1.571 1.525,2.459m9.75,-0.5l-1.783,1.783l-1.3,-1.3c0.2,0.796 0.225,1.521 0.079,2.171c-0.146,0.654 -0.429,1.191 -0.854,1.616c-0.808,0.813 -1.921,1.113 -3.337,0.909c-1.417,-0.209 -2.871,-1.063 -4.375,-2.571c-1.521,-1.513 -2.371,-2.95 -2.555,-4.313c-0.183,-1.362 0.155,-2.47 1.017,-3.333c0.404,-0.404 0.888,-0.679 1.446,-0.829c0.558,-0.142 1.192,-0.158 1.896,-0.042l-4.396,-4.396l1.929,-1.929l12.233,12.234Z" style="fill:#fff;fill-rule:nonzero;"/><path d="M188.157,51.62c-0.921,0.829 -1.942,1.57 -3.046,2.212c-7.391,4.267 -16.546,2.671 -22.104,-3.337l3.246,-1.096l-8.367,-4.175l0.196,9.358l2.35,-2.433c6.458,7.337 17.392,9.371 26.192,4.296c1.337,-0.78 2.562,-1.684 3.666,-2.692l-2.133,-2.133Z" style="fill:#fff;fill-rule:nonzero;"/><path d="M195.913,44.995c3.137,-9.262 -0.567,-19.758 -9.371,-24.829c-1.342,-0.779 -2.734,-1.383 -4.163,-1.838l-0.867,2.888c1.201,0.392 2.388,0.896 3.525,1.554c7.392,4.263 10.588,12.996 8.163,20.817l-2.575,-2.263l0.567,9.334l8.016,-4.85l-3.296,-0.813Z" style="fill:#fff;fill-rule:nonzero;"/><path d="M158.571,42.122c-0.266,-1.22 -0.408,-2.5 -0.408,-3.8c-0,-8.529 5.958,-15.666 13.942,-17.479l-0.675,3.367l7.795,-5.158l-8.204,-4.517l0.946,3.254c-9.592,1.921 -16.821,10.375 -16.821,20.533c0,1.45 0.15,2.871 0.425,4.238l3,-0.438Z" style="fill:#fff;fill-rule:nonzero;"/><path d="M167.287,44.385l1.154,4.842c0,-0 3.909,2.166 9.542,1.229c5.646,-0.946 7.954,-3.758 7.954,-7.446c0,-3.687 -2.267,-6.112 -4.7,-7.087c-2.533,-1.009 -6.504,-1.734 -6.504,-4.55c-0,-1.88 2.237,-2.321 3.612,-2.321c2.167,-0 5.063,1.525 5.063,1.525l-0,-3.984c-0,0 -3.183,-1.3 -6.15,-1.3c-3.104,0 -9.458,1.817 -9.458,7.088c-0,4.696 2.958,6.071 3.537,6.362l5.058,2.459c0,-0 2.675,1.075 2.675,2.671c0,1.595 -0.508,3.108 -3.979,3.108c-3.466,-0 -7.804,-2.596 -7.804,-2.596" style="fill:#fff;fill-rule:nonzero;"/><path d="M124.823,301.939l-0,2.646l-1.85,-0l-0,5.058c-0,1.092 0.029,1.729 0.079,1.9c0.113,0.317 0.333,0.475 0.671,0.475c0.254,-0 0.617,-0.108 1.087,-0.321l0.238,2.571c-0.629,0.333 -1.342,0.496 -2.138,0.496c-0.691,-0 -1.245,-0.163 -1.662,-0.496c-0.417,-0.329 -0.696,-0.804 -0.842,-1.429c-0.108,-0.454 -0.162,-1.388 -0.162,-2.788l-0,-5.466l-1.25,-0l-0,-2.646l1.25,-0l-0,-2.492l2.729,-1.933l-0,4.425l1.85,-0Z" style="fill:#fff;fill-rule:nonzero;"/><path d="M133.461,314.472l0,-1.875c-0.379,0.679 -0.871,1.212 -1.483,1.596c-0.613,0.379 -1.254,0.57 -1.921,0.57c-0.675,0 -1.279,-0.175 -1.817,-0.529c-0.533,-0.354 -0.933,-0.858 -1.195,-1.512c-0.263,-0.65 -0.392,-1.604 -0.392,-2.846l-0,-7.938l2.725,0l-0,5.759c-0,1.646 0.042,2.691 0.125,3.133c0.079,0.442 0.262,0.788 0.546,1.033c0.283,0.246 0.621,0.367 1.025,0.367c0.454,0 0.875,-0.158 1.258,-0.479c0.383,-0.317 0.638,-0.729 0.758,-1.225c0.117,-0.5 0.18,-1.6 0.18,-3.3l-0,-5.288l2.725,0l-0,12.534l-2.534,-0Z" style="fill:#fff;fill-rule:nonzero;"/><path d="M141.672,314.472l-4.166,-12.534l2.846,0l1.937,6.396l0.567,2.138l0.579,-2.138l1.967,-6.396l2.783,0l-4.096,12.534l-2.417,-0Z" style="fill:#fff;fill-rule:nonzero;"/><path d="M148.895,310.907l2.725,-0.508c0.238,1.312 0.971,1.975 2.196,1.975c0.654,-0 1.142,-0.129 1.462,-0.379c0.321,-0.255 0.484,-0.58 0.484,-0.984c-0,-0.275 -0.071,-0.491 -0.209,-0.65c-0.15,-0.154 -0.45,-0.291 -0.891,-0.408c-2.23,-0.596 -3.65,-1.163 -4.259,-1.7c-0.75,-0.667 -1.129,-1.588 -1.129,-2.754c0,-1.167 0.371,-2.1 1.104,-2.804c0.742,-0.7 1.817,-1.055 3.225,-1.055c1.346,0 2.367,0.267 3.067,0.788c0.7,0.525 1.192,1.367 1.479,2.529l-2.567,0.579c-0.225,-1.004 -0.87,-1.508 -1.929,-1.508c-0.675,-0 -1.15,0.096 -1.429,0.287c-0.287,0.196 -0.429,0.442 -0.429,0.755c-0,0.275 0.133,0.504 0.392,0.687c0.262,0.188 1.066,0.471 2.416,0.854c1.517,0.429 2.546,0.946 3.092,1.554c0.537,0.605 0.808,1.413 0.808,2.421c0,1.213 -0.416,2.213 -1.246,3c-0.829,0.788 -1.979,1.179 -3.441,1.179c-1.329,0 -2.413,-0.325 -3.259,-0.987c-0.841,-0.654 -1.395,-1.613 -1.662,-2.871" style="fill:#fff;fill-rule:nonzero;"/><path d="M167.613,314.472l-0,-1.875c-0.38,0.679 -0.871,1.212 -1.484,1.596c-0.612,0.379 -1.254,0.57 -1.921,0.57c-0.675,0 -1.279,-0.175 -1.816,-0.529c-0.534,-0.354 -0.934,-0.858 -1.196,-1.512c-0.263,-0.65 -0.392,-1.604 -0.392,-2.846l0,-7.938l2.725,0l0,5.759c0,1.646 0.042,2.691 0.125,3.133c0.079,0.442 0.263,0.788 0.546,1.033c0.283,0.246 0.621,0.367 1.025,0.367c0.454,0 0.875,-0.158 1.258,-0.479c0.384,-0.317 0.638,-0.729 0.759,-1.225c0.116,-0.5 0.179,-1.6 0.179,-3.3l-0,-5.288l2.725,0l-0,12.534l-2.533,-0Z" style="fill:#fff;fill-rule:nonzero;"/><path d="M175.148,307.933c0,1.133 0.096,1.983 0.288,2.537c0.196,0.558 0.471,0.975 0.829,1.254c0.358,0.284 0.754,0.421 1.204,0.421c0.596,0 1.113,-0.321 1.554,-0.971c0.438,-0.646 0.659,-1.621 0.659,-2.925c-0,-1.441 -0.213,-2.483 -0.638,-3.116c-0.433,-0.634 -0.975,-0.95 -1.633,-0.95c-0.625,-0 -1.158,0.312 -1.604,0.933c-0.438,0.625 -0.659,1.562 -0.659,2.817m7.246,6.537l-2.521,0l0,-1.842c-0.42,0.709 -0.912,1.242 -1.479,1.6c-0.562,0.359 -1.146,0.538 -1.746,0.538c-1.145,-0 -2.145,-0.575 -3,-1.717c-0.854,-1.15 -1.283,-2.787 -1.283,-4.916c0,-2.142 0.417,-3.759 1.25,-4.85c0.833,-1.092 1.854,-1.642 3.075,-1.642c0.575,-0 1.108,0.146 1.608,0.442c0.496,0.287 0.955,0.729 1.371,1.308l0,-6.221l2.725,0l0,17.3Z" style="fill:#fff;fill-rule:nonzero;"/><rect x="185.083" y="311.157" width="2.713" height="3.317" style="fill:#fff;"/><path d="M199.563,305.634l-2.68,0.591c-0.195,-1.316 -0.82,-1.975 -1.862,-1.975c-0.675,0 -1.217,0.284 -1.625,0.855c-0.413,0.566 -0.621,1.525 -0.621,2.875c0,1.491 0.208,2.545 0.621,3.158c0.404,0.621 0.954,0.925 1.642,0.925c0.512,-0 0.937,-0.175 1.266,-0.525c0.329,-0.35 0.567,-0.967 0.713,-1.858l2.675,0.554c-0.554,3.021 -2.134,4.529 -4.754,4.529c-1.68,-0 -2.921,-0.638 -3.73,-1.913c-0.808,-1.275 -1.216,-2.812 -1.216,-4.608c-0,-2.154 0.458,-3.792 1.375,-4.917c0.921,-1.12 2.121,-1.683 3.608,-1.683c1.204,0 2.192,0.321 2.95,0.954c0.763,0.642 1.308,1.65 1.638,3.038" style="fill:#fff;fill-rule:nonzero;"/><path d="M203.766,308.205c-0,1.271 0.25,2.229 0.746,2.879c0.496,0.654 1.091,0.979 1.796,0.979c0.683,0 1.275,-0.325 1.762,-0.983c0.488,-0.654 0.733,-1.621 0.733,-2.9c0,-1.246 -0.25,-2.196 -0.745,-2.85c-0.496,-0.658 -1.092,-0.983 -1.784,-0.983c-0.687,-0 -1.279,0.325 -1.771,0.983c-0.491,0.654 -0.737,1.613 -0.737,2.875m-2.788,-0.179c0,-1.229 0.246,-2.346 0.734,-3.358c0.487,-1.009 1.125,-1.763 1.912,-2.271c0.784,-0.504 1.671,-0.754 2.654,-0.754c1.65,-0 2.95,0.65 3.892,1.945c0.946,1.296 1.417,2.809 1.417,4.542c-0,1.296 -0.246,2.463 -0.738,3.5c-0.492,1.042 -1.133,1.825 -1.933,2.35c-0.8,0.525 -1.675,0.783 -2.629,0.783c-1.525,0 -2.788,-0.579 -3.796,-1.75c-1.009,-1.162 -1.513,-2.825 -1.513,-4.987" style="fill:#fff;fill-rule:nonzero;"/><path d="M213.511,301.939l2.504,-0l0,1.708c0.446,-0.667 0.938,-1.167 1.471,-1.5c0.533,-0.333 1.117,-0.504 1.733,-0.504c0.663,-0 1.234,0.167 1.717,0.496c0.483,0.329 0.879,0.829 1.187,1.5c0.459,-0.671 0.946,-1.171 1.471,-1.5c0.521,-0.329 1.079,-0.496 1.667,-0.496c0.7,-0 1.308,0.171 1.812,0.504c0.509,0.333 0.896,0.813 1.154,1.438c0.267,0.616 0.4,1.57 0.4,2.866l0,8.021l-2.725,0l0,-7.175c0,-1.25 -0.112,-2.083 -0.333,-2.496c-0.221,-0.412 -0.587,-0.621 -1.108,-0.621c-0.609,0 -1.096,0.288 -1.467,0.867c-0.367,0.583 -0.55,1.713 -0.55,3.4l0,6.025l-2.729,0l0,-6.879c0,-1.363 -0.071,-2.242 -0.221,-2.629c-0.196,-0.521 -0.596,-0.784 -1.196,-0.784c-0.395,0 -0.766,0.134 -1.104,0.405c-0.341,0.262 -0.587,0.658 -0.733,1.175c-0.15,0.512 -0.225,1.387 -0.225,2.616l-0,6.096l-2.725,0l-0,-12.533Z" style="fill:#fff;fill-rule:nonzero;"/><path d="M229.889,314.765l3.516,-17.888l2.042,0l-3.554,17.888l-2.004,-0Z" style="fill:#fff;fill-rule:nonzero;"/><path d="M148.057,330.076c-0,1.421 0.233,2.463 0.691,3.134c0.454,0.67 1.013,1.008 1.663,1.008c0.621,-0 1.146,-0.313 1.566,-0.929c0.425,-0.621 0.638,-1.634 0.638,-3.038c-0,-1.333 -0.217,-2.316 -0.654,-2.954c-0.438,-0.633 -0.967,-0.954 -1.596,-0.954c-0.658,-0 -1.208,0.312 -1.65,0.933c-0.438,0.621 -0.658,1.55 -0.658,2.8m-2.688,-6.054l2.525,0l0,1.838c0.346,-0.659 0.804,-1.18 1.371,-1.563c0.571,-0.383 1.179,-0.571 1.829,-0.571c1.179,0 2.188,0.559 3.033,1.679c0.85,1.117 1.275,2.705 1.275,4.763c0,2.162 -0.429,3.812 -1.279,4.962c-0.846,1.142 -1.858,1.717 -3.029,1.717c-0.542,0 -1.05,-0.129 -1.521,-0.396c-0.466,-0.262 -0.958,-0.737 -1.475,-1.429l0,6.296l-2.729,-0l0,-17.296Z" style="fill:#fff;fill-rule:nonzero;"/><path d="M156.602,332.99l2.725,-0.509c0.237,1.313 0.97,1.975 2.195,1.975c0.655,0 1.142,-0.129 1.463,-0.379c0.321,-0.254 0.483,-0.579 0.483,-0.983c0,-0.275 -0.071,-0.492 -0.208,-0.65c-0.15,-0.154 -0.45,-0.292 -0.892,-0.409c-2.229,-0.595 -3.65,-1.162 -4.258,-1.7c-0.75,-0.666 -1.129,-1.587 -1.129,-2.754c-0,-1.166 0.371,-2.1 1.104,-2.804c0.742,-0.7 1.817,-1.054 3.225,-1.054c1.346,-0 2.367,0.267 3.067,0.787c0.7,0.525 1.191,1.367 1.479,2.53l-2.567,0.579c-0.225,-1.004 -0.871,-1.509 -1.929,-1.509c-0.675,0 -1.15,0.096 -1.429,0.288c-0.288,0.196 -0.429,0.442 -0.429,0.754c-0,0.275 0.133,0.504 0.391,0.688c0.263,0.187 1.067,0.47 2.417,0.854c1.517,0.429 2.546,0.946 3.092,1.554c0.537,0.604 0.808,1.412 0.808,2.421c-0,1.212 -0.417,2.212 -1.246,3c-0.829,0.787 -1.979,1.179 -3.442,1.179c-1.329,-0 -2.412,-0.325 -3.258,-0.988c-0.841,-0.654 -1.396,-1.612 -1.662,-2.87" style="fill:#fff;fill-rule:nonzero;"/><rect x="167.779" y="328.623" width="5.342" height="3.317" style="fill:#fff;"/><path d="M184.145,327.716l-2.679,0.592c-0.196,-1.317 -0.821,-1.975 -1.863,-1.975c-0.675,-0 -1.216,0.283 -1.625,0.854c-0.412,0.567 -0.62,1.525 -0.62,2.875c-0,1.492 0.208,2.546 0.62,3.158c0.405,0.621 0.954,0.925 1.642,0.925c0.513,0 0.938,-0.175 1.267,-0.525c0.329,-0.35 0.566,-0.966 0.712,-1.858l2.675,0.554c-0.554,3.021 -2.133,4.529 -4.754,4.529c-1.679,0 -2.921,-0.637 -3.729,-1.912c-0.808,-1.275 -1.217,-2.813 -1.217,-4.608c0,-2.155 0.459,-3.792 1.375,-4.917c0.921,-1.121 2.121,-1.683 3.609,-1.683c1.204,-0 2.191,0.32 2.95,0.954c0.762,0.641 1.308,1.65 1.637,3.037" style="fill:#fff;fill-rule:nonzero;"/><path d="M192.311,329.213c-0.025,-0.979 -0.233,-1.716 -0.625,-2.208c-0.391,-0.492 -0.858,-0.742 -1.404,-0.742c-0.575,0 -1.058,0.259 -1.45,0.771c-0.404,0.521 -0.6,1.246 -0.592,2.179l4.071,0Zm-0.141,3.363l2.7,0.554c-0.363,1.258 -0.921,2.196 -1.688,2.804c-0.767,0.609 -1.692,0.913 -2.787,0.913c-1.521,-0 -2.692,-0.509 -3.521,-1.525c-0.975,-1.179 -1.463,-2.838 -1.463,-4.967c0,-2.096 0.488,-3.771 1.471,-5.033c0.833,-1.063 1.913,-1.596 3.238,-1.596c1.466,-0 2.62,0.542 3.454,1.629c0.958,1.246 1.437,3.079 1.437,5.508l-0.008,0.38l-6.808,-0c0.016,0.995 0.237,1.766 0.666,2.308c0.429,0.546 0.946,0.817 1.559,0.817c0.875,-0 1.458,-0.596 1.75,-1.792" style="fill:#fff;fill-rule:nonzero;"/><path d="M199.831,336.554l-2.725,0l-0,-12.533l2.525,-0l-0,1.783c0.433,-0.833 0.816,-1.387 1.158,-1.662c0.342,-0.279 0.738,-0.417 1.192,-0.417c0.616,0 1.212,0.212 1.779,0.625l-0.85,2.896c-0.45,-0.363 -0.875,-0.546 -1.271,-0.546c-0.379,0 -0.712,0.142 -1.004,0.417c-0.283,0.283 -0.492,0.787 -0.617,1.521c-0.125,0.729 -0.187,2.079 -0.187,4.037l-0,3.879Z" style="fill:#fff;fill-rule:nonzero;"/><path d="M209.625,324.021l0,2.646l-1.85,0l0,5.058c0,1.092 0.029,1.73 0.079,1.9c0.113,0.317 0.333,0.475 0.671,0.475c0.254,0 0.617,-0.108 1.088,-0.32l0.237,2.57c-0.629,0.334 -1.342,0.496 -2.137,0.496c-0.692,0 -1.246,-0.162 -1.663,-0.496c-0.417,-0.329 -0.696,-0.804 -0.842,-1.429c-0.108,-0.454 -0.162,-1.387 -0.162,-2.787l-0,-5.467l-1.25,0l-0,-2.646l1.25,0l-0,-2.491l2.729,-1.934l0,4.425l1.85,0Z" style="fill:#fff;fill-rule:nonzero;"/></g><defs><radialGradient id="_Radial1" cx="0" cy="0" r="1" gradientUnits="userSpaceOnUse" gradientTransform="matrix(172.844,0,0,172.844,107.881,177.174)"><stop offset="0" style="stop-color:#fff;stop-opacity:1"/><stop offset="1" style="stop-color:#c5c5c5;stop-opacity:1"/></radialGradient><radialGradient id="_Radial2" cx="0" cy="0" r="1" gradientUnits="userSpaceOnUse" gradientTransform="matrix(216.185,0,0,216.185,37.0327,176.504)"><stop offset="0" style="stop-color:#45c0ea;stop-opacity:1"/><stop offset="0.4" style="stop-color:#0064ab;stop-opacity:1"/><stop offset="1" style="stop-color:#00417c;stop-opacity:1"/></radialGradient><radialGradient id="_Radial3" cx="0" cy="0" r="1" gradientUnits="userSpaceOnUse" gradientTransform="matrix(185.525,0,0,185.525,374.473,177.184)"><stop offset="0" style="stop-color:#45c0ea;stop-opacity:1"/><stop offset="0.53" style="stop-color:#004b8b;stop-opacity:1"/><stop offset="1" style="stop-color:#00417c;stop-opacity:1"/></radialGradient><linearGradient id="_Linear4" x1="0" y1="0" x2="1" y2="0" gradientUnits="userSpaceOnUse" gradientTransform="matrix(-3.55271e-15,87.4991,-87.4991,-3.55271e-15,69.0836,132.931)"><stop offset="0" style="stop-color:#bdc6cf;stop-opacity:1"/><stop offset="0.49" style="stop-color:#fff;stop-opacity:1"/><stop offset="0.97" style="stop-color:#e0f0f5;stop-opacity:1"/><stop offset="1" style="stop-color:#e0f0f5;stop-opacity:1"/></linearGradient><linearGradient id="_Linear5" x1="0" y1="0" x2="1" y2="0" gradientUnits="userSpaceOnUse" gradientTransform="matrix(97.746,97.7449,-97.7449,97.746,249.68,5.70709)"><stop offset="0" style="stop-color:#8e979d;stop-opacity:1"/><stop offset="0.2" style="stop-color:#768e9d;stop-opacity:1"/><stop offset="0.3" style="stop-color:#929ca0;stop-opacity:1"/><stop offset="0.38" style="stop-color:#557d99;stop-opacity:1"/><stop offset="0.68" style="stop-color:#6b7a7c;stop-opacity:1"/><stop offset="0.97" style="stop-color:#4d798a;stop-opacity:1"/><stop offset="1" style="stop-color:#4d798a;stop-opacity:1"/></linearGradient><linearGradient id="_Linear6" x1="0" y1="0" x2="1" y2="0" gradientUnits="userSpaceOnUse" gradientTransform="matrix(99.4254,-99.4257,99.4257,99.4254,5.54313,104.819)"><stop offset="0" style="stop-color:#ecf7fc;stop-opacity:1"/><stop offset="0.2" style="stop-color:#f1f2f3;stop-opacity:1"/><stop offset="0.34" style="stop-color:#7e919a;stop-opacity:1"/><stop offset="0.58" style="stop-color:#dadada;stop-opacity:1"/><stop offset="0.95" style="stop-color:#9caab3;stop-opacity:1"/><stop offset="0.98" style="stop-color:#889ba7;stop-opacity:1"/><stop offset="1" style="stop-color:#889ba7;stop-opacity:1"/></linearGradient><linearGradient id="_Linear7" x1="0" y1="0" x2="1" y2="0" gradientUnits="userSpaceOnUse" gradientTransform="matrix(61.2835,61.2845,-61.2845,61.2835,222.697,69.846)"><stop offset="0" style="stop-color:#9c9f9f;stop-opacity:1"/><stop offset="0.75" style="stop-color:#7c868b;stop-opacity:1"/><stop offset="1" style="stop-color:#546974;stop-opacity:1"/></linearGradient><linearGradient id="_Linear8" x1="0" y1="0" x2="1" y2="0" gradientUnits="userSpaceOnUse" gradientTransform="matrix(59.0317,-59.0307,59.0307,59.0317,70.334,131.151)"><stop offset="0" style="stop-color:#bdc6cf;stop-opacity:1"/><stop offset="0.02" style="stop-color:#bdc6cf;stop-opacity:1"/><stop offset="0.24" style="stop-color:#c3cfdf;stop-opacity:1"/><stop offset="0.44" style="stop-color:#739bba;stop-opacity:1"/><stop offset="0.72" style="stop-color:#8ea4b6;stop-opacity:1"/><stop offset="0.98" style="stop-color:#5f6769;stop-opacity:1"/><stop offset="1" style="stop-color:#5f6769;stop-opacity:1"/></linearGradient><linearGradient id="_Linear9" x1="0" y1="0" x2="1" y2="0" gradientUnits="userSpaceOnUse" gradientTransform="matrix(65.8367,0,0,65.8367,221.199,254.116)"><stop offset="0" style="stop-color:#305c6d;stop-opacity:1"/><stop offset="0.27" style="stop-color:#959c9c;stop-opacity:1"/><stop offset="1" style="stop-color:#9ca09f;stop-opacity:1"/></linearGradient><linearGradient id="_Linear10" x1="0" y1="0" x2="1" y2="0" gradientUnits="userSpaceOnUse" gradientTransform="matrix(65.8366,0,0,65.8366,67.3013,254.116)"><stop offset="0" style="stop-color:#e0f0f5;stop-opacity:1"/><stop offset="0.32" style="stop-color:#a5c8e6;stop-opacity:1"/><stop offset="0.33" style="stop-color:#9ac1e3;stop-opacity:1"/><stop offset="0.49" style="stop-color:#6990a7;stop-opacity:1"/><stop offset="0.75" style="stop-color:#bfc7ca;stop-opacity:1"/><stop offset="0.96" style="stop-color:#b5bbbc;stop-opacity:1"/><stop offset="1" style="stop-color:#b5bbbc;stop-opacity:1"/></linearGradient><linearGradient id="_Linear11" x1="0" y1="0" x2="1" y2="0" gradientUnits="userSpaceOnUse" gradientTransform="matrix(97.9166,97.9166,-97.9166,97.9166,5.7092,249.685)"><stop offset="0" style="stop-color:#fff;stop-opacity:1"/><stop offset="0.32" style="stop-color:#b9c4cf;stop-opacity:1"/><stop offset="0.41" style="stop-color:#648699;stop-opacity:1"/><stop offset="0.59" style="stop-color:#87a4ba;stop-opacity:1"/><stop offset="0.72" style="stop-color:#8caac1;stop-opacity:1"/><stop offset="0.96" style="stop-color:#afb1b0;stop-opacity:1"/><stop offset="1" style="stop-color:#afb1b0;stop-opacity:1"/></linearGradient><linearGradient id="_Linear12" x1="0" y1="0" x2="1" y2="0" gradientUnits="userSpaceOnUse" gradientTransform="matrix(60.8562,0,0,60.8562,287.036,177.234)"><stop offset="0" style="stop-color:#979b99;stop-opacity:1"/><stop offset="0.59" style="stop-color:#dce1e3;stop-opacity:1"/><stop offset="1" style="stop-color:#c5cad4;stop-opacity:1"/></linearGradient><linearGradient id="_Linear13" x1="0" y1="0" x2="1" y2="0" gradientUnits="userSpaceOnUse" gradientTransform="matrix(144.409,0,0,144.409,104.956,4.65105)"><stop offset="0" style="stop-color:#889ba7;stop-opacity:1"/><stop offset="0.17" style="stop-color:#4c656f;stop-opacity:1"/><stop offset="1" style="stop-color:#919aa0;stop-opacity:1"/></linearGradient><linearGradient id="_Linear14" x1="0" y1="0" x2="1" y2="0" gradientUnits="userSpaceOnUse" gradientTransform="matrix(91.0075,0,0,91.0075,131.665,69.084)"><stop offset="0" style="stop-color:#5f6769;stop-opacity:1"/><stop offset="0.2" style="stop-color:#a6aaaa;stop-opacity:1"/><stop offset="1" style="stop-color:#9c9f9f;stop-opacity:1"/></linearGradient><linearGradient id="_Linear15" x1="0" y1="0" x2="1" y2="0" gradientUnits="userSpaceOnUse" gradientTransform="matrix(0,66.6855,-66.6855,0,35.0746,106.754)"><stop offset="0" style="stop-color:#ecf7fc;stop-opacity:1"/><stop offset="1" style="stop-color:#fff;stop-opacity:1"/></linearGradient><linearGradient id="_Linear16" x1="0" y1="0" x2="1" y2="0" gradientUnits="userSpaceOnUse" gradientTransform="matrix(144.409,7.10543e-15,-7.10543e-15,144.409,104.956,349.677)"><stop offset="0" style="stop-color:#afb1b0;stop-opacity:1"/><stop offset="0.67" style="stop-color:#819097;stop-opacity:1"/><stop offset="0.82" style="stop-color:#315c6c;stop-opacity:1"/><stop offset="1" style="stop-color:#9ca09f;stop-opacity:1"/></linearGradient><linearGradient id="_Linear17" x1="0" y1="0" x2="1" y2="0" gradientUnits="userSpaceOnUse" gradientTransform="matrix(0,141.668,-141.668,0,349.695,106.192)"><stop offset="0" style="stop-color:#4d798a;stop-opacity:1"/><stop offset="0.43" style="stop-color:#c5c9c9;stop-opacity:1"/><stop offset="0.63" style="stop-color:#c2c6c6;stop-opacity:1"/><stop offset="1" style="stop-color:#9ca09f;stop-opacity:1"/></linearGradient><linearGradient id="_Linear18" x1="0" y1="0" x2="1" y2="0" gradientUnits="userSpaceOnUse" gradientTransform="matrix(0,86.1174,-86.1174,0,285.258,133.621)"><stop offset="0" style="stop-color:#546974;stop-opacity:1"/><stop offset="0.47" style="stop-color:#979b99;stop-opacity:1"/><stop offset="1" style="stop-color:#9ca09f;stop-opacity:1"/></linearGradient><linearGradient id="_Linear19" x1="0" y1="0" x2="1" y2="0" gradientUnits="userSpaceOnUse" gradientTransform="matrix(91.0075,0,0,91.0075,131.665,285.244)"><stop offset="0" style="stop-color:#b5bbbc;stop-opacity:1"/><stop offset="0.82" style="stop-color:#86959d;stop-opacity:1"/><stop offset="0.98" style="stop-color:#305c6d;stop-opacity:1"/><stop offset="1" style="stop-color:#305c6d;stop-opacity:1"/></linearGradient><linearGradient id="_Linear20" x1="0" y1="0" x2="1" y2="0" gradientUnits="userSpaceOnUse" gradientTransform="matrix(-3.55271e-15,87.4991,-87.4991,-3.55271e-15,69.0836,132.931)"><stop offset="0" style="stop-color:#bdc6cf;stop-opacity:1"/><stop offset="0.49" style="stop-color:#fff;stop-opacity:1"/><stop offset="0.97" style="stop-color:#e0f0f5;stop-opacity:1"/><stop offset="1" style="stop-color:#e0f0f5;stop-opacity:1"/></linearGradient><linearGradient id="_Linear21" x1="0" y1="0" x2="1" y2="0" gradientUnits="userSpaceOnUse" gradientTransform="matrix(97.746,97.7449,-97.7449,97.746,249.68,5.70709)"><stop offset="0" style="stop-color:#8e979d;stop-opacity:1"/><stop offset="0.2" style="stop-color:#768e9d;stop-opacity:1"/><stop offset="0.3" style="stop-color:#929ca0;stop-opacity:1"/><stop offset="0.38" style="stop-color:#557d99;stop-opacity:1"/><stop offset="0.68" style="stop-color:#6b7a7c;stop-opacity:1"/><stop offset="0.97" style="stop-color:#4d798a;stop-opacity:1"/><stop offset="1" style="stop-color:#4d798a;stop-opacity:1"/></linearGradient><linearGradient id="_Linear22" x1="0" y1="0" x2="1" y2="0" gradientUnits="userSpaceOnUse" gradientTransform="matrix(99.4254,-99.4257,99.4257,99.4254,5.54313,104.819)"><stop offset="0" style="stop-color:#ecf7fc;stop-opacity:1"/><stop offset="0.2" style="stop-color:#f1f2f3;stop-opacity:1"/><stop offset="0.34" style="stop-color:#7e919a;stop-opacity:1"/><stop offset="0.58" style="stop-color:#dadada;stop-opacity:1"/><stop offset="0.95" style="stop-color:#9caab3;stop-opacity:1"/><stop offset="0.98" style="stop-color:#889ba7;stop-opacity:1"/><stop offset="1" style="stop-color:#889ba7;stop-opacity:1"/></linearGradient><linearGradient id="_Linear23" x1="0" y1="0" x2="1" y2="0" gradientUnits="userSpaceOnUse" gradientTransform="matrix(61.2835,61.2845,-61.2845,61.2835,222.697,69.846)"><stop offset="0" style="stop-color:#9c9f9f;stop-opacity:1"/><stop offset="0.75" style="stop-color:#7c868b;stop-opacity:1"/><stop offset="1" style="stop-color:#546974;stop-opacity:1"/></linearGradient><linearGradient id="_Linear24" x1="0" y1="0" x2="1" y2="0" gradientUnits="userSpaceOnUse" gradientTransform="matrix(59.0317,-59.0307,59.0307,59.0317,70.334,131.151)"><stop offset="0" style="stop-color:#bdc6cf;stop-opacity:1"/><stop offset="0.02" style="stop-color:#bdc6cf;stop-opacity:1"/><stop offset="0.24" style="stop-color:#c3cfdf;stop-opacity:1"/><stop offset="0.44" style="stop-color:#739bba;stop-opacity:1"/><stop offset="0.72" style="stop-color:#8ea4b6;stop-opacity:1"/><stop offset="0.98" style="stop-color:#5f6769;stop-opacity:1"/><stop offset="1" style="stop-color:#5f6769;stop-opacity:1"/></linearGradient><linearGradient id="_Linear25" x1="0" y1="0" x2="1" y2="0" gradientUnits="userSpaceOnUse" gradientTransform="matrix(65.8367,0,0,65.8367,221.199,254.116)"><stop offset="0" style="stop-color:#305c6d;stop-opacity:1"/><stop offset="0.27" style="stop-color:#959c9c;stop-opacity:1"/><stop offset="1" style="stop-color:#9ca09f;stop-opacity:1"/></linearGradient><linearGradient id="_Linear26" x1="0" y1="0" x2="1" y2="0" gradientUnits="userSpaceOnUse" gradientTransform="matrix(65.8366,0,0,65.8366,67.3013,254.116)"><stop offset="0" style="stop-color:#e0f0f5;stop-opacity:1"/><stop offset="0.32" style="stop-color:#a5c8e6;stop-opacity:1"/><stop offset="0.33" style="stop-color:#9ac1e3;stop-opacity:1"/><stop offset="0.49" style="stop-color:#6990a7;stop-opacity:1"/><stop offset="0.75" style="stop-color:#bfc7ca;stop-opacity:1"/><stop offset="0.96" style="stop-color:#b5bbbc;stop-opacity:1"/><stop offset="1" style="stop-color:#b5bbbc;stop-opacity:1"/></linearGradient><linearGradient id="_Linear27" x1="0" y1="0" x2="1" y2="0" gradientUnits="userSpaceOnUse" gradientTransform="matrix(97.9166,97.9166,-97.9166,97.9166,5.7092,249.685)"><stop offset="0" style="stop-color:#fff;stop-opacity:1"/><stop offset="0.32" style="stop-color:#b9c4cf;stop-opacity:1"/><stop offset="0.41" style="stop-color:#648699;stop-opacity:1"/><stop offset="0.59" style="stop-color:#87a4ba;stop-opacity:1"/><stop offset="0.72" style="stop-color:#8caac1;stop-opacity:1"/><stop offset="0.96" style="stop-color:#afb1b0;stop-opacity:1"/><stop offset="1" style="stop-color:#afb1b0;stop-opacity:1"/></linearGradient><linearGradient id="_Linear28" x1="0" y1="0" x2="1" y2="0" gradientUnits="userSpaceOnUse" gradientTransform="matrix(60.8562,0,0,60.8562,287.036,177.234)"><stop offset="0" style="stop-color:#979b99;stop-opacity:1"/><stop offset="0.59" style="stop-color:#dce1e3;stop-opacity:1"/><stop offset="1" style="stop-color:#c5cad4;stop-opacity:1"/></linearGradient><linearGradient id="_Linear29" x1="0" y1="0" x2="1" y2="0" gradientUnits="userSpaceOnUse" gradientTransform="matrix(144.409,0,0,144.409,104.956,4.65105)"><stop offset="0" style="stop-color:#889ba7;stop-opacity:1"/><stop offset="0.17" style="stop-color:#4c656f;stop-opacity:1"/><stop offset="1" style="stop-color:#919aa0;stop-opacity:1"/></linearGradient><linearGradient id="_Linear30" x1="0" y1="0" x2="1" y2="0" gradientUnits="userSpaceOnUse" gradientTransform="matrix(91.0075,0,0,91.0075,131.665,69.084)"><stop offset="0" style="stop-color:#5f6769;stop-opacity:1"/><stop offset="0.2" style="stop-color:#a6aaaa;stop-opacity:1"/><stop offset="1" style="stop-color:#9c9f9f;stop-opacity:1"/></linearGradient><linearGradient id="_Linear31" x1="0" y1="0" x2="1" y2="0" gradientUnits="userSpaceOnUse" gradientTransform="matrix(0,66.6855,-66.6855,0,35.0746,106.754)"><stop offset="0" style="stop-color:#ecf7fc;stop-opacity:1"/><stop offset="1" style="stop-color:#fff;stop-opacity:1"/></linearGradient><linearGradient id="_Linear32" x1="0" y1="0" x2="1" y2="0" gradientUnits="userSpaceOnUse" gradientTransform="matrix(144.409,7.10543e-15,-7.10543e-15,144.409,104.956,349.677)"><stop offset="0" style="stop-color:#afb1b0;stop-opacity:1"/><stop offset="0.67" style="stop-color:#819097;stop-opacity:1"/><stop offset="0.82" style="stop-color:#315c6c;stop-opacity:1"/><stop offset="1" style="stop-color:#9ca09f;stop-opacity:1"/></linearGradient><linearGradient id="_Linear33" x1="0" y1="0" x2="1" y2="0" gradientUnits="userSpaceOnUse" gradientTransform="matrix(0,141.668,-141.668,0,349.695,106.192)"><stop offset="0" style="stop-color:#4d798a;stop-opacity:1"/><stop offset="0.43" style="stop-color:#c5c9c9;stop-opacity:1"/><stop offset="0.63" style="stop-color:#c2c6c6;stop-opacity:1"/><stop offset="1" style="stop-color:#9ca09f;stop-opacity:1"/></linearGradient><linearGradient id="_Linear34" x1="0" y1="0" x2="1" y2="0" gradientUnits="userSpaceOnUse" gradientTransform="matrix(0,86.1174,-86.1174,0,285.258,133.621)"><stop offset="0" style="stop-color:#546974;stop-opacity:1"/><stop offset="0.47" style="stop-color:#979b99;stop-opacity:1"/><stop offset="1" style="stop-color:#9ca09f;stop-opacity:1"/></linearGradient><linearGradient id="_Linear35" x1="0" y1="0" x2="1" y2="0" gradientUnits="userSpaceOnUse" gradientTransform="matrix(91.0075,0,0,91.0075,131.665,285.244)"><stop offset="0" style="stop-color:#b5bbbc;stop-opacity:1"/><stop offset="0.82" style="stop-color:#86959d;stop-opacity:1"/><stop offset="0.98" style="stop-color:#305c6d;stop-opacity:1"/><stop offset="1" style="stop-color:#305c6d;stop-opacity:1"/></linearGradient></defs></svg>