<?xml version="1.0" encoding="UTF-8" standalone="no"?>
<!DOCTYPE svg PUBLIC "-//W3C//DTD SVG 1.1//EN" "http://www.w3.org/Graphics/SVG/1.1/DTD/svg11.dtd">
<svg width="100%" height="100%" viewBox="0 0 350 82" version="1.1" xmlns="http://www.w3.org/2000/svg" xmlns:xlink="http://www.w3.org/1999/xlink" xml:space="preserve" xmlns:serif="http://www.serif.com/" style="fill-rule:evenodd;clip-rule:evenodd;stroke-linejoin:round;stroke-miterlimit:2;">
    <path d="M70.102,61.026C71.422,61.821 71.854,63.542 70.967,64.801C63.658,75.165 51.739,81.343 39.057,81.343C17.636,81.343 0.009,63.716 0.009,42.295C0.009,31.189 4.748,20.593 13.027,13.189C14.175,12.163 15.934,12.394 16.876,13.613L17.752,14.747C18.694,15.965 18.46,17.709 17.328,18.753C10.756,24.816 7.013,33.361 7.013,42.303C7.013,56.443 16.373,68.989 29.928,73.016C42.9,76.869 56.977,72.106 64.945,61.169C65.852,59.924 67.556,59.491 68.875,60.286L70.102,61.026Z" style="fill:rgb(0,28,76);fill-rule:nonzero;"/>
    <path d="M51.346,26.38C53.429,26.938 55.061,28.571 55.619,30.654L59.469,45.018C60.027,47.101 59.429,49.33 57.904,50.855L47.389,61.371C45.864,62.896 43.634,63.493 41.551,62.935L27.187,59.085C25.104,58.527 23.472,56.895 22.914,54.813L19.065,40.449C18.507,38.366 19.104,36.136 20.629,34.611L31.144,24.096C32.669,22.571 34.899,21.974 36.982,22.532L51.346,26.381L51.346,26.38Z" style="fill:rgb(0,156,223);fill-rule:nonzero;"/>
    <path d="M63.18,14.547C65.263,15.105 66.895,16.737 67.453,18.82L71.303,33.184C71.861,35.267 71.263,37.496 69.738,39.021L59.223,49.537C57.698,51.062 55.468,51.659 53.385,51.101L39.021,47.252C36.938,46.694 35.306,45.062 34.748,42.979L30.899,28.615C30.341,26.532 30.938,24.302 32.463,22.777L42.978,12.262C44.503,10.737 46.733,10.14 48.816,10.698L63.18,14.547Z" style="fill:rgb(123,195,226);fill-opacity:0.69;fill-rule:nonzero;"/>
    <g transform="matrix(1.80518,0,0,1,-288.018,-8)">
        <path d="M216.838,60.298C217.392,60.298 217.89,60.198 218.333,59.998C218.776,59.798 219.1,59.581 219.303,59.348L219.303,53.648L216.561,54.148C215.803,54.248 215.226,54.539 214.829,55.023C214.432,55.506 214.234,56.214 214.234,57.148C214.234,58.114 214.446,58.881 214.871,59.448C215.296,60.014 215.951,60.298 216.838,60.298ZM216.699,39.898C218.509,39.898 219.949,40.589 221.02,41.973C222.091,43.356 222.626,45.531 222.626,48.498L222.626,59.998C222.626,60.798 222.52,61.431 222.308,61.898C222.096,62.364 221.823,62.781 221.491,63.148C220.974,63.681 220.318,64.123 219.524,64.473C218.73,64.823 217.835,64.998 216.838,64.998C214.991,64.998 213.541,64.356 212.489,63.073C211.436,61.789 210.91,59.881 210.91,57.348C210.91,55.114 211.303,53.406 212.087,52.223C212.872,51.039 214.012,50.314 215.508,50.048L219.275,49.348L219.275,48.448C219.275,47.114 219.021,46.148 218.513,45.548C218.005,44.948 217.29,44.648 216.367,44.648C215.647,44.648 214.945,44.814 214.262,45.148C213.578,45.481 212.969,45.881 212.434,46.348C212.249,46.081 212.083,45.714 211.935,45.248C211.787,44.781 211.713,44.298 211.713,43.798C211.713,42.598 212.083,41.714 212.821,41.148C213.338,40.714 213.943,40.398 214.636,40.198C215.328,39.998 216.016,39.898 216.699,39.898Z" style="fill:rgb(0,28,76);fill-rule:nonzero;"/>
    </g>
    <g transform="matrix(1.80518,0,0,1,-288.018,-8)">
        <path d="M232.653,60.298C233.207,60.298 233.706,60.198 234.149,59.998C234.592,59.798 234.915,59.581 235.118,59.348L235.118,53.648L232.376,54.148C231.619,54.248 231.042,54.539 230.645,55.023C230.248,55.506 230.05,56.214 230.05,57.148C230.05,58.114 230.262,58.881 230.687,59.448C231.111,60.014 231.767,60.298 232.653,60.298ZM232.515,39.898C234.324,39.898 235.765,40.589 236.836,41.973C237.907,43.356 238.442,45.531 238.442,48.498L238.442,59.998C238.442,60.798 238.336,61.431 238.124,61.898C237.911,62.364 237.639,62.781 237.306,63.148C236.789,63.681 236.134,64.123 235.34,64.473C234.546,64.823 233.65,64.998 232.653,64.998C230.807,64.998 229.357,64.356 228.305,63.073C227.252,61.789 226.726,59.881 226.726,57.348C226.726,55.114 227.118,53.406 227.903,52.223C228.688,51.039 229.828,50.314 231.324,50.048L235.091,49.348L235.091,48.448C235.091,47.114 234.837,46.148 234.329,45.548C233.821,44.948 233.106,44.648 232.182,44.648C231.462,44.648 230.76,44.814 230.077,45.148C229.394,45.481 228.785,45.881 228.249,46.348C228.065,46.081 227.898,45.714 227.751,45.248C227.603,44.781 227.529,44.298 227.529,43.798C227.529,42.598 227.898,41.714 228.637,41.148C229.154,40.714 229.759,40.398 230.451,40.198C231.144,39.998 231.831,39.898 232.515,39.898Z" style="fill:rgb(0,28,76);fill-rule:nonzero;"/>
    </g>
    <g transform="matrix(1.80518,0,0,1,-288.018,-8)">
        <path d="M253.454,57.548C253.454,59.881 252.974,61.706 252.014,63.023C251.054,64.339 249.66,64.998 247.832,64.998C246.354,64.998 245.145,64.598 244.203,63.798C243.262,62.998 242.791,61.931 242.791,60.598C242.791,60.031 242.865,59.506 243.012,59.023C243.16,58.539 243.354,58.164 243.594,57.898C244.111,58.498 244.711,59.031 245.394,59.498C246.078,59.964 246.853,60.198 247.721,60.198C249.29,60.198 250.075,59.331 250.075,57.598C250.075,56.864 249.937,56.273 249.66,55.823C249.383,55.373 248.958,55.048 248.386,54.848L246.807,54.098C245.459,53.564 244.457,52.731 243.802,51.598C243.146,50.464 242.818,48.948 242.818,47.048C242.818,44.948 243.298,43.223 244.259,41.873C245.219,40.523 246.548,39.848 248.247,39.848C249.134,39.848 249.928,40.006 250.629,40.323C251.331,40.639 251.88,41.098 252.277,41.698C252.674,42.298 252.873,43.014 252.873,43.848C252.873,44.414 252.804,44.923 252.665,45.373C252.527,45.823 252.347,46.164 252.125,46.398C251.903,46.164 251.603,45.906 251.225,45.623C250.846,45.339 250.417,45.106 249.937,44.923C249.457,44.739 248.977,44.648 248.496,44.648C247.776,44.648 247.209,44.856 246.793,45.273C246.378,45.689 246.17,46.281 246.17,47.048C246.17,47.614 246.29,48.098 246.53,48.498C246.77,48.898 247.176,49.214 247.749,49.448L249.161,50.048C250.657,50.681 251.746,51.606 252.43,52.823C253.113,54.039 253.454,55.614 253.454,57.548Z" style="fill:rgb(0,28,76);fill-rule:nonzero;"/>
    </g>
    <g transform="matrix(1.80518,0,0,1,-288.018,-8)">
        <path d="M286.969,58.098C286.969,60.231 286.535,61.898 285.667,63.098C284.799,64.298 283.544,64.898 281.9,64.898C280.497,64.898 279.352,64.506 278.466,63.723C277.579,62.939 277.136,62.081 277.136,61.148C277.136,60.748 277.196,60.356 277.316,59.973C277.436,59.589 277.616,59.281 277.856,59.048C278.355,59.681 278.937,60.264 279.601,60.798C280.266,61.331 281.023,61.598 281.873,61.598C283.793,61.598 284.753,60.431 284.753,58.098C284.753,57.131 284.592,56.339 284.269,55.723C283.945,55.106 283.47,54.664 282.842,54.398L280.543,53.298C279.417,52.798 278.595,52.023 278.078,50.973C277.561,49.923 277.302,48.614 277.302,47.048C277.302,45.281 277.699,43.748 278.494,42.448C279.288,41.148 280.497,40.498 282.122,40.498C282.99,40.498 283.747,40.656 284.393,40.973C285.039,41.289 285.543,41.706 285.903,42.223C286.263,42.739 286.443,43.298 286.443,43.898C286.443,44.331 286.383,44.714 286.263,45.048C286.143,45.381 285.981,45.631 285.778,45.798C285.557,45.531 285.275,45.239 284.933,44.923C284.592,44.606 284.19,44.339 283.728,44.123C283.267,43.906 282.759,43.798 282.205,43.798C281.393,43.798 280.737,44.081 280.238,44.648C279.74,45.214 279.491,46.014 279.491,47.048C279.491,47.781 279.634,48.423 279.92,48.973C280.206,49.523 280.663,49.931 281.291,50.198L283.202,51.048C284.458,51.581 285.4,52.423 286.027,53.573C286.655,54.723 286.969,56.231 286.969,58.098Z" style="fill:rgb(0,28,76);fill-rule:nonzero;"/>
    </g>
    <g transform="matrix(1.80518,0,0,1,-288.018,-8)">
        <path d="M291.705,55.798L291.705,51.248L293.921,51.248L293.921,55.598C293.921,57.731 294.235,59.264 294.863,60.198C295.491,61.131 296.359,61.598 297.467,61.598C298.205,61.598 298.833,61.456 299.35,61.173C299.867,60.889 300.273,60.598 300.569,60.298L300.569,51.248L302.785,51.248L302.785,60.148C302.785,60.848 302.734,61.406 302.632,61.823C302.531,62.239 302.286,62.648 301.898,63.048C301.492,63.481 300.91,63.898 300.153,64.298C299.396,64.698 298.492,64.898 297.439,64.898C296.22,64.898 295.182,64.573 294.323,63.923C293.464,63.273 292.813,62.273 292.37,60.923C291.927,59.573 291.705,57.864 291.705,55.798ZM302.785,53.848L300.569,53.848L300.569,41.248C300.661,41.181 300.804,41.106 300.998,41.023C301.192,40.939 301.391,40.898 301.594,40.898C302,40.898 302.3,41.039 302.494,41.323C302.688,41.606 302.785,42.081 302.785,42.748L302.785,53.848ZM293.921,53.848L291.705,53.848L291.705,41.248C291.798,41.181 291.941,41.106 292.135,41.023C292.329,40.939 292.536,40.898 292.758,40.898C293.146,40.898 293.437,41.039 293.631,41.323C293.824,41.606 293.921,42.081 293.921,42.748L293.921,53.848Z" style="fill:rgb(0,28,76);fill-rule:nonzero;"/>
    </g>
    <g transform="matrix(1.80518,0,0,1,-288.018,-8)">
        <path d="M308.13,33.848C308.13,33.148 308.269,32.556 308.546,32.073C308.823,31.589 309.165,31.348 309.571,31.348C309.995,31.348 310.337,31.589 310.596,32.073C310.854,32.556 310.983,33.148 310.983,33.848C310.983,34.548 310.854,35.139 310.596,35.623C310.337,36.106 309.995,36.348 309.571,36.348C309.165,36.348 308.823,36.106 308.546,35.623C308.269,35.139 308.13,34.548 308.13,33.848ZM308.463,51.048L310.679,51.048L310.679,64.148C310.586,64.214 310.448,64.289 310.263,64.373C310.079,64.456 309.875,64.498 309.654,64.498C309.266,64.498 308.971,64.356 308.768,64.073C308.564,63.789 308.463,63.331 308.463,62.698L308.463,51.048ZM310.679,52.998L308.463,52.998L308.463,41.248C308.555,41.181 308.698,41.106 308.892,41.023C309.086,40.939 309.294,40.898 309.515,40.898C309.903,40.898 310.194,41.039 310.388,41.323C310.582,41.606 310.679,42.081 310.679,42.748L310.679,52.998Z" style="fill:rgb(0,28,76);fill-rule:nonzero;"/>
    </g>
    <g transform="matrix(1.80518,0,0,1,-288.018,-8)">
        <path d="M316.412,51.048L318.628,51.048L318.628,57.948C318.628,59.281 318.84,60.223 319.265,60.773C319.69,61.323 320.271,61.598 321.01,61.598C321.324,61.598 321.675,61.498 322.063,61.298C322.45,61.098 322.774,60.864 323.032,60.598C323.143,60.798 323.244,61.048 323.337,61.348C323.429,61.648 323.475,61.998 323.475,62.398C323.475,63.131 323.235,63.731 322.755,64.198C322.275,64.664 321.61,64.898 320.761,64.898C319.468,64.898 318.42,64.381 317.617,63.348C316.814,62.314 316.412,60.598 316.412,58.198L316.412,51.048ZM317.548,44.948L317.548,41.648L323.171,41.648C323.226,41.781 323.281,41.998 323.337,42.298C323.392,42.598 323.42,42.914 323.42,43.248C323.42,43.781 323.346,44.198 323.198,44.498C323.05,44.798 322.847,44.948 322.589,44.948L317.548,44.948ZM318.628,52.548L316.412,52.548L316.412,34.448C316.505,34.381 316.648,34.306 316.842,34.223C317.035,34.139 317.243,34.098 317.465,34.098C317.852,34.098 318.143,34.239 318.337,34.523C318.531,34.806 318.628,35.264 318.628,35.898L318.628,52.548Z" style="fill:rgb(0,28,76);fill-rule:nonzero;"/>
    </g>
    <g transform="matrix(1.80518,0,0,1,-288.018,-8)">
        <path d="M328.461,55.248L328.35,52.098L336.715,50.048C336.641,48.214 336.29,46.706 335.662,45.523C335.035,44.339 334.167,43.748 333.059,43.748C331.914,43.748 330.968,44.489 330.22,45.973C329.472,47.456 329.098,49.581 329.098,52.348L329.098,53.448C329.227,56.114 329.712,58.139 330.552,59.523C331.392,60.906 332.542,61.598 334,61.598C334.776,61.598 335.478,61.364 336.106,60.898C336.733,60.431 337.232,59.931 337.601,59.398C337.804,59.631 337.966,59.906 338.086,60.223C338.206,60.539 338.266,60.898 338.266,61.298C338.266,61.931 338.067,62.523 337.67,63.073C337.273,63.623 336.747,64.064 336.092,64.398C335.436,64.731 334.702,64.898 333.89,64.898C332.468,64.898 331.235,64.431 330.192,63.498C329.149,62.564 328.345,61.173 327.782,59.323C327.219,57.473 326.937,55.214 326.937,52.548C326.937,50.648 327.09,48.956 327.394,47.473C327.699,45.989 328.124,44.731 328.669,43.698C329.213,42.664 329.864,41.873 330.621,41.323C331.378,40.773 332.2,40.498 333.086,40.498C334.213,40.498 335.205,40.931 336.064,41.798C336.923,42.664 337.597,43.873 338.086,45.423C338.575,46.973 338.82,48.748 338.82,50.748C338.82,51.481 338.728,52.006 338.543,52.323C338.358,52.639 338.1,52.831 337.767,52.898L328.461,55.248Z" style="fill:rgb(0,28,76);fill-rule:nonzero;"/>
    </g>
    <g transform="matrix(1.15,0,0,1.12195,-29.8,-5.85607)">
        <ellipse cx="190.435" cy="42.565" rx="3.478" ry="3.565" style="fill:rgb(0,28,76);"/>
    </g>
</svg>
