<svg width="103" height="102" viewBox="0 0 103 102" fill="none" xmlns="http://www.w3.org/2000/svg">
<path d="M87.8939 76.5139C89.548 77.5111 90.0905 79.6689 88.9778 81.2475C85.5179 86.1561 81.1783 90.3947 76.1691 93.7432C70.1891 97.7407 63.4017 100.371 56.2896 101.448C49.1776 102.525 41.9156 102.022 35.0202 99.9737C28.1249 97.9257 21.7654 94.3835 16.3943 89.599C11.0231 84.8145 6.77217 78.9053 3.94377 72.2916C1.11538 65.6779 -0.220975 58.5222 0.0297516 51.3335C0.280478 44.1448 2.11213 37.0996 5.39443 30.699C8.14385 25.3376 11.8546 20.5388 16.3321 16.5366C17.7721 15.2495 19.9779 15.54 21.159 17.0682L22.2573 18.4892C23.4384 20.0175 23.145 22.2031 21.7252 23.5126C18.2592 26.7095 15.3761 30.4982 13.2162 34.7101C10.5232 39.9615 9.0204 45.7418 8.81469 51.6399C8.60898 57.538 9.7054 63.4089 12.026 68.8352C14.3466 74.2614 17.8343 79.1097 22.2411 83.0352C26.6479 86.9607 31.8656 89.8669 37.523 91.5472C43.1804 93.2275 49.1385 93.6406 54.9737 92.7571C60.8088 91.8736 66.3776 89.7152 71.284 86.4354C75.2192 83.8048 78.6507 80.5047 81.4272 76.6935C82.5645 75.1324 84.7018 74.5893 86.3559 75.5866L87.8939 76.5139Z" fill="#001C4C"/>
<path d="M64.378 33.0756C66.9928 33.7762 69.0352 35.8186 69.7358 38.4334L74.5615 56.4431C75.2621 59.0579 74.5146 61.8479 72.6004 63.762L59.4164 76.946C57.5023 78.8602 54.7123 79.6078 52.0975 78.9071L34.0878 74.0815C31.473 73.3808 29.4306 71.3384 28.73 68.7236L23.9043 50.714C23.2037 48.0992 23.9512 45.3092 25.8654 43.395L39.0494 30.211C40.9636 28.2969 43.7535 27.5493 46.3683 28.2499L64.378 33.0756Z" fill="#009CDF"/>
<path d="M79.2154 18.2384C81.8302 18.9391 83.8726 20.9815 84.5732 23.5963L89.3989 41.6059C90.0995 44.2207 89.352 47.0107 87.4378 48.9249L74.2538 62.1089C72.3397 64.023 69.5497 64.7706 66.9349 64.07L48.9252 59.2443C46.3104 58.5437 44.268 56.5013 43.5674 53.8865L38.7417 35.8768C38.0411 33.262 38.7886 30.472 40.7028 28.5578L53.8868 15.3739C55.801 13.4597 58.5909 12.7121 61.2058 13.4128L79.2154 18.2384Z" fill="#7BC3E2" fill-opacity="0.69"/>
</svg>
